<svg width="355" height="244" viewBox="0 0 355 244" fill="none" xmlns="http://www.w3.org/2000/svg">
<g filter="url(#filter0_i_52_71)">
<rect width="355" height="244" fill="#FFEDCB"/>
<path d="M154.191 35.9922V41.3125H157.215V43.1406H154.191V48.3906H151.941V35.9922H154.191ZM147.395 48.7891C151.684 48.7891 154.355 50.2891 154.355 52.8672C154.355 55.4453 151.684 56.9688 147.395 56.9453C143.059 56.9688 140.34 55.4453 140.34 52.8672C140.34 50.2891 143.059 48.7891 147.395 48.7891ZM147.395 50.5938C144.348 50.5703 142.52 51.4141 142.543 52.8672C142.52 54.3203 144.348 55.1641 147.395 55.1641C150.371 55.1641 152.199 54.3203 152.223 52.8672C152.199 51.4141 150.371 50.5703 147.395 50.5938ZM147.934 37.5391V39.3438H140.762V45.0625C144.898 45.0508 147.23 44.9219 149.879 44.3828L150.09 46.1875C147.277 46.7734 144.77 46.8672 140.223 46.8672H138.559V37.5391H147.934ZM175.824 36.0156V51.3906H173.598V36.0156H175.824ZM176.457 54.7422V56.5469H162.09V49.9375H164.34V54.7422H176.457ZM166.051 39.25C166.027 42.3203 167.996 45.1328 171.23 46.2578L170.082 48.0391C167.656 47.1367 165.863 45.3555 164.926 43.0703C164 45.5078 162.184 47.4648 159.723 48.4141L158.527 46.6562C161.832 45.4375 163.777 42.4141 163.777 39.25V37.1641H166.051V39.25ZM198.301 46.9609V48.7422H179.152V46.9609H198.301ZM196.145 54.7422V56.5469H181.566V50.4531H183.816V54.7422H196.145ZM188.715 36.6953C193.262 36.6719 196.215 38.2656 196.215 40.8906C196.215 43.5391 193.262 45.1328 188.715 45.1562C184.145 45.1328 181.215 43.5391 181.215 40.8906C181.215 38.2656 184.145 36.6719 188.715 36.6953ZM188.715 38.4766C185.504 38.4766 183.488 39.3906 183.512 40.8906C183.488 42.4375 185.504 43.3281 188.715 43.3281C191.926 43.3281 193.918 42.4375 193.918 40.8906C193.918 39.3906 191.926 38.4766 188.715 38.4766ZM202.285 55.1641C201.371 55.1641 200.598 54.4141 200.621 53.5C200.598 52.5859 201.371 51.8359 202.285 51.8359C203.176 51.8359 203.949 52.5859 203.949 53.5C203.949 54.4141 203.176 55.1641 202.285 55.1641ZM208.613 55.1641C207.699 55.1641 206.926 54.4141 206.949 53.5C206.926 52.5859 207.699 51.8359 208.613 51.8359C209.504 51.8359 210.277 52.5859 210.277 53.5C210.277 54.4141 209.504 55.1641 208.613 55.1641ZM214.941 55.1641C214.027 55.1641 213.254 54.4141 213.277 53.5C213.254 52.5859 214.027 51.8359 214.941 51.8359C215.832 51.8359 216.605 52.5859 216.605 53.5C216.605 54.4141 215.832 55.1641 214.941 55.1641ZM114.629 73.6875L116.645 67.0078H119.129L117.957 73.6875H114.629ZM119.832 73.6875L121.848 67.0078H124.332L123.16 73.6875H119.832ZM143.105 64.8281V72.75H146.246V75.1875H143.105V86.2031H140.105V64.8281H143.105ZM137.129 66.7969V69.2109H130.098V78.5625C133.191 78.5273 135.746 78.3867 138.582 77.8828L138.91 80.3906C135.605 80.9531 132.699 81.0469 128.926 81.0234H127.121V66.7969H137.129ZM165.629 64.8281V86.1562H162.77V75.4688H160.965V85.1719H158.129V79.0547L156.441 81.3047C154.461 80.2617 153.184 78.4922 152.434 76.2891C151.719 78.8203 150.453 80.8711 148.426 82.0781L146.574 79.7812C149.809 77.9531 150.91 74.1797 150.91 70.1016V69.4219H147.301V67.0312H157.074V69.4219H153.816V70.1016C153.816 73.8164 154.918 77.3555 158.129 79.0078V65.1328H160.965V73.0312H162.77V64.8281H165.629ZM184.59 64.8281V72.75H187.73V75.1875H184.59V86.2031H181.59V64.8281H184.59ZM178.613 66.7969V69.2109H171.582V78.5625C174.676 78.5273 177.23 78.3867 180.066 77.8828L180.395 80.3906C177.09 80.9531 174.184 81.0469 170.41 81.0234H168.605V66.7969H178.613ZM205.801 70.1719V72.5625H190.965V65.1562H193.941V70.1719H205.801ZM208.004 74.3906V76.8281H188.504V74.3906H208.004ZM198.207 78.1641C202.824 78.1875 205.613 79.6172 205.637 82.125C205.613 84.6562 202.824 86.0859 198.207 86.0859C193.543 86.0859 190.73 84.6562 190.73 82.125C190.73 79.6172 193.543 78.1875 198.207 78.1641ZM198.207 80.4844C195.254 80.5078 193.754 81 193.777 82.125C193.754 83.2266 195.254 83.8125 198.207 83.8125C201.09 83.8125 202.613 83.2266 202.637 82.125C202.613 81 201.09 80.5078 198.207 80.4844ZM221.152 66.7969V69.1641H209.293V66.7969H213.887V64.6406H216.863V66.7969H221.152ZM215.34 69.8672C218.27 69.8906 220.379 71.5078 220.402 73.875C220.379 76.2656 218.27 77.8594 215.34 77.8359C212.387 77.8594 210.324 76.2656 210.348 73.875C210.324 71.5078 212.387 69.8906 215.34 69.8672ZM215.34 72.0938C213.98 72.0938 213.113 72.7266 213.137 73.875C213.113 75.0234 213.98 75.6328 215.34 75.6328C216.676 75.6328 217.613 75.0234 217.613 73.875C217.613 72.7266 216.676 72.0938 215.34 72.0938ZM227.223 64.8281V78.4219H224.246V76.1719H221.34V73.7812H224.246V71.9062H221.387V69.5156H224.246V64.8281H227.223ZM219.98 78.6797C224.504 78.6797 227.34 80.0625 227.34 82.4297C227.34 84.75 224.504 86.1562 219.98 86.1562C215.434 86.1562 212.621 84.75 212.621 82.4297C212.621 80.0625 215.434 78.6797 219.98 78.6797ZM219.98 80.9297C217.262 80.9531 215.762 81.4219 215.762 82.4297C215.762 83.3906 217.262 83.9062 219.98 83.9062C222.652 83.9062 224.129 83.3906 224.129 82.4297C224.129 81.4219 222.652 80.9531 219.98 80.9297ZM240.371 67.0312L238.355 73.7109H235.871L237.043 67.0312H240.371ZM235.168 67.0312L233.152 73.7109H230.668L231.84 67.0312H235.168ZM43.7891 119.328V124.75H46.0391V125.969H43.7891V133.359H42.3047V119.328H43.7891ZM40.0234 120.672V121.875H34.9609V128.641C37.3125 128.633 39.0781 128.531 41.0703 128.172L41.2578 129.422C39.0703 129.812 37.2109 129.891 34.6016 129.875H33.4766V120.672H40.0234ZM59.6953 121.312V122.531H57.7109V124.312H59.6953V125.547H57.7109V127.594H56.2266V119.328H57.7109V121.312H59.6953ZM50.6484 120.141C52.7891 120.141 54.3672 121.5 54.3828 123.469C54.3672 125.422 52.7891 126.781 50.6484 126.797C48.5078 126.781 46.9141 125.422 46.9297 123.469C46.9141 121.5 48.5078 120.141 50.6484 120.141ZM50.6484 121.391C49.3359 121.391 48.3672 122.234 48.3828 123.469C48.3672 124.719 49.3359 125.531 50.6484 125.547C51.9609 125.531 52.9297 124.719 52.9297 123.469C52.9297 122.234 51.9609 121.391 50.6484 121.391ZM53.1953 127.969C56.0547 127.969 57.8359 128.953 57.8359 130.641C57.8359 132.312 56.0547 133.312 53.1953 133.297C50.3047 133.312 48.4922 132.312 48.4922 130.641C48.4922 128.953 50.3047 127.969 53.1953 127.969ZM53.1953 129.172C51.1641 129.172 49.9609 129.703 49.9766 130.641C49.9609 131.594 51.1641 132.109 53.1953 132.109C55.2109 132.109 56.3828 131.594 56.3828 130.641C56.3828 129.703 55.2109 129.172 53.1953 129.172ZM71.5391 119.344V123.844H73.5703V125.078H71.5391V129.812H70.0547V119.344H71.5391ZM68.8984 120.969V122.172H60.5547V120.969H63.9922V119.328H65.4766V120.969H68.8984ZM64.7266 122.844C66.7422 122.844 68.1172 123.891 68.1172 125.484C68.1172 127.078 66.7422 128.109 64.7266 128.109C62.6953 128.109 61.3203 127.078 61.3203 125.484C61.3203 123.891 62.6953 122.844 64.7266 122.844ZM64.7266 123.984C63.5391 123.984 62.7422 124.562 62.7578 125.484C62.7422 126.391 63.5391 126.953 64.7266 126.953C65.9141 126.953 66.7109 126.391 66.7266 125.484C66.7109 124.562 65.9141 123.984 64.7266 123.984ZM72.1328 131.828V133.031H62.6641V128.984H64.1484V131.828H72.1328ZM83.2422 121.422C83.2422 123.391 84.5078 125.141 86.6328 125.828L85.8203 126.984C84.2812 126.43 83.1484 125.352 82.5391 123.953C81.9297 125.555 80.7109 126.797 79.0234 127.406L78.2266 126.219C80.4609 125.453 81.7578 123.594 81.7734 121.484V120.109H83.2422V121.422ZM89.9453 119.328V127.594H88.4609V123.391H85.5078V122.172H88.4609V119.328H89.9453ZM85.2578 127.984C88.1953 127.984 89.9922 128.953 89.9922 130.656C89.9922 132.344 88.1953 133.312 85.2578 133.297C82.3203 133.312 80.5078 132.344 80.5234 130.656C80.5078 128.953 82.3203 127.984 85.2578 127.984ZM85.2578 129.141C83.2109 129.141 81.9922 129.688 81.9922 130.656C81.9922 131.594 83.2109 132.125 85.2578 132.125C87.3047 132.125 88.5234 131.594 88.5234 130.656C88.5234 129.688 87.3047 129.141 85.2578 129.141ZM105.086 121.641V122.859H103.102V124.625H105.086V125.844H103.102V128.312H101.617V119.328H103.102V121.641H105.086ZM98.6328 128.422C101.492 128.422 103.258 129.328 103.258 130.875C103.258 132.391 101.492 133.312 98.6328 133.297C95.7422 133.312 93.9766 132.391 93.9922 130.875C93.9766 129.328 95.7422 128.422 98.6328 128.422ZM98.6328 129.562C96.6172 129.562 95.4453 130.016 95.4609 130.875C95.4453 131.688 96.6172 132.172 98.6328 132.172C100.617 132.172 101.789 131.688 101.789 130.875C101.789 130.016 100.617 129.562 98.6328 129.562ZM100.461 120.828V122H92.1172V120.828H95.5547V119.219H97.0391V120.828H100.461ZM96.2891 122.641C98.3047 122.641 99.6797 123.641 99.6797 125.141C99.6797 126.641 98.3047 127.625 96.2891 127.609C94.2422 127.625 92.8828 126.641 92.8828 125.141C92.8828 123.641 94.2422 122.641 96.2891 122.641ZM96.2891 123.75C95.1016 123.75 94.3047 124.281 94.3203 125.141C94.3047 125.969 95.1016 126.484 96.2891 126.484C97.4766 126.484 98.2734 125.969 98.2891 125.141C98.2734 124.281 97.4766 123.75 96.2891 123.75ZM112.305 119.562C115.461 119.562 117.305 120.406 117.305 121.969C117.305 123.531 115.461 124.391 112.305 124.391C109.148 124.391 107.305 123.531 107.305 121.969C107.305 120.406 109.148 119.562 112.305 119.562ZM112.305 120.656C110.07 120.656 108.836 121.141 108.852 121.969C108.836 122.828 110.07 123.281 112.305 123.281C114.539 123.281 115.773 122.828 115.773 121.969C115.773 121.141 114.539 120.656 112.305 120.656ZM118.695 125.25V126.438H105.93V125.25H118.695ZM117.086 127.516V130.797H108.93V132.047H117.477V133.188H107.477V129.719H115.617V128.625H107.461V127.516H117.086ZM134.57 119.328V124.906H136.742V126.141H134.57V133.312H133.086V119.328H134.57ZM130.914 120.797C130.898 124.844 129.117 128.453 124.508 130.734L123.68 129.578C127.188 127.828 129.094 125.297 129.398 122.031H124.383V120.797H130.914ZM142.68 122.25C142.68 124.062 144.023 125.766 146.18 126.453L145.414 127.609C143.805 127.078 142.586 125.977 141.961 124.578C141.328 126.102 140.086 127.305 138.414 127.891L137.648 126.719C139.82 125.984 141.164 124.172 141.18 122.25V121.641H138.039V120.438H145.758V121.641H142.68V122.25ZM149.102 119.344V129.562H147.617V119.344H149.102ZM149.523 131.828V133.031H139.945V128.594H141.445V131.828H149.523ZM166.242 119.328V122.875H168.258V124.094H166.242V127.594H164.742V119.328H166.242ZM161.711 127.859C164.57 127.859 166.352 128.859 166.352 130.578C166.352 132.297 164.57 133.312 161.711 133.297C158.82 133.312 157.008 132.297 157.008 130.578C157.008 128.859 158.82 127.859 161.711 127.859ZM161.711 129.062C159.68 129.047 158.461 129.609 158.477 130.578C158.461 131.547 159.68 132.109 161.711 132.109C163.695 132.109 164.914 131.547 164.93 130.578C164.914 129.609 163.695 129.047 161.711 129.062ZM162.07 120.359V121.562H157.289V125.375C160.047 125.367 161.602 125.281 163.367 124.922L163.508 126.125C161.633 126.516 159.961 126.578 156.93 126.578H155.82V120.359H162.07ZM180.664 119.344V129.594H179.18V119.344H180.664ZM181.086 131.828V133.031H171.508V128.625H173.008V131.828H181.086ZM174.148 121.5C174.133 123.547 175.445 125.422 177.602 126.172L176.836 127.359C175.219 126.758 174.023 125.57 173.398 124.047C172.781 125.672 171.57 126.977 169.93 127.609L169.133 126.438C171.336 125.625 172.633 123.609 172.633 121.5V120.109H174.148V121.5ZM195.648 126.641V127.828H182.883V126.641H195.648ZM194.211 131.828V133.031H184.492V128.969H185.992V131.828H194.211ZM189.258 119.797C192.289 119.781 194.258 120.844 194.258 122.594C194.258 124.359 192.289 125.422 189.258 125.438C186.211 125.422 184.258 124.359 184.258 122.594C184.258 120.844 186.211 119.781 189.258 119.797ZM189.258 120.984C187.117 120.984 185.773 121.594 185.789 122.594C185.773 123.625 187.117 124.219 189.258 124.219C191.398 124.219 192.727 123.625 192.727 122.594C192.727 121.594 191.398 120.984 189.258 120.984ZM199.227 130.922L197.977 135.234H196.648L197.477 130.922H199.227ZM216.383 119.328V127.656H214.898V124.109H212.289V122.891H214.898V119.328H216.383ZM211.695 128.047C214.633 128.047 216.43 129.016 216.43 130.688C216.43 132.359 214.633 133.312 211.695 133.328C208.758 133.312 206.945 132.359 206.961 130.688C206.945 129.016 208.758 128.047 211.695 128.047ZM211.695 129.203C209.648 129.203 208.43 129.734 208.43 130.688C208.43 131.625 209.648 132.172 211.695 132.156C213.742 132.172 214.961 131.625 214.961 130.688C214.961 129.734 213.742 129.203 211.695 129.203ZM209.727 121.797C209.727 123.578 210.992 125.297 213.102 126.016L212.336 127.188C210.766 126.641 209.609 125.523 209.008 124.141C208.391 125.711 207.164 126.969 205.492 127.578L204.711 126.391C206.883 125.641 208.211 123.75 208.211 121.812V121.5H205.18V120.297H212.727V121.5H209.727V121.797ZM225.461 121.641V122.844H218.508V121.641H221.258V119.734H222.727V121.641H225.461ZM221.992 123.688C223.773 123.688 225.023 125.016 225.039 126.906C225.023 128.812 223.773 130.156 221.992 130.156C220.242 130.156 218.945 128.812 218.961 126.906C218.945 125.016 220.242 123.688 221.992 123.688ZM221.992 124.922C220.977 124.922 220.273 125.75 220.273 126.906C220.273 128.094 220.977 128.891 221.992 128.891C222.992 128.891 223.727 128.094 223.727 126.906C223.727 125.75 222.992 124.922 221.992 124.922ZM230.523 119.328V133.328H229.117V126.375H227.508V132.672H226.102V119.641H227.508V125.156H229.117V119.328H230.523ZM237.555 122.25C237.555 124.062 238.898 125.766 241.055 126.453L240.289 127.609C238.68 127.078 237.461 125.977 236.836 124.578C236.203 126.102 234.961 127.305 233.289 127.891L232.523 126.719C234.695 125.984 236.039 124.172 236.055 122.25V121.641H232.914V120.438H240.633V121.641H237.555V122.25ZM243.977 119.344V129.562H242.492V119.344H243.977ZM244.398 131.828V133.031H234.82V128.594H236.32V131.828H244.398ZM261.398 123.75V124.797H251.742V119.656H261.305V120.703H253.242V121.688H260.945V122.703H253.242V123.75H261.398ZM262.852 125.734V126.875H250.117V125.734H262.852ZM261.258 127.812V130.953H253.102V132.094H261.648V133.188H251.648V129.922H259.789V128.875H251.633V127.812H261.258ZM276.742 130.359V131.594H263.93V130.359H269.57V127.484H265.398V120.281H266.883V122.688H273.758V120.281H275.227V127.484H271.039V130.359H276.742ZM266.883 126.281H273.758V123.891H266.883V126.281ZM288.664 119.328V124.75H290.914V125.969H288.664V133.359H287.18V119.328H288.664ZM284.898 120.672V121.875H279.836V128.641C282.188 128.633 283.953 128.531 285.945 128.172L286.133 129.422C283.945 129.812 282.086 129.891 279.477 129.875H278.352V120.672H284.898ZM302.914 123.422V124.609H293.273V119.828H294.742V123.422H302.914ZM304.383 126.375V127.562H291.57V126.375H304.383ZM303.008 131.781V133H293.164V128.891H294.648V131.781H303.008ZM314.148 121.562C314.148 123.406 315.43 125.109 317.523 125.797L316.727 126.969C315.195 126.43 314.047 125.336 313.445 123.953C312.828 125.523 311.641 126.75 310.008 127.359L309.211 126.172C311.398 125.391 312.664 123.531 312.68 121.438V120.062H314.148V121.562ZM320.32 119.328V122.844H322.352V124.094H320.32V127.781H318.836V119.328H320.32ZM315.805 128.109C318.68 128.109 320.445 129.062 320.445 130.703C320.445 132.359 318.68 133.312 315.805 133.297C312.898 133.312 311.102 132.359 311.102 130.703C311.102 129.062 312.898 128.109 315.805 128.109ZM315.805 129.281C313.773 129.281 312.57 129.812 312.586 130.703C312.57 131.625 313.773 132.125 315.805 132.141C317.82 132.125 318.992 131.625 318.992 130.703C318.992 129.812 317.82 129.281 315.805 129.281ZM50.8125 138.344V142.469H52.8125V143.703H50.8125V147.812H49.3281V138.344H50.8125ZM46.2344 147.969C49.1875 147.953 50.8906 148.734 50.9062 150.156C50.8906 151.562 49.1875 152.312 46.2344 152.328C43.2656 152.312 41.5625 151.562 41.5625 150.156C41.5625 148.734 43.2656 147.953 46.2344 147.969ZM46.2344 149.062C44.1406 149.062 43.0469 149.453 43.0625 150.156C43.0469 150.828 44.1406 151.219 46.2344 151.219C48.2969 151.219 49.3906 150.828 49.3906 150.156C49.3906 149.453 48.2969 149.062 46.2344 149.062ZM39.7031 146.094C40.7891 146.102 42.0469 146.102 43.3594 146.062V145.031C41.75 144.875 40.75 144.156 40.7656 143.078C40.75 141.828 42.0625 141.094 44.0938 141.094C46.1094 141.094 47.4219 141.828 47.4219 143.078C47.4219 144.148 46.4297 144.867 44.8438 145.031V146C46.0938 145.938 47.3594 145.836 48.5312 145.672L48.6562 146.703C45.6562 147.219 42.3438 147.266 39.8594 147.266L39.7031 146.094ZM48.1406 139.469V140.578H40.0625V139.469H43.3594V138.219H44.8438V139.469H48.1406ZM44.0938 142.094C42.8906 142.094 42.1719 142.469 42.1719 143.078C42.1719 143.703 42.8906 144.078 44.0938 144.078C45.2812 144.078 46 143.703 46 143.078C46 142.469 45.2812 142.094 44.0938 142.094ZM65.6719 138.328V152.328H64.25V138.328H65.6719ZM62.8281 138.594V151.641H61.4062V144.891H59.8281C59.7031 147.625 58.5312 149.328 56.7969 149.312C54.9688 149.328 53.7812 147.406 53.7812 144.375C53.7812 141.344 54.9688 139.438 56.7969 139.453C58.5 139.438 59.6562 141.055 59.8281 143.688H61.4062V138.594H62.8281ZM56.7969 140.844C55.7812 140.844 55.1562 142.141 55.1562 144.375C55.1562 146.609 55.7812 147.906 56.7969 147.906C57.8281 147.906 58.4688 146.609 58.4688 144.375C58.4688 142.141 57.8281 140.844 56.7969 140.844ZM82.5156 138.297V143.734H84.4375V144.984H82.5156V152.328H81.0312V138.297H82.5156ZM75.3281 139.766V140.984H73.2188V147.484C73.8906 147.461 74.6328 147.391 75.4531 147.219L75.5781 148.453C74.3125 148.703 73.3125 148.734 72.375 148.734H71.7344V139.766H75.3281ZM79.8438 139.766V140.984H77.5625V147.484C78.5859 147.477 79.3594 147.406 80.2188 147.188L80.3438 148.422C79.2188 148.703 78.2969 148.734 76.7969 148.734H76.1094V139.766H79.8438ZM96.0938 138.328V143.797H98.3438V145.047H96.0938V152.359H94.625V138.328H96.0938ZM92.1406 139.594V144.734H87.2344V147.766C89.6406 147.758 91.4219 147.672 93.4688 147.297L93.6094 148.5C91.4219 148.906 89.5312 149 86.9062 149.016H85.7656V143.531H90.6719V140.797H85.7344V139.594H92.1406ZM114.594 147.312V152.328H113.109V148.484H105.109V147.312H114.594ZM114.594 138.328V146.578H113.109V144.656H109.656C109.008 145.422 107.984 145.883 106.797 145.875C104.688 145.891 103.125 144.484 103.125 142.484C103.125 140.516 104.688 139.094 106.797 139.109C107.984 139.102 109 139.562 109.656 140.328H113.109V138.328H114.594ZM106.797 140.359C105.484 140.359 104.547 141.234 104.547 142.484C104.547 143.766 105.484 144.625 106.797 144.625C108.062 144.625 109.016 143.766 109.016 142.484C109.016 141.234 108.062 140.359 106.797 140.359ZM110.312 143.438H113.109V141.547H110.312C110.391 141.844 110.438 142.156 110.438 142.484C110.438 142.82 110.391 143.141 110.312 143.438ZM127.75 138.281V141.562H129.797V142.781H127.75V145.984H126.266V138.281H127.75ZM127.75 146.641V149.891H120.188V151.062H128.234V152.188H118.734V148.844H126.281V147.75H118.703V146.641H127.75ZM125.109 139.516V140.688H116.766V139.516H120.203V138.203H121.688V139.516H125.109ZM120.938 141.219C122.984 141.219 124.328 142.094 124.328 143.516C124.328 144.938 122.984 145.797 120.938 145.797C118.875 145.797 117.531 144.938 117.531 143.516C117.531 142.094 118.875 141.219 120.938 141.219ZM120.938 142.281C119.734 142.281 118.953 142.766 118.969 143.516C118.953 144.266 119.734 144.719 120.938 144.719C122.141 144.719 122.922 144.266 122.938 143.516C122.922 142.766 122.141 142.281 120.938 142.281ZM136.953 138.562C140.109 138.562 141.953 139.406 141.953 140.969C141.953 142.531 140.109 143.391 136.953 143.391C133.797 143.391 131.953 142.531 131.953 140.969C131.953 139.406 133.797 138.562 136.953 138.562ZM136.953 139.656C134.719 139.656 133.484 140.141 133.5 140.969C133.484 141.828 134.719 142.281 136.953 142.281C139.188 142.281 140.422 141.828 140.422 140.969C140.422 140.141 139.188 139.656 136.953 139.656ZM143.344 144.25V145.438H130.578V144.25H143.344ZM141.734 146.516V149.797H133.578V151.047H142.125V152.188H132.125V148.719H140.266V147.625H132.109V146.516H141.734ZM159.219 138.328V143.75H161.469V145H159.219V152.328H157.734V138.328H159.219ZM150.312 139.5V143.094H154.016V139.5H155.484V149H148.844V139.5H150.312ZM150.312 147.781H154.016V144.266H150.312V147.781ZM174.906 145.031V146.266H169.234V152.328H167.75V146.266H162.141V145.031H165.641C166.18 143.016 166.273 141.508 166.297 140.469H163.156V139.266H167.75V139.844C167.75 140.805 167.75 142.547 167.141 145.031H171.5C171.93 143.016 171.992 141.523 172 140.469H168.766V139.266H173.469V140C173.469 141.016 173.469 142.688 173 145.031H174.906ZM187.297 139.672V141.047C187.297 142.781 187.297 144.719 186.766 147.578L185.266 147.422C185.812 144.719 185.812 142.734 185.812 141.047V140.875H177.312V139.672H187.297ZM188.734 149.203V150.438H175.969V149.203H180.828V144.266H182.297V149.203H188.734ZM192.312 149.922L191.062 154.234H189.734L190.562 149.922H192.312ZM205.328 139.156V140.375H200.094V141.906H204.938V143.062H200.094V144.688C202.898 144.688 204.531 144.641 206.422 144.312L206.578 145.5C204.547 145.844 202.812 145.891 199.75 145.875H198.594V139.156H205.328ZM209.406 138.344V146.672H207.922V138.344H209.406ZM209.406 147.328V152.156H200.203V147.328H209.406ZM201.672 148.484V150.953H207.953V148.484H201.672ZM216.188 139.328C218.406 139.312 219.984 140.688 220 142.656C219.984 144.625 218.406 146 216.188 146C213.984 146 212.359 144.625 212.375 142.656C212.359 140.688 213.984 139.312 216.188 139.328ZM216.188 140.609C214.828 140.609 213.828 141.422 213.844 142.656C213.828 143.891 214.828 144.703 216.188 144.703C217.547 144.703 218.547 143.891 218.547 142.656C218.547 141.422 217.547 140.609 216.188 140.609ZM223.203 138.328V152.359H221.719V138.328H223.203ZM211.703 148.109C214.25 148.109 217.781 148.078 220.844 147.641L220.953 148.719C217.781 149.328 214.391 149.344 211.891 149.344L211.703 148.109ZM240.266 138.328V143.75H242.516V144.969H240.266V152.359H238.781V138.328H240.266ZM236.5 139.672V140.875H231.438V147.641C233.789 147.633 235.555 147.531 237.547 147.172L237.734 148.422C235.547 148.812 233.688 148.891 231.078 148.875H229.953V139.672H236.5ZM256.172 140.312V141.531H254.188V143.312H256.172V144.547H254.188V146.594H252.703V138.328H254.188V140.312H256.172ZM247.125 139.141C249.266 139.141 250.844 140.5 250.859 142.469C250.844 144.422 249.266 145.781 247.125 145.797C244.984 145.781 243.391 144.422 243.406 142.469C243.391 140.5 244.984 139.141 247.125 139.141ZM247.125 140.391C245.812 140.391 244.844 141.234 244.859 142.469C244.844 143.719 245.812 144.531 247.125 144.547C248.438 144.531 249.406 143.719 249.406 142.469C249.406 141.234 248.438 140.391 247.125 140.391ZM249.672 146.969C252.531 146.969 254.312 147.953 254.312 149.641C254.312 151.312 252.531 152.312 249.672 152.297C246.781 152.312 244.969 151.312 244.969 149.641C244.969 147.953 246.781 146.969 249.672 146.969ZM249.672 148.172C247.641 148.172 246.438 148.703 246.453 149.641C246.438 150.594 247.641 151.109 249.672 151.109C251.688 151.109 252.859 150.594 252.859 149.641C252.859 148.703 251.688 148.172 249.672 148.172ZM268.016 138.344V142.844H270.047V144.078H268.016V148.812H266.531V138.344H268.016ZM265.375 139.969V141.172H257.031V139.969H260.469V138.328H261.953V139.969H265.375ZM261.203 141.844C263.219 141.844 264.594 142.891 264.594 144.484C264.594 146.078 263.219 147.109 261.203 147.109C259.172 147.109 257.797 146.078 257.797 144.484C257.797 142.891 259.172 141.844 261.203 141.844ZM261.203 142.984C260.016 142.984 259.219 143.562 259.234 144.484C259.219 145.391 260.016 145.953 261.203 145.953C262.391 145.953 263.188 145.391 263.203 144.484C263.188 143.562 262.391 142.984 261.203 142.984ZM268.609 150.828V152.031H259.141V147.984H260.625V150.828H268.609ZM287.562 149.344V150.578H274.75V149.344H277.812V145.688C276.664 145.055 275.969 144.047 275.969 142.797C275.969 140.594 278.125 139.141 281.125 139.141C284.141 139.141 286.297 140.594 286.297 142.797C286.297 144.031 285.625 145.023 284.5 145.656V149.344H287.562ZM281.125 140.328C278.922 140.328 277.406 141.281 277.406 142.797C277.406 144.297 278.922 145.281 281.125 145.281C283.312 145.281 284.859 144.297 284.859 142.797C284.859 141.281 283.312 140.328 281.125 140.328ZM279.281 149.344H283V146.219C282.43 146.367 281.797 146.438 281.125 146.438C280.469 146.438 279.844 146.367 279.281 146.234V149.344ZM299.719 139.203V140.438C299.719 141.766 299.719 143.203 299.328 145.203H301.344V146.422H295.672V152.344H294.172V146.422H288.578V145.203H297.828C298.25 143.211 298.25 141.742 298.25 140.438V140.422H290.141V139.203H299.719ZM314.453 138.328V152.328H313.031V138.328H314.453ZM311.609 138.594V151.641H310.188V144.891H308.609C308.484 147.625 307.312 149.328 305.578 149.312C303.75 149.328 302.562 147.406 302.562 144.375C302.562 141.344 303.75 139.438 305.578 139.453C307.281 139.438 308.438 141.055 308.609 143.688H310.188V138.594H311.609ZM305.578 140.844C304.562 140.844 303.938 142.141 303.938 144.375C303.938 146.609 304.562 147.906 305.578 147.906C306.609 147.906 307.25 146.609 307.25 144.375C307.25 142.141 306.609 140.844 305.578 140.844ZM40.75 165.234V166.453H37.5V171.328H36V166.453H32.6562V171.328H31.125V166.453H27.9375V165.234H40.75ZM34.3125 157.859C37.2656 157.859 39.2969 159.062 39.2969 160.953C39.2969 162.812 37.2656 164 34.3125 163.984C31.3438 164 29.3281 162.812 29.3281 160.953C29.3281 159.062 31.3438 157.859 34.3125 157.859ZM34.3125 159.047C32.2344 159.062 30.8438 159.781 30.8594 160.953C30.8438 162.094 32.2344 162.812 34.3125 162.812C36.3906 162.812 37.7812 162.094 37.7812 160.953C37.7812 159.781 36.3906 159.062 34.3125 159.047ZM53.4531 157.344V167.656H51.9688V164.016H48.5C47.8359 164.805 46.8203 165.281 45.6562 165.281C43.5469 165.281 41.9844 163.812 41.9844 161.75C41.9844 159.672 43.5469 158.203 45.6562 158.188C46.8125 158.195 47.8203 158.672 48.4844 159.453H51.9688V157.344H53.4531ZM53.8281 169.828V171.031H44.3594V166.578H45.8438V169.828H53.8281ZM45.6562 159.516C44.3438 159.516 43.4062 160.422 43.4062 161.75C43.4062 163.078 44.3438 163.969 45.6562 163.969C46.9219 163.969 47.875 163.078 47.875 161.75C47.875 160.422 46.9219 159.516 45.6562 159.516ZM49.1406 160.656C49.2344 160.992 49.2969 161.359 49.2969 161.75C49.2969 162.125 49.2422 162.484 49.1406 162.812H51.9688V160.656H49.1406ZM66.5156 157.328V163H68.7656V164.234H66.5156V171.328H65.0469V157.328H66.5156ZM63.8281 159.516V160.734H55.5312V159.516H58.9844V157.516H60.4688V159.516H63.8281ZM59.7344 161.766C61.7344 161.766 63.2031 163.109 63.2188 165.016C63.2031 166.938 61.7344 168.266 59.7344 168.281C57.7188 168.266 56.25 166.938 56.25 165.016C56.25 163.109 57.7188 161.766 59.7344 161.766ZM59.7344 162.984C58.5469 162.984 57.6562 163.812 57.6719 165.016C57.6562 166.234 58.5469 167.047 59.7344 167.031C60.9219 167.047 61.7969 166.234 61.7969 165.016C61.7969 163.812 60.9219 162.984 59.7344 162.984ZM81.4688 157.328V171.328H80.0625V157.328H81.4688ZM78.5156 157.688V170.641H77.1094V164.141H74.375C73.5391 165.766 72.2109 167.188 70.2344 168.344L69.3906 167.281C72.3594 165.516 73.7891 163.164 74.0469 160.281H70.0469V159.062H75.5156C75.5078 160.43 75.3203 161.734 74.8906 162.953H77.1094V157.688H78.5156ZM98.1719 157.344V161.469H100.203V162.719H98.1719V167.625H96.6875V157.344H98.1719ZM98.7656 169.828V171.031H89.2969V166.609H90.7812V169.828H98.7656ZM89.1719 158.344V160.578H92.8438V158.344H94.3125V165.312H87.7188V158.344H89.1719ZM89.1719 164.125H92.8438V161.75H89.1719V164.125ZM113.766 164.047V165.234H101V164.047H113.766ZM107.375 166.297C110.391 166.281 112.203 167.188 112.203 168.812C112.203 170.438 110.391 171.328 107.375 171.328C104.328 171.328 102.516 170.438 102.516 168.812C102.516 167.188 104.328 166.281 107.375 166.297ZM107.375 167.422C105.234 167.422 104.016 167.906 104.016 168.812C104.016 169.688 105.234 170.172 107.375 170.172C109.484 170.172 110.719 169.688 110.719 168.812C110.719 167.906 109.484 167.422 107.375 167.422ZM107.375 157.656C110.438 157.672 112.375 158.688 112.375 160.359C112.375 162.031 110.438 163.031 107.375 163.031C104.312 163.031 102.375 162.031 102.375 160.359C102.375 158.688 104.312 157.672 107.375 157.656ZM107.375 158.844C105.219 158.844 103.891 159.391 103.906 160.359C103.891 161.328 105.219 161.875 107.375 161.875C109.516 161.875 110.844 161.328 110.844 160.359C110.844 159.391 109.516 158.844 107.375 158.844ZM125.828 157.281V160.562H127.875V161.781H125.828V164.984H124.344V157.281H125.828ZM125.828 165.641V168.891H118.266V170.062H126.312V171.188H116.812V167.844H124.359V166.75H116.781V165.641H125.828ZM123.188 158.516V159.688H114.844V158.516H118.281V157.203H119.766V158.516H123.188ZM119.016 160.219C121.062 160.219 122.406 161.094 122.406 162.516C122.406 163.938 121.062 164.797 119.016 164.797C116.953 164.797 115.609 163.938 115.609 162.516C115.609 161.094 116.953 160.219 119.016 160.219ZM119.016 161.281C117.812 161.281 117.031 161.766 117.047 162.516C117.031 163.266 117.812 163.719 119.016 163.719C120.219 163.719 121 163.266 121.016 162.516C121 161.766 120.219 161.281 119.016 161.281ZM139.734 158.562C139.719 160.422 142 162.172 144.75 162.531L144.172 163.75C141.883 163.383 139.867 162.195 138.969 160.547C138.047 162.203 136.039 163.383 133.766 163.75L133.172 162.531C135.922 162.172 138.172 160.438 138.188 158.562V157.797H139.734V158.562ZM145.328 165.125V166.344H139.641V171.328H138.188V166.344H132.562V165.125H145.328ZM155.156 166.578C155.156 167.781 155.75 169.055 157.016 169.812C158.305 168.992 158.938 167.648 158.938 166.578V165.906H160.391V166.578C160.391 168.031 161.344 169.438 163.172 170.031L162.438 171.125C161.055 170.648 160.117 169.719 159.625 168.562C159.18 169.695 158.344 170.719 157.062 171.25C155.719 170.742 154.867 169.75 154.438 168.609C153.93 169.711 153.008 170.641 151.688 171.125L150.938 170.031C152.734 169.391 153.703 167.938 153.719 166.578V165.906H155.156V166.578ZM161.906 157.344V165.312H160.422V157.344H161.906ZM154.312 158.109C156.453 158.109 158.031 159.469 158.031 161.422C158.031 163.359 156.453 164.703 154.312 164.703C152.172 164.703 150.578 163.359 150.578 161.422C150.578 159.469 152.172 158.109 154.312 158.109ZM154.312 159.375C152.984 159.359 152.031 160.188 152.031 161.422C152.031 162.641 152.984 163.469 154.312 163.469C155.625 163.469 156.578 162.641 156.578 161.422C156.578 160.188 155.625 159.359 154.312 159.375ZM175.453 161.422V162.609H165.812V157.828H167.281V161.422H175.453ZM176.922 164.375V165.562H164.109V164.375H176.922ZM175.547 169.781V171H165.703V166.891H167.188V169.781H175.547ZM192.766 157.328V162.75H195.016V163.969H192.766V171.359H191.281V157.328H192.766ZM189 158.672V159.875H183.938V166.641C186.289 166.633 188.055 166.531 190.047 166.172L190.234 167.422C188.047 167.812 186.188 167.891 183.578 167.875H182.453V158.672H189ZM207.781 157.328V171.328H206.359V164.141H204.688V170.641H203.281V157.594H204.688V162.891H206.359V157.328H207.781ZM199.938 161.031C199.938 163.547 200.891 165.828 202.922 166.875L202.047 168.016C200.672 167.273 199.75 165.969 199.25 164.344C198.773 166.188 197.844 167.656 196.422 168.5L195.5 167.375C197.547 166.219 198.5 163.812 198.5 161.031V160.125H195.875V158.922H202.375V160.125H199.938V161.031ZM220.422 157.328V162.75H222.672V163.969H220.422V171.359H218.938V157.328H220.422ZM216.656 158.672V159.875H211.594V166.641C213.945 166.633 215.711 166.531 217.703 166.172L217.891 167.422C215.703 167.812 213.844 167.891 211.234 167.875H210.109V158.672H216.656ZM234.656 161.109V162.312H225.047V157.578H226.516V161.109H234.656ZM236.125 163.797V165.016H223.344V163.797H236.125ZM229.719 166.156C232.734 166.156 234.547 167.078 234.547 168.703C234.547 170.344 232.734 171.266 229.719 171.266C226.688 171.266 224.859 170.344 224.859 168.703C224.859 167.078 226.688 166.156 229.719 166.156ZM229.719 167.312C227.578 167.328 226.359 167.797 226.359 168.703C226.359 169.594 227.578 170.125 229.719 170.125C231.828 170.125 233.062 169.594 233.062 168.703C233.062 167.797 231.828 167.328 229.719 167.312ZM248.172 157.344V161.844H250.203V163.078H248.172V167.812H246.688V157.344H248.172ZM245.531 158.969V160.172H237.188V158.969H240.625V157.328H242.109V158.969H245.531ZM241.359 160.844C243.375 160.844 244.75 161.891 244.75 163.484C244.75 165.078 243.375 166.109 241.359 166.109C239.328 166.109 237.953 165.078 237.953 163.484C237.953 161.891 239.328 160.844 241.359 160.844ZM241.359 161.984C240.172 161.984 239.375 162.562 239.391 163.484C239.375 164.391 240.172 164.953 241.359 164.953C242.547 164.953 243.344 164.391 243.359 163.484C243.344 162.562 242.547 161.984 241.359 161.984ZM248.766 169.828V171.031H239.297V166.984H240.781V169.828H248.766ZM259.766 160.891C259.75 163.375 261.188 165.906 263.281 166.922L262.359 168.109C260.836 167.32 259.656 165.75 259.047 163.875C258.414 165.875 257.188 167.547 255.594 168.375L254.672 167.172C256.828 166.141 258.281 163.453 258.281 160.891V158.5H259.766V160.891ZM265.812 157.328V162.906H268.062V164.172H265.812V171.328H264.328V157.328H265.812ZM279.734 157.344V160.828H281.781V162.078H279.734V165.672H278.25V157.344H279.734ZM279.734 166.328V171.156H270.766V166.328H279.734ZM272.219 167.484V169.953H278.297V167.484H272.219ZM275.672 158.078V162.031H270.797V163.781C273.227 163.773 274.945 163.703 276.984 163.359L277.141 164.547C274.969 164.938 273.125 165.016 270.438 165.016H269.312V160.906H274.219V159.266H269.297V158.078H275.672ZM294.172 157.328V164.844H292.688V157.328H294.172ZM286.469 165.516V167.094H292.703V165.516H294.172V171.156H285.016V165.516H286.469ZM286.469 169.938H292.703V168.266H286.469V169.938ZM286.578 157.969C288.719 157.969 290.297 159.297 290.297 161.219C290.297 163.141 288.719 164.469 286.578 164.453C284.438 164.469 282.844 163.141 282.844 161.219C282.844 159.297 284.438 157.969 286.578 157.969ZM286.578 159.219C285.25 159.203 284.297 160.031 284.297 161.219C284.297 162.422 285.25 163.234 286.578 163.234C287.891 163.234 288.844 162.422 288.844 161.219C288.844 160.031 287.891 159.203 286.578 159.219ZM308.016 157.328V171.328H306.531V157.328H308.016ZM298.719 158.688V166.484C300.758 166.469 302.906 166.305 305.156 165.844L305.359 167.094C302.875 167.594 300.625 167.766 298.422 167.766H297.25V158.688H298.719ZM321.125 157.328V162.75H323.375V163.969H321.125V171.359H319.641V157.328H321.125ZM317.359 158.672V159.875H312.297V166.641C314.648 166.633 316.414 166.531 318.406 166.172L318.594 167.422C316.406 167.812 314.547 167.891 311.938 167.875H310.812V158.672H317.359ZM325.641 170.109C325.031 170.109 324.516 169.609 324.531 169C324.516 168.391 325.031 167.891 325.641 167.891C326.234 167.891 326.75 168.391 326.75 169C326.75 169.609 326.234 170.109 325.641 170.109ZM46.4766 176.328V183.562H44.9766V176.328H46.4766ZM46.4766 184.203V187.672H38.6797V189H46.9609V190.188H37.2266V186.594H45.0078V185.375H37.1797V184.203H46.4766ZM43.0547 177.25V178.422H41.7109V181.734C42.3906 181.688 43.0625 181.625 43.6953 181.547L43.7578 182.625C40.9609 183.047 37.6953 183.141 35.2422 183.141L35.0703 181.953L36.7734 181.938V178.422H35.4453V177.25H43.0547ZM38.1953 181.906C38.8828 181.883 39.5859 181.859 40.2891 181.812V178.422H38.1953V181.906ZM61.4766 187.344V188.578H48.6641V187.344H51.7266V183.688C50.5781 183.055 49.8828 182.047 49.8828 180.797C49.8828 178.594 52.0391 177.141 55.0391 177.141C58.0547 177.141 60.2109 178.594 60.2109 180.797C60.2109 182.031 59.5391 183.023 58.4141 183.656V187.344H61.4766ZM55.0391 178.328C52.8359 178.328 51.3203 179.281 51.3203 180.797C51.3203 182.297 52.8359 183.281 55.0391 183.281C57.2266 183.281 58.7734 182.297 58.7734 180.797C58.7734 179.281 57.2266 178.328 55.0391 178.328ZM53.1953 187.344H56.9141V184.219C56.3438 184.367 55.7109 184.438 55.0391 184.438C54.3828 184.438 53.7578 184.367 53.1953 184.234V187.344ZM73.4922 176.281V179.562H75.5391V180.781H73.4922V183.984H72.0078V176.281H73.4922ZM73.4922 184.641V187.891H65.9297V189.062H73.9766V190.188H64.4766V186.844H72.0234V185.75H64.4453V184.641H73.4922ZM70.8516 177.516V178.688H62.5078V177.516H65.9453V176.203H67.4297V177.516H70.8516ZM66.6797 179.219C68.7266 179.219 70.0703 180.094 70.0703 181.516C70.0703 182.938 68.7266 183.797 66.6797 183.797C64.6172 183.797 63.2734 182.938 63.2734 181.516C63.2734 180.094 64.6172 179.219 66.6797 179.219ZM66.6797 180.281C65.4766 180.281 64.6953 180.766 64.7109 181.516C64.6953 182.266 65.4766 182.719 66.6797 182.719C67.8828 182.719 68.6641 182.266 68.6797 181.516C68.6641 180.766 67.8828 180.281 66.6797 180.281ZM89.5391 176.609V181.953H91.0234V176.328H92.4297V190.328H91.0234V183.172H89.5391V189.656H88.1641V176.609H89.5391ZM83.6172 178.062V179.281H81.9453V185.5C82.4375 185.477 83.0234 185.414 83.6641 185.25L83.7891 186.5C82.6641 186.75 81.8047 186.766 81.1641 186.766H80.5859V178.062H83.6172ZM87.3047 178.062V179.281H85.5391V185.5C86.1406 185.484 86.7969 185.422 87.5391 185.219L87.6641 186.469C86.5391 186.75 85.6172 186.766 84.7891 186.766H84.1953V178.062H87.3047ZM105.383 180.422V181.609H95.7422V176.828H97.2109V180.422H105.383ZM106.852 183.375V184.562H94.0391V183.375H106.852ZM105.477 188.781V190H95.6328V185.891H97.1172V188.781H105.477ZM123.414 176.328V190.359H121.93V176.328H123.414ZM119.133 177.594V182.703H114.102V185.766C116.367 185.758 118.352 185.656 120.695 185.266L120.836 186.484C118.352 186.906 116.242 187 113.773 187H112.586V181.516H117.617V178.797H112.57V177.594H119.133ZM132.727 177.625V178.859H127.805V185.688C130.148 185.68 131.766 185.594 133.602 185.234L133.773 186.453C131.758 186.828 130.055 186.922 127.414 186.922H126.305V177.625H132.727ZM137.305 176.328V190.359H135.82V182.562H131.93V181.328H135.82V176.328H137.305ZM151.133 176.328V190.359H149.648V183.078H146.758V181.875H149.648V176.328H151.133ZM144.414 180.828C144.414 183.047 145.836 185.312 147.992 186.266L147.164 187.406C145.562 186.695 144.328 185.234 143.711 183.469C143.094 185.336 141.867 186.898 140.258 187.641L139.445 186.5C141.57 185.531 142.945 183.141 142.945 180.828V179.906H139.836V178.719H142.961V176.609H144.445V178.719H147.477V179.906H144.414V180.828ZM164.945 185.281V190.156H155.648V185.281H164.945ZM157.117 186.438V188.953H163.477V186.438H157.117ZM164.945 176.344V184.562H163.461V180.609H160.93V179.391H163.461V176.344H164.945ZM160.102 177.016V181.031H155.32V182.828C157.562 182.836 159.227 182.75 161.211 182.438L161.336 183.656C159.211 184 157.414 184.047 154.945 184.047H153.852V179.906H158.664V178.234H153.836V177.016H160.102ZM182.945 176.328V185.156H181.539V181.25H179.914V184.672H178.523V176.594H179.914V180.031H181.539V176.328H182.945ZM178.008 177.922V179.094H170.93V177.922H173.758V176.438H175.227V177.922H178.008ZM174.477 179.75C176.258 179.75 177.508 180.703 177.508 182.156C177.508 183.609 176.258 184.562 174.477 184.562C172.727 184.562 171.477 183.609 171.477 182.156C171.477 180.703 172.727 179.75 174.477 179.75ZM174.477 180.844C173.492 180.844 172.805 181.359 172.805 182.156C172.805 182.953 173.492 183.484 174.477 183.484C175.492 183.484 176.164 182.953 176.164 182.156C176.164 181.359 175.492 180.844 174.477 180.844ZM178.258 185.359C181.227 185.359 183.008 186.25 183.023 187.844C183.008 189.406 181.227 190.312 178.258 190.297C175.289 190.312 173.508 189.406 173.523 187.844C173.508 186.25 175.289 185.359 178.258 185.359ZM178.258 186.5C176.18 186.5 174.977 186.969 174.992 187.844C174.977 188.688 176.18 189.172 178.258 189.156C180.352 189.172 181.523 188.688 181.539 187.844C181.523 186.969 180.352 186.5 178.258 186.5ZM197.617 183.141V184.328H184.836V183.141H190.508V181.656H186.43V176.969H196.039V178.141H187.898V180.469H196.133V181.656H191.945V183.141H197.617ZM191.211 185.234C194.227 185.234 196.039 186.156 196.039 187.781C196.039 189.406 194.227 190.312 191.211 190.328C188.18 190.312 186.352 189.406 186.352 187.781C186.352 186.156 188.18 185.234 191.211 185.234ZM191.211 186.391C189.07 186.391 187.852 186.891 187.852 187.781C187.852 188.672 189.07 189.172 191.211 189.156C193.32 189.172 194.555 188.672 194.555 187.781C194.555 186.891 193.32 186.391 191.211 186.391ZM209.57 176.328V182H211.82V183.234H209.57V190.328H208.102V176.328H209.57ZM206.883 178.516V179.734H198.586V178.516H202.039V176.516H203.523V178.516H206.883ZM202.789 180.766C204.789 180.766 206.258 182.109 206.273 184.016C206.258 185.938 204.789 187.266 202.789 187.281C200.773 187.266 199.305 185.938 199.305 184.016C199.305 182.109 200.773 180.766 202.789 180.766ZM202.789 181.984C201.602 181.984 200.711 182.812 200.727 184.016C200.711 185.234 201.602 186.047 202.789 186.031C203.977 186.047 204.852 185.234 204.852 184.016C204.852 182.812 203.977 181.984 202.789 181.984ZM223.82 177.672V179.047C223.82 180.781 223.82 182.719 223.289 185.578L221.789 185.422C222.336 182.719 222.336 180.734 222.336 179.047V178.875H213.836V177.672H223.82ZM225.258 187.203V188.438H212.492V187.203H217.352V182.266H218.82V187.203H225.258ZM228.836 187.922L227.586 192.234H226.258L227.086 187.922H228.836ZM243.633 176.609V181.953H245.117V176.328H246.523V190.328H245.117V183.172H243.633V189.656H242.258V176.609H243.633ZM237.711 178.062V179.281H236.039V185.5C236.531 185.477 237.117 185.414 237.758 185.25L237.883 186.5C236.758 186.75 235.898 186.766 235.258 186.766H234.68V178.062H237.711ZM241.398 178.062V179.281H239.633V185.5C240.234 185.484 240.891 185.422 241.633 185.219L241.758 186.469C240.633 186.75 239.711 186.766 238.883 186.766H238.289V178.062H241.398ZM260.961 187.406V188.656H248.148V187.406H253.789V184.953H249.711V180.5H257.93V178.531H249.68V177.312H259.398V181.688H251.18V183.734H259.727V184.953H255.258V187.406H260.961ZM273.305 180.422V181.609H263.664V176.828H265.133V180.422H273.305ZM274.773 183.375V184.562H261.961V183.375H274.773ZM273.398 188.781V190H263.555V185.891H265.039V188.781H273.398ZM292.523 187.359V188.578H279.711V187.359H285.367V184.047H286.852V187.359H292.523ZM286.867 178.875C286.867 181.016 289.289 182.922 291.961 183.344L291.367 184.516C289.109 184.086 287.023 182.773 286.117 180.938C285.203 182.797 283.133 184.148 280.914 184.578L280.305 183.406C282.914 182.969 285.32 181.016 285.32 178.875V178.75H280.773V177.531H291.414V178.75H286.867V178.875ZM306.305 183.156V184.359H293.539V183.156H296.602V181.266C295.523 180.828 294.914 180.125 294.914 179.203C294.914 177.547 296.836 176.578 299.914 176.578C302.977 176.578 304.914 177.547 304.914 179.203C304.914 180.125 304.297 180.836 303.211 181.266V183.156H306.305ZM299.914 185.312C302.93 185.312 304.742 186.203 304.742 187.797C304.742 189.422 302.93 190.297 299.914 190.297C296.867 190.297 295.055 189.422 295.055 187.797C295.055 186.203 296.867 185.312 299.914 185.312ZM299.914 186.453C297.773 186.453 296.555 186.938 296.555 187.797C296.555 188.672 297.773 189.172 299.914 189.156C302.023 189.172 303.258 188.672 303.258 187.797C303.258 186.938 302.023 186.453 299.914 186.453ZM299.914 177.719C297.742 177.719 296.43 178.266 296.445 179.203C296.43 180.141 297.742 180.672 299.914 180.672C302.086 180.672 303.383 180.141 303.383 179.203C303.383 178.266 302.086 177.719 299.914 177.719ZM298.102 183.156H301.742V181.656C301.195 181.75 300.578 181.797 299.914 181.797C299.258 181.797 298.648 181.75 298.102 181.672V183.156ZM318.367 176.344V180.844H320.398V182.078H318.367V186.812H316.883V176.344H318.367ZM315.727 177.969V179.172H307.383V177.969H310.82V176.328H312.305V177.969H315.727ZM311.555 179.844C313.57 179.844 314.945 180.891 314.945 182.484C314.945 184.078 313.57 185.109 311.555 185.109C309.523 185.109 308.148 184.078 308.148 182.484C308.148 180.891 309.523 179.844 311.555 179.844ZM311.555 180.984C310.367 180.984 309.57 181.562 309.586 182.484C309.57 183.391 310.367 183.953 311.555 183.953C312.742 183.953 313.539 183.391 313.555 182.484C313.539 181.562 312.742 180.984 311.555 180.984ZM318.961 188.828V190.031H309.492V185.984H310.977V188.828H318.961ZM114.93 199.453C114.93 201.797 116.461 204.219 118.617 205.141L117.805 206.297C116.156 205.57 114.844 204.031 114.195 202.156C113.547 204.156 112.227 205.859 110.602 206.656L109.742 205.484C111.852 204.5 113.414 201.859 113.43 199.453V197.969H110.227V196.734H118.117V197.969H114.93V199.453ZM121.367 195.328V209.328H119.883V195.328H121.367ZM135.242 195.344V205.953H133.758V204.609H130.945V203.562H133.758V195.344H135.242ZM135.586 207.828V209.031H125.477V204.922H126.945V207.828H135.586ZM123.539 201.734C126.133 201.719 129.617 201.688 132.602 201.312L132.695 202.375C131.5 202.57 130.242 202.703 129.008 202.781V205.516H127.523V202.859C126.164 202.922 124.859 202.93 123.727 202.922L123.539 201.734ZM128.117 195.875C130.164 195.875 131.586 196.859 131.586 198.344C131.586 199.828 130.164 200.781 128.117 200.781C126.039 200.781 124.633 199.828 124.633 198.344C124.633 196.859 126.039 195.875 128.117 195.875ZM128.117 196.984C126.867 196.969 126.023 197.5 126.039 198.344C126.023 199.172 126.867 199.688 128.117 199.688C129.32 199.688 130.164 199.172 130.18 198.344C130.164 197.5 129.32 196.969 128.117 196.984ZM148.617 196.047V197.188C148.617 198.359 148.617 199.68 148.289 201.438H150.242V202.625H144.633V205.875H143.148V202.625H137.43V201.438H146.773C147.141 199.703 147.148 198.406 147.148 197.25H139.039V196.047H148.617ZM148.898 207.828V209.031H139.008V204.609H140.492V207.828H148.898ZM162.852 195.328V209.359H161.367V195.328H162.852ZM155.367 196.375C157.445 196.375 158.977 198.281 158.977 201.281C158.977 204.297 157.445 206.203 155.367 206.203C153.258 206.203 151.742 204.297 151.742 201.281C151.742 198.281 153.258 196.375 155.367 196.375ZM155.367 197.703C154.07 197.703 153.18 199.078 153.18 201.281C153.18 203.5 154.07 204.875 155.367 204.875C156.648 204.875 157.539 203.5 157.539 201.281C157.539 199.078 156.648 197.703 155.367 197.703ZM177.336 201.25V202.469H174.383V205.062C175.68 205 176.984 204.914 178.211 204.781L178.32 205.875C175.242 206.344 171.914 206.375 169.258 206.391L169.07 205.156C170.25 205.156 171.555 205.148 172.898 205.109V202.469H170.086V196.625H177.273V197.828H171.555V201.25H177.336ZM180.57 195.328V209.359H179.086V195.328H180.57ZM194.461 195.328V209.328H192.961V195.328H194.461ZM190.289 196.828C190.289 200.922 188.539 204.484 183.742 206.781L182.961 205.578C186.688 203.805 188.5 201.281 188.789 198.016H183.633V196.828H190.289ZM207.992 201.781V202.969H203.758V206.391H209.461V207.609H196.648V206.391H202.289V202.969H198.242V196.406H207.867V197.609H199.727V201.781H207.992ZM225.289 195.328V201H227.539V202.234H225.289V209.328H223.82V195.328H225.289ZM222.602 197.516V198.734H214.305V197.516H217.758V195.516H219.242V197.516H222.602ZM218.508 199.766C220.508 199.766 221.977 201.109 221.992 203.016C221.977 204.938 220.508 206.266 218.508 206.281C216.492 206.266 215.023 204.938 215.023 203.016C215.023 201.109 216.492 199.766 218.508 199.766ZM218.508 200.984C217.32 200.984 216.43 201.812 216.445 203.016C216.43 204.234 217.32 205.047 218.508 205.031C219.695 205.047 220.57 204.234 220.57 203.016C220.57 201.812 219.695 200.984 218.508 200.984ZM233.102 203.297V206.406H236.117V203.297H237.602V206.406H241.023V207.625H228.211V206.406H231.617V203.297H233.102ZM235.367 197.734C235.367 199.891 237.789 201.797 240.461 202.203L239.867 203.391C237.609 202.961 235.523 201.641 234.602 199.797C233.703 201.656 231.633 203.008 229.414 203.438L228.805 202.25C231.414 201.828 233.82 199.891 233.82 197.734V197.719H229.273V196.5H239.914V197.719H235.367V197.734ZM243.633 208.109C243.023 208.109 242.508 207.609 242.523 207C242.508 206.391 243.023 205.891 243.633 205.891C244.227 205.891 244.742 206.391 244.742 207C244.742 207.609 244.227 208.109 243.633 208.109Z" fill="black"/>
</g>
<defs>
<filter id="filter0_i_52_71" x="0" y="0" width="356" height="245" filterUnits="userSpaceOnUse" color-interpolation-filters="sRGB">
<feFlood flood-opacity="0" result="BackgroundImageFix"/>
<feBlend mode="normal" in="SourceGraphic" in2="BackgroundImageFix" result="shape"/>
<feColorMatrix in="SourceAlpha" type="matrix" values="0 0 0 0 0 0 0 0 0 0 0 0 0 0 0 0 0 0 127 0" result="hardAlpha"/>
<feOffset dx="1" dy="1"/>
<feGaussianBlur stdDeviation="3"/>
<feComposite in2="hardAlpha" operator="arithmetic" k2="-1" k3="1"/>
<feColorMatrix type="matrix" values="0 0 0 0 0 0 0 0 0 0 0 0 0 0 0 0 0 0 0.25 0"/>
<feBlend mode="normal" in2="shape" result="effect1_innerShadow_52_71"/>
</filter>
</defs>
</svg>
