<svg width="375" height="119" viewBox="0 0 375 119" fill="none" xmlns="http://www.w3.org/2000/svg">
<g filter="url(#filter0_iii_130_288)">
<path d="M45.2835 88.78C42.7875 88.78 40.4995 88.416 38.4195 87.688C36.3395 86.934 34.7795 85.751 33.7395 84.139C32.7255 82.527 32.5305 80.408 33.1545 77.782L38.4195 55.864C38.4715 55.63 38.5235 55.331 38.5755 54.967C38.6275 54.577 38.6535 54.291 38.6535 54.109C38.6535 53.823 38.5885 53.628 38.4585 53.524C38.3545 53.42 38.1725 53.368 37.9125 53.368C37.7565 53.368 37.4575 53.446 37.0155 53.602C36.5735 53.732 35.9885 54.135 35.2605 54.811C34.5325 55.461 33.6875 56.553 32.7255 58.087C31.7635 59.595 30.6715 61.727 29.4495 64.483L29.2545 64.444C29.8785 63.04 30.5675 61.584 31.3215 60.076C32.0755 58.568 32.9595 57.164 33.9735 55.864C34.9875 54.538 36.1705 53.459 37.5225 52.627C38.9005 51.795 40.4735 51.379 42.2415 51.379C45.0495 51.379 47.2985 52.172 48.9885 53.758C50.7045 55.318 51.5625 57.138 51.5625 59.218C51.5625 59.79 51.4975 60.453 51.3675 61.207C51.2375 61.961 51.0685 62.754 50.8605 63.586L47.4675 78.328C46.8175 81.24 46.3885 83.359 46.1805 84.685C45.9985 86.011 46.0505 86.856 46.3365 87.22C46.6225 87.558 47.1295 87.727 47.8575 87.727C49.6775 87.727 51.6275 87.22 53.7075 86.206C55.7875 85.192 57.8155 83.814 59.7915 82.072C61.7935 80.33 63.6135 78.367 65.2515 76.183C66.9155 73.973 68.2415 71.646 69.2295 69.202C70.2175 66.758 70.7115 64.34 70.7115 61.948C70.7115 60.258 70.3735 58.633 69.6975 57.073C69.0215 55.487 68.0075 54.187 66.6555 53.173C65.3295 52.133 63.6785 51.613 61.7025 51.613V51.496C63.3145 51.496 64.6925 51.899 65.8365 52.705C67.0065 53.485 67.8905 54.538 68.4885 55.864C69.1125 57.164 69.4245 58.594 69.4245 60.154C69.4245 62.364 68.6835 64.249 67.2015 65.809C65.7455 67.343 63.9125 68.11 61.7025 68.11C59.1805 68.11 57.1655 67.356 55.6575 65.848C54.1755 64.314 53.4345 62.286 53.4345 59.764C53.4345 57.398 54.2015 55.422 55.7355 53.836C57.2955 52.224 59.2845 51.418 61.7025 51.418C63.7305 51.418 65.4205 51.938 66.7725 52.978C68.1505 54.018 69.1775 55.344 69.8535 56.956C70.5555 58.568 70.9065 60.232 70.9065 61.948C70.9065 64.314 70.3995 66.758 69.3855 69.28C68.3975 71.776 67.0455 74.194 65.3295 76.534C63.6135 78.848 61.6505 80.928 59.4405 82.774C57.2565 84.62 54.9425 86.089 52.4985 87.181C50.0805 88.247 47.6755 88.78 45.2835 88.78ZM87.1439 88.78C82.6199 88.78 79.0319 87.844 76.3799 85.972C73.7539 84.1 72.4409 81.019 72.4409 76.729C72.4409 73.609 73.1169 70.541 74.4689 67.525C75.8469 64.509 77.7189 61.792 80.0849 59.374C82.4509 56.93 85.1679 54.98 88.2359 53.524C91.3299 52.068 94.5929 51.34 98.0249 51.34C102.549 51.34 106.189 52.354 108.945 54.382C111.727 56.384 113.118 59.53 113.118 63.82C113.118 66.836 112.468 69.826 111.168 72.79C109.868 75.728 108.048 78.406 105.708 80.824C103.368 83.242 100.612 85.179 97.4399 86.635C94.2939 88.065 90.8619 88.78 87.1439 88.78ZM86.7539 88.585C87.4559 88.585 88.2489 87.961 89.1329 86.713C90.0429 85.439 90.9789 83.762 91.9409 81.682C92.9029 79.576 93.8259 77.249 94.7099 74.701C95.6199 72.153 96.4389 69.579 97.1669 66.979C97.8949 64.379 98.4669 61.935 98.8829 59.647C99.3249 57.333 99.5459 55.409 99.5459 53.875C99.5459 53.121 99.4679 52.549 99.3119 52.159C99.1559 51.743 98.8569 51.535 98.4149 51.535C97.7129 51.535 96.9069 52.172 95.9969 53.446C95.1129 54.694 94.1899 56.371 93.2279 58.477C92.2659 60.557 91.3299 62.871 90.4199 65.419C89.5359 67.967 88.7299 70.541 88.0019 73.141C87.2739 75.741 86.6889 78.185 86.2469 80.473C85.8309 82.761 85.6229 84.685 85.6229 86.245C85.6229 86.973 85.7009 87.545 85.8569 87.961C86.0389 88.377 86.3379 88.585 86.7539 88.585ZM124.463 88.78C121.473 88.78 119.393 88.247 118.223 87.181C117.053 86.115 116.468 84.646 116.468 82.774C116.468 81.786 116.572 80.837 116.78 79.927C117.014 78.991 117.183 78.302 117.287 77.86L130.313 29.695H125.048V29.5H144.314L129.221 85.192C129.169 85.4 129.13 85.595 129.104 85.777C129.078 85.959 129.065 86.141 129.065 86.323C129.065 86.713 129.234 86.908 129.572 86.908C129.806 86.908 130.326 86.7 131.132 86.284C131.938 85.842 132.991 84.789 134.291 83.125C135.617 81.461 137.125 78.796 138.815 75.13L139.01 75.169C137.71 77.925 136.397 80.317 135.071 82.345C133.745 84.373 132.237 85.959 130.547 87.103C128.883 88.221 126.855 88.78 124.463 88.78ZM148.69 88.78C146.688 88.78 145.063 88.299 143.815 87.337C142.567 86.349 141.761 84.971 141.397 83.203C141.059 81.435 141.202 79.368 141.826 77.002L148.495 52.315H143.698V52.12H162.847L155.788 77.704C155.242 79.732 154.878 81.266 154.696 82.306C154.514 83.32 154.475 84.009 154.579 84.373C154.709 84.737 154.917 84.919 155.203 84.919C155.567 84.919 156.191 84.412 157.075 83.398C157.985 82.358 159.025 80.876 160.195 78.952C161.391 77.002 162.587 74.649 163.783 71.893C165.005 69.137 166.084 66.017 167.02 62.533H167.254C166.604 64.899 165.798 67.317 164.836 69.787C163.874 72.231 162.795 74.597 161.599 76.885C160.429 79.147 159.142 81.175 157.738 82.969C156.36 84.763 154.904 86.18 153.37 87.22C151.862 88.26 150.302 88.78 148.69 88.78ZM170.335 88.78C167.345 88.78 165.226 88.247 163.978 87.181C162.73 86.089 162.106 84.542 162.106 82.54C162.106 82.02 162.145 81.487 162.223 80.941C162.327 80.369 162.431 79.862 162.535 79.42L169.75 52.12H183.985L175.093 85.192C175.041 85.452 175.002 85.673 174.976 85.855C174.95 86.011 174.937 86.167 174.937 86.323C174.937 86.713 175.106 86.908 175.444 86.908C175.678 86.908 176.198 86.7 177.004 86.284C177.81 85.842 178.863 84.789 180.163 83.125C181.489 81.461 182.997 78.796 184.687 75.13L184.882 75.169C183.582 77.925 182.269 80.317 180.943 82.345C179.617 84.373 178.109 85.959 176.419 87.103C174.755 88.221 172.727 88.78 170.335 88.78ZM235.883 88.78C233.101 88.78 231.047 88.104 229.721 86.752C228.395 85.374 227.732 83.658 227.732 81.604C227.732 81.032 227.81 80.343 227.966 79.537C228.122 78.705 228.291 77.964 228.473 77.314L232.373 63.976C233.257 60.934 233.816 58.815 234.05 57.619C234.284 56.423 234.245 55.825 233.933 55.825C233.491 55.825 232.789 56.397 231.827 57.541C230.891 58.659 229.838 60.219 228.668 62.221C227.524 64.223 226.393 66.55 225.275 69.202C224.157 71.828 223.182 74.636 222.35 77.626H222.194C223 74.61 224.053 71.568 225.353 68.5C226.653 65.432 228.122 62.598 229.76 59.998C231.424 57.398 233.192 55.318 235.064 53.758C236.936 52.172 238.86 51.379 240.836 51.379C243.046 51.379 244.671 51.925 245.711 53.017C246.751 54.083 247.323 55.5 247.427 57.268C247.531 59.036 247.271 60.973 246.647 63.079L240.407 84.607C240.303 85.023 240.186 85.465 240.056 85.933C239.952 86.375 239.9 86.7 239.9 86.908C239.9 87.064 239.926 87.194 239.978 87.298C240.056 87.376 240.173 87.415 240.329 87.415C240.511 87.415 241.044 87.181 241.928 86.713C242.838 86.245 243.982 85.14 245.36 83.398C246.738 81.656 248.233 78.9 249.845 75.13L250.04 75.169C248.636 78.445 247.232 81.084 245.828 83.086C244.45 85.062 242.955 86.505 241.343 87.415C239.757 88.325 237.937 88.78 235.883 88.78ZM184.91 88L194.504 52.315H189.005V52.12H208.505L198.95 88H184.91ZM205.58 88L212.015 63.976C212.769 60.882 213.315 58.672 213.653 57.346C213.991 56.02 213.978 55.357 213.614 55.357C213.172 55.357 212.457 55.955 211.469 57.151C210.481 58.321 209.376 59.946 208.154 62.026C206.958 64.08 205.775 66.446 204.605 69.124C203.461 71.802 202.486 74.636 201.68 77.626H201.524C202.33 74.74 203.37 71.776 204.644 68.734C205.918 65.666 207.374 62.819 209.012 60.193C210.65 57.567 212.392 55.448 214.238 53.836C216.11 52.198 218.021 51.379 219.971 51.379C221.973 51.379 223.533 51.925 224.651 53.017C225.769 54.083 226.458 55.5 226.718 57.268C227.004 59.036 226.861 60.973 226.289 63.079L219.581 88H205.58ZM268.016 88.78C265.91 88.78 263.778 88.39 261.62 87.61C259.488 86.804 257.473 85.647 255.575 84.139C253.703 82.631 252.117 80.798 250.817 78.64L263.96 29.695H258.227V29.5H278L262.985 85.27C262.985 85.842 263.063 86.466 263.219 87.142C263.375 87.792 263.7 88.117 264.194 88.117C265.104 88.117 266.092 87.389 267.158 85.933C268.25 84.451 269.329 82.54 270.395 80.2C271.487 77.834 272.475 75.286 273.359 72.556C274.269 69.8 274.997 67.135 275.543 64.561C276.089 61.987 276.362 59.777 276.362 57.931C276.362 56.709 276.219 55.76 275.933 55.084C275.647 54.408 275.205 54.07 274.607 54.07C273.619 54.07 272.709 54.746 271.877 56.098C271.045 57.45 270.278 59.166 269.576 61.246C268.874 63.326 268.224 65.51 267.626 67.798C267.054 70.06 266.521 72.114 266.027 73.96H265.832C266.794 70.502 267.652 67.395 268.406 64.639C269.16 61.857 269.992 59.491 270.902 57.541C271.838 55.565 273.008 54.057 274.412 53.017C275.816 51.951 277.649 51.418 279.911 51.418C283.707 51.418 286.463 52.562 288.179 54.85C289.921 57.138 290.792 60.193 290.792 64.015C290.792 67.057 290.194 70.047 288.998 72.985C287.802 75.923 286.151 78.588 284.045 80.98C281.939 83.346 279.508 85.244 276.752 86.674C274.022 88.078 271.11 88.78 268.016 88.78ZM302.954 88.78C299.964 88.78 297.884 88.247 296.714 87.181C295.544 86.115 294.959 84.646 294.959 82.774C294.959 81.786 295.063 80.824 295.271 79.888C295.505 78.952 295.674 78.289 295.778 77.899L302.486 52.315H297.26V52.12H316.487L307.712 85.153C307.66 85.387 307.621 85.595 307.595 85.777C307.569 85.959 307.556 86.141 307.556 86.323C307.556 86.505 307.595 86.648 307.673 86.752C307.777 86.856 307.907 86.908 308.063 86.908C308.297 86.908 308.817 86.7 309.623 86.284C310.429 85.842 311.482 84.789 312.782 83.125C314.108 81.461 315.616 78.796 317.306 75.13L317.501 75.169C316.201 77.925 314.888 80.317 313.562 82.345C312.236 84.373 310.728 85.959 309.038 87.103C307.374 88.221 305.346 88.78 302.954 88.78ZM312.626 45.919C310.988 45.919 309.519 45.516 308.219 44.71C306.945 43.904 305.931 42.851 305.177 41.551C304.449 40.225 304.085 38.808 304.085 37.3C304.085 35.792 304.449 34.388 305.177 33.088C305.931 31.788 306.945 30.735 308.219 29.929C309.519 29.123 310.988 28.72 312.626 28.72C314.264 28.72 315.733 29.123 317.033 29.929C318.333 30.735 319.36 31.788 320.114 33.088C320.868 34.388 321.245 35.792 321.245 37.3C321.245 38.808 320.868 40.225 320.114 41.551C319.36 42.851 318.333 43.904 317.033 44.71C315.733 45.516 314.264 45.919 312.626 45.919ZM331.505 88.78C329.113 88.78 327.254 88.481 325.928 87.883C324.602 87.285 323.679 86.518 323.159 85.582C322.639 84.646 322.379 83.671 322.379 82.657C322.379 81.851 322.509 80.98 322.769 80.044C323.055 79.108 323.289 78.25 323.471 77.47L332.09 44.32H346.13L335.405 84.724C335.301 85.01 335.21 85.322 335.132 85.66C335.054 85.998 335.015 86.349 335.015 86.713C335.015 87.363 335.301 87.688 335.873 87.688C336.107 87.688 336.549 87.597 337.199 87.415C337.875 87.233 338.72 86.778 339.734 86.05C340.748 85.296 341.853 84.074 343.049 82.384C344.245 80.668 345.48 78.289 346.754 75.247L346.949 75.286C345.597 78.432 344.232 81.006 342.854 83.008C341.502 84.984 339.929 86.44 338.135 87.376C336.367 88.312 334.157 88.78 331.505 88.78ZM322.535 52.315V52.12H351.395V52.315H322.535Z" fill="#354024"/>
</g>
<g filter="url(#filter1_iii_130_288)">
<path d="M294.5 8.5C297.5 19 300.5 21.5 310 25C314.372 26.093 316.792 27.9389 318.5 30C320.698 32.6534 321.5 35.593 321.5 37C321.5 39.5 321 42.6425 318 44.5C314.285 46.8 310 45.5 310 45.5C307.5 44.5 305.5 42.5 305 41C303.765 37.2953 300.647 33.1474 297.5 30C295 27.5 293.5 24.6823 293 20C292.531 15.6043 294.41 11.1138 294.5 8.5Z" fill="#354024"/>
</g>
<defs>
<filter id="filter0_iii_130_288" x="26.2545" y="28.72" width="329.141" height="63.06" filterUnits="userSpaceOnUse" color-interpolation-filters="sRGB">
<feFlood flood-opacity="0" result="BackgroundImageFix"/>
<feBlend mode="normal" in="SourceGraphic" in2="BackgroundImageFix" result="shape"/>
<feColorMatrix in="SourceAlpha" type="matrix" values="0 0 0 0 0 0 0 0 0 0 0 0 0 0 0 0 0 0 127 0" result="hardAlpha"/>
<feOffset dx="-3"/>
<feGaussianBlur stdDeviation="2.5"/>
<feComposite in2="hardAlpha" operator="arithmetic" k2="-1" k3="1"/>
<feColorMatrix type="matrix" values="0 0 0 0 0.298039 0 0 0 0 0.239216 0 0 0 0 0.0980392 0 0 0 0.25 0"/>
<feBlend mode="normal" in2="shape" result="effect1_innerShadow_130_288"/>
<feColorMatrix in="SourceAlpha" type="matrix" values="0 0 0 0 0 0 0 0 0 0 0 0 0 0 0 0 0 0 127 0" result="hardAlpha"/>
<feOffset dy="3"/>
<feGaussianBlur stdDeviation="2"/>
<feComposite in2="hardAlpha" operator="arithmetic" k2="-1" k3="1"/>
<feColorMatrix type="matrix" values="0 0 0 0 0.298039 0 0 0 0 0.239216 0 0 0 0 0.0980392 0 0 0 0.25 0"/>
<feBlend mode="normal" in2="effect1_innerShadow_130_288" result="effect2_innerShadow_130_288"/>
<feColorMatrix in="SourceAlpha" type="matrix" values="0 0 0 0 0 0 0 0 0 0 0 0 0 0 0 0 0 0 127 0" result="hardAlpha"/>
<feOffset dx="4"/>
<feGaussianBlur stdDeviation="2"/>
<feComposite in2="hardAlpha" operator="arithmetic" k2="-1" k3="1"/>
<feColorMatrix type="matrix" values="0 0 0 0 1 0 0 0 0 1 0 0 0 0 1 0 0 0 0.25 0"/>
<feBlend mode="plus-lighter" in2="effect2_innerShadow_130_288" result="effect3_innerShadow_130_288"/>
</filter>
<filter id="filter1_iii_130_288" x="289.925" y="8.5" width="35.5752" height="40.366" filterUnits="userSpaceOnUse" color-interpolation-filters="sRGB">
<feFlood flood-opacity="0" result="BackgroundImageFix"/>
<feBlend mode="normal" in="SourceGraphic" in2="BackgroundImageFix" result="shape"/>
<feColorMatrix in="SourceAlpha" type="matrix" values="0 0 0 0 0 0 0 0 0 0 0 0 0 0 0 0 0 0 127 0" result="hardAlpha"/>
<feOffset dx="-3"/>
<feGaussianBlur stdDeviation="2.5"/>
<feComposite in2="hardAlpha" operator="arithmetic" k2="-1" k3="1"/>
<feColorMatrix type="matrix" values="0 0 0 0 0.298039 0 0 0 0 0.239216 0 0 0 0 0.0980392 0 0 0 0.25 0"/>
<feBlend mode="normal" in2="shape" result="effect1_innerShadow_130_288"/>
<feColorMatrix in="SourceAlpha" type="matrix" values="0 0 0 0 0 0 0 0 0 0 0 0 0 0 0 0 0 0 127 0" result="hardAlpha"/>
<feOffset dy="3"/>
<feGaussianBlur stdDeviation="2"/>
<feComposite in2="hardAlpha" operator="arithmetic" k2="-1" k3="1"/>
<feColorMatrix type="matrix" values="0 0 0 0 0.298039 0 0 0 0 0.239216 0 0 0 0 0.0980392 0 0 0 0.25 0"/>
<feBlend mode="normal" in2="effect1_innerShadow_130_288" result="effect2_innerShadow_130_288"/>
<feColorMatrix in="SourceAlpha" type="matrix" values="0 0 0 0 0 0 0 0 0 0 0 0 0 0 0 0 0 0 127 0" result="hardAlpha"/>
<feOffset dx="4"/>
<feGaussianBlur stdDeviation="2"/>
<feComposite in2="hardAlpha" operator="arithmetic" k2="-1" k3="1"/>
<feColorMatrix type="matrix" values="0 0 0 0 1 0 0 0 0 1 0 0 0 0 1 0 0 0 0.25 0"/>
<feBlend mode="plus-lighter" in2="effect2_innerShadow_130_288" result="effect3_innerShadow_130_288"/>
</filter>
</defs>
</svg>
