<svg width="327" height="224" viewBox="0 0 327 224" fill="none" xmlns="http://www.w3.org/2000/svg">
<rect x="0.5" y="0.5" width="326" height="223" rx="9.5" fill="white"/>
<rect x="0.5" y="0.5" width="326" height="223" rx="9.5" stroke="#354024"/>
<path d="M168.645 45.5C167.061 45.5 165.769 45.412 164.769 45.236C163.769 45.06 162.997 44.748 162.453 44.3C161.909 43.852 161.533 43.224 161.325 42.416C161.125 41.616 161.025 40.588 161.025 39.332C161.857 39.556 162.677 39.668 163.485 39.668C164.293 39.676 165.093 39.564 165.885 39.332C165.885 40.42 165.905 41.344 165.945 42.104C165.993 42.864 166.101 43.476 166.269 43.94C166.437 44.412 166.709 44.752 167.085 44.96C167.461 45.176 167.981 45.284 168.645 45.284V45.5ZM163.521 39.74C162.209 39.74 161.037 39.512 160.005 39.056C158.973 38.592 158.093 37.944 157.365 37.112C156.637 36.272 156.081 35.292 155.697 34.172C155.321 33.044 155.133 31.82 155.133 30.5C155.133 29.18 155.333 27.96 155.733 26.84C156.133 25.712 156.705 24.732 157.449 23.9C158.193 23.06 159.077 22.412 160.101 21.956C161.133 21.492 162.273 21.26 163.521 21.26C164.769 21.26 165.905 21.492 166.929 21.956C167.953 22.412 168.837 23.06 169.581 23.9C170.325 24.732 170.897 25.712 171.297 26.84C171.697 27.96 171.897 29.18 171.897 30.5C171.897 31.82 171.705 33.044 171.321 34.172C170.945 35.292 170.393 36.272 169.665 37.112C168.937 37.944 168.057 38.592 167.025 39.056C165.993 39.512 164.825 39.74 163.521 39.74ZM163.521 39.536C164.257 39.536 164.853 39.316 165.309 38.876C165.773 38.428 166.129 37.8 166.377 36.992C166.625 36.176 166.793 35.22 166.881 34.124C166.977 33.02 167.025 31.812 167.025 30.5C167.025 29.188 166.965 27.984 166.845 26.888C166.733 25.784 166.545 24.828 166.281 24.02C166.017 23.204 165.657 22.576 165.201 22.136C164.753 21.688 164.193 21.464 163.521 21.464C162.841 21.464 162.273 21.688 161.817 22.136C161.361 22.584 161.001 23.212 160.737 24.02C160.473 24.828 160.281 25.784 160.161 26.888C160.049 27.984 159.993 29.188 159.993 30.5C159.993 31.812 160.041 33.02 160.137 34.124C160.233 35.22 160.405 36.176 160.653 36.992C160.901 37.8 161.257 38.428 161.721 38.876C162.185 39.316 162.785 39.536 163.521 39.536Z" fill="black"/>
<path d="M163.5 56.6132L160.613 59.5L163.5 62.3868L166.387 59.5L163.5 56.6132ZM163.5 59.5L163 59.5L163 129.5L163.5 129.5L164 129.5L164 59.5L163.5 59.5Z" fill="black"/>
<path d="M151.901 157.66C151.261 157.66 150.68 157.556 150.157 157.348C149.64 157.14 149.227 156.852 148.917 156.484C148.613 156.111 148.461 155.684 148.461 155.204C148.461 154.697 148.608 154.289 148.901 153.98C149.2 153.665 149.589 153.508 150.069 153.508C150.507 153.508 150.885 153.652 151.205 153.94C151.525 154.223 151.685 154.612 151.685 155.108C151.685 155.412 151.608 155.684 151.453 155.924C151.304 156.159 151.104 156.345 150.853 156.484C150.608 156.623 150.347 156.692 150.069 156.692C149.877 156.692 149.688 156.639 149.501 156.532C149.315 156.42 149.144 156.284 148.989 156.124C148.835 155.964 148.709 155.801 148.613 155.636C148.523 155.465 148.477 155.321 148.477 155.204H148.685C148.685 155.551 148.768 155.863 148.933 156.14C149.104 156.412 149.328 156.644 149.605 156.836C149.883 157.028 150.189 157.175 150.525 157.276C150.861 157.377 151.197 157.428 151.533 157.428C151.96 157.428 152.315 157.324 152.597 157.116C152.88 156.908 153.101 156.633 153.261 156.292C153.421 155.951 153.533 155.58 153.597 155.18C153.667 154.775 153.701 154.38 153.701 153.996C153.701 153.361 153.613 152.804 153.437 152.324C153.261 151.839 153.016 151.46 152.701 151.188C152.392 150.911 152.029 150.772 151.613 150.772C151.256 150.772 150.941 150.836 150.669 150.964C150.397 151.092 150.173 151.247 149.997 151.428C149.827 151.609 149.696 151.78 149.605 151.94H149.397C149.483 151.743 149.643 151.519 149.877 151.268C150.117 151.017 150.456 150.801 150.893 150.62C151.331 150.433 151.899 150.34 152.597 150.34C153.392 150.34 154.104 150.479 154.733 150.756C155.368 151.033 155.867 151.444 156.229 151.988C156.592 152.527 156.773 153.196 156.773 153.996C156.773 154.513 156.648 154.996 156.397 155.444C156.147 155.887 155.797 156.276 155.349 156.612C154.907 156.943 154.389 157.201 153.797 157.388C153.211 157.569 152.579 157.66 151.901 157.66ZM149.285 151.94V145.5H156.013V144.628H156.221V148.348H149.501V151.94H149.285ZM161.898 159.9L168.81 145.012H169.026L162.114 159.9H161.898ZM173.64 157.66C173.155 157.66 172.739 157.521 172.392 157.244C172.051 156.967 171.88 156.529 171.88 155.932C171.88 155.617 171.965 155.289 172.136 154.948C172.312 154.607 172.536 154.255 172.808 153.892C173.08 153.524 173.373 153.143 173.688 152.748C174.003 152.348 174.304 151.929 174.592 151.492C174.768 151.225 174.944 150.945 175.12 150.652C175.301 150.353 175.496 150.025 175.704 149.668C175.917 149.305 176.155 148.892 176.416 148.428H170.52V149.628H170.304V145.5H178.4C178.4 145.5 178.325 145.636 178.176 145.908C178.027 146.18 177.827 146.537 177.576 146.98C177.325 147.423 177.048 147.905 176.744 148.428C176.445 148.951 176.141 149.473 175.832 149.996C175.523 150.513 175.237 150.975 174.976 151.38C174.704 151.812 174.491 152.148 174.336 152.388C174.187 152.628 174.083 152.825 174.024 152.98C173.965 153.135 173.936 153.295 173.936 153.46C173.936 153.695 174.008 153.897 174.152 154.068C174.296 154.233 174.461 154.401 174.648 154.572C174.84 154.737 175.008 154.932 175.152 155.156C175.296 155.375 175.368 155.652 175.368 155.988C175.368 156.457 175.211 156.855 174.896 157.18C174.587 157.5 174.168 157.66 173.64 157.66Z" fill="black"/>
<path d="M83.4062 175.828V189.828H81.9844V182.656H80.1875V189.109H78.7969V176.109H80.1875V181.438H81.9844V175.828H83.4062ZM73.5625 177.484V184.953C74.8594 184.945 76.2734 184.844 77.8594 184.531L78.0156 185.828C76.0938 186.172 74.4844 186.266 72.9844 186.266H72.0781V177.484H73.5625ZM96.1562 175.828V181.406H98.3281V182.641H96.1562V189.812H94.6719V175.828H96.1562ZM92.5 177.297C92.4844 181.344 90.7031 184.953 86.0938 187.234L85.2656 186.078C88.7734 184.328 90.6797 181.797 90.9844 178.531H85.9688V177.297H92.5ZM107.266 178.516C107.266 180.047 108.25 181.594 110.062 182.281L109.281 183.422C107.977 182.922 107.062 181.969 106.562 180.812C106.047 182.117 105.086 183.25 103.734 183.828L102.922 182.672C104.812 181.844 105.828 180.078 105.828 178.516V176.703H107.266V178.516ZM114.922 175.844V184.453H113.516V180.703H111.875V184.016H110.5V176.094H111.875V179.484H113.516V175.844H114.922ZM110.234 184.719C113.156 184.719 114.984 185.672 115 187.266C114.984 188.859 113.156 189.812 110.234 189.797C107.312 189.812 105.484 188.859 105.5 187.266C105.484 185.672 107.312 184.719 110.234 184.719ZM110.234 185.859C108.203 185.859 106.953 186.375 106.969 187.266C106.953 188.156 108.203 188.672 110.234 188.656C112.266 188.672 113.5 188.156 113.516 187.266C113.5 186.375 112.266 185.859 110.234 185.859ZM127.812 175.828V179.281H129.844V180.531H127.812V184.016H126.328V175.828H127.812ZM123.938 176.688C123.938 180.297 121.5 182.812 117.344 183.891L116.734 182.75C120.094 181.875 122.086 180.102 122.344 177.891H117.406V176.688H123.938ZM127.812 184.625V189.828H126.328V185.828H118.562V184.625H127.812ZM141.547 175.828V181.5H143.797V182.734H141.547V189.828H140.078V175.828H141.547ZM138.859 178.016V179.234H130.562V178.016H134.016V176.016H135.5V178.016H138.859ZM134.766 180.266C136.766 180.266 138.234 181.609 138.25 183.516C138.234 185.438 136.766 186.766 134.766 186.781C132.75 186.766 131.281 185.438 131.281 183.516C131.281 181.609 132.75 180.266 134.766 180.266ZM134.766 181.484C133.578 181.484 132.688 182.312 132.703 183.516C132.688 184.734 133.578 185.547 134.766 185.531C135.953 185.547 136.828 184.734 136.828 183.516C136.828 182.312 135.953 181.484 134.766 181.484ZM155.797 179.922V181.109H146.156V176.328H147.625V179.922H155.797ZM157.266 182.875V184.062H144.453V182.875H157.266ZM155.891 188.281V189.5H146.047V185.391H147.531V188.281H155.891ZM173.844 175.844V186.453H172.359V185.109H169.547V184.062H172.359V175.844H173.844ZM174.188 188.328V189.531H164.078V185.422H165.547V188.328H174.188ZM162.141 182.234C164.734 182.219 168.219 182.188 171.203 181.812L171.297 182.875C170.102 183.07 168.844 183.203 167.609 183.281V186.016H166.125V183.359C164.766 183.422 163.461 183.43 162.328 183.422L162.141 182.234ZM166.719 176.375C168.766 176.375 170.188 177.359 170.188 178.844C170.188 180.328 168.766 181.281 166.719 181.281C164.641 181.281 163.234 180.328 163.234 178.844C163.234 177.359 164.641 176.375 166.719 176.375ZM166.719 177.484C165.469 177.469 164.625 178 164.641 178.844C164.625 179.672 165.469 180.188 166.719 180.188C167.922 180.188 168.766 179.672 168.781 178.844C168.766 178 167.922 177.469 166.719 177.484ZM186.938 175.828V181.5H189.188V182.734H186.938V189.828H185.469V175.828H186.938ZM184.25 178.016V179.234H175.953V178.016H179.406V176.016H180.891V178.016H184.25ZM180.156 180.266C182.156 180.266 183.625 181.609 183.641 183.516C183.625 185.438 182.156 186.766 180.156 186.781C178.141 186.766 176.672 185.438 176.672 183.516C176.672 181.609 178.141 180.266 180.156 180.266ZM180.156 181.484C178.969 181.484 178.078 182.312 178.094 183.516C178.078 184.734 178.969 185.547 180.156 185.531C181.344 185.547 182.219 184.734 182.219 183.516C182.219 182.312 181.344 181.484 180.156 181.484ZM201.188 179.922V181.109H191.547V176.328H193.016V179.922H201.188ZM202.656 182.875V184.062H189.844V182.875H202.656ZM201.281 188.281V189.5H191.438V185.391H192.922V188.281H201.281ZM207.672 181.5L208.922 177.188H210.25L209.422 181.5H207.672ZM224.125 182.75V183.969H211.359V182.75H217V181.391H213.031V176.203H214.5V177.656H220.984V176.203H222.469V181.391H218.469V182.75H224.125ZM217.734 184.875C220.75 184.875 222.562 185.766 222.578 187.344C222.562 188.938 220.75 189.812 217.734 189.797C214.688 189.812 212.891 188.938 212.891 187.344C212.891 185.766 214.688 184.875 217.734 184.875ZM217.734 186.016C215.594 186.016 214.375 186.484 214.375 187.344C214.375 188.203 215.594 188.672 217.734 188.656C219.844 188.672 221.062 188.203 221.062 187.344C221.062 186.484 219.844 186.016 217.734 186.016ZM214.5 180.219H220.984V178.797H214.5V180.219ZM230.047 179.391C230.031 181.875 231.469 184.406 233.562 185.422L232.641 186.609C231.117 185.82 229.938 184.25 229.328 182.375C228.695 184.375 227.469 186.047 225.875 186.875L224.953 185.672C227.109 184.641 228.562 181.953 228.562 179.391V177H230.047V179.391ZM236.094 175.828V181.406H238.344V182.672H236.094V189.828H234.609V175.828H236.094ZM241.672 177.203L240.422 181.516H239.094L239.922 177.203H241.672ZM254.828 175.828V189.828H253.406V175.828H254.828ZM251.984 176.094V189.141H250.562V182.391H248.984C248.859 185.125 247.688 186.828 245.953 186.812C244.125 186.828 242.938 184.906 242.938 181.875C242.938 178.844 244.125 176.938 245.953 176.953C247.656 176.938 248.812 178.555 248.984 181.188H250.562V176.094H251.984ZM245.953 178.344C244.938 178.344 244.312 179.641 244.312 181.875C244.312 184.109 244.938 185.406 245.953 185.406C246.984 185.406 247.625 184.109 247.625 181.875C247.625 179.641 246.984 178.344 245.953 178.344ZM120.578 194.828V200.406H122.75V201.641H120.578V208.812H119.094V194.828H120.578ZM116.922 196.297C116.906 200.344 115.125 203.953 110.516 206.234L109.688 205.078C113.195 203.328 115.102 200.797 115.406 197.531H110.391V196.297H116.922ZM134.625 194.828V200.516H136.656V201.734H134.625V208.828H133.141V194.828H134.625ZM127.719 196.328C127.719 199.828 127.078 203.016 124.547 205.719L123.375 204.891C125.422 202.766 126.164 200.352 126.312 197.547H123.875V196.328H127.719ZM131.578 196.328C131.578 199.875 131.141 203.594 128.562 206.641L127.375 205.828C129.453 203.398 130.078 200.539 130.188 197.547H128.172V196.328H131.578ZM150.125 201.844V203.047H144.578V205.766H143.078V203.047H137.312V201.844H150.125ZM148.703 207.312V208.531H138.922V204.422H140.406V207.312H148.703ZM143.703 195.156C146.719 195.156 148.672 196.25 148.672 198C148.672 199.75 146.719 200.828 143.703 200.828C140.703 200.828 138.719 199.75 138.719 198C138.719 196.25 140.703 195.156 143.703 195.156ZM143.703 196.344C141.656 196.344 140.297 196.969 140.312 198C140.297 199.016 141.656 199.625 143.703 199.625C145.766 199.625 147.109 199.016 147.109 198C147.109 196.969 145.766 196.344 143.703 196.344ZM166.656 194.828V208.859H165.172V194.828H166.656ZM159.172 195.875C161.25 195.875 162.781 197.781 162.781 200.781C162.781 203.797 161.25 205.703 159.172 205.703C157.062 205.703 155.547 203.797 155.547 200.781C155.547 197.781 157.062 195.875 159.172 195.875ZM159.172 197.203C157.875 197.203 156.984 198.578 156.984 200.781C156.984 203 157.875 204.375 159.172 204.375C160.453 204.375 161.344 203 161.344 200.781C161.344 198.578 160.453 197.203 159.172 197.203ZM176.234 196.172V205.375H169.672V196.172H176.234ZM171.141 197.344V204.172H174.797V197.344H171.141ZM180.484 194.828V208.859H179V194.828H180.484ZM187.875 198.953C187.875 201.297 189.406 203.719 191.562 204.641L190.75 205.797C189.102 205.07 187.789 203.531 187.141 201.656C186.492 203.656 185.172 205.359 183.547 206.156L182.688 204.984C184.797 204 186.359 201.359 186.375 198.953V197.469H183.172V196.234H191.062V197.469H187.875V198.953ZM194.312 194.828V208.828H192.828V194.828H194.312ZM207.875 198.922V200.109H198.234V195.328H199.703V198.922H207.875ZM209.344 201.875V203.062H196.531V201.875H209.344ZM207.969 207.281V208.5H198.125V204.391H199.609V207.281H207.969ZM212.672 204.141C212.688 202.094 213.297 201.469 214.328 200.828C214.984 200.422 215.484 199.859 215.484 199.031C215.484 198.047 214.734 197.438 213.797 197.438C212.953 197.438 212.141 197.953 212.062 199.109H210.375C210.438 197.125 211.938 196.031 213.797 196.031C215.828 196.031 217.188 197.25 217.188 199.031C217.188 200.281 216.594 201.125 215.594 201.734C214.656 202.297 214.297 202.875 214.266 204.141V204.234H212.672V204.141ZM213.531 207.609C212.922 207.609 212.406 207.109 212.422 206.5C212.406 205.891 212.922 205.391 213.531 205.391C214.125 205.391 214.641 205.891 214.641 206.5C214.641 207.109 214.125 207.609 213.531 207.609Z" fill="black"/>
</svg>
