<svg width="327" height="224" viewBox="0 0 327 224" fill="none" xmlns="http://www.w3.org/2000/svg">
<rect x="0.5" y="0.5" width="326" height="223" rx="9.5" fill="white"/>
<rect x="0.5" y="0.5" width="326" height="223" rx="9.5" stroke="#354024"/>
<path d="M168.645 55C167.061 55 165.769 54.912 164.769 54.736C163.769 54.56 162.997 54.248 162.453 53.8C161.909 53.352 161.533 52.724 161.325 51.916C161.125 51.116 161.025 50.088 161.025 48.832C161.857 49.056 162.677 49.168 163.485 49.168C164.293 49.176 165.093 49.064 165.885 48.832C165.885 49.92 165.905 50.844 165.945 51.604C165.993 52.364 166.101 52.976 166.269 53.44C166.437 53.912 166.709 54.252 167.085 54.46C167.461 54.676 167.981 54.784 168.645 54.784V55ZM163.521 49.24C162.209 49.24 161.037 49.012 160.005 48.556C158.973 48.092 158.093 47.444 157.365 46.612C156.637 45.772 156.081 44.792 155.697 43.672C155.321 42.544 155.133 41.32 155.133 40C155.133 38.68 155.333 37.46 155.733 36.34C156.133 35.212 156.705 34.232 157.449 33.4C158.193 32.56 159.077 31.912 160.101 31.456C161.133 30.992 162.273 30.76 163.521 30.76C164.769 30.76 165.905 30.992 166.929 31.456C167.953 31.912 168.837 32.56 169.581 33.4C170.325 34.232 170.897 35.212 171.297 36.34C171.697 37.46 171.897 38.68 171.897 40C171.897 41.32 171.705 42.544 171.321 43.672C170.945 44.792 170.393 45.772 169.665 46.612C168.937 47.444 168.057 48.092 167.025 48.556C165.993 49.012 164.825 49.24 163.521 49.24ZM163.521 49.036C164.257 49.036 164.853 48.816 165.309 48.376C165.773 47.928 166.129 47.3 166.377 46.492C166.625 45.676 166.793 44.72 166.881 43.624C166.977 42.52 167.025 41.312 167.025 40C167.025 38.688 166.965 37.484 166.845 36.388C166.733 35.284 166.545 34.328 166.281 33.52C166.017 32.704 165.657 32.076 165.201 31.636C164.753 31.188 164.193 30.964 163.521 30.964C162.841 30.964 162.273 31.188 161.817 31.636C161.361 32.084 161.001 32.712 160.737 33.52C160.473 34.328 160.281 35.284 160.161 36.388C160.049 37.484 159.993 38.688 159.993 40C159.993 41.312 160.041 42.52 160.137 43.624C160.233 44.72 160.405 45.676 160.653 46.492C160.901 47.3 161.257 47.928 161.721 48.376C162.185 48.816 162.785 49.036 163.521 49.036Z" fill="black"/>
<path d="M163.5 66.1132L160.613 69L163.5 71.8868L166.387 69L163.5 66.1132ZM163.5 69L163 69L163 139L163.5 139L164 139L164 69L163.5 69Z" fill="black"/>
<path d="M150.515 167V165.144L153.915 162.704C154.587 162.224 155.094 161.664 155.435 161.024C155.776 160.384 155.947 159.6 155.947 158.672C155.947 158.043 155.856 157.477 155.675 156.976C155.499 156.475 155.243 156.077 154.907 155.784C154.576 155.491 154.182 155.344 153.723 155.344C153.238 155.344 152.774 155.464 152.331 155.704C151.888 155.944 151.531 156.291 151.259 156.744C150.992 157.197 150.867 157.739 150.883 158.368H150.691C150.691 158.139 150.779 157.917 150.955 157.704C151.131 157.491 151.355 157.317 151.627 157.184C151.899 157.051 152.182 156.984 152.475 156.984C152.752 156.984 153.016 157.056 153.267 157.2C153.518 157.339 153.723 157.528 153.883 157.768C154.043 158.008 154.123 158.28 154.123 158.584C154.123 158.915 154.043 159.205 153.883 159.456C153.728 159.707 153.52 159.904 153.259 160.048C153.003 160.187 152.723 160.256 152.419 160.256C152.115 160.256 151.83 160.179 151.563 160.024C151.302 159.864 151.088 159.645 150.923 159.368C150.763 159.085 150.68 158.752 150.675 158.368C150.654 157.68 150.814 157.072 151.155 156.544C151.496 156.011 151.984 155.595 152.619 155.296C153.259 154.992 154.006 154.84 154.859 154.84C155.712 154.84 156.443 154.973 157.051 155.24C157.659 155.507 158.126 155.869 158.451 156.328C158.782 156.787 158.947 157.301 158.947 157.872C158.947 158.352 158.848 158.779 158.651 159.152C158.459 159.52 158.206 159.853 157.891 160.152C157.582 160.445 157.246 160.715 156.883 160.96C156.52 161.205 156.168 161.44 155.827 161.664L152.411 164.152H159.067V162.952H159.275V167H150.515ZM160.468 169.4L167.38 154.512H167.596L160.684 169.4H160.468ZM172.21 167.16C171.725 167.16 171.309 167.021 170.962 166.744C170.621 166.467 170.45 166.029 170.45 165.432C170.45 165.117 170.536 164.789 170.706 164.448C170.882 164.107 171.106 163.755 171.378 163.392C171.65 163.024 171.944 162.643 172.258 162.248C172.573 161.848 172.874 161.429 173.162 160.992C173.338 160.725 173.514 160.445 173.69 160.152C173.872 159.853 174.066 159.525 174.274 159.168C174.488 158.805 174.725 158.392 174.986 157.928H169.09V159.128H168.874V155H176.97C176.97 155 176.896 155.136 176.746 155.408C176.597 155.68 176.397 156.037 176.146 156.48C175.896 156.923 175.618 157.405 175.314 157.928C175.016 158.451 174.712 158.973 174.402 159.496C174.093 160.013 173.808 160.475 173.546 160.88C173.274 161.312 173.061 161.648 172.906 161.888C172.757 162.128 172.653 162.325 172.594 162.48C172.536 162.635 172.506 162.795 172.506 162.96C172.506 163.195 172.578 163.397 172.722 163.568C172.866 163.733 173.032 163.901 173.218 164.072C173.41 164.237 173.578 164.432 173.722 164.656C173.866 164.875 173.938 165.152 173.938 165.488C173.938 165.957 173.781 166.355 173.466 166.68C173.157 167 172.738 167.16 172.21 167.16Z" fill="black"/>
<path d="M97.7891 193.219V194.422H92.1016V199.312H90.6484V194.422H85.0234V193.219H97.7891ZM96.5859 186.156V187.344H92.2578C92.2812 189.078 94.4375 190.625 97.0859 190.984L96.5391 192.156C94.2422 191.797 92.2578 190.664 91.4141 189.062C90.5469 190.664 88.5703 191.797 86.3047 192.156L85.7422 190.984C88.3594 190.625 90.5156 189.078 90.5703 187.344H86.2109V186.156H96.5859ZM109.852 185.328V188.25H111.883V189.484H109.852V192.406H108.367V185.328H109.852ZM105.945 186.078V191.75H99.3984V186.078H105.945ZM100.852 187.266V190.562H104.492V187.266H100.852ZM109.852 193.047V196.594H102.289V197.969H110.336V199.156H100.836V195.484H108.383V194.203H100.805V193.047H109.852ZM124.273 185.328V199.359H122.789V185.328H124.273ZM116.789 186.375C118.867 186.375 120.398 188.281 120.398 191.281C120.398 194.297 118.867 196.203 116.789 196.203C114.68 196.203 113.164 194.297 113.164 191.281C113.164 188.281 114.68 186.375 116.789 186.375ZM116.789 187.703C115.492 187.703 114.602 189.078 114.602 191.281C114.602 193.5 115.492 194.875 116.789 194.875C118.07 194.875 118.961 193.5 118.961 191.281C118.961 189.078 118.07 187.703 116.789 187.703ZM143.18 193.219V194.422H137.492V199.312H136.039V194.422H130.414V193.219H143.18ZM141.977 186.156V187.344H137.648C137.672 189.078 139.828 190.625 142.477 190.984L141.93 192.156C139.633 191.797 137.648 190.664 136.805 189.062C135.938 190.664 133.961 191.797 131.695 192.156L131.133 190.984C133.75 190.625 135.906 189.078 135.961 187.344H131.602V186.156H141.977ZM148.039 186.375C149.938 186.375 151.328 187.984 151.555 190.578H154.445V185.328H155.914V199.359H154.445V191.781H151.57C151.406 194.508 149.984 196.203 148.039 196.203C145.945 196.203 144.477 194.297 144.492 191.281C144.477 188.281 145.945 186.375 148.039 186.375ZM148.039 187.703C146.773 187.703 145.898 189.078 145.898 191.281C145.898 193.5 146.773 194.875 148.039 194.875C149.305 194.875 150.18 193.5 150.18 191.281C150.18 189.078 149.305 187.703 148.039 187.703ZM169.742 185.328V193.484H168.258V191.469H165.82V190.266H168.258V189.125H165.82V187.906H168.258V185.328H169.742ZM163.102 187.953C163.102 189.75 164.352 191.438 166.461 192.141L165.695 193.297C164.133 192.75 162.977 191.664 162.367 190.297C161.758 191.812 160.539 193.008 158.867 193.594L158.102 192.422C160.289 191.688 161.586 189.906 161.602 187.969V187.453H158.57V186.234H166.07V187.453H163.102V187.953ZM163.039 194.562C163.039 195.773 163.633 197.047 164.914 197.828C166.195 196.984 166.805 195.625 166.805 194.562V193.922H168.258V194.562C168.258 196.016 169.211 197.438 171.07 198.031L170.305 199.141C168.93 198.648 167.992 197.711 167.508 196.547C167.07 197.688 166.227 198.727 164.93 199.266C163.602 198.758 162.758 197.766 162.32 196.609C161.812 197.719 160.891 198.648 159.57 199.141L158.852 198.031C160.633 197.406 161.602 195.922 161.617 194.562V193.922H163.039V194.562ZM178.273 185.562C181.43 185.562 183.273 186.406 183.273 187.969C183.273 189.531 181.43 190.391 178.273 190.391C175.117 190.391 173.273 189.531 173.273 187.969C173.273 186.406 175.117 185.562 178.273 185.562ZM178.273 186.656C176.039 186.656 174.805 187.141 174.82 187.969C174.805 188.828 176.039 189.281 178.273 189.281C180.508 189.281 181.742 188.828 181.742 187.969C181.742 187.141 180.508 186.656 178.273 186.656ZM184.664 191.25V192.438H171.898V191.25H184.664ZM183.055 193.516V196.797H174.898V198.047H183.445V199.188H173.445V195.719H181.586V194.625H173.43V193.516H183.055ZM198.945 185.609V190.953H200.43V185.328H201.836V199.328H200.43V192.172H198.945V198.656H197.57V185.609H198.945ZM193.023 187.062V188.281H191.352V194.5C191.844 194.477 192.43 194.414 193.07 194.25L193.195 195.5C192.07 195.75 191.211 195.766 190.57 195.766H189.992V187.062H193.023ZM196.711 187.062V188.281H194.945V194.5C195.547 194.484 196.203 194.422 196.945 194.219L197.07 195.469C195.945 195.75 195.023 195.766 194.195 195.766H193.602V187.062H196.711ZM220.445 190.828V192.047H218.273V199.312H216.789V185.328H218.273V190.828H220.445ZM209.367 186.688V194.562C211.32 194.562 213.359 194.398 215.586 193.938L215.758 195.188C213.367 195.672 211.148 195.797 209.055 195.797H207.898V186.688H209.367ZM232.523 189.422V190.609H222.883V185.828H224.352V189.422H232.523ZM233.992 192.375V193.562H221.18V192.375H233.992ZM232.617 197.781V199H222.773V194.891H224.258V197.781H232.617ZM237.32 194.641C237.336 192.594 237.945 191.969 238.977 191.328C239.633 190.922 240.133 190.359 240.133 189.531C240.133 188.547 239.383 187.938 238.445 187.938C237.602 187.938 236.789 188.453 236.711 189.609H235.023C235.086 187.625 236.586 186.531 238.445 186.531C240.477 186.531 241.836 187.75 241.836 189.531C241.836 190.781 241.242 191.625 240.242 192.234C239.305 192.797 238.945 193.375 238.914 194.641V194.734H237.32V194.641ZM238.18 198.109C237.57 198.109 237.055 197.609 237.07 197C237.055 196.391 237.57 195.891 238.18 195.891C238.773 195.891 239.289 196.391 239.289 197C239.289 197.609 238.773 198.109 238.18 198.109Z" fill="black"/>
</svg>
