<svg width="327" height="224" viewBox="0 0 327 224" fill="none" xmlns="http://www.w3.org/2000/svg">
<rect x="0.5" y="0.5" width="326" height="223" rx="9.5" fill="white"/>
<rect x="0.5" y="0.5" width="326" height="223" rx="9.5" stroke="#354024"/>
<path d="M168.645 45.5C167.061 45.5 165.769 45.412 164.769 45.236C163.769 45.06 162.997 44.748 162.453 44.3C161.909 43.852 161.533 43.224 161.325 42.416C161.125 41.616 161.025 40.588 161.025 39.332C161.857 39.556 162.677 39.668 163.485 39.668C164.293 39.676 165.093 39.564 165.885 39.332C165.885 40.42 165.905 41.344 165.945 42.104C165.993 42.864 166.101 43.476 166.269 43.94C166.437 44.412 166.709 44.752 167.085 44.96C167.461 45.176 167.981 45.284 168.645 45.284V45.5ZM163.521 39.74C162.209 39.74 161.037 39.512 160.005 39.056C158.973 38.592 158.093 37.944 157.365 37.112C156.637 36.272 156.081 35.292 155.697 34.172C155.321 33.044 155.133 31.82 155.133 30.5C155.133 29.18 155.333 27.96 155.733 26.84C156.133 25.712 156.705 24.732 157.449 23.9C158.193 23.06 159.077 22.412 160.101 21.956C161.133 21.492 162.273 21.26 163.521 21.26C164.769 21.26 165.905 21.492 166.929 21.956C167.953 22.412 168.837 23.06 169.581 23.9C170.325 24.732 170.897 25.712 171.297 26.84C171.697 27.96 171.897 29.18 171.897 30.5C171.897 31.82 171.705 33.044 171.321 34.172C170.945 35.292 170.393 36.272 169.665 37.112C168.937 37.944 168.057 38.592 167.025 39.056C165.993 39.512 164.825 39.74 163.521 39.74ZM163.521 39.536C164.257 39.536 164.853 39.316 165.309 38.876C165.773 38.428 166.129 37.8 166.377 36.992C166.625 36.176 166.793 35.22 166.881 34.124C166.977 33.02 167.025 31.812 167.025 30.5C167.025 29.188 166.965 27.984 166.845 26.888C166.733 25.784 166.545 24.828 166.281 24.02C166.017 23.204 165.657 22.576 165.201 22.136C164.753 21.688 164.193 21.464 163.521 21.464C162.841 21.464 162.273 21.688 161.817 22.136C161.361 22.584 161.001 23.212 160.737 24.02C160.473 24.828 160.281 25.784 160.161 26.888C160.049 27.984 159.993 29.188 159.993 30.5C159.993 31.812 160.041 33.02 160.137 34.124C160.233 35.22 160.405 36.176 160.653 36.992C160.901 37.8 161.257 38.428 161.721 38.876C162.185 39.316 162.785 39.536 163.521 39.536Z" fill="black"/>
<path d="M163.5 56.6132L160.613 59.5L163.5 62.3868L166.387 59.5L163.5 56.6132ZM163.5 59.5L163 59.5L163 129.5L163.5 129.5L164 129.5L164 59.5L163.5 59.5Z" fill="black"/>
<path d="M155.077 157.66C154.197 157.66 153.418 157.468 152.741 157.084C152.069 156.695 151.541 156.121 151.157 155.364C150.778 154.601 150.589 153.66 150.589 152.54C150.589 151.569 150.773 150.652 151.141 149.788C151.514 148.919 152.042 148.151 152.725 147.484C153.408 146.817 154.216 146.295 155.149 145.916C156.082 145.532 157.112 145.34 158.237 145.34V145.54C157.512 145.54 156.866 145.719 156.301 146.076C155.741 146.433 155.266 146.919 154.877 147.532C154.493 148.14 154.2 148.825 153.997 149.588C153.8 150.345 153.701 151.129 153.701 151.94L153.709 153.02C153.709 153.687 153.733 154.292 153.781 154.836C153.834 155.375 153.914 155.841 154.021 156.236C154.133 156.625 154.28 156.924 154.461 157.132C154.642 157.34 154.864 157.444 155.125 157.444C155.386 157.444 155.594 157.351 155.749 157.164C155.909 156.972 156.029 156.703 156.109 156.356C156.194 156.004 156.25 155.588 156.277 155.108C156.304 154.623 156.317 154.087 156.317 153.5C156.317 152.609 156.269 151.913 156.173 151.412C156.077 150.905 155.933 150.548 155.741 150.34C155.549 150.127 155.312 150.02 155.029 150.02C154.714 150.02 154.461 150.121 154.269 150.324C154.077 150.521 153.936 150.839 153.845 151.276C153.754 151.713 153.709 152.295 153.709 153.02H153.541C153.541 152.305 153.589 151.692 153.685 151.18C153.781 150.668 153.973 150.279 154.261 150.012C154.554 149.74 154.994 149.604 155.581 149.604C156.045 149.604 156.504 149.681 156.957 149.836C157.416 149.985 157.832 150.217 158.205 150.532C158.578 150.847 158.877 151.249 159.101 151.74C159.33 152.231 159.445 152.817 159.445 153.5C159.445 154.3 159.264 155.015 158.901 155.644C158.544 156.268 158.037 156.761 157.381 157.124C156.73 157.481 155.962 157.66 155.077 157.66ZM160.554 159.9L167.466 145.012H167.682L160.77 159.9H160.554ZM172.296 157.66C171.811 157.66 171.395 157.521 171.048 157.244C170.707 156.967 170.536 156.529 170.536 155.932C170.536 155.617 170.622 155.289 170.792 154.948C170.968 154.607 171.192 154.255 171.464 153.892C171.736 153.524 172.03 153.143 172.344 152.748C172.659 152.348 172.96 151.929 173.248 151.492C173.424 151.225 173.6 150.945 173.776 150.652C173.958 150.353 174.152 150.025 174.36 149.668C174.574 149.305 174.811 148.892 175.072 148.428H169.176V149.628H168.96V145.5H177.056C177.056 145.5 176.982 145.636 176.832 145.908C176.683 146.18 176.483 146.537 176.232 146.98C175.982 147.423 175.704 147.905 175.4 148.428C175.102 148.951 174.798 149.473 174.488 149.996C174.179 150.513 173.894 150.975 173.632 151.38C173.36 151.812 173.147 152.148 172.992 152.388C172.843 152.628 172.739 152.825 172.68 152.98C172.622 153.135 172.592 153.295 172.592 153.46C172.592 153.695 172.664 153.897 172.808 154.068C172.952 154.233 173.118 154.401 173.304 154.572C173.496 154.737 173.664 154.932 173.808 155.156C173.952 155.375 174.024 155.652 174.024 155.988C174.024 156.457 173.867 156.855 173.552 157.18C173.243 157.5 172.824 157.66 172.296 157.66Z" fill="black"/>
<path d="M39.2188 175.844V186.156H37.7344V175.844H39.2188ZM39.6406 188.328V189.531H30.0625V185.203H31.5625V188.328H39.6406ZM32.8125 179.094C32.8125 180.844 34.1562 182.469 36.3281 183.109L35.6094 184.281C33.9688 183.773 32.7344 182.719 32.1094 181.359C31.4766 182.836 30.2422 183.984 28.5781 184.516L27.8438 183.359C30.0156 182.672 31.3281 180.953 31.3281 179.094V178.812H28.2188V177.625H31.3281V175.891H32.8281V177.625H35.9062V178.812H32.8125V179.094ZM52.5781 176.703V177.938C52.5781 179.266 52.5781 180.703 52.1875 182.703H54.2031V183.922H48.5312V189.844H47.0312V183.922H41.4375V182.703H50.6875C51.1094 180.711 51.1094 179.242 51.1094 177.938V177.922H43V176.703H52.5781ZM66.1719 175.828V181.406H68.3438V182.641H66.1719V189.812H64.6875V175.828H66.1719ZM62.5156 177.297C62.5 181.344 60.7188 184.953 56.1094 187.234L55.2812 186.078C58.7891 184.328 60.6953 181.797 61 178.531H55.9844V177.297H62.5156ZM86.0781 181.328V182.547H83.9062V189.812H82.4219V175.828H83.9062V181.328H86.0781ZM75 177.188V185.062C76.9531 185.062 78.9922 184.898 81.2188 184.438L81.3906 185.688C79 186.172 76.7812 186.297 74.6875 186.297H73.5312V177.188H75ZM98.875 175.828V189.828H97.4531V175.828H98.875ZM96.0312 176.094V189.141H94.6094V182.391H93.0312C92.9062 185.125 91.7344 186.828 90 186.812C88.1719 186.828 86.9844 184.906 86.9844 181.875C86.9844 178.844 88.1719 176.938 90 176.953C91.7031 176.938 92.8594 178.555 93.0312 181.188H94.6094V176.094H96.0312ZM90 178.344C88.9844 178.344 88.3594 179.641 88.3594 181.875C88.3594 184.109 88.9844 185.406 90 185.406C91.0312 185.406 91.6719 184.109 91.6719 181.875C91.6719 179.641 91.0312 178.344 90 178.344ZM112.688 175.828V189.828H111.281V175.828H112.688ZM109.734 176.188V189.141H108.328V182.641H105.594C104.758 184.266 103.43 185.688 101.453 186.844L100.609 185.781C103.578 184.016 105.008 181.664 105.266 178.781H101.266V177.562H106.734C106.727 178.93 106.539 180.234 106.109 181.453H108.328V176.188H109.734ZM122.188 176.875C124.086 176.875 125.477 178.484 125.703 181.078H128.594V175.828H130.062V189.859H128.594V182.281H125.719C125.555 185.008 124.133 186.703 122.188 186.703C120.094 186.703 118.625 184.797 118.641 181.781C118.625 178.781 120.094 176.875 122.188 176.875ZM122.188 178.203C120.922 178.203 120.047 179.578 120.047 181.781C120.047 184 120.922 185.375 122.188 185.375C123.453 185.375 124.328 184 124.328 181.781C124.328 179.578 123.453 178.203 122.188 178.203ZM138.594 175.984C141.75 175.984 143.594 176.844 143.594 178.391C143.594 179.953 141.75 180.812 138.594 180.812C135.438 180.812 133.594 179.953 133.594 178.391C133.594 176.844 135.438 175.984 138.594 175.984ZM138.594 177.094C136.359 177.109 135.125 177.562 135.141 178.391C135.125 179.266 136.359 179.703 138.594 179.703C140.828 179.703 142.062 179.266 142.062 178.391C142.062 177.562 140.828 177.109 138.594 177.094ZM144.984 181.641V182.812H139.328V184.016H143.375V187.297H135.219V188.547H143.766V189.688H133.766V186.219H141.906V185.125H133.75V184.016H137.844V182.812H132.219V181.641H144.984ZM153.219 176.5V180.047H148.219V181.547C150.867 181.539 152.562 181.469 154.609 181.156L154.75 182.281C152.594 182.641 150.797 182.719 147.906 182.719H146.766V178.969H151.766V177.641H146.719V176.5H153.219ZM157.656 183.75V187.188H149.969V188.531H158.125V189.688H148.5V186.094H156.141V184.906H148.453V183.75H157.656ZM157.656 175.828V183.172H156.172V175.828H157.656ZM166.969 177.062V183.594H160.422V177.062H166.969ZM161.875 178.266V182.422H165.516V178.266H161.875ZM170.875 175.812V180H172.906V181.25H170.875V186.078H169.391V175.812H170.875ZM171.469 188.328V189.531H162V185.094H163.484V188.328H171.469ZM184.703 175.844V180.344H186.734V181.578H184.703V186.312H183.219V175.844H184.703ZM182.062 177.469V178.672H173.719V177.469H177.156V175.828H178.641V177.469H182.062ZM177.891 179.344C179.906 179.344 181.281 180.391 181.281 181.984C181.281 183.578 179.906 184.609 177.891 184.609C175.859 184.609 174.484 183.578 174.484 181.984C174.484 180.391 175.859 179.344 177.891 179.344ZM177.891 180.484C176.703 180.484 175.906 181.062 175.922 181.984C175.906 182.891 176.703 183.453 177.891 183.453C179.078 183.453 179.875 182.891 179.891 181.984C179.875 181.062 179.078 180.484 177.891 180.484ZM185.297 188.328V189.531H175.828V185.484H177.312V188.328H185.297ZM195.672 178.906C195.672 180.484 196.672 182.016 198.453 182.656L197.75 183.781C196.43 183.266 195.508 182.305 195 181.125C194.516 182.414 193.578 183.469 192.219 184.016L191.516 182.922C193.281 182.203 194.266 180.594 194.266 178.906V178.781H191.828V177.594H194.266V175.984H195.672V177.594H198.078V178.781H195.672V178.906ZM203.375 175.844V184.406H201.969V180.719H200.375V184.344H198.953V176.078H200.375V179.5H201.969V175.844H203.375ZM203.375 185.109V189.828H201.906V186.312H193.859V185.109H203.375ZM215.547 176.062C218.703 176.062 220.547 176.906 220.547 178.469C220.547 180.031 218.703 180.891 215.547 180.891C212.391 180.891 210.547 180.031 210.547 178.469C210.547 176.906 212.391 176.062 215.547 176.062ZM215.547 177.156C213.312 177.156 212.078 177.641 212.094 178.469C212.078 179.328 213.312 179.781 215.547 179.781C217.781 179.781 219.016 179.328 219.016 178.469C219.016 177.641 217.781 177.156 215.547 177.156ZM221.938 181.75V182.938H209.172V181.75H221.938ZM220.328 184.016V187.297H212.172V188.547H220.719V189.688H210.719V186.219H218.859V185.125H210.703V184.016H220.328ZM231.844 178.391C231.844 180.281 233.109 182.125 235.219 182.859L234.406 184.016C232.875 183.43 231.734 182.273 231.141 180.812C230.531 182.438 229.336 183.719 227.688 184.344L226.891 183.172C229.062 182.391 230.359 180.453 230.375 178.344V176.688H231.844V178.391ZM238.578 175.844V186.281H237.094V180.25H234.141V179.031H237.094V175.844H238.578ZM238.891 188.328V189.531H229.438V185.109H230.938V188.328H238.891ZM253.5 181.625V182.812H247.844V184.031H251.891V187.312H243.734V188.547H252.281V189.688H242.281V186.234H250.422V185.172H242.266V184.031H246.359V182.812H240.734V181.625H253.5ZM251.859 176.281V180.594H242.375V176.281H251.859ZM243.828 177.453V179.422H250.375V177.453H243.828ZM261.484 178.141V179.344H254.531V178.141H257.281V176.234H258.75V178.141H261.484ZM258.016 180.188C259.797 180.188 261.047 181.516 261.062 183.406C261.047 185.312 259.797 186.656 258.016 186.656C256.266 186.656 254.969 185.312 254.984 183.406C254.969 181.516 256.266 180.188 258.016 180.188ZM258.016 181.422C257 181.422 256.297 182.25 256.297 183.406C256.297 184.594 257 185.391 258.016 185.391C259.016 185.391 259.75 184.594 259.75 183.406C259.75 182.25 259.016 181.422 258.016 181.422ZM266.547 175.828V189.828H265.141V182.875H263.531V189.172H262.125V176.141H263.531V181.656H265.141V175.828H266.547ZM276.688 176.484V177.641H273.719C273.805 178.562 275.125 179.336 277.094 179.547L276.594 180.625C274.914 180.391 273.633 179.766 273 178.875C272.383 179.883 271.07 180.602 269.312 180.891L268.781 179.797C270.805 179.523 272.109 178.641 272.203 177.641H269.25V176.484H276.688ZM280.047 175.828V184.766H278.562V184.109H275.781V183.094H278.562V175.828H280.047ZM268.312 181.469C270.969 181.469 274.406 181.469 277.359 181.109L277.438 182.141C276.18 182.328 274.859 182.445 273.562 182.516V184.641H272.094V182.578C270.812 182.633 269.586 182.641 268.5 182.641L268.312 181.469ZM273.234 185.406C273.234 186.492 273.859 187.695 275.125 188.375C276.383 187.672 277.016 186.469 277.031 185.406V185.172H278.484V185.406C278.469 186.75 279.453 188.031 281.281 188.531L280.578 189.641C279.18 189.211 278.227 188.344 277.75 187.25C277.297 188.336 276.453 189.297 275.125 189.766C273.82 189.297 272.977 188.367 272.547 187.297C272.031 188.359 271.07 189.219 269.734 189.641L269.031 188.531C270.812 188.016 271.812 186.703 271.828 185.406V185.172H273.234V185.406ZM293.125 175.828V181.25H295.375V182.469H293.125V189.859H291.641V175.828H293.125ZM289.359 177.172V178.375H284.297V185.141C286.648 185.133 288.414 185.031 290.406 184.672L290.594 185.922C288.406 186.312 286.547 186.391 283.938 186.375H282.812V177.172H289.359ZM298.625 177.188L298.484 185.234H296.938L296.797 177.188H298.625ZM297.719 188.609C297.109 188.609 296.594 188.109 296.609 187.5C296.594 186.891 297.109 186.391 297.719 186.391C298.312 186.391 298.828 186.891 298.828 187.5C298.828 188.109 298.312 188.609 297.719 188.609ZM125.898 198.406V199.594H116.305V195.344H125.758V196.547H117.789V198.406H125.898ZM127.398 200.594V201.797H121.742V203.031H125.789V206.297H117.633V207.531H126.18V208.688H116.18V205.234H124.32V204.141H116.164V203.031H120.273V201.797H114.633V200.594H127.398ZM145.133 201.312V202.516H139.477V203.859C142.047 204 143.57 204.867 143.57 206.328C143.57 207.922 141.758 208.812 138.742 208.797C135.695 208.812 133.883 207.922 133.883 206.328C133.883 204.867 135.406 204 138.008 203.859V202.516H132.367V201.312H145.133ZM138.742 204.984C136.602 204.984 135.383 205.469 135.383 206.328C135.383 207.172 136.602 207.672 138.742 207.656C140.852 207.672 142.086 207.172 142.086 206.328C142.086 205.469 140.852 204.984 138.742 204.984ZM143.992 195.469V196.656H139.742C139.953 198.008 141.922 199.156 144.477 199.406L143.945 200.578C141.523 200.297 139.516 199.273 138.758 197.781C137.977 199.273 135.977 200.297 133.555 200.578L133.039 199.406C135.555 199.156 137.531 198.008 137.742 196.656H133.539V195.469H143.992ZM162.898 202.859V204.062H157.18V208.812H155.727V204.062H150.086V202.859H162.898ZM161.289 195.578V201.078H151.695V195.578H161.289ZM153.148 196.766V199.922H159.805V196.766H153.148ZM175.602 194.828V204.375H174.117V199.797H171.383C171.078 201.453 169.656 202.578 167.805 202.562C165.695 202.578 164.133 201.156 164.133 199.156C164.133 197.141 165.695 195.766 167.805 195.766C169.68 195.766 171.125 196.891 171.398 198.594H174.117V194.828H175.602ZM167.805 197.016C166.492 197.016 165.555 197.906 165.555 199.156C165.555 200.438 166.492 201.312 167.805 201.297C169.07 201.312 170.023 200.438 170.023 199.156C170.023 197.906 169.07 197.016 167.805 197.016ZM171.773 203.844C171.773 205.641 173.773 207.172 176.445 207.578L175.852 208.75C173.672 208.391 171.844 207.305 171.008 205.766C170.156 207.289 168.328 208.391 166.133 208.75L165.602 207.578C168.195 207.156 170.242 205.578 170.258 203.844V203.344H171.773V203.844ZM181.727 195.297C183.836 195.312 185.383 196.609 185.398 198.438C185.383 200.281 183.836 201.562 181.727 201.562C179.602 201.562 178.039 200.281 178.039 198.438C178.039 196.609 179.602 195.312 181.727 195.297ZM181.727 196.547C180.43 196.531 179.477 197.297 179.492 198.438C179.477 199.594 180.43 200.359 181.727 200.359C183.008 200.359 183.961 199.594 183.961 198.438C183.961 197.297 183.008 196.531 181.727 196.547ZM189.367 194.828V201.953H187.883V194.828H189.367ZM189.367 202.594V206.125H181.648V207.469H189.836V208.656H180.211V205.016H187.898V203.781H180.164V202.594H189.367ZM202.711 194.828V200.516H204.742V201.734H202.711V208.828H201.227V194.828H202.711ZM195.805 196.328C195.805 199.828 195.164 203.016 192.633 205.719L191.461 204.891C193.508 202.766 194.25 200.352 194.398 197.547H191.961V196.328H195.805ZM199.664 196.328C199.664 199.875 199.227 203.594 196.648 206.641L195.461 205.828C197.539 203.398 198.164 200.539 198.273 197.547H196.258V196.328H199.664ZM207.711 204.141C207.727 202.094 208.336 201.469 209.367 200.828C210.023 200.422 210.523 199.859 210.523 199.031C210.523 198.047 209.773 197.438 208.836 197.438C207.992 197.438 207.18 197.953 207.102 199.109H205.414C205.477 197.125 206.977 196.031 208.836 196.031C210.867 196.031 212.227 197.25 212.227 199.031C212.227 200.281 211.633 201.125 210.633 201.734C209.695 202.297 209.336 202.875 209.305 204.141V204.234H207.711V204.141ZM208.57 207.609C207.961 207.609 207.445 207.109 207.461 206.5C207.445 205.891 207.961 205.391 208.57 205.391C209.164 205.391 209.68 205.891 209.68 206.5C209.68 207.109 209.164 207.609 208.57 207.609Z" fill="black"/>
</svg>
