<svg width="355" height="244" viewBox="0 0 355 244" fill="none" xmlns="http://www.w3.org/2000/svg">
<g filter="url(#filter0_i_44_177)">
<rect width="355" height="244" fill="#D0B9BD"/>
<path d="M154.191 35.9922V41.3125H157.215V43.1406H154.191V48.3906H151.941V35.9922H154.191ZM147.395 48.7891C151.684 48.7891 154.355 50.2891 154.355 52.8672C154.355 55.4453 151.684 56.9688 147.395 56.9453C143.059 56.9688 140.34 55.4453 140.34 52.8672C140.34 50.2891 143.059 48.7891 147.395 48.7891ZM147.395 50.5938C144.348 50.5703 142.52 51.4141 142.543 52.8672C142.52 54.3203 144.348 55.1641 147.395 55.1641C150.371 55.1641 152.199 54.3203 152.223 52.8672C152.199 51.4141 150.371 50.5703 147.395 50.5938ZM147.934 37.5391V39.3438H140.762V45.0625C144.898 45.0508 147.23 44.9219 149.879 44.3828L150.09 46.1875C147.277 46.7734 144.77 46.8672 140.223 46.8672H138.559V37.5391H147.934ZM175.824 36.0156V51.3906H173.598V36.0156H175.824ZM176.457 54.7422V56.5469H162.09V49.9375H164.34V54.7422H176.457ZM166.051 39.25C166.027 42.3203 167.996 45.1328 171.23 46.2578L170.082 48.0391C167.656 47.1367 165.863 45.3555 164.926 43.0703C164 45.5078 162.184 47.4648 159.723 48.4141L158.527 46.6562C161.832 45.4375 163.777 42.4141 163.777 39.25V37.1641H166.051V39.25ZM198.301 46.9609V48.7422H179.152V46.9609H198.301ZM196.145 54.7422V56.5469H181.566V50.4531H183.816V54.7422H196.145ZM188.715 36.6953C193.262 36.6719 196.215 38.2656 196.215 40.8906C196.215 43.5391 193.262 45.1328 188.715 45.1562C184.145 45.1328 181.215 43.5391 181.215 40.8906C181.215 38.2656 184.145 36.6719 188.715 36.6953ZM188.715 38.4766C185.504 38.4766 183.488 39.3906 183.512 40.8906C183.488 42.4375 185.504 43.3281 188.715 43.3281C191.926 43.3281 193.918 42.4375 193.918 40.8906C193.918 39.3906 191.926 38.4766 188.715 38.4766ZM202.285 55.1641C201.371 55.1641 200.598 54.4141 200.621 53.5C200.598 52.5859 201.371 51.8359 202.285 51.8359C203.176 51.8359 203.949 52.5859 203.949 53.5C203.949 54.4141 203.176 55.1641 202.285 55.1641ZM208.613 55.1641C207.699 55.1641 206.926 54.4141 206.949 53.5C206.926 52.5859 207.699 51.8359 208.613 51.8359C209.504 51.8359 210.277 52.5859 210.277 53.5C210.277 54.4141 209.504 55.1641 208.613 55.1641ZM214.941 55.1641C214.027 55.1641 213.254 54.4141 213.277 53.5C213.254 52.5859 214.027 51.8359 214.941 51.8359C215.832 51.8359 216.605 52.5859 216.605 53.5C216.605 54.4141 215.832 55.1641 214.941 55.1641ZM101.492 73.6875L103.508 67.0078H105.992L104.82 73.6875H101.492ZM106.695 73.6875L108.711 67.0078H111.195L110.023 73.6875H106.695ZM121.414 70.6406C121.414 74.0859 123.172 77.7656 126.758 79.2656L125.141 81.6094C122.621 80.543 120.887 78.4219 119.938 75.8203C118.965 78.6445 117.195 80.9883 114.688 82.1484L112.977 79.7812C116.516 78.2109 118.344 74.25 118.344 70.6406V69.3281H113.82V66.8906H125.867V69.3281H121.414V70.6406ZM131 64.8281V86.1562H127.977V64.8281H131ZM142.062 67.8516C142.039 70.5234 143.562 73.1016 147.078 74.1562L145.578 76.5C143.152 75.7266 141.477 74.2148 140.516 72.2578C139.555 74.3672 137.82 76.0195 135.312 76.8281L133.812 74.4844C137.375 73.3359 138.945 70.5703 138.945 67.8516V65.8125H142.062V67.8516ZM151.742 78.4688V86.1562H148.742V80.8594H137.07V78.4688H151.742ZM151.742 64.8281V77.5547H148.742V64.8281H151.742ZM178.133 64.8516V80.4141H175.156V72.7734H171.664V70.3594H175.156V64.8516H178.133ZM178.648 83.3906V85.7812H163.977V79.0547H166.977V83.3906H178.648ZM168.219 69.0234C168.219 71.4844 169.719 74.1328 173.117 75.2344L171.641 77.6016C169.273 76.8398 167.656 75.2812 166.719 73.3359C165.781 75.4922 164.082 77.2031 161.562 78.0469L160.039 75.6094C163.555 74.5078 165.148 71.7188 165.172 69V68.6719H160.883V66.2812H172.461V68.6719H168.219V69.0234ZM191.234 65.9297V68.2969H184.625V72.6094C188.34 72.5977 190.578 72.4336 193.086 71.9062L193.391 74.2266C190.625 74.8594 188.023 74.9531 183.43 74.9297H181.648V65.9297H191.234ZM197.82 64.8281V68.8594H200.703V71.2969H197.82V75.4453H194.82V64.8281H197.82ZM197.82 76.3125V82.1953H186.641V83.5312H198.43V85.9219H183.711V79.9453H194.844V78.6797H183.664V76.3125H197.82ZM209.516 70.6406C209.492 73.8984 211.227 77.6484 214.742 79.2656L213.078 81.6094C210.699 80.5195 209 78.3398 208.062 75.7734C207.102 78.5977 205.355 80.9883 202.883 82.1484L201.148 79.7812C204.711 78.1172 206.492 74.1562 206.516 70.6406V69.3281H201.992V66.8906H213.805V69.3281H209.516V70.6406ZM218.469 64.8281V72.9609H221.609V75.4688H218.469V86.1562H215.469V64.8281H218.469ZM234.289 66.7969V69.1641H222.43V66.7969H227.023V64.6406H230V66.7969H234.289ZM228.477 69.8672C231.406 69.8906 233.516 71.5078 233.539 73.875C233.516 76.2656 231.406 77.8594 228.477 77.8359C225.523 77.8594 223.461 76.2656 223.484 73.875C223.461 71.5078 225.523 69.8906 228.477 69.8672ZM228.477 72.0938C227.117 72.0938 226.25 72.7266 226.273 73.875C226.25 75.0234 227.117 75.6328 228.477 75.6328C229.812 75.6328 230.75 75.0234 230.75 73.875C230.75 72.7266 229.812 72.0938 228.477 72.0938ZM240.359 64.8281V78.4219H237.383V76.1719H234.477V73.7812H237.383V71.9062H234.523V69.5156H237.383V64.8281H240.359ZM233.117 78.6797C237.641 78.6797 240.477 80.0625 240.477 82.4297C240.477 84.75 237.641 86.1562 233.117 86.1562C228.57 86.1562 225.758 84.75 225.758 82.4297C225.758 80.0625 228.57 78.6797 233.117 78.6797ZM233.117 80.9297C230.398 80.9531 228.898 81.4219 228.898 82.4297C228.898 83.3906 230.398 83.9062 233.117 83.9062C235.789 83.9062 237.266 83.3906 237.266 82.4297C237.266 81.4219 235.789 80.9531 233.117 80.9297ZM253.508 67.0312L251.492 73.7109H249.008L250.18 67.0312H253.508ZM248.305 67.0312L246.289 73.7109H243.805L244.977 67.0312H248.305ZM39.5156 119.328V133.359H38.0312V119.328H39.5156ZM32.0312 120.375C34.1094 120.375 35.6406 122.281 35.6406 125.281C35.6406 128.297 34.1094 130.203 32.0312 130.203C29.9219 130.203 28.4062 128.297 28.4062 125.281C28.4062 122.281 29.9219 120.375 32.0312 120.375ZM32.0312 121.703C30.7344 121.703 29.8438 123.078 29.8438 125.281C29.8438 127.5 30.7344 128.875 32.0312 128.875C33.3125 128.875 34.2031 127.5 34.2031 125.281C34.2031 123.078 33.3125 121.703 32.0312 121.703ZM54.5469 127.234V128.453H41.7344V127.234H47.4062V125.844H43.375V122.266H51.4531V120.906H43.3438V119.734H52.9375V123.344H44.8438V124.703H53.2188V125.844H48.875V127.234H54.5469ZM53.2344 132.047V133.25H43.4062V129.312H44.8906V132.047H53.2344ZM60.5938 121.812C60.5938 123.578 61.8594 125.312 63.9688 126.031L63.2031 127.188C61.6328 126.641 60.4688 125.523 59.8594 124.141C59.25 125.68 58.0234 126.914 56.3594 127.5L55.5938 126.328C57.75 125.594 59.0781 123.719 59.0781 121.828V121.438H56.0469V120.234H63.5938V121.438H60.5938V121.812ZM67.25 128.406V133.328H65.7656V129.609H57.7656V128.406H67.25ZM67.25 119.328V127.703H65.7656V124.109H63.1719V122.891H65.7656V119.328H67.25ZM81 119.328V133.359H79.5156V119.328H81ZM73.5156 120.375C75.5938 120.375 77.125 122.281 77.125 125.281C77.125 128.297 75.5938 130.203 73.5156 130.203C71.4062 130.203 69.8906 128.297 69.8906 125.281C69.8906 122.281 71.4062 120.375 73.5156 120.375ZM73.5156 121.703C72.2188 121.703 71.3281 123.078 71.3281 125.281C71.3281 127.5 72.2188 128.875 73.5156 128.875C74.7969 128.875 75.6875 127.5 75.6875 125.281C75.6875 123.078 74.7969 121.703 73.5156 121.703ZM94.8906 119.328V133.328H93.4219V126.094H90.2812V124.875H93.4219V119.328H94.8906ZM90.3281 120.828C90.3125 124.891 88.7344 128.375 83.9844 130.734L83.2031 129.562C86.9141 127.75 88.5625 125.227 88.8281 122.016H83.8281V120.828H90.3281ZM110.141 124.828V126.047H107.969V133.312H106.484V119.328H107.969V124.828H110.141ZM99.0625 120.688V128.562C101.016 128.562 103.055 128.398 105.281 127.938L105.453 129.188C103.062 129.672 100.844 129.797 98.75 129.797H97.5938V120.688H99.0625ZM125.938 120.203V121.438C125.938 122.766 125.938 124.203 125.547 126.203H127.562V127.422H121.891V133.344H120.391V127.422H114.797V126.203H124.047C124.469 124.211 124.469 122.742 124.469 121.438V121.422H116.359V120.203H125.938ZM141.438 130.359V131.578H128.625V130.359H134.281V127.047H135.766V130.359H141.438ZM135.781 121.875C135.781 124.016 138.203 125.922 140.875 126.344L140.281 127.516C138.023 127.086 135.938 125.773 135.031 123.938C134.117 125.797 132.047 127.148 129.828 127.578L129.219 126.406C131.828 125.969 134.234 124.016 134.234 121.875V121.75H129.688V120.531H140.328V121.75H135.781V121.875ZM147.469 121.812C147.469 123.578 148.734 125.312 150.844 126.031L150.078 127.188C148.508 126.641 147.344 125.523 146.734 124.141C146.125 125.68 144.898 126.914 143.234 127.5L142.469 126.328C144.625 125.594 145.953 123.719 145.953 121.828V121.438H142.922V120.234H150.469V121.438H147.469V121.812ZM154.125 128.406V133.328H152.641V129.609H144.641V128.406H154.125ZM154.125 119.328V127.703H152.641V124.109H150.047V122.891H152.641V119.328H154.125ZM167.891 119.344V129.516H166.406V119.344H167.891ZM168.312 131.828V133.031H158.734V128.484H160.234V131.828H168.312ZM160.297 120.281C162.406 120.281 164.016 121.719 164.016 123.75C164.016 125.812 162.406 127.234 160.297 127.234C158.188 127.234 156.562 125.812 156.562 123.75C156.562 121.719 158.188 120.281 160.297 120.281ZM160.297 121.578C158.984 121.578 158.016 122.469 158.016 123.75C158.016 125.062 158.984 125.938 160.297 125.938C161.578 125.938 162.562 125.062 162.562 123.75C162.562 122.469 161.578 121.578 160.297 121.578ZM178.875 122.891C178.859 125.375 180.297 127.906 182.391 128.922L181.469 130.109C179.945 129.32 178.766 127.75 178.156 125.875C177.523 127.875 176.297 129.547 174.703 130.375L173.781 129.172C175.938 128.141 177.391 125.453 177.391 122.891V120.5H178.875V122.891ZM184.922 119.328V124.906H187.172V126.172H184.922V133.328H183.438V119.328H184.922ZM199.172 120.672V122.047C199.172 123.781 199.172 125.719 198.641 128.578L197.141 128.422C197.688 125.719 197.688 123.734 197.688 122.047V121.875H189.188V120.672H199.172ZM200.609 130.203V131.438H187.844V130.203H192.703V125.266H194.172V130.203H200.609ZM213.719 119.328V133.328H212.297V119.328H213.719ZM210.875 119.594V132.641H209.453V125.891H207.875C207.75 128.625 206.578 130.328 204.844 130.312C203.016 130.328 201.828 128.406 201.828 125.375C201.828 122.344 203.016 120.438 204.844 120.453C206.547 120.438 207.703 122.055 207.875 124.688H209.453V119.594H210.875ZM204.844 121.844C203.828 121.844 203.203 123.141 203.203 125.375C203.203 127.609 203.828 128.906 204.844 128.906C205.875 128.906 206.516 127.609 206.516 125.375C206.516 123.141 205.875 121.844 204.844 121.844ZM230.406 119.328V122.859H232.438V124.062H230.406V127.641H228.922V119.328H230.406ZM226.562 120.328C226.562 123.953 224.109 126.562 220 127.75L219.391 126.547C222.664 125.617 224.688 123.797 224.953 121.531H220.016V120.328H226.562ZM225.938 127.797C228.766 127.797 230.562 128.844 230.562 130.547C230.562 132.266 228.766 133.312 225.938 133.312C223.125 133.312 221.281 132.266 221.297 130.547C221.281 128.844 223.125 127.797 225.938 127.797ZM225.938 128.969C223.984 128.969 222.75 129.562 222.766 130.547C222.75 131.531 223.984 132.141 225.938 132.141C227.875 132.141 229.109 131.531 229.109 130.547C229.109 129.562 227.875 128.969 225.938 128.969ZM244.141 119.328V125H246.391V126.234H244.141V133.328H242.672V119.328H244.141ZM241.453 121.516V122.734H233.156V121.516H236.609V119.516H238.094V121.516H241.453ZM237.359 123.766C239.359 123.766 240.828 125.109 240.844 127.016C240.828 128.938 239.359 130.266 237.359 130.281C235.344 130.266 233.875 128.938 233.875 127.016C233.875 125.109 235.344 123.766 237.359 123.766ZM237.359 124.984C236.172 124.984 235.281 125.812 235.297 127.016C235.281 128.234 236.172 129.047 237.359 129.031C238.547 129.047 239.422 128.234 239.422 127.016C239.422 125.812 238.547 124.984 237.359 124.984ZM254.109 120.672V122.625H257.266V119.328H258.734V133.359H257.266V127.672H254.109V129.828H247.609V120.672H254.109ZM249.078 121.828V128.641H252.656V121.828H249.078ZM254.109 126.469H257.266V123.844H254.109V126.469ZM263.406 130.922L262.156 135.234H260.828L261.656 130.922H263.406ZM280.562 119.328V127.656H279.078V124.109H276.469V122.891H279.078V119.328H280.562ZM275.875 128.047C278.812 128.047 280.609 129.016 280.609 130.688C280.609 132.359 278.812 133.312 275.875 133.328C272.938 133.312 271.125 132.359 271.141 130.688C271.125 129.016 272.938 128.047 275.875 128.047ZM275.875 129.203C273.828 129.203 272.609 129.734 272.609 130.688C272.609 131.625 273.828 132.172 275.875 132.156C277.922 132.172 279.141 131.625 279.141 130.688C279.141 129.734 277.922 129.203 275.875 129.203ZM273.906 121.797C273.906 123.578 275.172 125.297 277.281 126.016L276.516 127.188C274.945 126.641 273.789 125.523 273.188 124.141C272.57 125.711 271.344 126.969 269.672 127.578L268.891 126.391C271.062 125.641 272.391 123.75 272.391 121.812V121.5H269.359V120.297H276.906V121.5H273.906V121.797ZM295.531 130.359V131.594H282.719V130.359H288.359V127.484H284.188V120.281H285.672V122.688H292.547V120.281H294.016V127.484H289.828V130.359H295.531ZM285.672 126.281H292.547V123.891H285.672V126.281ZM309.344 125.75V126.891H296.531V125.75H309.344ZM307.766 127.875V130.953H299.547V132.109H308.203V133.156H298.062V129.969H306.297V128.938H298.047V127.875H307.766ZM307.734 119.688V122.719H299.641V123.781H307.969V124.828H298.172V121.734H306.25V120.734H298.141V119.688H307.734ZM327.078 126.656V127.844H321.516V130.422H320.047V127.844H314.266V126.656H327.078ZM325.656 131.828V133.031H315.859V129.203H317.328V131.828H325.656ZM317.422 119.766V121.469H323.906V119.766H325.391V125.422H315.953V119.766H317.422ZM317.422 124.234H323.906V122.578H317.422V124.234ZM34.9062 140.562C34.8906 142.422 36.1719 144.172 38.2812 144.875L37.4688 146.062C35.9219 145.508 34.7812 144.375 34.1875 142.953C33.5703 144.516 32.3828 145.742 30.75 146.359L29.9531 145.156C32.1406 144.391 33.4062 142.547 33.4219 140.484V139.047H34.9062V140.562ZM41.6406 147.359V152.328H40.1562V148.531H32.1562V147.359H41.6406ZM41.6406 138.328V146.625H40.1562V142.375H37.2031V141.156H40.1562V138.328H41.6406ZM54.7031 138.328V144H56.9531V145.234H54.7031V152.328H53.2344V138.328H54.7031ZM52.0156 140.516V141.734H43.7188V140.516H47.1719V138.516H48.6562V140.516H52.0156ZM47.9219 142.766C49.9219 142.766 51.3906 144.109 51.4062 146.016C51.3906 147.938 49.9219 149.266 47.9219 149.281C45.9062 149.266 44.4375 147.938 44.4375 146.016C44.4375 144.109 45.9062 142.766 47.9219 142.766ZM47.9219 143.984C46.7344 143.984 45.8438 144.812 45.8594 146.016C45.8438 147.234 46.7344 148.047 47.9219 148.031C49.1094 148.047 49.9844 147.234 49.9844 146.016C49.9844 144.812 49.1094 143.984 47.9219 143.984ZM68.9531 139.672V141.047C68.9531 142.781 68.9531 144.719 68.4219 147.578L66.9219 147.422C67.4688 144.719 67.4688 142.734 67.4688 141.047V140.875H58.9688V139.672H68.9531ZM70.3906 149.203V150.438H57.625V149.203H62.4844V144.266H63.9531V149.203H70.3906ZM79.5469 142.625C79.5469 144.828 80.5625 147.078 82.5 148.109L81.6719 149.203C80.3203 148.484 79.375 147.141 78.875 145.547C78.3672 147.258 77.4297 148.727 76.0781 149.531L75.2031 148.406C77.1406 147.281 78.1406 144.891 78.1562 142.625V142.062H75.625V140.844H78.1562V138.828H79.5469V140.844H82.0312V142.062H79.5469V142.625ZM87.375 138.328V152.328H85.9531V138.328H87.375ZM84.5312 138.625V151.625H83.125V145.016H81.1094V143.781H83.125V138.625H84.5312ZM101.219 138.328V152.328H99.8125V138.328H101.219ZM98.3594 138.688V151.641H96.9531V146.875H94.5625V145.656H96.9531V143.375H94.7969C94.1172 145.727 92.625 147.766 89.9844 149.344L89.1094 148.281C92.0781 146.516 93.5078 144.164 93.7656 141.281H89.7969V140.062H95.2344C95.2344 140.781 95.1797 141.477 95.0625 142.156H96.9531V138.688H98.3594ZM113.984 138.328V144.188H116.094V145.438H113.984V152.328H112.5V138.328H113.984ZM102.844 148.516C103.945 148.516 105.227 148.516 106.562 148.469V147.047C104.984 146.828 103.953 145.875 103.969 144.516C103.953 142.938 105.312 141.891 107.312 141.891C109.297 141.891 110.672 142.938 110.688 144.516C110.672 145.875 109.625 146.836 108.047 147.062V148.406C109.289 148.359 110.539 148.258 111.703 148.094L111.797 149.188C108.766 149.734 105.484 149.75 103.078 149.75L102.844 148.516ZM111.5 139.984V141.172H103.109V139.984H106.562V138.359H108.047V139.984H111.5ZM107.312 143.047C106.141 143.047 105.359 143.625 105.359 144.516C105.359 145.406 106.141 145.953 107.312 145.953C108.484 145.953 109.266 145.406 109.266 144.516C109.266 143.625 108.484 143.047 107.312 143.047ZM123.766 140.641V141.844H116.812V140.641H119.562V138.734H121.031V140.641H123.766ZM120.297 142.688C122.078 142.688 123.328 144.016 123.344 145.906C123.328 147.812 122.078 149.156 120.297 149.156C118.547 149.156 117.25 147.812 117.266 145.906C117.25 144.016 118.547 142.688 120.297 142.688ZM120.297 143.922C119.281 143.922 118.578 144.75 118.578 145.906C118.578 147.094 119.281 147.891 120.297 147.891C121.297 147.891 122.031 147.094 122.031 145.906C122.031 144.75 121.297 143.922 120.297 143.922ZM128.828 138.328V152.328H127.422V145.375H125.812V151.672H124.406V138.641H125.812V144.156H127.422V138.328H128.828ZM141.766 139.562V140.781H136.672V143.484H141.484V144.672H136.672V147.812C139.008 147.805 140.734 147.703 142.766 147.375L142.906 148.578C140.75 148.938 138.875 149.016 136.297 149.016H135.172V139.562H141.766ZM145.484 138.328V143.844H147.734V145.094H145.484V152.328H144V138.328H145.484ZM160.016 138.344V148.516H158.531V138.344H160.016ZM160.438 150.828V152.031H150.859V147.484H152.359V150.828H160.438ZM152.422 139.281C154.531 139.281 156.141 140.719 156.141 142.75C156.141 144.812 154.531 146.234 152.422 146.234C150.312 146.234 148.688 144.812 148.688 142.75C148.688 140.719 150.312 139.281 152.422 139.281ZM152.422 140.578C151.109 140.578 150.141 141.469 150.141 142.75C150.141 144.062 151.109 144.938 152.422 144.938C153.703 144.938 154.688 144.062 154.688 142.75C154.688 141.469 153.703 140.578 152.422 140.578ZM174.281 138.328V152.328H172.859V138.328H174.281ZM171.438 138.594V151.641H170.016V144.891H168.438C168.312 147.625 167.141 149.328 165.406 149.312C163.578 149.328 162.391 147.406 162.391 144.375C162.391 141.344 163.578 139.438 165.406 139.453C167.109 139.438 168.266 141.055 168.438 143.688H170.016V138.594H171.438ZM165.406 140.844C164.391 140.844 163.766 142.141 163.766 144.375C163.766 146.609 164.391 147.906 165.406 147.906C166.438 147.906 167.078 146.609 167.078 144.375C167.078 142.141 166.438 140.844 165.406 140.844ZM188.094 138.328V152.328H186.688V138.328H188.094ZM185.141 138.688V151.641H183.734V145.141H181C180.164 146.766 178.836 148.188 176.859 149.344L176.016 148.281C178.984 146.516 180.414 144.164 180.672 141.281H176.672V140.062H182.141C182.133 141.43 181.945 142.734 181.516 143.953H183.734V138.688H185.141ZM205.469 138.344V148.594H203.984V143.328H201.312V142.125H203.984V138.344H205.469ZM205.844 150.828V152.031H196.375V147.672H197.859V150.828H205.844ZM198.812 141.172C198.812 142.922 200.078 144.672 202.188 145.375L201.422 146.562C199.852 146.008 198.688 144.883 198.078 143.5C197.469 145.039 196.242 146.281 194.578 146.875L193.812 145.672C195.969 144.938 197.297 143.094 197.297 141.172V140.625H194.266V139.406H201.812V140.625H198.812V141.172ZM214.469 139.109V140.297H209.688V143.703C212.328 143.711 213.922 143.594 215.734 143.234L215.906 144.406C213.969 144.828 212.266 144.891 209.328 144.891H208.219V139.109H214.469ZM218.625 138.328V141.188H220.656V142.406H218.625V145.359H217.141V138.328H218.625ZM218.625 146.016V149.594H211.062V150.953H219.109V152.156H209.609V148.453H217.156V147.203H209.578V146.016H218.625ZM232.359 138.328V144H234.609V145.234H232.359V152.328H230.891V138.328H232.359ZM229.672 140.516V141.734H221.375V140.516H224.828V138.516H226.312V140.516H229.672ZM225.578 142.766C227.578 142.766 229.047 144.109 229.062 146.016C229.047 147.938 227.578 149.266 225.578 149.281C223.562 149.266 222.094 147.938 222.094 146.016C222.094 144.109 223.562 142.766 225.578 142.766ZM225.578 143.984C224.391 143.984 223.5 144.812 223.516 146.016C223.5 147.234 224.391 148.047 225.578 148.031C226.766 148.047 227.641 147.234 227.641 146.016C227.641 144.812 226.766 143.984 225.578 143.984ZM246.609 142.422V143.609H236.969V138.828H238.438V142.422H246.609ZM248.078 145.375V146.562H235.266V145.375H248.078ZM246.703 150.781V152H236.859V147.891H238.344V150.781H246.703ZM264.328 142.109V143.312H254.719V138.578H256.188V142.109H264.328ZM265.797 144.797V146.016H253.016V144.797H265.797ZM259.391 147.156C262.406 147.156 264.219 148.078 264.219 149.703C264.219 151.344 262.406 152.266 259.391 152.266C256.359 152.266 254.531 151.344 254.531 149.703C254.531 148.078 256.359 147.156 259.391 147.156ZM259.391 148.312C257.25 148.328 256.031 148.797 256.031 149.703C256.031 150.594 257.25 151.125 259.391 151.125C261.5 151.125 262.734 150.594 262.734 149.703C262.734 148.797 261.5 148.328 259.391 148.312ZM273.516 139.172V143.25H268.891V145.188C271.328 145.195 272.656 145.141 274.234 144.844L274.375 146.047C272.672 146.344 271.234 146.391 268.438 146.391H267.422V142.125H272.031V140.359H267.406V139.172H273.516ZM278.516 138.344V146.953H277.031V144.484H274.406V143.297H277.031V141.562H274.406V140.375H277.031V138.344H278.516ZM278.516 147.656V152.344H277.031V148.859H269.016V147.656H278.516ZM292.266 138.328V152.359H290.781V138.328H292.266ZM284.781 139.375C286.859 139.375 288.391 141.281 288.391 144.281C288.391 147.297 286.859 149.203 284.781 149.203C282.672 149.203 281.156 147.297 281.156 144.281C281.156 141.281 282.672 139.375 284.781 139.375ZM284.781 140.703C283.484 140.703 282.594 142.078 282.594 144.281C282.594 146.5 283.484 147.875 284.781 147.875C286.062 147.875 286.953 146.5 286.953 144.281C286.953 142.078 286.062 140.703 284.781 140.703ZM310.172 138.344V152.328H308.688V138.344H310.172ZM298.328 145.969C301.156 145.969 304.688 145.984 307.891 145.594L307.969 146.688C306.617 146.898 305.242 147.023 303.906 147.094V151.875H302.422V147.156C301.047 147.203 299.719 147.203 298.516 147.203L298.328 145.969ZM307.375 143.219V144.406H303.547V139.328H307.281V140.531H305V143.219H307.375ZM302.812 139.328V140.531H300.656V143.203C301.383 143.188 302.109 143.133 302.969 142.938L303.078 144.125C301.844 144.391 300.891 144.406 299.828 144.406H299.188V139.328H302.812ZM316.031 139.375C317.93 139.375 319.32 140.984 319.547 143.578H322.438V138.328H323.906V152.359H322.438V144.781H319.562C319.398 147.508 317.977 149.203 316.031 149.203C313.938 149.203 312.469 147.297 312.484 144.281C312.469 141.281 313.938 139.375 316.031 139.375ZM316.031 140.703C314.766 140.703 313.891 142.078 313.891 144.281C313.891 146.5 314.766 147.875 316.031 147.875C317.297 147.875 318.172 146.5 318.172 144.281C318.172 142.078 317.297 140.703 316.031 140.703ZM35.0391 158.328V163.719C36.9375 163.719 38.9375 163.594 41.1016 163.141L41.2734 164.359C38.9297 164.844 36.7734 164.969 34.6953 164.969H33.5547V158.328H35.0391ZM43.9141 157.344V161.422H45.9453V162.688H43.9141V167.438H42.4297V157.344H43.9141ZM44.3984 169.828V171.031H35.0703V166.453H36.5703V169.828H44.3984ZM55.5078 160.891C55.4922 163.375 56.9297 165.906 59.0234 166.922L58.1016 168.109C56.5781 167.32 55.3984 165.75 54.7891 163.875C54.1562 165.875 52.9297 167.547 51.3359 168.375L50.4141 167.172C52.5703 166.141 54.0234 163.453 54.0234 160.891V158.5H55.5078V160.891ZM61.5547 157.328V162.906H63.8047V164.172H61.5547V171.328H60.0703V157.328H61.5547ZM75.4766 157.344V160.828H77.5234V162.078H75.4766V165.672H73.9922V157.344H75.4766ZM75.4766 166.328V171.156H66.5078V166.328H75.4766ZM67.9609 167.484V169.953H74.0391V167.484H67.9609ZM71.4141 158.078V162.031H66.5391V163.781C68.9688 163.773 70.6875 163.703 72.7266 163.359L72.8828 164.547C70.7109 164.938 68.8672 165.016 66.1797 165.016H65.0547V160.906H69.9609V159.266H65.0391V158.078H71.4141ZM89.9141 157.328V164.844H88.4297V157.328H89.9141ZM82.2109 165.516V167.094H88.4453V165.516H89.9141V171.156H80.7578V165.516H82.2109ZM82.2109 169.938H88.4453V168.266H82.2109V169.938ZM82.3203 157.969C84.4609 157.969 86.0391 159.297 86.0391 161.219C86.0391 163.141 84.4609 164.469 82.3203 164.453C80.1797 164.469 78.5859 163.141 78.5859 161.219C78.5859 159.297 80.1797 157.969 82.3203 157.969ZM82.3203 159.219C80.9922 159.203 80.0391 160.031 80.0391 161.219C80.0391 162.422 80.9922 163.234 82.3203 163.234C83.6328 163.234 84.5859 162.422 84.5859 161.219C84.5859 160.031 83.6328 159.203 82.3203 159.219ZM103.758 157.328V171.328H102.273V157.328H103.758ZM94.4609 158.688V166.484C96.5 166.469 98.6484 166.305 100.898 165.844L101.102 167.094C98.6172 167.594 96.3672 167.766 94.1641 167.766H92.9922V158.688H94.4609ZM116.867 157.328V162.75H119.117V163.969H116.867V171.359H115.383V157.328H116.867ZM113.102 158.672V159.875H108.039V166.641C110.391 166.633 112.156 166.531 114.148 166.172L114.336 167.422C112.148 167.812 110.289 167.891 107.68 167.875H106.555V158.672H113.102ZM121.383 170.109C120.773 170.109 120.258 169.609 120.273 169C120.258 168.391 120.773 167.891 121.383 167.891C121.977 167.891 122.492 168.391 122.492 169C122.492 169.609 121.977 170.109 121.383 170.109ZM139.102 158.672V160.172C139.086 161.938 139.086 163.781 138.586 166.453L137.133 166.297C137.617 163.766 137.617 161.891 137.617 160.172V159.875H129.039V158.672H139.102ZM140.492 168.203V169.438H127.727V168.203H130.742V163.672H132.227V168.203H134.242V163.672H135.695V168.203H140.492ZM154.32 164V165.203H151.023V166.828H152.758V171.328H151.258V168H142.977V166.828H144.82V165.203H141.555V164H154.32ZM147.93 157.641C150.992 157.625 152.93 158.656 152.93 160.344C152.93 162.031 150.992 163.062 147.93 163.047C144.867 163.062 142.93 162.031 142.93 160.344C142.93 158.656 144.867 157.625 147.93 157.641ZM147.93 158.812C145.773 158.797 144.445 159.375 144.461 160.344C144.445 161.328 145.773 161.891 147.93 161.891C150.07 161.891 151.398 161.328 151.398 160.344C151.398 159.375 150.07 158.797 147.93 158.812ZM146.305 166.828H149.57V165.203H146.305V166.828ZM166.977 157.328V171.359H165.492V157.328H166.977ZM159.492 158.375C161.57 158.375 163.102 160.281 163.102 163.281C163.102 166.297 161.57 168.203 159.492 168.203C157.383 168.203 155.867 166.297 155.867 163.281C155.867 160.281 157.383 158.375 159.492 158.375ZM159.492 159.703C158.195 159.703 157.305 161.078 157.305 163.281C157.305 165.5 158.195 166.875 159.492 166.875C160.773 166.875 161.664 165.5 161.664 163.281C161.664 161.078 160.773 159.703 159.492 159.703ZM182.289 162.828V164.047H180.117V171.312H178.633V157.328H180.117V162.828H182.289ZM171.211 158.688V166.562C173.164 166.562 175.203 166.398 177.43 165.938L177.602 167.188C175.211 167.672 172.992 167.797 170.898 167.797H169.742V158.688H171.211ZM198.164 157.953V159.188C198.164 160.516 198.164 161.922 197.773 163.828L196.305 163.703C196.461 162.945 196.562 162.273 196.617 161.641L188.289 162.031L188.086 160.781L196.68 160.547C196.695 160.07 196.695 159.625 196.695 159.188V159.156H188.445V157.953H198.164ZM199.695 164.688V165.875H186.961V164.688H192.008V162.719H193.508V164.688H199.695ZM198.461 169.906V171.109H188.539V166.953H190.023V169.906H198.461ZM212.711 157.344V167.812H211.305V157.344H212.711ZM209.961 157.609V167.469H208.555V162.453H206.82V161.25H208.555V157.609H209.961ZM213.117 169.828V171.031H203.492V166.656H204.992V169.828H213.117ZM206.727 158.453V159.656H202.82V161.406H206.18V162.562H202.82V164.391C204.664 164.383 205.891 164.336 207.32 164.047L207.461 165.234C205.852 165.547 204.523 165.609 202.305 165.609H201.398V158.453H206.727ZM227.414 168.359V169.578H214.602V168.359H227.414ZM226.227 159.484V160.688H221.742C221.805 162.789 223.859 164.523 226.727 164.984L226.133 166.172C223.812 165.758 221.891 164.57 220.992 162.859C220.078 164.57 218.156 165.758 215.852 166.172L215.273 164.984C218.109 164.523 220.164 162.789 220.242 160.688H215.758V159.484H220.258V157.625H221.727V159.484H226.227ZM244.352 157.328V171.328H242.93V157.328H244.352ZM241.508 157.625V170.625H240.102V163.5H237.93V162.281H240.102V157.625H241.508ZM236.555 161.234C236.555 163.625 237.523 166.016 239.492 167.156L238.602 168.25C237.266 167.453 236.344 166.039 235.867 164.344C235.359 166.172 234.406 167.727 233.039 168.578L232.133 167.469C234.117 166.266 235.133 163.719 235.133 161.234V160.109H232.555V158.906H238.961V160.109H236.555V161.234ZM251.055 159.844C251.055 161.625 252.289 163.328 254.43 164.047L253.68 165.203C252.094 164.656 250.93 163.562 250.32 162.188C249.711 163.703 248.5 164.891 246.852 165.469L246.055 164.312C248.242 163.562 249.555 161.766 249.57 159.828V159.453H246.492V158.25H254.07V159.453H251.055V159.844ZM257.164 157.328V160.922H259.195V162.172H257.164V165.766H255.68V157.328H257.164ZM257.164 166.453V171.328H255.68V167.656H247.914V166.453H257.164ZM276.68 163.906V165.125H263.898V163.906H276.68ZM275.195 161.484V162.688H265.492V157.828H275.102V159.047H266.961V161.484H275.195ZM270.273 166.219C273.289 166.219 275.102 167.141 275.102 168.766C275.102 170.391 273.289 171.312 270.273 171.297C267.242 171.312 265.414 170.391 265.414 168.766C265.414 167.141 267.242 166.219 270.273 166.219ZM270.273 167.359C268.133 167.375 266.914 167.875 266.914 168.766C266.914 169.656 268.133 170.156 270.273 170.156C272.383 170.156 273.617 169.656 273.617 168.766C273.617 167.875 272.383 167.375 270.273 167.359ZM293.227 157.328V171.359H291.742V157.328H293.227ZM283.898 158.5V162.094H287.664V158.5H289.133V168H282.414V158.5H283.898ZM283.898 166.781H287.664V163.266H283.898V166.781ZM306.836 158.672V160.172C306.82 161.938 306.82 163.781 306.32 166.453L304.867 166.297C305.352 163.766 305.352 161.891 305.352 160.172V159.875H296.773V158.672H306.836ZM308.227 168.203V169.438H295.461V168.203H298.477V163.672H299.961V168.203H301.977V163.672H303.43V168.203H308.227ZM314.305 159.812C314.305 161.578 315.57 163.312 317.68 164.031L316.914 165.188C315.344 164.641 314.18 163.523 313.57 162.141C312.961 163.68 311.734 164.914 310.07 165.5L309.305 164.328C311.461 163.594 312.789 161.719 312.789 159.828V159.438H309.758V158.234H317.305V159.438H314.305V159.812ZM320.961 166.406V171.328H319.477V167.609H311.477V166.406H320.961ZM320.961 157.328V165.703H319.477V162.109H316.883V160.891H319.477V157.328H320.961ZM48.4609 176.328V184.656H46.9766V181.109H44.3672V179.891H46.9766V176.328H48.4609ZM43.7734 185.047C46.7109 185.047 48.5078 186.016 48.5078 187.688C48.5078 189.359 46.7109 190.312 43.7734 190.328C40.8359 190.312 39.0234 189.359 39.0391 187.688C39.0234 186.016 40.8359 185.047 43.7734 185.047ZM43.7734 186.203C41.7266 186.203 40.5078 186.734 40.5078 187.688C40.5078 188.625 41.7266 189.172 43.7734 189.156C45.8203 189.172 47.0391 188.625 47.0391 187.688C47.0391 186.734 45.8203 186.203 43.7734 186.203ZM41.8047 178.797C41.8047 180.578 43.0703 182.297 45.1797 183.016L44.4141 184.188C42.8438 183.641 41.6875 182.523 41.0859 181.141C40.4688 182.711 39.2422 183.969 37.5703 184.578L36.7891 183.391C38.9609 182.641 40.2891 180.75 40.2891 178.812V178.5H37.2578V177.297H44.8047V178.5H41.8047V178.797ZM55.6328 178.812C55.6328 180.578 56.8984 182.312 59.0078 183.031L58.2422 184.188C56.6719 183.641 55.5078 182.523 54.8984 181.141C54.2891 182.68 53.0625 183.914 51.3984 184.5L50.6328 183.328C52.7891 182.594 54.1172 180.719 54.1172 178.828V178.438H51.0859V177.234H58.6328V178.438H55.6328V178.812ZM62.2891 185.406V190.328H60.8047V186.609H52.8047V185.406H62.2891ZM62.2891 176.328V184.703H60.8047V181.109H58.2109V179.891H60.8047V176.328H62.2891ZM76.0547 176.344V186.516H74.5703V176.344H76.0547ZM76.4766 188.828V190.031H66.8984V185.484H68.3984V188.828H76.4766ZM68.4609 177.281C70.5703 177.281 72.1797 178.719 72.1797 180.75C72.1797 182.812 70.5703 184.234 68.4609 184.234C66.3516 184.234 64.7266 182.812 64.7266 180.75C64.7266 178.719 66.3516 177.281 68.4609 177.281ZM68.4609 178.578C67.1484 178.578 66.1797 179.469 66.1797 180.75C66.1797 182.062 67.1484 182.938 68.4609 182.938C69.7422 182.938 70.7266 182.062 70.7266 180.75C70.7266 179.469 69.7422 178.578 68.4609 178.578ZM94.9453 183.25V184.469H82.1797V183.25H87.8203V181.891H83.8516V176.703H85.3203V178.156H91.8047V176.703H93.2891V181.891H89.2891V183.25H94.9453ZM88.5547 185.375C91.5703 185.375 93.3828 186.266 93.3984 187.844C93.3828 189.438 91.5703 190.312 88.5547 190.297C85.5078 190.312 83.7109 189.438 83.7109 187.844C83.7109 186.266 85.5078 185.375 88.5547 185.375ZM88.5547 186.516C86.4141 186.516 85.1953 186.984 85.1953 187.844C85.1953 188.703 86.4141 189.172 88.5547 189.156C90.6641 189.172 91.8828 188.703 91.8828 187.844C91.8828 186.984 90.6641 186.516 88.5547 186.516ZM85.3203 180.719H91.8047V179.297H85.3203V180.719ZM100.867 179.891C100.852 182.375 102.289 184.906 104.383 185.922L103.461 187.109C101.938 186.32 100.758 184.75 100.148 182.875C99.5156 184.875 98.2891 186.547 96.6953 187.375L95.7734 186.172C97.9297 185.141 99.3828 182.453 99.3828 179.891V177.5H100.867V179.891ZM106.914 176.328V181.906H109.164V183.172H106.914V190.328H105.43V176.328H106.914ZM120.852 176.328V179.812H122.852V181.078H120.852V184.578H119.367V176.328H120.852ZM120.852 185.172V188.094H113.117V189.156H121.367V190.188H111.633V187.141H119.383V186.203H111.602V185.172H120.852ZM109.742 183.25C110.828 183.25 112.086 183.25 113.398 183.203V182.422C111.789 182.273 110.789 181.633 110.805 180.578C110.789 179.438 112.102 178.766 114.133 178.766C116.148 178.766 117.461 179.438 117.461 180.578C117.461 181.625 116.469 182.266 114.883 182.422V183.156C116.133 183.094 117.398 182.992 118.57 182.828L118.695 183.797C115.68 184.297 112.367 184.312 109.898 184.312L109.742 183.25ZM118.18 177.328V178.359H110.102V177.328H113.398V176.203H114.883V177.328H118.18ZM114.133 179.734C112.93 179.734 112.211 180.047 112.211 180.578C112.211 181.141 112.93 181.484 114.133 181.484C115.32 181.484 116.039 181.141 116.039 180.578C116.039 180.047 115.32 179.734 114.133 179.734ZM136.445 183.141V184.328H123.664V183.141H129.336V181.656H125.258V176.969H134.867V178.141H126.727V180.469H134.961V181.656H130.773V183.141H136.445ZM130.039 185.234C133.055 185.234 134.867 186.156 134.867 187.781C134.867 189.406 133.055 190.312 130.039 190.328C127.008 190.312 125.18 189.406 125.18 187.781C125.18 186.156 127.008 185.234 130.039 185.234ZM130.039 186.391C127.898 186.391 126.68 186.891 126.68 187.781C126.68 188.672 127.898 189.172 130.039 189.156C132.148 189.172 133.383 188.672 133.383 187.781C133.383 186.891 132.148 186.391 130.039 186.391ZM149.539 176.328V190.328H148.117V176.328H149.539ZM146.695 176.594V189.641H145.273V182.891H143.695C143.57 185.625 142.398 187.328 140.664 187.312C138.836 187.328 137.648 185.406 137.648 182.375C137.648 179.344 138.836 177.438 140.664 177.453C142.367 177.438 143.523 179.055 143.695 181.688H145.273V176.594H146.695ZM140.664 178.844C139.648 178.844 139.023 180.141 139.023 182.375C139.023 184.609 139.648 185.906 140.664 185.906C141.695 185.906 142.336 184.609 142.336 182.375C142.336 180.141 141.695 178.844 140.664 178.844ZM156.367 179.891C156.367 182.453 157.805 185 159.945 185.969L159.039 187.156C157.445 186.359 156.25 184.773 155.633 182.859C155.016 184.875 153.789 186.578 152.18 187.422L151.242 186.219C153.414 185.188 154.867 182.484 154.867 179.891V177.5H156.367V179.891ZM162.992 176.328V190.359H161.523V182.188H158.398V180.984H161.523V176.328H162.992ZM180.727 185.312V190.328H179.242V186.484H171.242V185.312H180.727ZM180.727 176.328V184.578H179.242V182.656H175.789C175.141 183.422 174.117 183.883 172.93 183.875C170.82 183.891 169.258 182.484 169.258 180.484C169.258 178.516 170.82 177.094 172.93 177.109C174.117 177.102 175.133 177.562 175.789 178.328H179.242V176.328H180.727ZM172.93 178.359C171.617 178.359 170.68 179.234 170.68 180.484C170.68 181.766 171.617 182.625 172.93 182.625C174.195 182.625 175.148 181.766 175.148 180.484C175.148 179.234 174.195 178.359 172.93 178.359ZM176.445 181.438H179.242V179.547H176.445C176.523 179.844 176.57 180.156 176.57 180.484C176.57 180.82 176.523 181.141 176.445 181.438ZM195.93 178.422V179.656H193.883V181.375H195.93V182.609H193.883V184.797H192.398V176.344H193.883V178.422H195.93ZM189.82 177.188V181.109H184.945V182.812C187.375 182.805 189.094 182.719 191.133 182.375L191.289 183.578C189.117 183.969 187.273 184.047 184.586 184.031H183.461V179.969H188.367V178.391H183.445V177.188H189.82ZM189.352 185.141C192.227 185.141 194.008 186.109 194.008 187.734C194.008 189.359 192.227 190.297 189.352 190.297C186.43 190.297 184.648 189.359 184.648 187.734C184.648 186.109 186.43 185.141 189.352 185.141ZM189.352 186.312C187.305 186.312 186.102 186.828 186.102 187.734C186.102 188.641 187.305 189.172 189.352 189.156C191.383 189.172 192.555 188.641 192.555 187.734C192.555 186.828 191.383 186.312 189.352 186.312ZM203.086 176.562C206.242 176.562 208.086 177.406 208.086 178.969C208.086 180.531 206.242 181.391 203.086 181.391C199.93 181.391 198.086 180.531 198.086 178.969C198.086 177.406 199.93 176.562 203.086 176.562ZM203.086 177.656C200.852 177.656 199.617 178.141 199.633 178.969C199.617 179.828 200.852 180.281 203.086 180.281C205.32 180.281 206.555 179.828 206.555 178.969C206.555 178.141 205.32 177.656 203.086 177.656ZM209.477 182.25V183.438H196.711V182.25H209.477ZM207.867 184.516V187.797H199.711V189.047H208.258V190.188H198.258V186.719H206.398V185.625H198.242V184.516H207.867ZM216.445 176.922V178.828H220.117V176.922H221.586V183.031H214.992V176.922H216.445ZM216.445 181.844H220.117V179.969H216.445V181.844ZM225.445 176.328V179.266H227.477V180.469H225.445V183.531H223.961V176.328H225.445ZM225.445 184.141V187.672H217.883V189H225.93V190.188H216.43V186.578H223.977V185.312H216.398V184.141H225.445ZM239.914 176.344V190.344H238.445V176.344H239.914ZM228.273 185.016C231.023 185.016 234.477 185 237.508 184.656L237.617 185.734C236.305 185.922 234.961 186.039 233.648 186.109V190.031H232.164V186.172C230.859 186.219 229.602 186.227 228.477 186.219L228.273 185.016ZM237.07 177.797V178.938H228.773V177.797H232.18V176.219H233.648V177.797H237.07ZM232.93 179.484C234.914 179.484 236.273 180.406 236.273 181.828C236.273 183.234 234.914 184.156 232.93 184.156C230.914 184.156 229.555 183.234 229.57 181.828C229.555 180.406 230.914 179.484 232.93 179.484ZM232.93 180.609C231.742 180.609 230.977 181.062 230.977 181.828C230.977 182.594 231.742 183.047 232.93 183.047C234.086 183.047 234.852 182.594 234.852 181.828C234.852 181.062 234.086 180.609 232.93 180.609ZM253.008 176.328V182H255.258V183.234H253.008V190.328H251.539V176.328H253.008ZM250.32 178.516V179.734H242.023V178.516H245.477V176.516H246.961V178.516H250.32ZM246.227 180.766C248.227 180.766 249.695 182.109 249.711 184.016C249.695 185.938 248.227 187.266 246.227 187.281C244.211 187.266 242.742 185.938 242.742 184.016C242.742 182.109 244.211 180.766 246.227 180.766ZM246.227 181.984C245.039 181.984 244.148 182.812 244.164 184.016C244.148 185.234 245.039 186.047 246.227 186.031C247.414 186.047 248.289 185.234 248.289 184.016C248.289 182.812 247.414 181.984 246.227 181.984ZM262.977 177.672V179.625H266.133V176.328H267.602V190.359H266.133V184.672H262.977V186.828H256.477V177.672H262.977ZM257.945 178.828V185.641H261.523V178.828H257.945ZM262.977 183.469H266.133V180.844H262.977V183.469ZM272.273 187.922L271.023 192.234H269.695L270.523 187.922H272.273ZM282.727 178.422C282.727 180.391 283.992 182.141 286.117 182.828L285.305 183.984C283.766 183.43 282.633 182.352 282.023 180.953C281.414 182.555 280.195 183.797 278.508 184.406L277.711 183.219C279.945 182.453 281.242 180.594 281.258 178.484V177.109H282.727V178.422ZM289.43 176.328V184.594H287.945V180.391H284.992V179.172H287.945V176.328H289.43ZM284.742 184.984C287.68 184.984 289.477 185.953 289.477 187.656C289.477 189.344 287.68 190.312 284.742 190.297C281.805 190.312 279.992 189.344 280.008 187.656C279.992 185.953 281.805 184.984 284.742 184.984ZM284.742 186.141C282.695 186.141 281.477 186.688 281.477 187.656C281.477 188.594 282.695 189.125 284.742 189.125C286.789 189.125 288.008 188.594 288.008 187.656C288.008 186.688 286.789 186.141 284.742 186.141ZM299.383 177.828V178.688C299.383 179.859 299.383 181.672 298.977 184.172L297.508 184.062C297.859 181.82 297.898 180.203 297.914 179.031H292.227V177.828H299.383ZM295.789 181.828V186.016C297.281 185.969 298.797 185.867 300.195 185.688L300.273 186.797C297.352 187.266 294.102 187.328 291.617 187.312L291.445 186.109C292.32 186.102 293.297 186.094 294.32 186.062V181.828H295.789ZM302.492 176.328V182.109H304.633V183.375H302.492V190.328H300.992V176.328H302.492ZM316.758 182.781V183.969H312.523V187.391H318.227V188.609H305.414V187.391H311.055V183.969H307.008V177.406H316.633V178.609H308.492V182.781H316.758ZM94.6094 196.266C94.6094 199.859 92.0469 202.25 87.9375 203.25L87.3281 202.047C90.7656 201.289 92.7656 199.57 93.0156 197.469H88.0625V196.266H94.6094ZM98.6719 195.344V202.953H97.1875V195.344H98.6719ZM98.8906 203.703V204.859H97.0156V207.906H99.0469V209.109H89.2812V207.906H91.2656V204.859H89.4062V203.703H98.8906ZM92.7188 207.906H95.5625V204.859H92.7188V207.906ZM112.5 195.328V209.359H111.016V195.328H112.5ZM105.016 196.375C107.094 196.375 108.625 198.281 108.625 201.281C108.625 204.297 107.094 206.203 105.016 206.203C102.906 206.203 101.391 204.297 101.391 201.281C101.391 198.281 102.906 196.375 105.016 196.375ZM105.016 197.703C103.719 197.703 102.828 199.078 102.828 201.281C102.828 203.5 103.719 204.875 105.016 204.875C106.297 204.875 107.188 203.5 107.188 201.281C107.188 199.078 106.297 197.703 105.016 197.703ZM123.5 204.578C123.5 205.781 124.094 207.055 125.359 207.812C126.648 206.992 127.281 205.648 127.281 204.578V203.906H128.734V204.578C128.734 206.031 129.688 207.438 131.516 208.031L130.781 209.125C129.398 208.648 128.461 207.719 127.969 206.562C127.523 207.695 126.688 208.719 125.406 209.25C124.062 208.742 123.211 207.75 122.781 206.609C122.273 207.711 121.352 208.641 120.031 209.125L119.281 208.031C121.078 207.391 122.047 205.938 122.062 204.578V203.906H123.5V204.578ZM130.25 195.344V203.312H128.766V195.344H130.25ZM122.656 196.109C124.797 196.109 126.375 197.469 126.375 199.422C126.375 201.359 124.797 202.703 122.656 202.703C120.516 202.703 118.922 201.359 118.922 199.422C118.922 197.469 120.516 196.109 122.656 196.109ZM122.656 197.375C121.328 197.359 120.375 198.188 120.375 199.422C120.375 200.641 121.328 201.469 122.656 201.469C123.969 201.469 124.922 200.641 124.922 199.422C124.922 198.188 123.969 197.359 122.656 197.375ZM144.5 195.328V209.328H143.094V195.328H144.5ZM141.547 195.688V208.641H140.141V202.141H137.406C136.57 203.766 135.242 205.188 133.266 206.344L132.422 205.281C135.391 203.516 136.82 201.164 137.078 198.281H133.078V197.062H138.547C138.539 198.43 138.352 199.734 137.922 200.953H140.141V195.688H141.547ZM161.531 195.328V198.297H163.25V199.516H161.531V202.75H160.062V195.328H161.531ZM153.594 196.719C153.594 197.789 153.844 199.312 154.828 200.391C155.789 199.336 156.047 197.844 156.047 196.734V195.906H156.375V195.875H157.422V196.719C157.422 198.25 158 200.031 159.609 200.875L158.812 201.938C157.75 201.375 157.109 200.422 156.766 199.344C156.43 200.438 155.844 201.469 154.812 202.094L154.797 202.062C153.773 201.445 153.188 200.391 152.875 199.281C152.516 200.375 151.875 201.359 150.844 201.938L150.047 200.875C151.625 199.984 152.188 198.125 152.188 196.719V195.875H153.594V196.719ZM162.047 203.5V204.656H152.062V203.5H156.328V202.188H157.812V203.5H162.047ZM157.062 205.234C159.688 205.25 161.203 205.984 161.203 207.266C161.203 208.609 159.688 209.312 157.062 209.297C154.422 209.312 152.891 208.609 152.906 207.266C152.891 205.984 154.422 205.25 157.062 205.234ZM157.062 206.312C155.297 206.312 154.359 206.656 154.375 207.266C154.359 207.906 155.297 208.25 157.062 208.234C158.797 208.25 159.75 207.906 159.75 207.266C159.75 206.656 158.797 206.312 157.062 206.312ZM175.359 199.422V200.609H165.719V195.828H167.188V199.422H175.359ZM176.828 202.375V203.562H164.016V202.375H176.828ZM175.453 207.781V209H165.609V204.891H167.094V207.781H175.453ZM188.875 197.312C188.875 199.594 191.312 201.75 194 202.234L193.312 203.469C191.078 202.984 189.016 201.516 188.109 199.547C187.188 201.5 185.133 202.969 182.891 203.469L182.234 202.234C184.891 201.734 187.312 199.594 187.312 197.312V196.25H188.875V197.312ZM194.578 206.25V207.484H181.766V206.25H194.578ZM202.781 196.562V197.781H197.688V200.484H202.5V201.672H197.688V204.812C200.023 204.805 201.75 204.703 203.781 204.375L203.922 205.578C201.766 205.938 199.891 206.016 197.312 206.016H196.188V196.562H202.781ZM206.5 195.328V200.844H208.75V202.094H206.5V209.328H205.016V195.328H206.5ZM213.391 195.797C215.5 195.812 217.047 197.109 217.062 198.938C217.047 200.781 215.5 202.062 213.391 202.062C211.266 202.062 209.703 200.781 209.703 198.938C209.703 197.109 211.266 195.812 213.391 195.797ZM213.391 197.047C212.094 197.031 211.141 197.797 211.156 198.938C211.141 200.094 212.094 200.859 213.391 200.859C214.672 200.859 215.625 200.094 215.625 198.938C215.625 197.797 214.672 197.031 213.391 197.047ZM221.031 195.328V202.453H219.547V195.328H221.031ZM221.031 203.094V206.625H213.312V207.969H221.5V209.156H211.875V205.516H219.562V204.281H211.828V203.094H221.031ZM234.844 195.328V209.359H233.359V195.328H234.844ZM227.359 196.375C229.438 196.375 230.969 198.281 230.969 201.281C230.969 204.297 229.438 206.203 227.359 206.203C225.25 206.203 223.734 204.297 223.734 201.281C223.734 198.281 225.25 196.375 227.359 196.375ZM227.359 197.703C226.062 197.703 225.172 199.078 225.172 201.281C225.172 203.5 226.062 204.875 227.359 204.875C228.641 204.875 229.531 203.5 229.531 201.281C229.531 199.078 228.641 197.703 227.359 197.703ZM249.125 195.328V209.328H247.703V195.328H249.125ZM246.281 195.594V208.641H244.859V201.891H243.281C243.156 204.625 241.984 206.328 240.25 206.312C238.422 206.328 237.234 204.406 237.234 201.375C237.234 198.344 238.422 196.438 240.25 196.453C241.953 196.438 243.109 198.055 243.281 200.688H244.859V195.594H246.281ZM240.25 197.844C239.234 197.844 238.609 199.141 238.609 201.375C238.609 203.609 239.234 204.906 240.25 204.906C241.281 204.906 241.922 203.609 241.922 201.375C241.922 199.141 241.281 197.844 240.25 197.844ZM263.719 206.344V207.578H250.906V206.344H253.969V202.688C252.82 202.055 252.125 201.047 252.125 199.797C252.125 197.594 254.281 196.141 257.281 196.141C260.297 196.141 262.453 197.594 262.453 199.797C262.453 201.031 261.781 202.023 260.656 202.656V206.344H263.719ZM257.281 197.328C255.078 197.328 253.562 198.281 253.562 199.797C253.562 201.297 255.078 202.281 257.281 202.281C259.469 202.281 261.016 201.297 261.016 199.797C261.016 198.281 259.469 197.328 257.281 197.328ZM255.438 206.344H259.156V203.219C258.586 203.367 257.953 203.438 257.281 203.438C256.625 203.438 256 203.367 255.438 203.234V206.344ZM266.328 208.109C265.719 208.109 265.203 207.609 265.219 207C265.203 206.391 265.719 205.891 266.328 205.891C266.922 205.891 267.438 206.391 267.438 207C267.438 207.609 266.922 208.109 266.328 208.109Z" fill="black"/>
</g>
<defs>
<filter id="filter0_i_44_177" x="0" y="0" width="356" height="245" filterUnits="userSpaceOnUse" color-interpolation-filters="sRGB">
<feFlood flood-opacity="0" result="BackgroundImageFix"/>
<feBlend mode="normal" in="SourceGraphic" in2="BackgroundImageFix" result="shape"/>
<feColorMatrix in="SourceAlpha" type="matrix" values="0 0 0 0 0 0 0 0 0 0 0 0 0 0 0 0 0 0 127 0" result="hardAlpha"/>
<feOffset dx="1" dy="1"/>
<feGaussianBlur stdDeviation="3"/>
<feComposite in2="hardAlpha" operator="arithmetic" k2="-1" k3="1"/>
<feColorMatrix type="matrix" values="0 0 0 0 0 0 0 0 0 0 0 0 0 0 0 0 0 0 0.25 0"/>
<feBlend mode="normal" in2="shape" result="effect1_innerShadow_44_177"/>
</filter>
</defs>
</svg>
