<svg width="375" height="408" viewBox="0 0 375 408" fill="none" xmlns="http://www.w3.org/2000/svg">
<g filter="url(#filter0_f_17_573)">
<ellipse cx="263.756" cy="354" rx="147.733" ry="46.8571" transform="rotate(-180 263.756 354)" fill="url(#paint0_linear_17_573)"/>
<ellipse cx="154.395" cy="281.429" rx="147.093" ry="47.4286" transform="rotate(-180 154.395 281.429)" fill="url(#paint1_linear_17_573)"/>
<ellipse cx="75.093" cy="211.714" rx="147.093" ry="47.4286" transform="rotate(-180 75.093 211.714)" fill="url(#paint2_linear_17_573)"/>
<ellipse cx="189.57" cy="156.857" rx="147.733" ry="47.4286" transform="rotate(-180 189.57 156.857)" fill="url(#paint3_linear_17_573)"/>
<ellipse cx="75.093" cy="103.143" rx="147.093" ry="47.4286" transform="rotate(-180 75.093 103.143)" fill="url(#paint4_linear_17_573)"/>
<ellipse cx="301.488" cy="48.8572" rx="147.093" ry="46.8571" transform="rotate(-180 301.488 48.8572)" fill="url(#paint5_linear_17_573)"/>
<ellipse cx="210.093" cy="246" rx="147.093" ry="47.4286" transform="rotate(-180 210.093 246)" fill="url(#paint6_linear_17_573)"/>
<ellipse cx="178.698" cy="395.143" rx="147.093" ry="46.8571" transform="rotate(-180 178.698 395.143)" fill="url(#paint7_linear_17_573)"/>
</g>
<defs>
<filter id="filter0_f_17_573" x="-74" y="0.00012207" width="524.581" height="444" filterUnits="userSpaceOnUse" color-interpolation-filters="sRGB">
<feFlood flood-opacity="0" result="BackgroundImageFix"/>
<feBlend mode="normal" in="SourceGraphic" in2="BackgroundImageFix" result="shape"/>
<feGaussianBlur stdDeviation="1" result="effect1_foregroundBlur_17_573"/>
</filter>
<linearGradient id="paint0_linear_17_573" x1="263.756" y1="307.143" x2="263.756" y2="400.857" gradientUnits="userSpaceOnUse">
<stop stop-color="#DFFA85"/>
<stop offset="1" stop-color="#F6F6F6" stop-opacity="0"/>
</linearGradient>
<linearGradient id="paint1_linear_17_573" x1="154.395" y1="234" x2="154.395" y2="328.857" gradientUnits="userSpaceOnUse">
<stop stop-color="#DFFA85" stop-opacity="0.8"/>
<stop offset="1" stop-color="#F6F6F6" stop-opacity="0"/>
</linearGradient>
<linearGradient id="paint2_linear_17_573" x1="75.093" y1="164.286" x2="75.093" y2="259.143" gradientUnits="userSpaceOnUse">
<stop stop-color="#DFFA85"/>
<stop offset="1" stop-color="#F6F6F6" stop-opacity="0"/>
</linearGradient>
<linearGradient id="paint3_linear_17_573" x1="189.57" y1="109.429" x2="189.57" y2="204.286" gradientUnits="userSpaceOnUse">
<stop stop-color="#DFFA85"/>
<stop offset="1" stop-color="#F6F6F6" stop-opacity="0"/>
</linearGradient>
<linearGradient id="paint4_linear_17_573" x1="-72" y1="103.143" x2="222.186" y2="103.143" gradientUnits="userSpaceOnUse">
<stop stop-color="#3A9F97"/>
<stop offset="1" stop-color="white" stop-opacity="0"/>
</linearGradient>
<linearGradient id="paint5_linear_17_573" x1="301.488" y1="2.00007" x2="301.488" y2="95.7144" gradientUnits="userSpaceOnUse">
<stop stop-color="white" stop-opacity="0"/>
<stop offset="1" stop-color="#91D5A6"/>
</linearGradient>
<linearGradient id="paint6_linear_17_573" x1="210.093" y1="198.571" x2="210.093" y2="293.428" gradientUnits="userSpaceOnUse">
<stop stop-color="white" stop-opacity="0"/>
<stop offset="1" stop-color="#91D5A6"/>
</linearGradient>
<linearGradient id="paint7_linear_17_573" x1="31.6047" y1="395.143" x2="325.791" y2="395.143" gradientUnits="userSpaceOnUse">
<stop stop-color="#3A9F97"/>
<stop offset="1" stop-color="white" stop-opacity="0"/>
</linearGradient>
</defs>
</svg>
