<svg width="140" height="26" viewBox="0 0 140 26" fill="none" xmlns="http://www.w3.org/2000/svg">
<path d="M18.8286 10.28V10.472H16.0766L10.0926 25.32H8.30063L2.20463 10.472H0.140625V10.28H10.1886V10.472H7.96463L11.6286 20.92L15.8366 10.472H12.7966V10.28H18.8286ZM26.3681 25.32C24.7148 25.32 23.2855 24.968 22.0801 24.264C20.8855 23.56 19.9628 22.6267 19.3121 21.464C18.6615 20.3013 18.3361 19.0267 18.3361 17.64C18.3361 16.2533 18.6615 14.9787 19.3121 13.816C19.9628 12.6533 20.8855 11.72 22.0801 11.016C23.2855 10.312 24.7148 9.96 26.3681 9.96C28.0321 9.96 29.4615 10.312 30.6561 11.016C31.8615 11.72 32.7841 12.6533 33.4241 13.816C34.0748 14.9787 34.4001 16.2533 34.4001 17.64C34.4001 19.0267 34.0748 20.3013 33.4241 21.464C32.7841 22.6267 31.8615 23.56 30.6561 24.264C29.4615 24.968 28.0321 25.32 26.3681 25.32ZM26.3681 25.128C26.8375 25.128 27.2321 24.936 27.5521 24.552C27.8828 24.168 28.1495 23.6347 28.3521 22.952C28.5548 22.2693 28.7041 21.4747 28.8001 20.568C28.8961 19.6613 28.9441 18.6853 28.9441 17.64C28.9441 16.5947 28.8961 15.6187 28.8001 14.712C28.7041 13.8053 28.5548 13.0107 28.3521 12.328C28.1495 11.6453 27.8828 11.112 27.5521 10.728C27.2321 10.344 26.8375 10.152 26.3681 10.152C25.9095 10.152 25.5148 10.344 25.1841 10.728C24.8641 11.112 24.6028 11.6453 24.4001 12.328C24.1975 13.0107 24.0481 13.8053 23.9521 14.712C23.8561 15.6187 23.8081 16.5947 23.8081 17.64C23.8081 18.6853 23.8561 19.6613 23.9521 20.568C24.0481 21.4747 24.1975 22.2693 24.4001 22.952C24.6028 23.6347 24.8641 24.168 25.1841 24.552C25.5148 24.936 25.9095 25.128 26.3681 25.128ZM43.9506 0.999998V24.808H46.7506V25H35.9186V24.808H38.7346V1.192H35.9186V0.999998H43.9506ZM54.5136 25.32C53.3403 25.32 52.423 25.112 51.7616 24.696C51.1003 24.2693 50.6363 23.6933 50.3696 22.968C50.103 22.2427 49.9696 21.416 49.9696 20.488V10.472H47.7936V10.28H55.1856V20.504C55.1856 21.4 55.2176 22.104 55.2816 22.616C55.3563 23.128 55.4896 23.4907 55.6816 23.704C55.8843 23.9173 56.1723 24.024 56.5456 24.024C57.1536 24.024 57.6603 23.8213 58.0656 23.416C58.471 23.0107 58.791 22.4773 59.0256 21.816C59.271 21.1547 59.447 20.44 59.5536 19.672C59.6603 18.8933 59.7136 18.1413 59.7136 17.416L59.8896 17.384C59.8896 18.184 59.8256 19.0427 59.6976 19.96C59.5696 20.8773 59.319 21.7413 58.9456 22.552C58.583 23.3627 58.0443 24.0293 57.3296 24.552C56.6256 25.064 55.687 25.32 54.5136 25.32ZM59.7136 25V10.472H57.7136V10.28H64.9456V24.808H67.1056V25H59.7136ZM75.5606 10.28V24.808H76.9046V25H68.1686V24.808H70.3446V10.472H68.1686V10.28H75.5606ZM84.6806 14.792V24.808H86.0246V25H78.1206V24.808H79.4646V14.776C79.4646 13.88 79.422 13.176 79.3366 12.664C79.2513 12.1413 79.118 11.7733 78.9366 11.56C78.7553 11.336 78.5153 11.224 78.2166 11.224C77.7473 11.224 77.342 11.416 77.0006 11.8C76.67 12.184 76.398 12.696 76.1846 13.336C75.9713 13.976 75.8113 14.6907 75.7046 15.48C75.6086 16.2587 75.5606 17.0533 75.5606 17.864L75.4166 17.896C75.4166 17.096 75.4646 16.2373 75.5606 15.32C75.6673 14.4027 75.886 13.5387 76.2166 12.728C76.558 11.9173 77.0593 11.256 77.7206 10.744C78.3926 10.2213 79.294 9.96 80.4246 9.96C81.4806 9.96 82.318 10.168 82.9366 10.584C83.5553 11 83.998 11.576 84.2646 12.312C84.542 13.0373 84.6806 13.864 84.6806 14.792ZM93.8006 14.792V24.808H95.9606V25H87.2246V24.808H88.5846V14.776C88.5846 13.88 88.542 13.176 88.4566 12.664C88.3713 12.1413 88.238 11.7733 88.0566 11.56C87.8753 11.336 87.63 11.224 87.3206 11.224C86.862 11.224 86.462 11.416 86.1206 11.8C85.79 12.184 85.518 12.696 85.3046 13.336C85.0913 13.976 84.9313 14.6907 84.8246 15.48C84.7286 16.2587 84.6806 17.0533 84.6806 17.864L84.5366 17.896C84.5366 17.096 84.5846 16.2373 84.6806 15.32C84.7873 14.4027 85.0006 13.5387 85.3206 12.728C85.6513 11.9173 86.1526 11.256 86.8246 10.744C87.4966 10.2213 88.398 9.96 89.5286 9.96C90.5846 9.96 91.422 10.168 92.0406 10.584C92.67 11 93.118 11.576 93.3846 12.312C93.662 13.0373 93.8006 13.864 93.8006 14.792ZM109.396 25.32C107.988 25.32 106.858 24.8187 106.004 23.816C105.151 22.8027 104.618 21.368 104.404 19.512V25H97.0124V24.808H99.1884V1.192H97.0124V0.999998H104.404V15.752C104.618 13.9067 105.146 12.488 105.988 11.496C106.842 10.4933 107.978 9.992 109.396 9.992C110.559 9.992 111.658 10.296 112.692 10.904C113.727 11.512 114.564 12.3867 115.204 13.528C115.855 14.6693 116.18 16.04 116.18 17.64C116.18 19.24 115.855 20.616 115.204 21.768C114.564 22.9093 113.727 23.7893 112.692 24.408C111.658 25.016 110.559 25.32 109.396 25.32ZM108.18 24.728C108.682 24.728 109.082 24.4667 109.38 23.944C109.679 23.4213 109.898 22.6373 110.036 21.592C110.175 20.536 110.244 19.2187 110.244 17.64C110.244 16.0613 110.175 14.7493 110.036 13.704C109.898 12.6587 109.679 11.88 109.38 11.368C109.082 10.8453 108.682 10.584 108.18 10.584C107.583 10.584 106.991 10.84 106.404 11.352C105.828 11.864 105.348 12.6427 104.964 13.688C104.591 14.7227 104.404 16.04 104.404 17.64C104.404 19.24 104.591 20.5627 104.964 21.608C105.348 22.6533 105.828 23.4373 106.404 23.96C106.991 24.472 107.583 24.728 108.18 24.728ZM122.644 6.872C121.769 6.872 121.033 6.57333 120.436 5.976C119.849 5.37867 119.556 4.648 119.556 3.784C119.556 2.89867 119.849 2.16267 120.436 1.576C121.033 0.978665 121.769 0.679998 122.644 0.679998C123.529 0.679998 124.265 0.978665 124.852 1.576C125.439 2.16267 125.732 2.89867 125.732 3.784C125.732 4.648 125.439 5.37867 124.852 5.976C124.265 6.57333 123.529 6.872 122.644 6.872ZM125.252 10.28V24.808H127.412V25H117.86V24.808H120.02V10.472H117.86V10.28H125.252ZM134.202 25.224C133.093 25.224 132.245 25.064 131.658 24.744C131.071 24.4133 130.666 23.9493 130.442 23.352C130.218 22.744 130.106 22.0293 130.106 21.208V7.08C130.938 7.08 131.85 7.01067 132.842 6.872C133.834 6.72267 134.666 6.472 135.338 6.12V22.072C135.338 22.872 135.434 23.4533 135.626 23.816C135.818 24.1787 136.127 24.36 136.554 24.36C137.034 24.36 137.562 24.1413 138.138 23.704C138.714 23.2667 139.183 22.6053 139.546 21.72L139.722 21.768C139.338 22.7813 138.682 23.6133 137.754 24.264C136.837 24.904 135.653 25.224 134.202 25.224ZM127.786 10.472V10.28H138.762V10.472H127.786Z" fill="#4C3D19"/>
</svg>
