<svg width="327" height="224" viewBox="0 0 327 224" fill="none" xmlns="http://www.w3.org/2000/svg">
<rect x="0.5" y="0.5" width="326" height="223" rx="9.5" fill="white"/>
<rect x="0.5" y="0.5" width="326" height="223" rx="9.5" stroke="#354024"/>
<path d="M168.645 45.5C167.061 45.5 165.769 45.412 164.769 45.236C163.769 45.06 162.997 44.748 162.453 44.3C161.909 43.852 161.533 43.224 161.325 42.416C161.125 41.616 161.025 40.588 161.025 39.332C161.857 39.556 162.677 39.668 163.485 39.668C164.293 39.676 165.093 39.564 165.885 39.332C165.885 40.42 165.905 41.344 165.945 42.104C165.993 42.864 166.101 43.476 166.269 43.94C166.437 44.412 166.709 44.752 167.085 44.96C167.461 45.176 167.981 45.284 168.645 45.284V45.5ZM163.521 39.74C162.209 39.74 161.037 39.512 160.005 39.056C158.973 38.592 158.093 37.944 157.365 37.112C156.637 36.272 156.081 35.292 155.697 34.172C155.321 33.044 155.133 31.82 155.133 30.5C155.133 29.18 155.333 27.96 155.733 26.84C156.133 25.712 156.705 24.732 157.449 23.9C158.193 23.06 159.077 22.412 160.101 21.956C161.133 21.492 162.273 21.26 163.521 21.26C164.769 21.26 165.905 21.492 166.929 21.956C167.953 22.412 168.837 23.06 169.581 23.9C170.325 24.732 170.897 25.712 171.297 26.84C171.697 27.96 171.897 29.18 171.897 30.5C171.897 31.82 171.705 33.044 171.321 34.172C170.945 35.292 170.393 36.272 169.665 37.112C168.937 37.944 168.057 38.592 167.025 39.056C165.993 39.512 164.825 39.74 163.521 39.74ZM163.521 39.536C164.257 39.536 164.853 39.316 165.309 38.876C165.773 38.428 166.129 37.8 166.377 36.992C166.625 36.176 166.793 35.22 166.881 34.124C166.977 33.02 167.025 31.812 167.025 30.5C167.025 29.188 166.965 27.984 166.845 26.888C166.733 25.784 166.545 24.828 166.281 24.02C166.017 23.204 165.657 22.576 165.201 22.136C164.753 21.688 164.193 21.464 163.521 21.464C162.841 21.464 162.273 21.688 161.817 22.136C161.361 22.584 161.001 23.212 160.737 24.02C160.473 24.828 160.281 25.784 160.161 26.888C160.049 27.984 159.993 29.188 159.993 30.5C159.993 31.812 160.041 33.02 160.137 34.124C160.233 35.22 160.405 36.176 160.653 36.992C160.901 37.8 161.257 38.428 161.721 38.876C162.185 39.316 162.785 39.536 163.521 39.536Z" fill="black"/>
<path d="M163.5 56.6132L160.613 59.5L163.5 62.3868L166.387 59.5L163.5 56.6132ZM163.5 59.5L163 59.5L163 129.5L163.5 129.5L164 129.5L164 59.5L163.5 59.5Z" fill="black"/>
<path d="M152.382 157.66C151.528 157.66 150.814 157.516 150.238 157.228C149.662 156.94 149.227 156.575 148.934 156.132C148.646 155.684 148.502 155.231 148.502 154.772C148.502 154.297 148.651 153.911 148.95 153.612C149.254 153.313 149.619 153.164 150.046 153.164C150.435 153.164 150.771 153.3 151.054 153.572C151.342 153.844 151.486 154.199 151.486 154.636C151.486 154.903 151.414 155.145 151.27 155.364C151.131 155.577 150.95 155.748 150.726 155.876C150.502 155.999 150.259 156.06 149.998 156.06C149.747 156.06 149.507 156.001 149.278 155.884C149.054 155.767 148.87 155.609 148.726 155.412C148.587 155.215 148.518 155.001 148.518 154.772H148.726C148.726 155.225 148.867 155.652 149.15 156.052C149.432 156.447 149.808 156.767 150.278 157.012C150.747 157.252 151.264 157.372 151.83 157.372C152.326 157.372 152.728 157.239 153.038 156.972C153.352 156.705 153.582 156.332 153.726 155.852C153.875 155.372 153.95 154.815 153.95 154.18C153.95 153.871 153.912 153.54 153.838 153.188C153.768 152.836 153.64 152.505 153.454 152.196C153.272 151.881 153.014 151.625 152.678 151.428C152.342 151.225 151.91 151.124 151.382 151.124V150.988C152.347 150.988 153.182 151.076 153.886 151.252C154.59 151.428 155.168 151.671 155.622 151.98C156.08 152.289 156.419 152.644 156.638 153.044C156.856 153.439 156.966 153.857 156.966 154.3C156.966 154.817 156.835 155.284 156.574 155.7C156.312 156.116 155.96 156.471 155.518 156.764C155.08 157.052 154.59 157.273 154.046 157.428C153.502 157.583 152.947 157.66 152.382 157.66ZM151.382 151.044V150.908C151.872 150.908 152.256 150.82 152.534 150.644C152.816 150.468 153.024 150.239 153.158 149.956C153.291 149.673 153.376 149.375 153.414 149.06C153.451 148.745 153.47 148.452 153.47 148.18C153.47 147.865 153.443 147.559 153.39 147.26C153.342 146.956 153.262 146.681 153.15 146.436C153.043 146.191 152.896 145.996 152.71 145.852C152.528 145.708 152.302 145.636 152.03 145.636C151.779 145.636 151.491 145.687 151.166 145.788C150.846 145.889 150.536 146.036 150.238 146.228C149.939 146.42 149.691 146.652 149.494 146.924C149.296 147.191 149.198 147.495 149.198 147.836H148.99C148.99 147.575 149.064 147.345 149.214 147.148C149.368 146.945 149.56 146.788 149.79 146.676C150.024 146.559 150.256 146.5 150.486 146.5C150.747 146.5 150.99 146.561 151.214 146.684C151.438 146.807 151.619 146.975 151.758 147.188C151.902 147.401 151.974 147.652 151.974 147.94C151.974 148.249 151.896 148.516 151.742 148.74C151.592 148.959 151.403 149.127 151.174 149.244C150.95 149.356 150.72 149.412 150.486 149.412C150.23 149.412 149.984 149.348 149.75 149.22C149.52 149.087 149.334 148.903 149.19 148.668C149.046 148.428 148.974 148.151 148.974 147.836C148.974 147.489 149.08 147.167 149.294 146.868C149.512 146.564 149.798 146.3 150.15 146.076C150.502 145.847 150.886 145.671 151.302 145.548C151.723 145.42 152.136 145.356 152.542 145.356C152.99 145.356 153.443 145.415 153.902 145.532C154.366 145.644 154.792 145.812 155.182 146.036C155.571 146.26 155.886 146.54 156.126 146.876C156.366 147.212 156.486 147.601 156.486 148.044C156.486 148.444 156.392 148.825 156.206 149.188C156.024 149.545 155.731 149.865 155.326 150.148C154.92 150.425 154.392 150.644 153.742 150.804C153.091 150.964 152.304 151.044 151.382 151.044ZM162.242 159.9L169.154 145.012H169.37L162.458 159.9H162.242ZM173.984 157.66C173.498 157.66 173.082 157.521 172.736 157.244C172.394 156.967 172.224 156.529 172.224 155.932C172.224 155.617 172.309 155.289 172.48 154.948C172.656 154.607 172.88 154.255 173.152 153.892C173.424 153.524 173.717 153.143 174.032 152.748C174.346 152.348 174.648 151.929 174.936 151.492C175.112 151.225 175.288 150.945 175.464 150.652C175.645 150.353 175.84 150.025 176.048 149.668C176.261 149.305 176.498 148.892 176.76 148.428H170.864V149.628H170.648V145.5H178.744C178.744 145.5 178.669 145.636 178.52 145.908C178.37 146.18 178.17 146.537 177.92 146.98C177.669 147.423 177.392 147.905 177.088 148.428C176.789 148.951 176.485 149.473 176.176 149.996C175.866 150.513 175.581 150.975 175.32 151.38C175.048 151.812 174.834 152.148 174.68 152.388C174.53 152.628 174.426 152.825 174.368 152.98C174.309 153.135 174.28 153.295 174.28 153.46C174.28 153.695 174.352 153.897 174.496 154.068C174.64 154.233 174.805 154.401 174.992 154.572C175.184 154.737 175.352 154.932 175.496 155.156C175.64 155.375 175.712 155.652 175.712 155.988C175.712 156.457 175.554 156.855 175.24 157.18C174.93 157.5 174.512 157.66 173.984 157.66Z" fill="black"/>
<path d="M97.1406 177.25V178.438H88.7969V177.25H92.2344V175.766H93.7188V177.25H97.1406ZM92.9688 179.062C94.9844 179.078 96.3594 180.078 96.3594 181.609C96.3594 183.141 94.9844 184.156 92.9688 184.156C90.9375 184.156 89.5625 183.141 89.5625 181.609C89.5625 180.078 90.9375 179.078 92.9688 179.062ZM92.9688 180.203C91.7812 180.203 90.9844 180.75 91 181.609C90.9844 182.484 91.7812 183 92.9688 183C94.1562 183 94.9531 182.484 94.9688 181.609C94.9531 180.75 94.1562 180.203 92.9688 180.203ZM99.7812 175.828V179.625H101.812V180.859H99.7812V184.578H98.2969V175.828H99.7812ZM99.7812 185.297V189.828H98.2969V186.5H90.5312V185.297H99.7812ZM113.984 177.172V178.672C113.969 180.438 113.969 182.281 113.469 184.953L112.016 184.797C112.5 182.266 112.5 180.391 112.5 178.672V178.375H103.922V177.172H113.984ZM115.375 186.703V187.938H102.609V186.703H105.625V182.172H107.109V186.703H109.125V182.172H110.578V186.703H115.375ZM128.484 175.828V189.828H127.062V175.828H128.484ZM125.641 176.094V189.141H124.219V182.391H122.641C122.516 185.125 121.344 186.828 119.609 186.812C117.781 186.828 116.594 184.906 116.594 181.875C116.594 178.844 117.781 176.938 119.609 176.953C121.312 176.938 122.469 178.555 122.641 181.188H124.219V176.094H125.641ZM119.609 178.344C118.594 178.344 117.969 179.641 117.969 181.875C117.969 184.109 118.594 185.406 119.609 185.406C120.641 185.406 121.281 184.109 121.281 181.875C121.281 179.641 120.641 178.344 119.609 178.344ZM135.312 179.391C135.312 181.953 136.75 184.5 138.891 185.469L137.984 186.656C136.391 185.859 135.195 184.273 134.578 182.359C133.961 184.375 132.734 186.078 131.125 186.922L130.188 185.719C132.359 184.688 133.812 181.984 133.812 179.391V177H135.312V179.391ZM141.938 175.828V189.859H140.469V181.688H137.344V180.484H140.469V175.828H141.938ZM160.766 182.828V184.016H155.109V185.484H159.203V189.797H157.703V186.688H149.422V185.484H153.641V184.016H148V182.828H160.766ZM155.109 175.781V177.172H159.484V178.344H155.203C155.344 179.734 157.266 180.758 160.062 181.016L159.594 182.125C157.188 181.906 155.234 181.102 154.375 179.781C153.508 181.102 151.555 181.906 149.156 182.125L148.688 181.016C151.469 180.758 153.391 179.734 153.562 178.344H149.281V177.172H153.641V175.781H155.109ZM173.844 175.828V189.828H172.422V175.828H173.844ZM171 176.125V189.125H169.594V182H167.422V180.781H169.594V176.125H171ZM166.047 179.734C166.047 182.125 167.016 184.516 168.984 185.656L168.094 186.75C166.758 185.953 165.836 184.539 165.359 182.844C164.852 184.672 163.898 186.227 162.531 187.078L161.625 185.969C163.609 184.766 164.625 182.219 164.625 179.734V178.609H162.047V177.406H168.453V178.609H166.047V179.734ZM186.562 175.828V181.406H188.734V182.641H186.562V189.812H185.078V175.828H186.562ZM182.906 177.297C182.891 181.344 181.109 184.953 176.5 187.234L175.672 186.078C179.18 184.328 181.086 181.797 181.391 178.531H176.375V177.297H182.906ZM197.266 176.281C198.469 176.281 199.484 176.711 200.141 177.438H203.578V175.828H205.047V182.953H203.578V181.484H200.172C199.516 182.234 198.484 182.672 197.266 182.672C195.141 182.672 193.594 181.375 193.594 179.469C193.594 177.594 195.141 176.281 197.266 176.281ZM197.266 177.5C195.953 177.484 195.016 178.297 195.016 179.469C195.016 180.672 195.953 181.469 197.266 181.484C198.547 181.469 199.484 180.672 199.484 179.469C199.484 178.297 198.547 177.484 197.266 177.5ZM205.047 183.641V187.125H197.406V188.469H205.547V189.656H195.922V186.016H203.578V184.797H195.891V183.641H205.047ZM200.781 178.609C200.859 178.883 200.906 179.164 200.906 179.469C200.906 179.766 200.867 180.047 200.797 180.312H203.578V178.609H200.781ZM213.891 176.5V180.562H209.266V182.391C211.664 182.391 213.008 182.359 214.609 182.078L214.75 183.25C213 183.578 211.547 183.609 208.812 183.609H207.797V179.422H212.406V177.719H207.781V176.5H213.891ZM218.891 175.844V184.172H217.406V181.828H214.797V180.625H217.406V178.891H214.797V177.688H217.406V175.844H218.891ZM212.141 185.234C212.141 186.445 212.719 187.742 213.984 188.516C215.273 187.672 215.891 186.312 215.906 185.234V184.547H217.344V185.234C217.344 186.703 218.297 188.125 220.125 188.734L219.391 189.828C218.016 189.352 217.078 188.406 216.594 187.234C216.148 188.375 215.312 189.414 214.016 189.953C212.688 189.445 211.836 188.438 211.391 187.266C210.898 188.398 209.984 189.344 208.672 189.828L207.906 188.734C209.703 188.094 210.703 186.609 210.703 185.234V184.547H212.141V185.234ZM231.953 175.828V181.25H234.203V182.469H231.953V189.859H230.469V175.828H231.953ZM228.188 177.172V178.375H223.125V185.141C225.477 185.133 227.242 185.031 229.234 184.672L229.422 185.922C227.234 186.312 225.375 186.391 222.766 186.375H221.641V177.172H228.188ZM237.453 177.188L237.312 185.234H235.766L235.625 177.188H237.453ZM236.547 188.609C235.938 188.609 235.422 188.109 235.438 187.5C235.422 186.891 235.938 186.391 236.547 186.391C237.141 186.391 237.656 186.891 237.656 187.5C237.656 188.109 237.141 188.609 236.547 188.609ZM74.3125 194.828V208.828H72.8906V201.656H71.0938V208.109H69.7031V195.109H71.0938V200.438H72.8906V194.828H74.3125ZM64.4688 196.484V203.953C65.7656 203.945 67.1797 203.844 68.7656 203.531L68.9219 204.828C67 205.172 65.3906 205.266 63.8906 205.266H62.9844V196.484H64.4688ZM87.0625 194.828V200.406H89.2344V201.641H87.0625V208.812H85.5781V194.828H87.0625ZM83.4062 196.297C83.3906 200.344 81.6094 203.953 77 206.234L76.1719 205.078C79.6797 203.328 81.5859 200.797 81.8906 197.531H76.875V196.297H83.4062ZM106.656 201.828V203.016H101V204.484H105.094V208.797H103.594V205.688H95.3125V204.484H99.5312V203.016H93.8906V201.828H106.656ZM101 194.781V196.172H105.375V197.344H101.094C101.234 198.734 103.156 199.758 105.953 200.016L105.484 201.125C103.078 200.906 101.125 200.102 100.266 198.781C99.3984 200.102 97.4453 200.906 95.0469 201.125L94.5781 200.016C97.3594 199.758 99.2812 198.734 99.4531 197.344H95.1719V196.172H99.5312V194.781H101ZM119.734 194.828V208.828H118.312V194.828H119.734ZM116.891 195.125V208.125H115.484V201H113.312V199.781H115.484V195.125H116.891ZM111.938 198.734C111.938 201.125 112.906 203.516 114.875 204.656L113.984 205.75C112.648 204.953 111.727 203.539 111.25 201.844C110.742 203.672 109.789 205.227 108.422 206.078L107.516 204.969C109.5 203.766 110.516 201.219 110.516 198.734V197.609H107.938V196.406H114.344V197.609H111.938V198.734ZM133.594 194.828V208.828H132.172V194.828H133.594ZM130.75 195.094V208.141H129.328V201.391H127.75C127.625 204.125 126.453 205.828 124.719 205.812C122.891 205.828 121.703 203.906 121.703 200.875C121.703 197.844 122.891 195.938 124.719 195.953C126.422 195.938 127.578 197.555 127.75 200.188H129.328V195.094H130.75ZM124.719 197.344C123.703 197.344 123.078 198.641 123.078 200.875C123.078 203.109 123.703 204.406 124.719 204.406C125.75 204.406 126.391 203.109 126.391 200.875C126.391 198.641 125.75 197.344 124.719 197.344ZM150.281 194.828V198.969H152.312V200.203H150.281V205H148.781V194.828H150.281ZM146.484 195.891C146.484 199.562 143.984 202.234 139.891 203.469L139.266 202.281C142.539 201.297 144.578 199.438 144.875 197.125H139.859V195.891H146.484ZM150.859 207.328V208.531H141.391V203.953H142.891V207.328H150.859ZM164.016 194.828V200.25H166.266V201.469H164.016V208.859H162.531V194.828H164.016ZM160.25 196.172V197.375H155.188V204.141C157.539 204.133 159.305 204.031 161.297 203.672L161.484 204.922C159.297 205.312 157.438 205.391 154.828 205.375H153.703V196.172H160.25ZM174.078 196.016V197.203H177.125V194.844H178.609V205.047H177.125V201.422H174.078V202.641H167.578V196.016H174.078ZM169.047 197.219V201.469H172.625V197.219H169.047ZM178.922 207.328V208.531H169.469V204.109H170.969V207.328H178.922ZM174.078 200.203H177.125V198.422H174.078V200.203ZM197.75 200.328V201.547H195.578V208.812H194.094V194.828H195.578V200.328H197.75ZM186.672 196.188V204.062C188.625 204.062 190.664 203.898 192.891 203.438L193.062 204.688C190.672 205.172 188.453 205.297 186.359 205.297H185.203V196.188H186.672ZM203.062 195.828C205.281 195.812 206.859 197.188 206.875 199.156C206.859 201.125 205.281 202.5 203.062 202.5C200.859 202.5 199.234 201.125 199.25 199.156C199.234 197.188 200.859 195.812 203.062 195.828ZM203.062 197.109C201.703 197.109 200.703 197.922 200.719 199.156C200.703 200.391 201.703 201.203 203.062 201.203C204.422 201.203 205.422 200.391 205.422 199.156C205.422 197.922 204.422 197.109 203.062 197.109ZM210.078 194.828V208.859H208.594V194.828H210.078ZM198.578 204.609C201.125 204.609 204.656 204.578 207.719 204.141L207.828 205.219C204.656 205.828 201.266 205.844 198.766 205.844L198.578 204.609ZM229.047 205.844V207.078H216.234V205.844H221.875V202.609H217.703V195.953H227.516V202.609H223.344V205.844H229.047ZM219.141 197.141V201.438H226.062V197.141H219.141ZM233.109 203.219V204.703H239.688V203.219H241.172V208.656H231.641V203.219H233.109ZM233.109 207.469H239.688V205.859H233.109V207.469ZM242.828 201.109V202.344H230.062V201.109H242.828ZM237.203 195.578C237.203 197.188 239.438 198.75 242.125 199.078L241.594 200.25C239.32 199.93 237.344 198.859 236.453 197.375C235.539 198.867 233.555 199.93 231.312 200.25L230.75 199.078C233.469 198.734 235.688 197.234 235.688 195.578V194.984H237.203V195.578ZM256.656 202.141V203.328H243.891V202.141H256.656ZM255.219 207.328V208.531H245.5V204.469H247V207.328H255.219ZM250.266 195.297C253.297 195.281 255.266 196.344 255.266 198.094C255.266 199.859 253.297 200.922 250.266 200.938C247.219 200.922 245.266 199.859 245.266 198.094C245.266 196.344 247.219 195.281 250.266 195.297ZM250.266 196.484C248.125 196.484 246.781 197.094 246.797 198.094C246.781 199.125 248.125 199.719 250.266 199.719C252.406 199.719 253.734 199.125 253.734 198.094C253.734 197.094 252.406 196.484 250.266 196.484ZM260.016 204.141C260.031 202.094 260.641 201.469 261.672 200.828C262.328 200.422 262.828 199.859 262.828 199.031C262.828 198.047 262.078 197.438 261.141 197.438C260.297 197.438 259.484 197.953 259.406 199.109H257.719C257.781 197.125 259.281 196.031 261.141 196.031C263.172 196.031 264.531 197.25 264.531 199.031C264.531 200.281 263.938 201.125 262.938 201.734C262 202.297 261.641 202.875 261.609 204.141V204.234H260.016V204.141ZM260.875 207.609C260.266 207.609 259.75 207.109 259.766 206.5C259.75 205.891 260.266 205.391 260.875 205.391C261.469 205.391 261.984 205.891 261.984 206.5C261.984 207.109 261.469 207.609 260.875 207.609Z" fill="black"/>
</svg>
