<svg width="327" height="224" viewBox="0 0 327 224" fill="none" xmlns="http://www.w3.org/2000/svg">
<rect x="0.5" y="0.5" width="326" height="223" rx="9.5" fill="white"/>
<rect x="0.5" y="0.5" width="326" height="223" rx="9.5" stroke="#354024"/>
<path d="M168.645 55C167.061 55 165.769 54.912 164.769 54.736C163.769 54.56 162.997 54.248 162.453 53.8C161.909 53.352 161.533 52.724 161.325 51.916C161.125 51.116 161.025 50.088 161.025 48.832C161.857 49.056 162.677 49.168 163.485 49.168C164.293 49.176 165.093 49.064 165.885 48.832C165.885 49.92 165.905 50.844 165.945 51.604C165.993 52.364 166.101 52.976 166.269 53.44C166.437 53.912 166.709 54.252 167.085 54.46C167.461 54.676 167.981 54.784 168.645 54.784V55ZM163.521 49.24C162.209 49.24 161.037 49.012 160.005 48.556C158.973 48.092 158.093 47.444 157.365 46.612C156.637 45.772 156.081 44.792 155.697 43.672C155.321 42.544 155.133 41.32 155.133 40C155.133 38.68 155.333 37.46 155.733 36.34C156.133 35.212 156.705 34.232 157.449 33.4C158.193 32.56 159.077 31.912 160.101 31.456C161.133 30.992 162.273 30.76 163.521 30.76C164.769 30.76 165.905 30.992 166.929 31.456C167.953 31.912 168.837 32.56 169.581 33.4C170.325 34.232 170.897 35.212 171.297 36.34C171.697 37.46 171.897 38.68 171.897 40C171.897 41.32 171.705 42.544 171.321 43.672C170.945 44.792 170.393 45.772 169.665 46.612C168.937 47.444 168.057 48.092 167.025 48.556C165.993 49.012 164.825 49.24 163.521 49.24ZM163.521 49.036C164.257 49.036 164.853 48.816 165.309 48.376C165.773 47.928 166.129 47.3 166.377 46.492C166.625 45.676 166.793 44.72 166.881 43.624C166.977 42.52 167.025 41.312 167.025 40C167.025 38.688 166.965 37.484 166.845 36.388C166.733 35.284 166.545 34.328 166.281 33.52C166.017 32.704 165.657 32.076 165.201 31.636C164.753 31.188 164.193 30.964 163.521 30.964C162.841 30.964 162.273 31.188 161.817 31.636C161.361 32.084 161.001 32.712 160.737 33.52C160.473 34.328 160.281 35.284 160.161 36.388C160.049 37.484 159.993 38.688 159.993 40C159.993 41.312 160.041 42.52 160.137 43.624C160.233 44.72 160.405 45.676 160.653 46.492C160.901 47.3 161.257 47.928 161.721 48.376C162.185 48.816 162.785 49.036 163.521 49.036Z" fill="black"/>
<path d="M163.5 66.1132L160.613 69L163.5 71.8868L166.387 69L163.5 66.1132ZM163.5 69L163 69L163 139L163.5 139L164 139L164 69L163.5 69Z" fill="black"/>
<path d="M153.552 166.936V155.216H151.744V155H156.48V166.936H153.552ZM151.472 167V166.784H158.24V167H151.472ZM159.671 169.4L166.583 154.512H166.799L159.887 169.4H159.671ZM171.414 167.16C170.928 167.16 170.512 167.021 170.166 166.744C169.824 166.467 169.654 166.029 169.654 165.432C169.654 165.117 169.739 164.789 169.91 164.448C170.086 164.107 170.31 163.755 170.582 163.392C170.854 163.024 171.147 162.643 171.462 162.248C171.776 161.848 172.078 161.429 172.366 160.992C172.542 160.725 172.718 160.445 172.894 160.152C173.075 159.853 173.27 159.525 173.478 159.168C173.691 158.805 173.928 158.392 174.19 157.928H168.294V159.128H168.078V155H176.174C176.174 155 176.099 155.136 175.95 155.408C175.8 155.68 175.6 156.037 175.35 156.48C175.099 156.923 174.822 157.405 174.518 157.928C174.219 158.451 173.915 158.973 173.606 159.496C173.296 160.013 173.011 160.475 172.75 160.88C172.478 161.312 172.264 161.648 172.11 161.888C171.96 162.128 171.856 162.325 171.798 162.48C171.739 162.635 171.71 162.795 171.71 162.96C171.71 163.195 171.782 163.397 171.926 163.568C172.07 163.733 172.235 163.901 172.422 164.072C172.614 164.237 172.782 164.432 172.926 164.656C173.07 164.875 173.142 165.152 173.142 165.488C173.142 165.957 172.984 166.355 172.67 166.68C172.36 167 171.942 167.16 171.414 167.16Z" fill="black"/>
<path d="M87.7656 185.344V195.656H86.2812V185.344H87.7656ZM88.1875 197.828V199.031H78.6094V194.703H80.1094V197.828H88.1875ZM81.3594 188.594C81.3594 190.344 82.7031 191.969 84.875 192.609L84.1562 193.781C82.5156 193.273 81.2812 192.219 80.6562 190.859C80.0234 192.336 78.7891 193.484 77.125 194.016L76.3906 192.859C78.5625 192.172 79.875 190.453 79.875 188.594V188.312H76.7656V187.125H79.875V185.391H81.375V187.125H84.4531V188.312H81.3594V188.594ZM101.125 186.203V187.438C101.125 188.766 101.125 190.203 100.734 192.203H102.75V193.422H97.0781V199.344H95.5781V193.422H89.9844V192.203H99.2344C99.6562 190.211 99.6562 188.742 99.6562 187.438V187.422H91.5469V186.203H101.125ZM116.594 191.062V192.25H103.812V191.062H116.594ZM115.078 188.859V190.047H105.484V185.734H114.938V186.938H106.969V188.859H115.078ZM114.969 193.359V196.75H106.812V198H115.359V199.172H105.359V195.656H113.5V194.5H105.344V193.359H114.969ZM125.438 186.828V187.688C125.438 188.859 125.438 190.672 125.031 193.172L123.562 193.062C123.914 190.82 123.953 189.203 123.969 188.031H118.281V186.828H125.438ZM121.844 190.828V195.016C123.336 194.969 124.852 194.867 126.25 194.688L126.328 195.797C123.406 196.266 120.156 196.328 117.672 196.312L117.5 195.109C118.375 195.102 119.352 195.094 120.375 195.062V190.828H121.844ZM128.547 185.328V191.109H130.688V192.375H128.547V199.328H127.047V185.328H128.547ZM139.172 186.375C140.445 186.375 141.5 187.109 142.125 188.375H145.578V185.328H147.047V199.359H145.578V193.984H142.219C141.617 195.391 140.516 196.203 139.172 196.203C137.078 196.203 135.609 194.297 135.625 191.281C135.609 188.281 137.078 186.375 139.172 186.375ZM139.172 187.703C137.906 187.703 137.031 189.078 137.031 191.281C137.031 193.5 137.906 194.875 139.172 194.875C140.438 194.875 141.312 193.5 141.312 191.281C141.312 189.078 140.438 187.703 139.172 187.703ZM142.547 189.594C142.648 190.109 142.719 190.672 142.719 191.281C142.719 191.812 142.672 192.305 142.578 192.766H145.578V189.594H142.547ZM161.141 185.328V194.156H159.734V190.25H158.109V193.672H156.719V185.594H158.109V189.031H159.734V185.328H161.141ZM156.203 186.922V188.094H149.125V186.922H151.953V185.438H153.422V186.922H156.203ZM152.672 188.75C154.453 188.75 155.703 189.703 155.703 191.156C155.703 192.609 154.453 193.562 152.672 193.562C150.922 193.562 149.672 192.609 149.672 191.156C149.672 189.703 150.922 188.75 152.672 188.75ZM152.672 189.844C151.688 189.844 151 190.359 151 191.156C151 191.953 151.688 192.484 152.672 192.484C153.688 192.484 154.359 191.953 154.359 191.156C154.359 190.359 153.688 189.844 152.672 189.844ZM156.453 194.359C159.422 194.359 161.203 195.25 161.219 196.844C161.203 198.406 159.422 199.312 156.453 199.297C153.484 199.312 151.703 198.406 151.719 196.844C151.703 195.25 153.484 194.359 156.453 194.359ZM156.453 195.5C154.375 195.5 153.172 195.969 153.188 196.844C153.172 197.688 154.375 198.172 156.453 198.156C158.547 198.172 159.719 197.688 159.734 196.844C159.719 195.969 158.547 195.5 156.453 195.5ZM169.406 185.562C172.562 185.562 174.406 186.406 174.406 187.969C174.406 189.531 172.562 190.391 169.406 190.391C166.25 190.391 164.406 189.531 164.406 187.969C164.406 186.406 166.25 185.562 169.406 185.562ZM169.406 186.656C167.172 186.656 165.938 187.141 165.953 187.969C165.938 188.828 167.172 189.281 169.406 189.281C171.641 189.281 172.875 188.828 172.875 187.969C172.875 187.141 171.641 186.656 169.406 186.656ZM175.797 191.25V192.438H163.031V191.25H175.797ZM174.188 193.516V196.797H166.031V198.047H174.578V199.188H164.578V195.719H172.719V194.625H164.562V193.516H174.188ZM191.766 185.328V188.359H193.797V189.594H191.766V192.406H190.281V185.328H191.766ZM187.953 185.953C187.953 189.547 185.453 191.844 181.312 192.781L180.75 191.547C184.188 190.812 186.094 189.18 186.312 187.172H181.406V185.953H187.953ZM191.766 193.016V196.609H184.203V198H192.25V199.188H182.75V195.469H190.297V194.203H182.719V193.016H191.766ZM207.812 185.609V190.953H209.297V185.328H210.703V199.328H209.297V192.172H207.812V198.656H206.438V185.609H207.812ZM201.891 187.062V188.281H200.219V194.5C200.711 194.477 201.297 194.414 201.938 194.25L202.062 195.5C200.938 195.75 200.078 195.766 199.438 195.766H198.859V187.062H201.891ZM205.578 187.062V188.281H203.812V194.5C204.414 194.484 205.07 194.422 205.812 194.219L205.938 195.469C204.812 195.75 203.891 195.766 203.062 195.766H202.469V187.062H205.578ZM229.312 190.828V192.047H227.141V199.312H225.656V185.328H227.141V190.828H229.312ZM218.234 186.688V194.562C220.188 194.562 222.227 194.398 224.453 193.938L224.625 195.188C222.234 195.672 220.016 195.797 217.922 195.797H216.766V186.688H218.234ZM241.391 189.422V190.609H231.75V185.828H233.219V189.422H241.391ZM242.859 192.375V193.562H230.047V192.375H242.859ZM241.484 197.781V199H231.641V194.891H233.125V197.781H241.484ZM246.188 194.641C246.203 192.594 246.812 191.969 247.844 191.328C248.5 190.922 249 190.359 249 189.531C249 188.547 248.25 187.938 247.312 187.938C246.469 187.938 245.656 188.453 245.578 189.609H243.891C243.953 187.625 245.453 186.531 247.312 186.531C249.344 186.531 250.703 187.75 250.703 189.531C250.703 190.781 250.109 191.625 249.109 192.234C248.172 192.797 247.812 193.375 247.781 194.641V194.734H246.188V194.641ZM247.047 198.109C246.438 198.109 245.922 197.609 245.938 197C245.922 196.391 246.438 195.891 247.047 195.891C247.641 195.891 248.156 196.391 248.156 197C248.156 197.609 247.641 198.109 247.047 198.109Z" fill="black"/>
</svg>
