<svg width="327" height="224" viewBox="0 0 327 224" fill="none" xmlns="http://www.w3.org/2000/svg">
<rect x="0.5" y="0.5" width="326" height="223" rx="9.5" fill="white"/>
<rect x="0.5" y="0.5" width="326" height="223" rx="9.5" stroke="#354024"/>
<path d="M168.645 45.5C167.061 45.5 165.769 45.412 164.769 45.236C163.769 45.06 162.997 44.748 162.453 44.3C161.909 43.852 161.533 43.224 161.325 42.416C161.125 41.616 161.025 40.588 161.025 39.332C161.857 39.556 162.677 39.668 163.485 39.668C164.293 39.676 165.093 39.564 165.885 39.332C165.885 40.42 165.905 41.344 165.945 42.104C165.993 42.864 166.101 43.476 166.269 43.94C166.437 44.412 166.709 44.752 167.085 44.96C167.461 45.176 167.981 45.284 168.645 45.284V45.5ZM163.521 39.74C162.209 39.74 161.037 39.512 160.005 39.056C158.973 38.592 158.093 37.944 157.365 37.112C156.637 36.272 156.081 35.292 155.697 34.172C155.321 33.044 155.133 31.82 155.133 30.5C155.133 29.18 155.333 27.96 155.733 26.84C156.133 25.712 156.705 24.732 157.449 23.9C158.193 23.06 159.077 22.412 160.101 21.956C161.133 21.492 162.273 21.26 163.521 21.26C164.769 21.26 165.905 21.492 166.929 21.956C167.953 22.412 168.837 23.06 169.581 23.9C170.325 24.732 170.897 25.712 171.297 26.84C171.697 27.96 171.897 29.18 171.897 30.5C171.897 31.82 171.705 33.044 171.321 34.172C170.945 35.292 170.393 36.272 169.665 37.112C168.937 37.944 168.057 38.592 167.025 39.056C165.993 39.512 164.825 39.74 163.521 39.74ZM163.521 39.536C164.257 39.536 164.853 39.316 165.309 38.876C165.773 38.428 166.129 37.8 166.377 36.992C166.625 36.176 166.793 35.22 166.881 34.124C166.977 33.02 167.025 31.812 167.025 30.5C167.025 29.188 166.965 27.984 166.845 26.888C166.733 25.784 166.545 24.828 166.281 24.02C166.017 23.204 165.657 22.576 165.201 22.136C164.753 21.688 164.193 21.464 163.521 21.464C162.841 21.464 162.273 21.688 161.817 22.136C161.361 22.584 161.001 23.212 160.737 24.02C160.473 24.828 160.281 25.784 160.161 26.888C160.049 27.984 159.993 29.188 159.993 30.5C159.993 31.812 160.041 33.02 160.137 34.124C160.233 35.22 160.405 36.176 160.653 36.992C160.901 37.8 161.257 38.428 161.721 38.876C162.185 39.316 162.785 39.536 163.521 39.536Z" fill="black"/>
<path d="M163.5 56.6132L160.613 59.5L163.5 62.3868L166.387 59.5L163.5 56.6132ZM163.5 59.5L163 59.5L163 129.5L163.5 129.5L164 129.5L164 59.5L163.5 59.5Z" fill="black"/>
<path d="M153.778 157.5V157.284H155.298V147.068L150.514 153.948H159.986V154.164H150.122L156.122 145.5H158.226V157.284H159.426V157.5H153.778ZM160.773 159.9L167.685 145.012H167.901L160.989 159.9H160.773ZM172.515 157.66C172.03 157.66 171.614 157.521 171.267 157.244C170.926 156.967 170.755 156.529 170.755 155.932C170.755 155.617 170.84 155.289 171.011 154.948C171.187 154.607 171.411 154.255 171.683 153.892C171.955 153.524 172.248 153.143 172.563 152.748C172.878 152.348 173.179 151.929 173.467 151.492C173.643 151.225 173.819 150.945 173.995 150.652C174.176 150.353 174.371 150.025 174.579 149.668C174.792 149.305 175.03 148.892 175.291 148.428H169.395V149.628H169.179V145.5H177.275C177.275 145.5 177.2 145.636 177.051 145.908C176.902 146.18 176.702 146.537 176.451 146.98C176.2 147.423 175.923 147.905 175.619 148.428C175.32 148.951 175.016 149.473 174.707 149.996C174.398 150.513 174.112 150.975 173.851 151.38C173.579 151.812 173.366 152.148 173.211 152.388C173.062 152.628 172.958 152.825 172.899 152.98C172.84 153.135 172.811 153.295 172.811 153.46C172.811 153.695 172.883 153.897 173.027 154.068C173.171 154.233 173.336 154.401 173.523 154.572C173.715 154.737 173.883 154.932 174.027 155.156C174.171 155.375 174.243 155.652 174.243 155.988C174.243 156.457 174.086 156.855 173.771 157.18C173.462 157.5 173.043 157.66 172.515 157.66Z" fill="black"/>
<path d="M41.4062 175.844V186.156H39.9219V175.844H41.4062ZM41.8281 188.328V189.531H32.25V185.203H33.75V188.328H41.8281ZM35 179.094C35 180.844 36.3438 182.469 38.5156 183.109L37.7969 184.281C36.1562 183.773 34.9219 182.719 34.2969 181.359C33.6641 182.836 32.4297 183.984 30.7656 184.516L30.0312 183.359C32.2031 182.672 33.5156 180.953 33.5156 179.094V178.812H30.4062V177.625H33.5156V175.891H35.0156V177.625H38.0938V178.812H35V179.094ZM54.7656 176.703V177.938C54.7656 179.266 54.7656 180.703 54.375 182.703H56.3906V183.922H50.7188V189.844H49.2188V183.922H43.625V182.703H52.875C53.2969 180.711 53.2969 179.242 53.2969 177.938V177.922H45.1875V176.703H54.7656ZM68.3594 175.828V181.406H70.5312V182.641H68.3594V189.812H66.875V175.828H68.3594ZM64.7031 177.297C64.6875 181.344 62.9062 184.953 58.2969 187.234L57.4688 186.078C60.9766 184.328 62.8828 181.797 63.1875 178.531H58.1719V177.297H64.7031ZM88.2656 181.328V182.547H86.0938V189.812H84.6094V175.828H86.0938V181.328H88.2656ZM77.1875 177.188V185.062C79.1406 185.062 81.1797 184.898 83.4062 184.438L83.5781 185.688C81.1875 186.172 78.9688 186.297 76.875 186.297H75.7188V177.188H77.1875ZM101.062 175.828V189.828H99.6406V175.828H101.062ZM98.2188 176.094V189.141H96.7969V182.391H95.2188C95.0938 185.125 93.9219 186.828 92.1875 186.812C90.3594 186.828 89.1719 184.906 89.1719 181.875C89.1719 178.844 90.3594 176.938 92.1875 176.953C93.8906 176.938 95.0469 178.555 95.2188 181.188H96.7969V176.094H98.2188ZM92.1875 178.344C91.1719 178.344 90.5469 179.641 90.5469 181.875C90.5469 184.109 91.1719 185.406 92.1875 185.406C93.2188 185.406 93.8594 184.109 93.8594 181.875C93.8594 179.641 93.2188 178.344 92.1875 178.344ZM114.875 175.828V189.828H113.469V175.828H114.875ZM111.922 176.188V189.141H110.516V182.641H107.781C106.945 184.266 105.617 185.688 103.641 186.844L102.797 185.781C105.766 184.016 107.195 181.664 107.453 178.781H103.453V177.562H108.922C108.914 178.93 108.727 180.234 108.297 181.453H110.516V176.188H111.922ZM132.188 175.844V183.766H130.703V175.844H132.188ZM132.188 184.516V189.656H122.984V184.516H132.188ZM124.453 185.703V188.453H130.734V185.703H124.453ZM125.672 177.734C125.656 179.625 127.016 181.328 129.141 182.047L128.406 183.188C126.781 182.648 125.562 181.539 124.922 180.094C124.297 181.633 123.055 182.859 121.375 183.453L120.641 182.281C122.828 181.547 124.156 179.688 124.156 177.734V176.375H125.672V177.734ZM145.406 175.828V179.281H147.438V180.531H145.406V184.016H143.922V175.828H145.406ZM141.531 176.688C141.531 180.297 139.094 182.812 134.938 183.891L134.328 182.75C137.688 181.875 139.68 180.102 139.938 177.891H135V176.688H141.531ZM145.406 184.625V189.828H143.922V185.828H136.156V184.625H145.406ZM159.141 175.828V181.5H161.391V182.734H159.141V189.828H157.672V175.828H159.141ZM156.453 178.016V179.234H148.156V178.016H151.609V176.016H153.094V178.016H156.453ZM152.359 180.266C154.359 180.266 155.828 181.609 155.844 183.516C155.828 185.438 154.359 186.766 152.359 186.781C150.344 186.766 148.875 185.438 148.875 183.516C148.875 181.609 150.344 180.266 152.359 180.266ZM152.359 181.484C151.172 181.484 150.281 182.312 150.297 183.516C150.281 184.734 151.172 185.547 152.359 185.531C153.547 185.547 154.422 184.734 154.422 183.516C154.422 182.312 153.547 181.484 152.359 181.484ZM174.094 175.828V189.828H172.688V175.828H174.094ZM171.141 176.188V189.141H169.734V182.641H167C166.164 184.266 164.836 185.688 162.859 186.844L162.016 185.781C164.984 184.016 166.414 181.664 166.672 178.781H162.672V177.562H168.141C168.133 178.93 167.945 180.234 167.516 181.453H169.734V176.188H171.141ZM191.125 177.172V178.547C191.125 180.281 191.125 182.219 190.594 185.078L189.094 184.922C189.641 182.219 189.641 180.234 189.641 178.547V178.375H181.141V177.172H191.125ZM192.562 186.703V187.938H179.797V186.703H184.656V181.766H186.125V186.703H192.562ZM201.016 177.016V183.594H194.359V177.016H201.016ZM195.812 178.219V182.406H199.547V178.219H195.812ZM205.234 175.844V185.875H203.75V175.844H205.234ZM205.656 188.188V189.406H196.078V184.906H197.578V188.188H205.656ZM213.828 176.062C216.984 176.062 218.828 176.906 218.828 178.469C218.828 180.031 216.984 180.891 213.828 180.891C210.672 180.891 208.828 180.031 208.828 178.469C208.828 176.906 210.672 176.062 213.828 176.062ZM213.828 177.156C211.594 177.156 210.359 177.641 210.375 178.469C210.359 179.328 211.594 179.781 213.828 179.781C216.062 179.781 217.297 179.328 217.297 178.469C217.297 177.641 216.062 177.156 213.828 177.156ZM220.219 181.75V182.938H207.453V181.75H220.219ZM218.609 184.016V187.297H210.453V188.547H219V189.688H209V186.219H217.141V185.125H208.984V184.016H218.609ZM232.297 176.656V177.859H227.359V179.141H231.891V180.266H227.359V181.688C229.758 181.68 231.211 181.641 232.953 181.359L233.078 182.547C231.188 182.844 229.625 182.875 226.938 182.875H225.891V176.656H232.297ZM236.844 175.828V183.344H235.375V180.156H232.828V178.969H235.375V175.828H236.844ZM236.844 183.938V187.328H229.203V188.531H237.344V189.688H227.719V186.219H235.375V185.094H227.688V183.938H236.844ZM242.812 176.875C244.711 176.875 246.102 178.484 246.328 181.078H249.219V175.828H250.688V189.859H249.219V182.281H246.344C246.18 185.008 244.758 186.703 242.812 186.703C240.719 186.703 239.25 184.797 239.266 181.781C239.25 178.781 240.719 176.875 242.812 176.875ZM242.812 178.203C241.547 178.203 240.672 179.578 240.672 181.781C240.672 184 241.547 185.375 242.812 185.375C244.078 185.375 244.953 184 244.953 181.781C244.953 179.578 244.078 178.203 242.812 178.203ZM264.422 184.297V185.438H254.016V184.297H258.484V183.109H259.953V184.297H264.422ZM264.203 178.953V180.125H260.016V181.422H265.641V182.609H252.828V181.422H258.531V180.125H254.562V176.031H256.031V178.953H264.203ZM259.203 186C261.922 186 263.484 186.672 263.484 187.906C263.484 189.141 261.922 189.812 259.203 189.797C256.5 189.812 254.969 189.141 254.969 187.906C254.969 186.672 256.5 186 259.203 186ZM259.203 187.047C257.469 187.047 256.5 187.312 256.516 187.906C256.5 188.5 257.469 188.766 259.203 188.766C260.938 188.766 261.922 188.5 261.922 187.906C261.922 187.312 260.938 187.047 259.203 187.047ZM273.047 176.062C276.203 176.062 278.047 176.906 278.047 178.469C278.047 180.031 276.203 180.891 273.047 180.891C269.891 180.891 268.047 180.031 268.047 178.469C268.047 176.906 269.891 176.062 273.047 176.062ZM273.047 177.156C270.812 177.156 269.578 177.641 269.594 178.469C269.578 179.328 270.812 179.781 273.047 179.781C275.281 179.781 276.516 179.328 276.516 178.469C276.516 177.641 275.281 177.156 273.047 177.156ZM279.438 181.75V182.938H266.672V181.75H279.438ZM277.828 184.016V187.297H269.672V188.547H278.219V189.688H268.219V186.219H276.359V185.125H268.203V184.016H277.828ZM293.719 176.109V181.453H295.203V175.828H296.609V189.828H295.203V182.672H293.719V189.156H292.344V176.109H293.719ZM287.797 177.562V178.781H286.125V185C286.617 184.977 287.203 184.914 287.844 184.75L287.969 186C286.844 186.25 285.984 186.266 285.344 186.266H284.766V177.562H287.797ZM291.484 177.562V178.781H289.719V185C290.32 184.984 290.977 184.922 291.719 184.719L291.844 185.969C290.719 186.25 289.797 186.266 288.969 186.266H288.375V177.562H291.484ZM136.578 200.328V201.547H134.406V208.812H132.922V194.828H134.406V200.328H136.578ZM125.5 196.188V204.062C127.453 204.062 129.492 203.898 131.719 203.438L131.891 204.688C129.5 205.172 127.281 205.297 125.188 205.297H124.031V196.188H125.5ZM141.891 195.828C144.109 195.812 145.688 197.188 145.703 199.156C145.688 201.125 144.109 202.5 141.891 202.5C139.688 202.5 138.062 201.125 138.078 199.156C138.062 197.188 139.688 195.812 141.891 195.828ZM141.891 197.109C140.531 197.109 139.531 197.922 139.547 199.156C139.531 200.391 140.531 201.203 141.891 201.203C143.25 201.203 144.25 200.391 144.25 199.156C144.25 197.922 143.25 197.109 141.891 197.109ZM148.906 194.828V208.859H147.422V194.828H148.906ZM137.406 204.609C139.953 204.609 143.484 204.578 146.547 204.141L146.656 205.219C143.484 205.828 140.094 205.844 137.594 205.844L137.406 204.609ZM166.062 194.844V198.969H168.094V200.219H166.062V205.125H164.578V194.844H166.062ZM166.656 207.328V208.531H157.188V204.109H158.672V207.328H166.656ZM157.062 195.844V198.078H160.734V195.844H162.203V202.812H155.609V195.844H157.062ZM157.062 201.625H160.734V199.25H157.062V201.625ZM181.656 201.547V202.734H168.891V201.547H181.656ZM175.266 203.797C178.281 203.781 180.094 204.688 180.094 206.312C180.094 207.938 178.281 208.828 175.266 208.828C172.219 208.828 170.406 207.938 170.406 206.312C170.406 204.688 172.219 203.781 175.266 203.797ZM175.266 204.922C173.125 204.922 171.906 205.406 171.906 206.312C171.906 207.188 173.125 207.672 175.266 207.672C177.375 207.672 178.609 207.188 178.609 206.312C178.609 205.406 177.375 204.922 175.266 204.922ZM175.266 195.156C178.328 195.172 180.266 196.188 180.266 197.859C180.266 199.531 178.328 200.531 175.266 200.531C172.203 200.531 170.266 199.531 170.266 197.859C170.266 196.188 172.203 195.172 175.266 195.156ZM175.266 196.344C173.109 196.344 171.781 196.891 171.797 197.859C171.781 198.828 173.109 199.375 175.266 199.375C177.406 199.375 178.734 198.828 178.734 197.859C178.734 196.891 177.406 196.344 175.266 196.344ZM195.484 202.141V203.328H182.719V202.141H195.484ZM194.047 207.328V208.531H184.328V204.469H185.828V207.328H194.047ZM189.094 195.297C192.125 195.281 194.094 196.344 194.094 198.094C194.094 199.859 192.125 200.922 189.094 200.938C186.047 200.922 184.094 199.859 184.094 198.094C184.094 196.344 186.047 195.281 189.094 195.297ZM189.094 196.484C186.953 196.484 185.609 197.094 185.625 198.094C185.609 199.125 186.953 199.719 189.094 199.719C191.234 199.719 192.562 199.125 192.562 198.094C192.562 197.094 191.234 196.484 189.094 196.484ZM198.844 204.141C198.859 202.094 199.469 201.469 200.5 200.828C201.156 200.422 201.656 199.859 201.656 199.031C201.656 198.047 200.906 197.438 199.969 197.438C199.125 197.438 198.312 197.953 198.234 199.109H196.547C196.609 197.125 198.109 196.031 199.969 196.031C202 196.031 203.359 197.25 203.359 199.031C203.359 200.281 202.766 201.125 201.766 201.734C200.828 202.297 200.469 202.875 200.438 204.141V204.234H198.844V204.141ZM199.703 207.609C199.094 207.609 198.578 207.109 198.594 206.5C198.578 205.891 199.094 205.391 199.703 205.391C200.297 205.391 200.812 205.891 200.812 206.5C200.812 207.109 200.297 207.609 199.703 207.609Z" fill="black"/>
</svg>
