<svg width="327" height="224" viewBox="0 0 327 224" fill="none" xmlns="http://www.w3.org/2000/svg">
<rect x="0.5" y="0.5" width="326" height="223" rx="9.5" fill="white"/>
<rect x="0.5" y="0.5" width="326" height="223" rx="9.5" stroke="#354024"/>
<path d="M168.645 45.5C167.061 45.5 165.769 45.412 164.769 45.236C163.769 45.06 162.997 44.748 162.453 44.3C161.909 43.852 161.533 43.224 161.325 42.416C161.125 41.616 161.025 40.588 161.025 39.332C161.857 39.556 162.677 39.668 163.485 39.668C164.293 39.676 165.093 39.564 165.885 39.332C165.885 40.42 165.905 41.344 165.945 42.104C165.993 42.864 166.101 43.476 166.269 43.94C166.437 44.412 166.709 44.752 167.085 44.96C167.461 45.176 167.981 45.284 168.645 45.284V45.5ZM163.521 39.74C162.209 39.74 161.037 39.512 160.005 39.056C158.973 38.592 158.093 37.944 157.365 37.112C156.637 36.272 156.081 35.292 155.697 34.172C155.321 33.044 155.133 31.82 155.133 30.5C155.133 29.18 155.333 27.96 155.733 26.84C156.133 25.712 156.705 24.732 157.449 23.9C158.193 23.06 159.077 22.412 160.101 21.956C161.133 21.492 162.273 21.26 163.521 21.26C164.769 21.26 165.905 21.492 166.929 21.956C167.953 22.412 168.837 23.06 169.581 23.9C170.325 24.732 170.897 25.712 171.297 26.84C171.697 27.96 171.897 29.18 171.897 30.5C171.897 31.82 171.705 33.044 171.321 34.172C170.945 35.292 170.393 36.272 169.665 37.112C168.937 37.944 168.057 38.592 167.025 39.056C165.993 39.512 164.825 39.74 163.521 39.74ZM163.521 39.536C164.257 39.536 164.853 39.316 165.309 38.876C165.773 38.428 166.129 37.8 166.377 36.992C166.625 36.176 166.793 35.22 166.881 34.124C166.977 33.02 167.025 31.812 167.025 30.5C167.025 29.188 166.965 27.984 166.845 26.888C166.733 25.784 166.545 24.828 166.281 24.02C166.017 23.204 165.657 22.576 165.201 22.136C164.753 21.688 164.193 21.464 163.521 21.464C162.841 21.464 162.273 21.688 161.817 22.136C161.361 22.584 161.001 23.212 160.737 24.02C160.473 24.828 160.281 25.784 160.161 26.888C160.049 27.984 159.993 29.188 159.993 30.5C159.993 31.812 160.041 33.02 160.137 34.124C160.233 35.22 160.405 36.176 160.653 36.992C160.901 37.8 161.257 38.428 161.721 38.876C162.185 39.316 162.785 39.536 163.521 39.536Z" fill="black"/>
<path d="M163.5 56.6132L160.613 59.5L163.5 62.3868L166.387 59.5L163.5 56.6132ZM163.5 59.5L163 59.5L163 129.5L163.5 129.5L164 129.5L164 59.5L163.5 59.5Z" fill="black"/>
<path d="M154.382 157.66C153.897 157.66 153.481 157.521 153.134 157.244C152.793 156.967 152.622 156.529 152.622 155.932C152.622 155.617 152.708 155.289 152.878 154.948C153.054 154.607 153.278 154.255 153.55 153.892C153.822 153.524 154.116 153.143 154.43 152.748C154.745 152.348 155.046 151.929 155.334 151.492C155.51 151.225 155.686 150.945 155.862 150.652C156.044 150.353 156.238 150.025 156.446 149.668C156.66 149.305 156.897 148.892 157.158 148.428H151.262V149.628H151.046V145.5H159.142C159.142 145.5 159.068 145.636 158.918 145.908C158.769 146.18 158.569 146.537 158.318 146.98C158.068 147.423 157.79 147.905 157.486 148.428C157.188 148.951 156.884 149.473 156.574 149.996C156.265 150.513 155.98 150.975 155.718 151.38C155.446 151.812 155.233 152.148 155.078 152.388C154.929 152.628 154.825 152.825 154.766 152.98C154.708 153.135 154.678 153.295 154.678 153.46C154.678 153.695 154.75 153.897 154.894 154.068C155.038 154.233 155.204 154.401 155.39 154.572C155.582 154.737 155.75 154.932 155.894 155.156C156.038 155.375 156.11 155.652 156.11 155.988C156.11 156.457 155.953 156.855 155.638 157.18C155.329 157.5 154.91 157.66 154.382 157.66ZM159.937 159.9L166.849 145.012H167.065L160.153 159.9H159.937ZM171.679 157.66C171.194 157.66 170.778 157.521 170.431 157.244C170.09 156.967 169.919 156.529 169.919 155.932C169.919 155.617 170.004 155.289 170.175 154.948C170.351 154.607 170.575 154.255 170.847 153.892C171.119 153.524 171.412 153.143 171.727 152.748C172.042 152.348 172.343 151.929 172.631 151.492C172.807 151.225 172.983 150.945 173.159 150.652C173.34 150.353 173.535 150.025 173.743 149.668C173.956 149.305 174.194 148.892 174.455 148.428H168.559V149.628H168.343V145.5H176.439C176.439 145.5 176.364 145.636 176.215 145.908C176.066 146.18 175.866 146.537 175.615 146.98C175.364 147.423 175.087 147.905 174.783 148.428C174.484 148.951 174.18 149.473 173.871 149.996C173.562 150.513 173.276 150.975 173.015 151.38C172.743 151.812 172.53 152.148 172.375 152.388C172.226 152.628 172.122 152.825 172.063 152.98C172.004 153.135 171.975 153.295 171.975 153.46C171.975 153.695 172.047 153.897 172.191 154.068C172.335 154.233 172.5 154.401 172.687 154.572C172.879 154.737 173.047 154.932 173.191 155.156C173.335 155.375 173.407 155.652 173.407 155.988C173.407 156.457 173.25 156.855 172.935 157.18C172.626 157.5 172.207 157.66 171.679 157.66Z" fill="black"/>
<path d="M105.773 175.828V189.828H104.352V182.656H102.555V189.109H101.164V176.109H102.555V181.438H104.352V175.828H105.773ZM95.9297 177.484V184.953C97.2266 184.945 98.6406 184.844 100.227 184.531L100.383 185.828C98.4609 186.172 96.8516 186.266 95.3516 186.266H94.4453V177.484H95.9297ZM118.523 175.828V181.406H120.695V182.641H118.523V189.812H117.039V175.828H118.523ZM114.867 177.297C114.852 181.344 113.07 184.953 108.461 187.234L107.633 186.078C111.141 184.328 113.047 181.797 113.352 178.531H108.336V177.297H114.867ZM132.461 177.125V178.359H127.539V185.188C129.883 185.18 131.5 185.094 133.336 184.734L133.508 185.953C131.492 186.328 129.789 186.422 127.148 186.422H126.039V177.125H132.461ZM137.039 175.828V189.859H135.555V182.062H131.664V180.828H135.555V175.828H137.039ZM150.164 177.219V186.312H143.617V177.219H150.164ZM145.07 178.391V185.109H148.695V178.391H145.07ZM153.992 175.828V181.312H156.242V182.562H153.992V189.828H152.508V175.828H153.992ZM163.289 176.125C166.367 176.125 168.289 177.125 168.289 178.812C168.289 180.469 166.367 181.453 163.289 181.453C160.227 181.453 158.289 180.469 158.289 178.812C158.289 177.125 160.227 176.125 163.289 176.125ZM163.289 177.297C161.133 177.297 159.805 177.844 159.82 178.812C159.805 179.75 161.133 180.281 163.289 180.297C165.43 180.281 166.758 179.75 166.758 178.812C166.758 177.844 165.43 177.297 163.289 177.297ZM168.117 184.984V189.656H158.445V184.984H168.117ZM159.914 186.172V188.453H166.68V186.172H159.914ZM169.68 182.531V183.734H156.914V182.531H169.68ZM182.336 175.828V189.859H180.852V175.828H182.336ZM174.852 176.875C176.93 176.875 178.461 178.781 178.461 181.781C178.461 184.797 176.93 186.703 174.852 186.703C172.742 186.703 171.227 184.797 171.227 181.781C171.227 178.781 172.742 176.875 174.852 176.875ZM174.852 178.203C173.555 178.203 172.664 179.578 172.664 181.781C172.664 184 173.555 185.375 174.852 185.375C176.133 185.375 177.023 184 177.023 181.781C177.023 179.578 176.133 178.203 174.852 178.203ZM192.82 178.656C192.82 179.977 193.453 181.625 194.867 182.594C196.258 181.641 196.898 180.016 196.898 178.656V176.906H198.398V178.656C198.383 180.359 199.305 182.109 201.18 182.891L200.367 184C199.023 183.414 198.117 182.32 197.633 181.016C197.164 182.359 196.273 183.547 194.852 184.172C193.422 183.547 192.516 182.312 192.055 180.969C191.562 182.258 190.656 183.398 189.336 184L188.539 182.891C190.367 182.078 191.32 180.219 191.336 178.656V176.906H192.82V178.656ZM201.273 186.766V187.984H188.477V186.766H201.273ZM213.898 175.828V189.859H212.414V175.828H213.898ZM206.414 176.875C208.492 176.875 210.023 178.781 210.023 181.781C210.023 184.797 208.492 186.703 206.414 186.703C204.305 186.703 202.789 184.797 202.789 181.781C202.789 178.781 204.305 176.875 206.414 176.875ZM206.414 178.203C205.117 178.203 204.227 179.578 204.227 181.781C204.227 184 205.117 185.375 206.414 185.375C207.695 185.375 208.586 184 208.586 181.781C208.586 179.578 207.695 178.203 206.414 178.203ZM227.461 177.172V178.547C227.461 180.281 227.461 182.219 226.93 185.078L225.43 184.922C225.977 182.219 225.977 180.234 225.977 178.547V178.375H217.477V177.172H227.461ZM228.898 186.703V187.938H216.133V186.703H220.992V181.766H222.461V186.703H228.898ZM232.477 187.422L231.227 191.734H229.898L230.727 187.422H232.477ZM103.266 198.938V200.125H93.6562V195.312H95.1406V198.938H103.266ZM104.719 201.641V202.828H99.1719V205.594H97.7031V202.828H91.9375V201.641H104.719ZM103.375 207.328V208.531H93.5312V204.406H95V207.328H103.375ZM118.531 200.625V201.812H112.875V203.031H116.922V206.312H108.766V207.547H117.312V208.688H107.312V205.234H115.453V204.172H107.297V203.031H111.391V201.812H105.766V200.625H118.531ZM116.891 195.281V199.594H107.406V195.281H116.891ZM108.859 196.453V198.422H115.406V196.453H108.859ZM131.188 194.828V208.859H129.703V194.828H131.188ZM123.703 195.875C125.781 195.875 127.312 197.781 127.312 200.781C127.312 203.797 125.781 205.703 123.703 205.703C121.594 205.703 120.078 203.797 120.078 200.781C120.078 197.781 121.594 195.875 123.703 195.875ZM123.703 197.203C122.406 197.203 121.516 198.578 121.516 200.781C121.516 203 122.406 204.375 123.703 204.375C124.984 204.375 125.875 203 125.875 200.781C125.875 198.578 124.984 197.203 123.703 197.203ZM148.328 194.828V197.641H150.359V198.891H148.328V201.844H146.844V194.828H148.328ZM139.453 195.453V200.016C141.336 200 143.32 199.852 145.469 199.422L145.656 200.656C143.297 201.125 141.172 201.266 139.109 201.266H137.969V195.453H139.453ZM148.328 202.484V206.047H140.781V207.453H148.812V208.656H139.312V204.906H146.844V203.656H139.281V202.484H148.328ZM162.156 196.062V202.594H155.609V196.062H162.156ZM157.062 197.266V201.422H160.703V197.266H157.062ZM166.062 194.812V199H168.094V200.25H166.062V205.078H164.578V194.812H166.062ZM166.656 207.328V208.531H157.188V204.094H158.672V207.328H166.656ZM179.891 194.844V199.344H181.922V200.578H179.891V205.312H178.406V194.844H179.891ZM177.25 196.469V197.672H168.906V196.469H172.344V194.828H173.828V196.469H177.25ZM173.078 198.344C175.094 198.344 176.469 199.391 176.469 200.984C176.469 202.578 175.094 203.609 173.078 203.609C171.047 203.609 169.672 202.578 169.672 200.984C169.672 199.391 171.047 198.344 173.078 198.344ZM173.078 199.484C171.891 199.484 171.094 200.062 171.109 200.984C171.094 201.891 171.891 202.453 173.078 202.453C174.266 202.453 175.062 201.891 175.078 200.984C175.062 200.062 174.266 199.484 173.078 199.484ZM180.484 207.328V208.531H171.016V204.484H172.5V207.328H180.484ZM191.453 197.062C191.453 198.906 192.734 200.609 194.828 201.297L194.031 202.469C192.5 201.93 191.352 200.836 190.75 199.453C190.133 201.023 188.945 202.25 187.312 202.859L186.516 201.672C188.703 200.891 189.969 199.031 189.984 196.938V195.562H191.453V197.062ZM197.625 194.828V198.344H199.656V199.594H197.625V203.281H196.141V194.828H197.625ZM193.109 203.609C195.984 203.609 197.75 204.562 197.75 206.203C197.75 207.859 195.984 208.812 193.109 208.797C190.203 208.812 188.406 207.859 188.406 206.203C188.406 204.562 190.203 203.609 193.109 203.609ZM193.109 204.781C191.078 204.781 189.875 205.312 189.891 206.203C189.875 207.125 191.078 207.625 193.109 207.641C195.125 207.625 196.297 207.125 196.297 206.203C196.297 205.312 195.125 204.781 193.109 204.781ZM211.469 194.844V198.969H213.469V200.203H211.469V204.312H209.984V194.844H211.469ZM206.891 204.469C209.844 204.453 211.547 205.234 211.562 206.656C211.547 208.062 209.844 208.812 206.891 208.828C203.922 208.812 202.219 208.062 202.219 206.656C202.219 205.234 203.922 204.453 206.891 204.469ZM206.891 205.562C204.797 205.562 203.703 205.953 203.719 206.656C203.703 207.328 204.797 207.719 206.891 207.719C208.953 207.719 210.047 207.328 210.047 206.656C210.047 205.953 208.953 205.562 206.891 205.562ZM200.359 202.594C201.445 202.602 202.703 202.602 204.016 202.562V201.531C202.406 201.375 201.406 200.656 201.422 199.578C201.406 198.328 202.719 197.594 204.75 197.594C206.766 197.594 208.078 198.328 208.078 199.578C208.078 200.648 207.086 201.367 205.5 201.531V202.5C206.75 202.438 208.016 202.336 209.188 202.172L209.312 203.203C206.312 203.719 203 203.766 200.516 203.766L200.359 202.594ZM208.797 195.969V197.078H200.719V195.969H204.016V194.719H205.5V195.969H208.797ZM204.75 198.594C203.547 198.594 202.828 198.969 202.828 199.578C202.828 200.203 203.547 200.578 204.75 200.578C205.938 200.578 206.656 200.203 206.656 199.578C206.656 198.969 205.938 198.594 204.75 198.594ZM227.047 202.141V203.328H214.281V202.141H227.047ZM225.609 207.328V208.531H215.891V204.469H217.391V207.328H225.609ZM220.656 195.297C223.688 195.281 225.656 196.344 225.656 198.094C225.656 199.859 223.688 200.922 220.656 200.938C217.609 200.922 215.656 199.859 215.656 198.094C215.656 196.344 217.609 195.281 220.656 195.297ZM220.656 196.484C218.516 196.484 217.172 197.094 217.188 198.094C217.172 199.125 218.516 199.719 220.656 199.719C222.797 199.719 224.125 199.125 224.125 198.094C224.125 197.094 222.797 196.484 220.656 196.484ZM230.406 204.141C230.422 202.094 231.031 201.469 232.062 200.828C232.719 200.422 233.219 199.859 233.219 199.031C233.219 198.047 232.469 197.438 231.531 197.438C230.688 197.438 229.875 197.953 229.797 199.109H228.109C228.172 197.125 229.672 196.031 231.531 196.031C233.562 196.031 234.922 197.25 234.922 199.031C234.922 200.281 234.328 201.125 233.328 201.734C232.391 202.297 232.031 202.875 232 204.141V204.234H230.406V204.141ZM231.266 207.609C230.656 207.609 230.141 207.109 230.156 206.5C230.141 205.891 230.656 205.391 231.266 205.391C231.859 205.391 232.375 205.891 232.375 206.5C232.375 207.109 231.859 207.609 231.266 207.609Z" fill="black"/>
</svg>
