<svg width="355" height="244" viewBox="0 0 355 244" fill="none" xmlns="http://www.w3.org/2000/svg">
<g filter="url(#filter0_i_17_825)">
<rect width="355" height="244" fill="#FAF1E6"/>
<path d="M154.191 45.4922V50.8125H157.215V52.6406H154.191V57.8906H151.941V45.4922H154.191ZM147.395 58.2891C151.684 58.2891 154.355 59.7891 154.355 62.3672C154.355 64.9453 151.684 66.4688 147.395 66.4453C143.059 66.4688 140.34 64.9453 140.34 62.3672C140.34 59.7891 143.059 58.2891 147.395 58.2891ZM147.395 60.0938C144.348 60.0703 142.52 60.9141 142.543 62.3672C142.52 63.8203 144.348 64.6641 147.395 64.6641C150.371 64.6641 152.199 63.8203 152.223 62.3672C152.199 60.9141 150.371 60.0703 147.395 60.0938ZM147.934 47.0391V48.8438H140.762V54.5625C144.898 54.5508 147.23 54.4219 149.879 53.8828L150.09 55.6875C147.277 56.2734 144.77 56.3672 140.223 56.3672H138.559V47.0391H147.934ZM175.824 45.5156V60.8906H173.598V45.5156H175.824ZM176.457 64.2422V66.0469H162.09V59.4375H164.34V64.2422H176.457ZM166.051 48.75C166.027 51.8203 167.996 54.6328 171.23 55.7578L170.082 57.5391C167.656 56.6367 165.863 54.8555 164.926 52.5703C164 55.0078 162.184 56.9648 159.723 57.9141L158.527 56.1562C161.832 54.9375 163.777 51.9141 163.777 48.75V46.6641H166.051V48.75ZM198.301 56.4609V58.2422H179.152V56.4609H198.301ZM196.145 64.2422V66.0469H181.566V59.9531H183.816V64.2422H196.145ZM188.715 46.1953C193.262 46.1719 196.215 47.7656 196.215 50.3906C196.215 53.0391 193.262 54.6328 188.715 54.6562C184.145 54.6328 181.215 53.0391 181.215 50.3906C181.215 47.7656 184.145 46.1719 188.715 46.1953ZM188.715 47.9766C185.504 47.9766 183.488 48.8906 183.512 50.3906C183.488 51.9375 185.504 52.8281 188.715 52.8281C191.926 52.8281 193.918 51.9375 193.918 50.3906C193.918 48.8906 191.926 47.9766 188.715 47.9766ZM202.285 64.6641C201.371 64.6641 200.598 63.9141 200.621 63C200.598 62.0859 201.371 61.3359 202.285 61.3359C203.176 61.3359 203.949 62.0859 203.949 63C203.949 63.9141 203.176 64.6641 202.285 64.6641ZM208.613 64.6641C207.699 64.6641 206.926 63.9141 206.949 63C206.926 62.0859 207.699 61.3359 208.613 61.3359C209.504 61.3359 210.277 62.0859 210.277 63C210.277 63.9141 209.504 64.6641 208.613 64.6641ZM214.941 64.6641C214.027 64.6641 213.254 63.9141 213.277 63C213.254 62.0859 214.027 61.3359 214.941 61.3359C215.832 61.3359 216.605 62.0859 216.605 63C216.605 63.9141 215.832 64.6641 214.941 64.6641ZM102.406 82.9766L104.281 76.5078H106.273L105.031 82.9766H102.406ZM107.117 82.9766L108.992 76.5078H110.984L109.742 82.9766H107.117ZM131.117 74.3516V90.5938H128.141V86.5625H125.258V84.1953H128.141V82.0625H125.258V79.6484H128.141V74.3516H131.117ZM125.047 76.5781V78.9453H113.188V76.5781H117.781V74.3047H120.758V76.5781H125.047ZM119.234 79.6953C122.164 79.6953 124.273 81.4297 124.297 83.8906C124.273 86.3516 122.164 88.0625 119.234 88.0625C116.328 88.0625 114.219 86.3516 114.242 83.8906C114.219 81.4297 116.328 79.6953 119.234 79.6953ZM119.234 82.0156C117.922 82.0391 117.008 82.6953 117.031 83.8906C117.008 85.1094 117.922 85.7891 119.234 85.7891C120.523 85.7891 121.461 85.1094 121.484 83.8906C121.461 82.6953 120.523 82.0391 119.234 82.0156ZM131.562 92.8906V95.2812H116.914V89.2109H119.938V92.8906H131.562ZM146 75.7578V78.1484H141.758C141.781 80.6328 143.27 83.0352 146.68 84.0312L145.25 86.375C142.895 85.6602 141.266 84.2305 140.328 82.3906C139.379 84.5469 137.645 86.2578 135.078 87.1016L133.555 84.7344C137.094 83.6211 138.688 80.8555 138.734 78.1484H134.375V75.7578H146ZM150.805 74.3281V79.2734H153.688V81.7109H150.805V86.9844H147.805V74.3281H150.805ZM143.82 87.4062C148.25 87.3828 151.016 88.9062 151.016 91.5078C151.016 94.1094 148.25 95.6562 143.82 95.6562C139.297 95.6562 136.508 94.1094 136.508 91.5078C136.508 88.9062 139.297 87.3828 143.82 87.4062ZM143.82 89.7266C141.008 89.7266 139.484 90.3125 139.508 91.5078C139.484 92.7266 141.008 93.3359 143.82 93.3359C146.586 93.3359 148.062 92.7266 148.062 91.5078C148.062 90.3125 146.586 89.7266 143.82 89.7266ZM177.219 74.3281V79.3672H179.938V81.8516H177.219V86.8906H174.219V74.3281H177.219ZM177.219 87.6406V92.4219H165.781V93.5234H177.922V95.5156H162.781V90.6172H174.219V89.6328H162.758V87.6406H177.219ZM159.922 84.5938C161.48 84.6055 163.25 84.6055 165.102 84.5469V83.6094C162.77 83.3398 161.328 82.3672 161.352 80.8438C161.328 79.1094 163.391 78.1016 166.578 78.1016C169.742 78.1016 171.781 79.1094 171.805 80.8438C171.781 82.3672 170.375 83.3281 168.078 83.6094V84.4531C169.824 84.3711 171.582 84.2305 173.234 84.0078L173.445 85.8594C168.898 86.6328 163.953 86.6562 160.227 86.6562L159.922 84.5938ZM172.695 75.6641V77.6562H160.484V75.6641H165.102V74.1406H168.078V75.6641H172.695ZM166.578 79.9531C165.055 79.9531 164.188 80.2344 164.211 80.8438C164.188 81.4766 165.055 81.8047 166.578 81.8281C168.078 81.8047 168.922 81.4766 168.945 80.8438C168.922 80.2344 168.078 79.9531 166.578 79.9531ZM200.398 84.4062V86.75H180.898V84.4062H189.195V82.5781H183.266V75.2656H198.055V77.5859H186.242V80.2344H198.172V82.5781H192.125V84.4062H200.398ZM190.602 87.8281C195.219 87.8281 198.008 89.2344 198.031 91.7656C198.008 94.25 195.219 95.6797 190.602 95.6797C185.938 95.6797 183.125 94.25 183.125 91.7656C183.125 89.2344 185.938 87.8281 190.602 87.8281ZM190.602 90.1016C187.648 90.1016 186.148 90.6641 186.172 91.7656C186.148 92.8906 187.648 93.4062 190.602 93.4062C193.484 93.4062 195.008 92.8906 195.031 91.7656C195.008 90.6641 193.484 90.1016 190.602 90.1016ZM218.469 74.3281V82.5078H221.492V84.9688H218.469V95.6094H215.469V74.3281H218.469ZM212.773 76.5078C212.75 82.8828 210.266 88.4141 203.094 91.9297L201.406 89.6328C206.457 87.1016 209.164 83.7031 209.727 78.9453H202.625V76.5078H212.773ZM234.289 76.2969V78.6641H222.43V76.2969H227.023V74.1406H230V76.2969H234.289ZM228.477 79.3672C231.406 79.3906 233.516 81.0078 233.539 83.375C233.516 85.7656 231.406 87.3594 228.477 87.3359C225.523 87.3594 223.461 85.7656 223.484 83.375C223.461 81.0078 225.523 79.3906 228.477 79.3672ZM228.477 81.5938C227.117 81.5938 226.25 82.2266 226.273 83.375C226.25 84.5234 227.117 85.1328 228.477 85.1328C229.812 85.1328 230.75 84.5234 230.75 83.375C230.75 82.2266 229.812 81.5938 228.477 81.5938ZM240.359 74.3281V87.9219H237.383V85.6719H234.477V83.2812H237.383V81.4062H234.523V79.0156H237.383V74.3281H240.359ZM233.117 88.1797C237.641 88.1797 240.477 89.5625 240.477 91.9297C240.477 94.25 237.641 95.6562 233.117 95.6562C228.57 95.6562 225.758 94.25 225.758 91.9297C225.758 89.5625 228.57 88.1797 233.117 88.1797ZM233.117 90.4297C230.398 90.4531 228.898 90.9219 228.898 91.9297C228.898 92.8906 230.398 93.4062 233.117 93.4062C235.789 93.4062 237.266 92.8906 237.266 91.9297C237.266 90.9219 235.789 90.4531 233.117 90.4297ZM252.57 76.5547L250.695 83.0234H248.703L249.945 76.5547H252.57ZM247.859 76.5547L245.984 83.0234H243.992L245.234 76.5547H247.859ZM45.8516 128.828V132.312H47.8516V133.578H45.8516V137.078H44.3672V128.828H45.8516ZM45.8516 137.672V140.594H38.1172V141.656H46.3672V142.688H36.6328V139.641H44.3828V138.703H36.6016V137.672H45.8516ZM34.7422 135.75C35.8281 135.75 37.0859 135.75 38.3984 135.703V134.922C36.7891 134.773 35.7891 134.133 35.8047 133.078C35.7891 131.938 37.1016 131.266 39.1328 131.266C41.1484 131.266 42.4609 131.938 42.4609 133.078C42.4609 134.125 41.4688 134.766 39.8828 134.922V135.656C41.1328 135.594 42.3984 135.492 43.5703 135.328L43.6953 136.297C40.6797 136.797 37.3672 136.812 34.8984 136.812L34.7422 135.75ZM43.1797 129.828V130.859H35.1016V129.828H38.3984V128.703H39.8828V129.828H43.1797ZM39.1328 132.234C37.9297 132.234 37.2109 132.547 37.2109 133.078C37.2109 133.641 37.9297 133.984 39.1328 133.984C40.3203 133.984 41.0391 133.641 41.0391 133.078C41.0391 132.547 40.3203 132.234 39.1328 132.234ZM60.3047 128.828V142.828H58.8047V128.828H60.3047ZM56.1328 130.328C56.1328 134.422 54.3828 137.984 49.5859 140.281L48.8047 139.078C52.5312 137.305 54.3438 134.781 54.6328 131.516H49.4766V130.328H56.1328ZM67.2891 133.328C67.2891 135.484 68.6016 137.766 70.6953 138.766L69.8516 139.891C68.3281 139.172 67.1797 137.711 66.5859 136C65.9688 137.852 64.75 139.398 63.1484 140.141L62.3203 139C64.4453 138.031 65.8359 135.641 65.8359 133.328V132.406H62.7422V131.219H65.8203V129.109H67.3203V131.219H70.3672V132.406H67.2891V133.328ZM73.3984 128.828V134.469H75.6484V135.719H73.3984V142.828H71.9141V128.828H73.3984ZM87.6484 130.172V131.547C87.6484 133.281 87.6484 135.219 87.1172 138.078L85.6172 137.922C86.1641 135.219 86.1641 133.234 86.1641 131.547V131.375H77.6641V130.172H87.6484ZM89.0859 139.703V140.938H76.3203V139.703H81.1797V134.766H82.6484V139.703H89.0859ZM92.6641 140.422L91.4141 144.734H90.0859L90.9141 140.422H92.6641ZM103.336 131.344C103.336 133.141 104.68 134.859 106.836 135.547L106.07 136.703C104.461 136.172 103.242 135.062 102.617 133.656C101.984 135.18 100.742 136.383 99.0703 136.969L98.3047 135.828C100.477 135.078 101.82 133.25 101.836 131.344V130.953H98.6953V129.75H106.414V130.953H103.336V131.344ZM109.758 128.828V137.281H108.273V128.828H109.758ZM109.758 137.984V142.828H108.273V139.188H100.273V137.984H109.758ZM123.633 128.828V136.453H122.164V133.359H119.539V132.141H122.164V128.828H123.633ZM115.992 137.078V138.688H122.164V137.078H123.633V142.656H114.523V137.078H115.992ZM115.992 141.453H122.164V139.844H115.992V141.453ZM116.992 131.016C116.992 132.75 118.258 134.5 120.367 135.219L119.602 136.375C118.023 135.82 116.867 134.703 116.258 133.312C115.641 134.867 114.422 136.102 112.758 136.688L111.992 135.516C114.148 134.766 115.477 132.922 115.477 131V130.812H112.445V129.609H119.992V130.812H116.992V131.016ZM142.789 134.328V135.547H140.617V142.812H139.133V128.828H140.617V134.328H142.789ZM131.711 130.188V138.062C133.664 138.062 135.703 137.898 137.93 137.438L138.102 138.688C135.711 139.172 133.492 139.297 131.398 139.297H130.242V130.188H131.711ZM148.586 132.391C148.586 134.953 150.023 137.5 152.164 138.469L151.258 139.656C149.664 138.859 148.469 137.273 147.852 135.359C147.234 137.375 146.008 139.078 144.398 139.922L143.461 138.719C145.633 137.688 147.086 134.984 147.086 132.391V130H148.586V132.391ZM155.211 128.828V142.859H153.742V134.688H150.617V133.484H153.742V128.828H155.211ZM162.414 132.391C162.414 134.953 163.852 137.5 165.992 138.469L165.086 139.656C163.492 138.859 162.297 137.273 161.68 135.359C161.062 137.375 159.836 139.078 158.227 139.922L157.289 138.719C159.461 137.688 160.914 134.984 160.914 132.391V130H162.414V132.391ZM169.039 128.828V142.859H167.57V134.688H164.445V133.484H167.57V128.828H169.039ZM186.445 135.281V136.469H182.211V139.891H187.914V141.109H175.102V139.891H180.742V136.469H176.695V129.906H186.32V131.109H178.18V135.281H186.445ZM201.727 136.781V138.016H196.008V142.828H194.555V138.016H188.914V136.781H201.727ZM195.289 129.359C198.242 129.359 200.273 130.562 200.273 132.469C200.273 134.359 198.242 135.547 195.289 135.547C192.32 135.547 190.305 134.359 190.305 132.469C190.305 130.562 192.32 129.359 195.289 129.359ZM195.289 130.547C193.211 130.562 191.82 131.281 191.836 132.469C191.82 133.641 193.211 134.359 195.289 134.359C197.367 134.359 198.758 133.641 198.758 132.469C198.758 131.281 197.367 130.562 195.289 130.547ZM209.805 130.172V132.125H212.961V128.828H214.43V142.859H212.961V137.172H209.805V139.328H203.305V130.172H209.805ZM204.773 131.328V138.141H208.352V131.328H204.773ZM209.805 135.969H212.961V133.344H209.805V135.969ZM225.461 130.922C225.461 132.891 226.727 134.641 228.852 135.328L228.039 136.484C226.5 135.93 225.367 134.852 224.758 133.453C224.148 135.055 222.93 136.297 221.242 136.906L220.445 135.719C222.68 134.953 223.977 133.094 223.992 130.984V129.609H225.461V130.922ZM232.164 128.828V137.094H230.68V132.891H227.727V131.672H230.68V128.828H232.164ZM227.477 137.484C230.414 137.484 232.211 138.453 232.211 140.156C232.211 141.844 230.414 142.812 227.477 142.797C224.539 142.812 222.727 141.844 222.742 140.156C222.727 138.453 224.539 137.484 227.477 137.484ZM227.477 138.641C225.43 138.641 224.211 139.188 224.211 140.156C224.211 141.094 225.43 141.625 227.477 141.625C229.523 141.625 230.742 141.094 230.742 140.156C230.742 139.188 229.523 138.641 227.477 138.641ZM239.727 131.531C239.727 132.859 240.977 134 243.023 134.438L242.414 135.594C240.805 135.234 239.625 134.43 239.008 133.359C238.406 134.523 237.203 135.398 235.539 135.781L234.914 134.625C236.977 134.188 238.242 132.922 238.242 131.531H235.227V130.359H238.242V128.859H239.727V130.359H242.727V131.531H239.727ZM245.961 128.844V142.828H244.492V128.844H245.961ZM234.305 136.641C236.961 136.641 240.477 136.625 243.523 136.234L243.633 137.312C242.352 137.523 241.031 137.656 239.742 137.734V142.406H238.258V137.812C236.914 137.867 235.633 137.875 234.508 137.875L234.305 136.641ZM259.148 128.828V132.125H261.18V133.359H259.148V136.734H257.664V128.828H259.148ZM255.289 129.703C255.273 133.297 252.852 135.812 248.68 136.938L248.086 135.75C251.43 134.867 253.406 133.109 253.68 130.922H248.742V129.703H255.289ZM259.148 137.328V142.641H250.18V137.328H259.148ZM251.664 138.562V141.453H257.68V138.562H251.664ZM268.352 129.062C271.508 129.062 273.352 129.906 273.352 131.469C273.352 133.031 271.508 133.891 268.352 133.891C265.195 133.891 263.352 133.031 263.352 131.469C263.352 129.906 265.195 129.062 268.352 129.062ZM268.352 130.156C266.117 130.156 264.883 130.641 264.898 131.469C264.883 132.328 266.117 132.781 268.352 132.781C270.586 132.781 271.82 132.328 271.82 131.469C271.82 130.641 270.586 130.156 268.352 130.156ZM274.742 134.75V135.938H261.977V134.75H274.742ZM273.133 137.016V140.297H264.977V141.547H273.523V142.688H263.523V139.219H271.664V138.125H263.508V137.016H273.133ZM291.07 135.109V136.328H281.242V130.047H282.727V135.109H291.07ZM292.523 139.734V140.984H279.711V139.734H292.523ZM305.164 128.828V142.828H303.664V128.828H305.164ZM297.914 130.328C297.898 133.781 297.164 137.016 294.664 139.672L293.508 138.812C295.508 136.727 296.336 134.344 296.492 131.547H294.07V130.328H297.914ZM301.836 130.328C301.836 133.828 301.336 137.578 298.852 140.594L297.602 139.797C299.641 137.383 300.305 134.531 300.43 131.547H298.398V130.328H301.836ZM318.695 132.922V134.109H309.055V129.328H310.523V132.922H318.695ZM320.164 135.875V137.062H307.352V135.875H320.164ZM318.789 141.281V142.5H308.945V138.391H310.43V141.281H318.789ZM42.875 147.828V151.375H44.8906V152.594H42.875V156.094H41.375V147.828H42.875ZM38.3438 156.359C41.2031 156.359 42.9844 157.359 42.9844 159.078C42.9844 160.797 41.2031 161.812 38.3438 161.797C35.4531 161.812 33.6406 160.797 33.6406 159.078C33.6406 157.359 35.4531 156.359 38.3438 156.359ZM38.3438 157.562C36.3125 157.547 35.0938 158.109 35.1094 159.078C35.0938 160.047 36.3125 160.609 38.3438 160.609C40.3281 160.609 41.5469 160.047 41.5625 159.078C41.5469 158.109 40.3281 157.547 38.3438 157.562ZM38.7031 148.859V150.062H33.9219V153.875C36.6797 153.867 38.2344 153.781 40 153.422L40.1406 154.625C38.2656 155.016 36.5938 155.078 33.5625 155.078H32.4531V148.859H38.7031ZM57.2969 147.844V158.094H55.8125V147.844H57.2969ZM57.7188 160.328V161.531H48.1406V157.125H49.6406V160.328H57.7188ZM50.7812 150C50.7656 152.047 52.0781 153.922 54.2344 154.672L53.4688 155.859C51.8516 155.258 50.6562 154.07 50.0312 152.547C49.4141 154.172 48.2031 155.477 46.5625 156.109L45.7656 154.938C47.9688 154.125 49.2656 152.109 49.2656 150V148.609H50.7812V150ZM72.2812 155.141V156.328H59.5156V155.141H72.2812ZM70.8438 160.328V161.531H61.125V157.469H62.625V160.328H70.8438ZM65.8906 148.297C68.9219 148.281 70.8906 149.344 70.8906 151.094C70.8906 152.859 68.9219 153.922 65.8906 153.938C62.8438 153.922 60.8906 152.859 60.8906 151.094C60.8906 149.344 62.8438 148.281 65.8906 148.297ZM65.8906 149.484C63.75 149.484 62.4062 150.094 62.4219 151.094C62.4062 152.125 63.75 152.719 65.8906 152.719C68.0312 152.719 69.3594 152.125 69.3594 151.094C69.3594 150.094 68.0312 149.484 65.8906 149.484ZM90.0156 154.75V155.969H77.25V154.75H82.8906V153.391H78.9219V148.203H80.3906V149.656H86.875V148.203H88.3594V153.391H84.3594V154.75H90.0156ZM83.625 156.875C86.6406 156.875 88.4531 157.766 88.4688 159.344C88.4531 160.938 86.6406 161.812 83.625 161.797C80.5781 161.812 78.7812 160.938 78.7812 159.344C78.7812 157.766 80.5781 156.875 83.625 156.875ZM83.625 158.016C81.4844 158.016 80.2656 158.484 80.2656 159.344C80.2656 160.203 81.4844 160.672 83.625 160.656C85.7344 160.672 86.9531 160.203 86.9531 159.344C86.9531 158.484 85.7344 158.016 83.625 158.016ZM80.3906 152.219H86.875V150.797H80.3906V152.219ZM95.9375 151.391C95.9219 153.875 97.3594 156.406 99.4531 157.422L98.5312 158.609C97.0078 157.82 95.8281 156.25 95.2188 154.375C94.5859 156.375 93.3594 158.047 91.7656 158.875L90.8438 157.672C93 156.641 94.4531 153.953 94.4531 151.391V149H95.9375V151.391ZM101.984 147.828V153.406H104.234V154.672H101.984V161.828H100.5V147.828H101.984ZM115.922 147.828V151.312H117.922V152.578H115.922V156.078H114.438V147.828H115.922ZM115.922 156.672V159.594H108.188V160.656H116.438V161.688H106.703V158.641H114.453V157.703H106.672V156.672H115.922ZM104.812 154.75C105.898 154.75 107.156 154.75 108.469 154.703V153.922C106.859 153.773 105.859 153.133 105.875 152.078C105.859 150.938 107.172 150.266 109.203 150.266C111.219 150.266 112.531 150.938 112.531 152.078C112.531 153.125 111.539 153.766 109.953 153.922V154.656C111.203 154.594 112.469 154.492 113.641 154.328L113.766 155.297C110.75 155.797 107.438 155.812 104.969 155.812L104.812 154.75ZM113.25 148.828V149.859H105.172V148.828H108.469V147.703H109.953V148.828H113.25ZM109.203 151.234C108 151.234 107.281 151.547 107.281 152.078C107.281 152.641 108 152.984 109.203 152.984C110.391 152.984 111.109 152.641 111.109 152.078C111.109 151.547 110.391 151.234 109.203 151.234ZM131.516 154.641V155.828H118.734V154.641H124.406V153.156H120.328V148.469H129.938V149.641H121.797V151.969H130.031V153.156H125.844V154.641H131.516ZM125.109 156.734C128.125 156.734 129.938 157.656 129.938 159.281C129.938 160.906 128.125 161.812 125.109 161.828C122.078 161.812 120.25 160.906 120.25 159.281C120.25 157.656 122.078 156.734 125.109 156.734ZM125.109 157.891C122.969 157.891 121.75 158.391 121.75 159.281C121.75 160.172 122.969 160.672 125.109 160.656C127.219 160.672 128.453 160.172 128.453 159.281C128.453 158.391 127.219 157.891 125.109 157.891ZM144.609 147.828V161.828H143.188V147.828H144.609ZM141.766 148.094V161.141H140.344V154.391H138.766C138.641 157.125 137.469 158.828 135.734 158.812C133.906 158.828 132.719 156.906 132.719 153.875C132.719 150.844 133.906 148.938 135.734 148.953C137.438 148.938 138.594 150.555 138.766 153.188H140.344V148.094H141.766ZM135.734 150.344C134.719 150.344 134.094 151.641 134.094 153.875C134.094 156.109 134.719 157.406 135.734 157.406C136.766 157.406 137.406 156.109 137.406 153.875C137.406 151.641 136.766 150.344 135.734 150.344ZM151.438 151.391C151.438 153.953 152.875 156.5 155.016 157.469L154.109 158.656C152.516 157.859 151.32 156.273 150.703 154.359C150.086 156.375 148.859 158.078 147.25 158.922L146.312 157.719C148.484 156.688 149.938 153.984 149.938 151.391V149H151.438V151.391ZM158.062 147.828V161.859H156.594V153.688H153.469V152.484H156.594V147.828H158.062ZM171.562 154.281V155.469H167.328V158.891H173.031V160.109H160.219V158.891H165.859V155.469H161.812V148.906H171.438V150.109H163.297V154.281H171.562ZM188.953 147.844V151.156H190.984V152.359H188.953V155.719H187.469V147.844H188.953ZM189.281 156.422V157.609H187.422V160.406H189.469V161.609H179.781V160.406H181.797V157.609H179.891V156.422H189.281ZM181.891 148.609C184.031 148.609 185.609 149.969 185.625 151.922C185.609 153.859 184.031 155.219 181.891 155.219C179.75 155.219 178.156 153.859 178.172 151.922C178.156 149.969 179.75 148.609 181.891 148.609ZM181.891 149.859C180.578 149.844 179.609 150.672 179.625 151.922C179.609 153.156 180.578 153.969 181.891 153.984C183.203 153.969 184.172 153.156 184.172 151.922C184.172 150.672 183.203 149.844 181.891 149.859ZM183.234 160.406H185.969V157.609H183.234V160.406ZM196.672 150.406C196.672 152.188 197.906 153.812 200.031 154.484L199.328 155.641C197.734 155.133 196.57 154.078 195.953 152.75C195.344 154.281 194.117 155.492 192.438 156.078L191.672 154.891C193.859 154.172 195.172 152.359 195.188 150.422V150.031H192.109V148.828H199.688V150.031H196.672V150.406ZM202.781 147.828V151.297H204.812V152.516H202.781V156.234H201.297V147.828H202.781ZM198.266 156.578C201.156 156.578 202.906 157.531 202.906 159.172C202.906 160.828 201.156 161.812 198.266 161.797C195.344 161.812 193.562 160.828 193.562 159.172C193.562 157.531 195.344 156.578 198.266 156.578ZM198.266 157.75C196.234 157.75 195.031 158.266 195.047 159.172C195.031 160.109 196.234 160.625 198.266 160.625C200.281 160.625 201.453 160.109 201.453 159.172C201.453 158.266 200.281 157.75 198.266 157.75ZM210.656 151.391C210.656 153.953 212.094 156.5 214.234 157.469L213.328 158.656C211.734 157.859 210.539 156.273 209.922 154.359C209.305 156.375 208.078 158.078 206.469 158.922L205.531 157.719C207.703 156.688 209.156 153.984 209.156 151.391V149H210.656V151.391ZM217.281 147.828V161.859H215.812V153.688H212.688V152.484H215.812V147.828H217.281ZM230.766 151.922V153.109H221.125V148.328H222.594V151.922H230.766ZM232.234 154.875V156.062H219.422V154.875H232.234ZM230.859 160.281V161.5H221.016V157.391H222.5V160.281H230.859ZM248.797 147.828V161.859H247.312V147.828H248.797ZM244.516 149.094V154.203H239.484V157.266C241.75 157.258 243.734 157.156 246.078 156.766L246.219 157.984C243.734 158.406 241.625 158.5 239.156 158.5H237.969V153.016H243V150.297H237.953V149.094H244.516ZM258.109 149.125V150.359H253.188V157.188C255.531 157.18 257.148 157.094 258.984 156.734L259.156 157.953C257.141 158.328 255.438 158.422 252.797 158.422H251.688V149.125H258.109ZM262.688 147.828V161.859H261.203V154.062H257.312V152.828H261.203V147.828H262.688ZM272.719 149.297V150.484H264.844V149.297H268.125V147.703H269.594V149.297H272.719ZM268.844 151.125C270.734 151.125 272.062 152.172 272.078 153.734C272.062 155.297 270.734 156.328 268.844 156.328C266.938 156.328 265.625 155.297 265.625 153.734C265.625 152.172 266.938 151.125 268.844 151.125ZM268.844 152.25C267.734 152.25 267.016 152.828 267.016 153.734C267.016 154.641 267.734 155.203 268.844 155.203C269.938 155.203 270.688 154.641 270.703 153.734C270.688 152.828 269.938 152.25 268.844 152.25ZM276.5 147.828V156.844H275.016V155.047H272.75V153.844H275.016V152.297H272.766V151.094H275.016V147.828H276.5ZM271.844 156.984C274.781 156.984 276.578 157.859 276.578 159.391C276.578 160.906 274.781 161.812 271.844 161.797C268.891 161.812 267.094 160.906 267.094 159.391C267.094 157.859 268.891 156.984 271.844 156.984ZM271.844 158.125C269.828 158.125 268.641 158.562 268.641 159.391C268.641 160.203 269.828 160.672 271.844 160.656C273.812 160.672 275 160.203 275 159.391C275 158.562 273.812 158.125 271.844 158.125ZM290.25 147.828V161.859H288.766V147.828H290.25ZM282.766 148.875C284.844 148.875 286.375 150.781 286.375 153.781C286.375 156.797 284.844 158.703 282.766 158.703C280.656 158.703 279.141 156.797 279.141 153.781C279.141 150.781 280.656 148.875 282.766 148.875ZM282.766 150.203C281.469 150.203 280.578 151.578 280.578 153.781C280.578 156 281.469 157.375 282.766 157.375C284.047 157.375 284.938 156 284.938 153.781C284.938 151.578 284.047 150.203 282.766 150.203ZM304.531 147.828V161.828H303.109V147.828H304.531ZM301.688 148.094V161.141H300.266V154.391H298.688C298.562 157.125 297.391 158.828 295.656 158.812C293.828 158.828 292.641 156.906 292.641 153.875C292.641 150.844 293.828 148.938 295.656 148.953C297.359 148.938 298.516 150.555 298.688 153.188H300.266V148.094H301.688ZM295.656 150.344C294.641 150.344 294.016 151.641 294.016 153.875C294.016 156.109 294.641 157.406 295.656 157.406C296.688 157.406 297.328 156.109 297.328 153.875C297.328 151.641 296.688 150.344 295.656 150.344ZM319.125 158.844V160.078H306.312V158.844H309.375V155.188C308.227 154.555 307.531 153.547 307.531 152.297C307.531 150.094 309.688 148.641 312.688 148.641C315.703 148.641 317.859 150.094 317.859 152.297C317.859 153.531 317.188 154.523 316.062 155.156V158.844H319.125ZM312.688 149.828C310.484 149.828 308.969 150.781 308.969 152.297C308.969 153.797 310.484 154.781 312.688 154.781C314.875 154.781 316.422 153.797 316.422 152.297C316.422 150.781 314.875 149.828 312.688 149.828ZM310.844 158.844H314.562V155.719C313.992 155.867 313.359 155.938 312.688 155.938C312.031 155.938 311.406 155.867 310.844 155.734V158.844ZM321.734 160.609C321.125 160.609 320.609 160.109 320.625 159.5C320.609 158.891 321.125 158.391 321.734 158.391C322.328 158.391 322.844 158.891 322.844 159.5C322.844 160.109 322.328 160.609 321.734 160.609ZM36.5391 167.875C38.6328 167.875 40.1172 169.781 40.1328 172.781C40.1172 175.797 38.6328 177.703 36.5391 177.703C34.4453 177.703 32.9453 175.797 32.9609 172.781C32.9453 169.781 34.4453 167.875 36.5391 167.875ZM36.5391 169.203C35.2578 169.203 34.3828 170.578 34.3828 172.781C34.3828 175 35.2578 176.375 36.5391 176.375C37.8359 176.375 38.7109 175 38.7109 172.781C38.7109 170.578 37.8359 169.203 36.5391 169.203ZM43.6953 166.828V172.312H45.9453V173.562H43.6953V180.828H42.2109V166.828H43.6953ZM58.2109 166.828V180.859H56.7266V166.828H58.2109ZM50.7266 167.875C52.8047 167.875 54.3359 169.781 54.3359 172.781C54.3359 175.797 52.8047 177.703 50.7266 177.703C48.6172 177.703 47.1016 175.797 47.1016 172.781C47.1016 169.781 48.6172 167.875 50.7266 167.875ZM50.7266 169.203C49.4297 169.203 48.5391 170.578 48.5391 172.781C48.5391 175 49.4297 176.375 50.7266 176.375C52.0078 176.375 52.8984 175 52.8984 172.781C52.8984 170.578 52.0078 169.203 50.7266 169.203ZM73.2266 172.562V173.75H60.4453V172.562H73.2266ZM71.7109 170.359V171.547H62.1172V167.234H71.5703V168.438H63.6016V170.359H71.7109ZM71.6016 174.859V178.25H63.4453V179.5H71.9922V180.672H61.9922V177.156H70.1328V176H61.9766V174.859H71.6016ZM82.0703 168.328V169.188C82.0703 170.359 82.0703 172.172 81.6641 174.672L80.1953 174.562C80.5469 172.32 80.5859 170.703 80.6016 169.531H74.9141V168.328H82.0703ZM78.4766 172.328V176.516C79.9688 176.469 81.4844 176.367 82.8828 176.188L82.9609 177.297C80.0391 177.766 76.7891 177.828 74.3047 177.812L74.1328 176.609C75.0078 176.602 75.9844 176.594 77.0078 176.562V172.328H78.4766ZM85.1797 166.828V172.609H87.3203V173.875H85.1797V180.828H83.6797V166.828H85.1797ZM103.008 166.828V170.453H105.039V171.719H103.008V175.266H101.523V166.828H103.008ZM103.008 176V180.656H94.0703V176H103.008ZM95.5234 177.172V179.453H101.539V177.172H95.5234ZM100.367 168.25V169.438H92.0234V168.25H95.4609V166.719H96.9453V168.25H100.367ZM96.1953 170.047C98.2109 170.047 99.5859 171.047 99.5859 172.547C99.5859 174.062 98.2109 175.047 96.1953 175.062C94.1484 175.047 92.7891 174.062 92.7891 172.547C92.7891 171.047 94.1484 170.047 96.1953 170.047ZM96.1953 171.188C95.0078 171.172 94.2109 171.703 94.2266 172.547C94.2109 173.422 95.0078 173.938 96.1953 173.938C97.3828 173.938 98.1797 173.422 98.1953 172.547C98.1797 171.703 97.3828 171.172 96.1953 171.188ZM109.305 168.484C109.289 171.625 108.898 174.859 106.945 177.609L105.789 176.953C107.422 174.766 107.914 172.344 108.023 169.703H106.117V168.484H109.305ZM112.414 168.484C112.414 169.664 112.391 170.953 112.242 172.25H113.883V167.188H115.289V180.141H113.883V173.453H112.07C111.75 175.195 111.164 176.922 110.086 178.453L108.93 177.781C110.742 175.352 111.07 172.406 111.133 169.703H109.727V168.484H112.414ZM117.945 166.828V180.828H116.523V166.828H117.945ZM135.336 166.844V180.828H133.852V166.844H135.336ZM123.492 174.469C126.32 174.469 129.852 174.484 133.055 174.094L133.133 175.188C131.781 175.398 130.406 175.523 129.07 175.594V180.375H127.586V175.656C126.211 175.703 124.883 175.703 123.68 175.703L123.492 174.469ZM132.539 171.719V172.906H128.711V167.828H132.445V169.031H130.164V171.719H132.539ZM127.977 167.828V169.031H125.82V171.703C126.547 171.688 127.273 171.633 128.133 171.438L128.242 172.625C127.008 172.891 126.055 172.906 124.992 172.906H124.352V167.828H127.977ZM148.695 169.969V171.172H144.523V172.578H150.195V173.781H137.383V172.578H143.055V171.172H139.086V167.031H140.539V169.969H148.695ZM148.586 174.812V178.172H140.461V179.484H149.07V180.656H138.977V177.109H147.117V175.969H138.945V174.812H148.586ZM162.883 166.828V180.828H161.414V173.594H158.273V172.375H161.414V166.828H162.883ZM158.32 168.328C158.305 172.391 156.727 175.875 151.977 178.234L151.195 177.062C154.906 175.25 156.555 172.727 156.82 169.516H151.82V168.328H158.32ZM178.133 172.328V173.547H175.961V180.812H174.477V166.828H175.961V172.328H178.133ZM167.055 168.188V176.062C169.008 176.062 171.047 175.898 173.273 175.438L173.445 176.688C171.055 177.172 168.836 177.297 166.742 177.297H165.586V168.188H167.055ZM181.398 178.422L180.148 182.734H178.82L179.648 178.422H181.398ZM197.898 166.828V171.625H199.898V172.859H197.898V177.766H196.414V166.828H197.898ZM198.398 179.328V180.531H188.852V177.031H190.336V179.328H198.398ZM186.789 175.047C187.867 175.047 189.125 175.039 190.445 174.984V174.016C188.852 173.844 187.836 173.07 187.852 171.922C187.836 170.562 189.164 169.75 191.18 169.766C193.18 169.75 194.508 170.562 194.508 171.922C194.508 173.062 193.508 173.836 191.93 174.016V174.922C193.18 174.852 194.445 174.742 195.617 174.562L195.742 175.609C192.758 176.172 189.383 176.219 186.945 176.234L186.789 175.047ZM195.227 168.125V169.219H187.148V168.125H190.445V166.781H191.93V168.125H195.227ZM191.18 170.781C189.977 170.781 189.258 171.203 189.258 171.922C189.258 172.609 189.977 173.031 191.18 173.031C192.367 173.031 193.086 172.609 193.086 171.922C193.086 171.203 192.367 170.781 191.18 170.781ZM212.383 166.844V175.125H210.898V173.422H207.367V172.203H210.898V170.5H207.508C206.609 172.75 204.508 174.336 201.477 175.203L200.883 174.047C204.195 173.094 206.133 171.32 206.398 169.062H201.602V167.844H208.008C208.008 168.359 207.953 168.859 207.867 169.328H210.898V166.844H212.383ZM207.773 175.281C210.602 175.281 212.461 176.312 212.477 178.016C212.461 179.719 210.602 180.766 207.773 180.766C204.898 180.766 203.055 179.719 203.055 178.016C203.055 176.312 204.898 175.281 207.773 175.281ZM207.773 176.453C205.773 176.453 204.523 177.016 204.523 178.016C204.523 179 205.773 179.578 207.773 179.578C209.742 179.578 210.977 179 210.992 178.016C210.977 177.016 209.742 176.453 207.773 176.453ZM220.914 167.062C224.07 167.062 225.914 167.906 225.914 169.469C225.914 171.031 224.07 171.891 220.914 171.891C217.758 171.891 215.914 171.031 215.914 169.469C215.914 167.906 217.758 167.062 220.914 167.062ZM220.914 168.156C218.68 168.156 217.445 168.641 217.461 169.469C217.445 170.328 218.68 170.781 220.914 170.781C223.148 170.781 224.383 170.328 224.383 169.469C224.383 168.641 223.148 168.156 220.914 168.156ZM227.305 172.75V173.938H214.539V172.75H227.305ZM225.695 175.016V178.297H217.539V179.547H226.086V180.688H216.086V177.219H224.227V176.125H216.07V175.016H225.695ZM243.945 166.828V175.156H242.461V171.609H239.852V170.391H242.461V166.828H243.945ZM239.258 175.547C242.195 175.547 243.992 176.516 243.992 178.188C243.992 179.859 242.195 180.812 239.258 180.828C236.32 180.812 234.508 179.859 234.523 178.188C234.508 176.516 236.32 175.547 239.258 175.547ZM239.258 176.703C237.211 176.703 235.992 177.234 235.992 178.188C235.992 179.125 237.211 179.672 239.258 179.656C241.305 179.672 242.523 179.125 242.523 178.188C242.523 177.234 241.305 176.703 239.258 176.703ZM237.289 169.297C237.289 171.078 238.555 172.797 240.664 173.516L239.898 174.688C238.328 174.141 237.172 173.023 236.57 171.641C235.953 173.211 234.727 174.469 233.055 175.078L232.273 173.891C234.445 173.141 235.773 171.25 235.773 169.312V169H232.742V167.797H240.289V169H237.289V169.297ZM257.07 166.828V172.688H259.18V173.938H257.07V180.828H255.586V166.828H257.07ZM245.93 177.016C247.031 177.016 248.312 177.016 249.648 176.969V175.547C248.07 175.328 247.039 174.375 247.055 173.016C247.039 171.438 248.398 170.391 250.398 170.391C252.383 170.391 253.758 171.438 253.773 173.016C253.758 174.375 252.711 175.336 251.133 175.562V176.906C252.375 176.859 253.625 176.758 254.789 176.594L254.883 177.688C251.852 178.234 248.57 178.25 246.164 178.25L245.93 177.016ZM254.586 168.484V169.672H246.195V168.484H249.648V166.859H251.133V168.484H254.586ZM250.398 171.547C249.227 171.547 248.445 172.125 248.445 173.016C248.445 173.906 249.227 174.453 250.398 174.453C251.57 174.453 252.352 173.906 252.352 173.016C252.352 172.125 251.57 171.547 250.398 171.547ZM270.836 166.828V172.5H273.086V173.734H270.836V180.828H269.367V166.828H270.836ZM268.148 169.016V170.234H259.852V169.016H263.305V167.016H264.789V169.016H268.148ZM264.055 171.266C266.055 171.266 267.523 172.609 267.539 174.516C267.523 176.438 266.055 177.766 264.055 177.781C262.039 177.766 260.57 176.438 260.57 174.516C260.57 172.609 262.039 171.266 264.055 171.266ZM264.055 172.484C262.867 172.484 261.977 173.312 261.992 174.516C261.977 175.734 262.867 176.547 264.055 176.531C265.242 176.547 266.117 175.734 266.117 174.516C266.117 173.312 265.242 172.484 264.055 172.484ZM285.086 168.172V169.547C285.086 171.281 285.086 173.219 284.555 176.078L283.055 175.922C283.602 173.219 283.602 171.234 283.602 169.547V169.375H275.102V168.172H285.086ZM286.523 177.703V178.938H273.758V177.703H278.617V172.766H280.086V177.703H286.523ZM290.102 178.422L288.852 182.734H287.523L288.352 178.422H290.102ZM297.742 167.656V169.859H301.242V167.656H302.711V169.016H305.773V166.828H307.258V175.156H305.773V173.078H302.711V174.406H296.258V167.656H297.742ZM297.742 173.203H301.242V171.031H297.742V173.203ZM307.258 175.859V180.828H305.773V177.047H297.773V175.859H307.258ZM302.711 171.875H305.773V170.219H302.711V171.875ZM320.383 166.828V172.688H322.492V173.938H320.383V180.828H318.898V166.828H320.383ZM309.242 177.016C310.344 177.016 311.625 177.016 312.961 176.969V175.547C311.383 175.328 310.352 174.375 310.367 173.016C310.352 171.438 311.711 170.391 313.711 170.391C315.695 170.391 317.07 171.438 317.086 173.016C317.07 174.375 316.023 175.336 314.445 175.562V176.906C315.688 176.859 316.938 176.758 318.102 176.594L318.195 177.688C315.164 178.234 311.883 178.25 309.477 178.25L309.242 177.016ZM317.898 168.484V169.672H309.508V168.484H312.961V166.859H314.445V168.484H317.898ZM313.711 171.547C312.539 171.547 311.758 172.125 311.758 173.016C311.758 173.906 312.539 174.453 313.711 174.453C314.883 174.453 315.664 173.906 315.664 173.016C315.664 172.125 314.883 171.547 313.711 171.547ZM68.2031 192.75V193.969H55.4375V192.75H61.0781V191.391H57.1094V186.203H58.5781V187.656H65.0625V186.203H66.5469V191.391H62.5469V192.75H68.2031ZM61.8125 194.875C64.8281 194.875 66.6406 195.766 66.6562 197.344C66.6406 198.938 64.8281 199.812 61.8125 199.797C58.7656 199.812 56.9688 198.938 56.9688 197.344C56.9688 195.766 58.7656 194.875 61.8125 194.875ZM61.8125 196.016C59.6719 196.016 58.4531 196.484 58.4531 197.344C58.4531 198.203 59.6719 198.672 61.8125 198.656C63.9219 198.672 65.1406 198.203 65.1406 197.344C65.1406 196.484 63.9219 196.016 61.8125 196.016ZM58.5781 190.219H65.0625V188.797H58.5781V190.219ZM74.125 189.391C74.1094 191.875 75.5469 194.406 77.6406 195.422L76.7188 196.609C75.1953 195.82 74.0156 194.25 73.4062 192.375C72.7734 194.375 71.5469 196.047 69.9531 196.875L69.0312 195.672C71.1875 194.641 72.6406 191.953 72.6406 189.391V187H74.125V189.391ZM80.1719 185.828V191.406H82.4219V192.672H80.1719V199.828H78.6875V185.828H80.1719ZM98 185.828V188.984H100.031V190.188H98V193.266H96.5156V185.828H98ZM94.2188 186.797C94.2188 190.375 91.7969 192.641 87.6406 193.531L87.0156 192.328C90.5469 191.617 92.375 189.969 92.5781 187.984H87.6406V186.797H94.2188ZM98.0625 193.859V194.984H90.5V196.188H97.9062V197.266H90.5V198.531H98.375V199.656H89.0156V193.859H98.0625ZM113.594 193.141V194.328H100.828V193.141H113.594ZM112.156 198.328V199.531H102.438V195.469H103.938V198.328H112.156ZM107.203 186.297C110.234 186.281 112.203 187.344 112.203 189.094C112.203 190.859 110.234 191.922 107.203 191.938C104.156 191.922 102.203 190.859 102.203 189.094C102.203 187.344 104.156 186.281 107.203 186.297ZM107.203 187.484C105.062 187.484 103.719 188.094 103.734 189.094C103.719 190.125 105.062 190.719 107.203 190.719C109.344 190.719 110.672 190.125 110.672 189.094C110.672 188.094 109.344 187.484 107.203 187.484ZM122.75 190.125C122.75 192.328 123.766 194.578 125.703 195.609L124.875 196.703C123.523 195.984 122.578 194.641 122.078 193.047C121.57 194.758 120.633 196.227 119.281 197.031L118.406 195.906C120.344 194.781 121.344 192.391 121.359 190.125V189.562H118.828V188.344H121.359V186.328H122.75V188.344H125.234V189.562H122.75V190.125ZM130.578 185.828V199.828H129.156V185.828H130.578ZM127.734 186.125V199.125H126.328V192.516H124.312V191.281H126.328V186.125H127.734ZM144.062 185.828V194.312H142.578V191.266H140.391V190.031H142.578V185.828H144.062ZM144.062 195V199.656H134.828V195H144.062ZM136.297 196.172V198.453H142.609V196.172H136.297ZM140.609 187.219V188.406H132.406V187.219H135.781V185.703H137.25V187.219H140.609ZM136.516 189.047C138.438 189.047 139.797 190.078 139.797 191.547C139.797 193.062 138.438 194.047 136.516 194.062C134.594 194.047 133.219 193.062 133.219 191.547C133.219 190.078 134.594 189.047 136.516 189.047ZM136.516 190.188C135.391 190.172 134.641 190.719 134.641 191.547C134.641 192.406 135.391 192.938 136.516 192.938C137.625 192.938 138.375 192.406 138.375 191.547C138.375 190.719 137.625 190.172 136.516 190.188ZM154.109 187.297V188.484H146.234V187.297H149.516V185.703H150.984V187.297H154.109ZM150.234 189.125C152.125 189.125 153.453 190.172 153.469 191.734C153.453 193.297 152.125 194.328 150.234 194.328C148.328 194.328 147.016 193.297 147.016 191.734C147.016 190.172 148.328 189.125 150.234 189.125ZM150.234 190.25C149.125 190.25 148.406 190.828 148.406 191.734C148.406 192.641 149.125 193.203 150.234 193.203C151.328 193.203 152.078 192.641 152.094 191.734C152.078 190.828 151.328 190.25 150.234 190.25ZM157.891 185.828V194.844H156.406V193.047H154.141V191.844H156.406V190.297H154.156V189.094H156.406V185.828H157.891ZM153.234 194.984C156.172 194.984 157.969 195.859 157.969 197.391C157.969 198.906 156.172 199.812 153.234 199.797C150.281 199.812 148.484 198.906 148.484 197.391C148.484 195.859 150.281 194.984 153.234 194.984ZM153.234 196.125C151.219 196.125 150.031 196.562 150.031 197.391C150.031 198.203 151.219 198.672 153.234 198.656C155.203 198.672 156.391 198.203 156.391 197.391C156.391 196.562 155.203 196.125 153.234 196.125ZM174.969 185.828V189.312H176.969V190.578H174.969V194.078H173.484V185.828H174.969ZM174.969 194.672V197.594H167.234V198.656H175.484V199.688H165.75V196.641H173.5V195.703H165.719V194.672H174.969ZM163.859 192.75C164.945 192.75 166.203 192.75 167.516 192.703V191.922C165.906 191.773 164.906 191.133 164.922 190.078C164.906 188.938 166.219 188.266 168.25 188.266C170.266 188.266 171.578 188.938 171.578 190.078C171.578 191.125 170.586 191.766 169 191.922V192.656C170.25 192.594 171.516 192.492 172.688 192.328L172.812 193.297C169.797 193.797 166.484 193.812 164.016 193.812L163.859 192.75ZM172.297 186.828V187.859H164.219V186.828H167.516V185.703H169V186.828H172.297ZM168.25 189.234C167.047 189.234 166.328 189.547 166.328 190.078C166.328 190.641 167.047 190.984 168.25 190.984C169.438 190.984 170.156 190.641 170.156 190.078C170.156 189.547 169.438 189.234 168.25 189.234ZM190.562 192.641V193.828H177.781V192.641H183.453V191.156H179.375V186.469H188.984V187.641H180.844V189.969H189.078V191.156H184.891V192.641H190.562ZM184.156 194.734C187.172 194.734 188.984 195.656 188.984 197.281C188.984 198.906 187.172 199.812 184.156 199.828C181.125 199.812 179.297 198.906 179.297 197.281C179.297 195.656 181.125 194.734 184.156 194.734ZM184.156 195.891C182.016 195.891 180.797 196.391 180.797 197.281C180.797 198.172 182.016 198.672 184.156 198.656C186.266 198.672 187.5 198.172 187.5 197.281C187.5 196.391 186.266 195.891 184.156 195.891ZM203.203 185.828V199.859H201.719V185.828H203.203ZM195.719 186.875C197.797 186.875 199.328 188.781 199.328 191.781C199.328 194.797 197.797 196.703 195.719 196.703C193.609 196.703 192.094 194.797 192.094 191.781C192.094 188.781 193.609 186.875 195.719 186.875ZM195.719 188.203C194.422 188.203 193.531 189.578 193.531 191.781C193.531 194 194.422 195.375 195.719 195.375C197 195.375 197.891 194 197.891 191.781C197.891 189.578 197 188.203 195.719 188.203ZM214.219 187.938C214.203 189.547 215.5 191.062 217.656 191.672L216.953 192.828C215.336 192.367 214.133 191.359 213.5 190.078C212.883 191.539 211.633 192.656 209.906 193.172L209.188 192.016C211.375 191.359 212.719 189.719 212.719 187.953V187.766H209.656V186.578H217.234V187.766H214.219V187.938ZM220.344 185.828V188.781H222.375V190H220.344V193.031H218.859V185.828H220.344ZM220.344 193.641V197.125H212.781V198.531H220.828V199.688H211.328V196.047H218.875V194.797H211.297V193.641H220.344ZM230.875 186.875C232.773 186.875 234.164 188.484 234.391 191.078H237.281V185.828H238.75V199.859H237.281V192.281H234.406C234.242 195.008 232.82 196.703 230.875 196.703C228.781 196.703 227.312 194.797 227.328 191.781C227.312 188.781 228.781 186.875 230.875 186.875ZM230.875 188.203C229.609 188.203 228.734 189.578 228.734 191.781C228.734 194 229.609 195.375 230.875 195.375C232.141 195.375 233.016 194 233.016 191.781C233.016 189.578 232.141 188.203 230.875 188.203ZM247.281 185.984C250.438 185.984 252.281 186.844 252.281 188.391C252.281 189.953 250.438 190.812 247.281 190.812C244.125 190.812 242.281 189.953 242.281 188.391C242.281 186.844 244.125 185.984 247.281 185.984ZM247.281 187.094C245.047 187.109 243.812 187.562 243.828 188.391C243.812 189.266 245.047 189.703 247.281 189.703C249.516 189.703 250.75 189.266 250.75 188.391C250.75 187.562 249.516 187.109 247.281 187.094ZM253.672 191.641V192.812H248.016V194.016H252.062V197.297H243.906V198.547H252.453V199.688H242.453V196.219H250.594V195.125H242.438V194.016H246.531V192.812H240.906V191.641H253.672ZM266.344 185.844V193.562H264.859V185.844H266.344ZM261.875 186.5V190.406H256.922V192.062C259.367 192.047 261.172 191.984 263.297 191.641L263.484 192.844C261.203 193.219 259.281 193.281 256.641 193.297H255.469V189.25H260.406V187.703H255.438V186.5H261.875ZM258.641 194.219V195.734H264.875V194.219H266.344V199.656H257.156V194.219H258.641ZM258.641 198.453H264.875V196.906H258.641V198.453ZM280.188 185.828V199.828H278.703V185.828H280.188ZM270.891 187.188V194.984C272.93 194.969 275.078 194.805 277.328 194.344L277.531 195.594C275.047 196.094 272.797 196.266 270.594 196.266H269.422V187.188H270.891ZM293.297 185.828V191.25H295.547V192.469H293.297V199.859H291.812V185.828H293.297ZM289.531 187.172V188.375H284.469V195.141C286.82 195.133 288.586 195.031 290.578 194.672L290.766 195.922C288.578 196.312 286.719 196.391 284.109 196.375H282.984V187.172H289.531ZM298.797 187.188L298.656 195.234H297.109L296.969 187.188H298.797ZM297.891 198.609C297.281 198.609 296.766 198.109 296.781 197.5C296.766 196.891 297.281 196.391 297.891 196.391C298.484 196.391 299 196.891 299 197.5C299 198.109 298.484 198.609 297.891 198.609Z" fill="black"/>
</g>
<defs>
<filter id="filter0_i_17_825" x="0" y="0" width="356" height="245" filterUnits="userSpaceOnUse" color-interpolation-filters="sRGB">
<feFlood flood-opacity="0" result="BackgroundImageFix"/>
<feBlend mode="normal" in="SourceGraphic" in2="BackgroundImageFix" result="shape"/>
<feColorMatrix in="SourceAlpha" type="matrix" values="0 0 0 0 0 0 0 0 0 0 0 0 0 0 0 0 0 0 127 0" result="hardAlpha"/>
<feOffset dx="1" dy="1"/>
<feGaussianBlur stdDeviation="3"/>
<feComposite in2="hardAlpha" operator="arithmetic" k2="-1" k3="1"/>
<feColorMatrix type="matrix" values="0 0 0 0 0 0 0 0 0 0 0 0 0 0 0 0 0 0 0.25 0"/>
<feBlend mode="normal" in2="shape" result="effect1_innerShadow_17_825"/>
</filter>
</defs>
</svg>
