<svg width="263" height="29" viewBox="0 0 263 29" fill="none" xmlns="http://www.w3.org/2000/svg">
<path d="M25.7969 14.5V16.9375H0.265625V14.5H11.5469V11.7812H3.60938V1.40625H6.54688V4.3125H19.5156V1.40625H22.4844V11.7812H14.4844V14.5H25.7969ZM13.0156 18.75C19.0469 18.75 22.6719 20.5312 22.7031 23.6875C22.6719 26.875 19.0469 28.625 13.0156 28.5938C6.92188 28.625 3.32812 26.875 3.32812 23.6875C3.32812 20.5312 6.92188 18.75 13.0156 18.75ZM13.0156 21.0312C8.73438 21.0312 6.29688 21.9688 6.29688 23.6875C6.29688 25.4062 8.73438 26.3438 13.0156 26.3125C17.2344 26.3438 19.6719 25.4062 19.6719 23.6875C19.6719 21.9688 17.2344 21.0312 13.0156 21.0312ZM6.54688 9.4375H19.5156V6.59375H6.54688V9.4375ZM37.6406 7.78125C37.6094 12.75 40.4844 17.8125 44.6719 19.8438L42.8281 22.2188C39.7812 20.6406 37.4219 17.5 36.2031 13.75C34.9375 17.75 32.4844 21.0938 29.2969 22.75L27.4531 20.3438C31.7656 18.2812 34.6719 12.9062 34.6719 7.78125V3H37.6406V7.78125ZM49.7344 0.65625V11.8125H54.2344V14.3438H49.7344V28.6562H46.7656V0.65625H49.7344ZM77.6094 0.65625V7.625H81.6094V10.1562H77.6094V17.1562H74.6406V0.65625H77.6094ZM77.6094 18.3438V24.1875H62.1406V26.3125H78.6406V28.375H59.1719V22.2812H74.6719V20.4062H59.1094V18.3438H77.6094ZM55.3906 14.5C57.5625 14.5 60.0781 14.5 62.7031 14.4062V12.8438C59.4844 12.5469 57.4844 11.2656 57.5156 9.15625C57.4844 6.875 60.1094 5.53125 64.1719 5.53125C68.2031 5.53125 70.8281 6.875 70.8281 9.15625C70.8281 11.25 68.8438 12.5312 65.6719 12.8438V14.3125C68.1719 14.1875 70.7031 13.9844 73.0469 13.6562L73.2969 15.5938C67.2656 16.5938 60.6406 16.625 55.7031 16.625L55.3906 14.5ZM72.2656 2.65625V4.71875H56.1094V2.65625H62.7031V0.40625H65.6719V2.65625H72.2656ZM64.1719 7.46875C61.7656 7.46875 60.3281 8.09375 60.3281 9.15625C60.3281 10.2812 61.7656 10.9688 64.1719 10.9688C66.5469 10.9688 67.9844 10.2812 67.9844 9.15625C67.9844 8.09375 66.5469 7.46875 64.1719 7.46875ZM108.797 14.2812V16.6562H83.2344V14.2812H94.5781V11.3125H86.4219V1.9375H105.641V4.28125H89.3594V8.9375H105.828V11.3125H97.4531V14.2812H108.797ZM95.9844 18.4688C102.016 18.4688 105.641 20.3125 105.641 23.5625C105.641 26.8125 102.016 28.625 95.9844 28.6562C89.9219 28.625 86.2656 26.8125 86.2656 23.5625C86.2656 20.3125 89.9219 18.4688 95.9844 18.4688ZM95.9844 20.7812C91.7031 20.7812 89.2656 21.7812 89.2656 23.5625C89.2656 25.3438 91.7031 26.3438 95.9844 26.3125C100.203 26.3438 102.672 25.3438 102.672 23.5625C102.672 21.7812 100.203 20.7812 95.9844 20.7812ZM128.641 4.84375C128.641 8.78125 131.172 12.2812 135.422 13.6562L133.797 15.9688C130.719 14.8594 128.453 12.7031 127.234 9.90625C126.016 13.1094 123.578 15.5938 120.203 16.8125L118.609 14.4375C123.078 12.9062 125.672 9.1875 125.703 4.96875V2.21875H128.641V4.84375ZM142.047 0.65625V17.1875H139.078V8.78125H133.172V6.34375H139.078V0.65625H142.047ZM132.672 17.9688C138.547 17.9688 142.141 19.9062 142.141 23.3125C142.141 26.6875 138.547 28.625 132.672 28.5938C126.797 28.625 123.172 26.6875 123.203 23.3125C123.172 19.9062 126.797 17.9688 132.672 17.9688ZM132.672 20.2812C128.578 20.2812 126.141 21.375 126.141 23.3125C126.141 25.1875 128.578 26.25 132.672 26.25C136.766 26.25 139.203 25.1875 139.203 23.3125C139.203 21.375 136.766 20.2812 132.672 20.2812ZM172.328 5.28125V7.71875H168.359V11.25H172.328V13.6875H168.359V18.625H165.391V0.65625H168.359V5.28125H172.328ZM159.422 18.8438C165.141 18.8438 168.672 20.6562 168.672 23.75C168.672 26.7812 165.141 28.625 159.422 28.5938C153.641 28.625 150.109 26.7812 150.141 23.75C150.109 20.6562 153.641 18.8438 159.422 18.8438ZM159.422 21.125C155.391 21.125 153.047 22.0312 153.078 23.75C153.047 25.375 155.391 26.3438 159.422 26.3438C163.391 26.3438 165.734 25.375 165.734 23.75C165.734 22.0312 163.391 21.125 159.422 21.125ZM163.078 3.65625V6H146.391V3.65625H153.266V0.4375H156.234V3.65625H163.078ZM154.734 7.28125C158.766 7.28125 161.516 9.28125 161.516 12.2812C161.516 15.2812 158.766 17.25 154.734 17.2188C150.641 17.25 147.922 15.2812 147.922 12.2812C147.922 9.28125 150.641 7.28125 154.734 7.28125ZM154.734 9.5C152.359 9.5 150.766 10.5625 150.797 12.2812C150.766 13.9375 152.359 14.9688 154.734 14.9688C157.109 14.9688 158.703 13.9375 158.734 12.2812C158.703 10.5625 157.109 9.5 154.734 9.5ZM193.297 3.96875V6.34375H185.672V11.5H192.047V13.8125H185.672V19.6875C189.328 19.6562 191.719 19.4844 194.609 18.9688L194.859 21.375C191.641 22.0312 188.984 22.0938 184.641 22.0938H182.828V3.96875H193.297ZM205.891 0.65625V28.6562H203.016V0.65625H205.891ZM200.109 1.25V27.25H197.297V13.5625H193.516V11.1562H197.297V1.25H200.109ZM223.703 4.625C223.703 9.1875 228.578 13.5 233.953 14.4688L232.578 16.9375C228.109 15.9688 223.984 13.0312 222.172 9.09375C220.328 13 216.219 15.9375 211.734 16.9375L210.422 14.4688C215.734 13.4688 220.578 9.1875 220.578 4.625V2.5H223.703V4.625ZM235.109 22.5V24.9688H209.484V22.5H235.109ZM259.859 15.5625V17.9375H240.359V2.96875H259.578V5.375H243.359V9.15625H258.984V11.5H243.359V15.5625H259.859ZM262.766 22.6875V25.125H237.141V22.6875H262.766Z" fill="black"/>
</svg>
