<svg width="355" height="244" viewBox="0 0 355 244" fill="none" xmlns="http://www.w3.org/2000/svg">
<g filter="url(#filter0_i_44_201)">
<rect width="355" height="244" fill="#A0AA8B"/>
<path d="M154.191 35.9922V41.3125H157.215V43.1406H154.191V48.3906H151.941V35.9922H154.191ZM147.395 48.7891C151.684 48.7891 154.355 50.2891 154.355 52.8672C154.355 55.4453 151.684 56.9688 147.395 56.9453C143.059 56.9688 140.34 55.4453 140.34 52.8672C140.34 50.2891 143.059 48.7891 147.395 48.7891ZM147.395 50.5938C144.348 50.5703 142.52 51.4141 142.543 52.8672C142.52 54.3203 144.348 55.1641 147.395 55.1641C150.371 55.1641 152.199 54.3203 152.223 52.8672C152.199 51.4141 150.371 50.5703 147.395 50.5938ZM147.934 37.5391V39.3438H140.762V45.0625C144.898 45.0508 147.23 44.9219 149.879 44.3828L150.09 46.1875C147.277 46.7734 144.77 46.8672 140.223 46.8672H138.559V37.5391H147.934ZM175.824 36.0156V51.3906H173.598V36.0156H175.824ZM176.457 54.7422V56.5469H162.09V49.9375H164.34V54.7422H176.457ZM166.051 39.25C166.027 42.3203 167.996 45.1328 171.23 46.2578L170.082 48.0391C167.656 47.1367 165.863 45.3555 164.926 43.0703C164 45.5078 162.184 47.4648 159.723 48.4141L158.527 46.6562C161.832 45.4375 163.777 42.4141 163.777 39.25V37.1641H166.051V39.25ZM198.301 46.9609V48.7422H179.152V46.9609H198.301ZM196.145 54.7422V56.5469H181.566V50.4531H183.816V54.7422H196.145ZM188.715 36.6953C193.262 36.6719 196.215 38.2656 196.215 40.8906C196.215 43.5391 193.262 45.1328 188.715 45.1562C184.145 45.1328 181.215 43.5391 181.215 40.8906C181.215 38.2656 184.145 36.6719 188.715 36.6953ZM188.715 38.4766C185.504 38.4766 183.488 39.3906 183.512 40.8906C183.488 42.4375 185.504 43.3281 188.715 43.3281C191.926 43.3281 193.918 42.4375 193.918 40.8906C193.918 39.3906 191.926 38.4766 188.715 38.4766ZM202.285 55.1641C201.371 55.1641 200.598 54.4141 200.621 53.5C200.598 52.5859 201.371 51.8359 202.285 51.8359C203.176 51.8359 203.949 52.5859 203.949 53.5C203.949 54.4141 203.176 55.1641 202.285 55.1641ZM208.613 55.1641C207.699 55.1641 206.926 54.4141 206.949 53.5C206.926 52.5859 207.699 51.8359 208.613 51.8359C209.504 51.8359 210.277 52.5859 210.277 53.5C210.277 54.4141 209.504 55.1641 208.613 55.1641ZM214.941 55.1641C214.027 55.1641 213.254 54.4141 213.277 53.5C213.254 52.5859 214.027 51.8359 214.941 51.8359C215.832 51.8359 216.605 52.5859 216.605 53.5C216.605 54.4141 215.832 55.1641 214.941 55.1641ZM70.3789 73.6875L72.3945 67.0078H74.8789L73.707 73.6875H70.3789ZM75.582 73.6875L77.5977 67.0078H80.082L78.9102 73.6875H75.582ZM91.6367 78.1172C96.3008 78.1172 99.2305 79.5938 99.2539 82.1484C99.2305 84.6562 96.3008 86.1562 91.6367 86.1562C87.0195 86.1562 84.043 84.6562 84.043 82.1484C84.043 79.5938 87.0195 78.1172 91.6367 78.1172ZM91.6367 80.3438C88.707 80.3438 87.0195 80.9531 87.0195 82.1484C87.0195 83.2969 88.707 83.8828 91.6367 83.8828C94.5664 83.8828 96.2773 83.2969 96.2773 82.1484C96.2773 80.9531 94.5664 80.3438 91.6367 80.3438ZM99.1367 65.7891V67.5234C99.1367 69.2109 99.1367 71.0391 98.5273 73.2422L95.5977 72.9609C96.0664 71.0273 96.125 69.5859 96.1602 68.1328H84.2539V65.7891H99.1367ZM101.434 74.3438V76.7578H82.0742V74.3438H89.3398V70.6172H92.293V74.3438H101.434ZM119.691 64.8281V69.4922H122.574V71.9531H119.691V76.7578H116.691V64.8281H119.691ZM113.715 66.0703C113.691 71.7188 110.129 75.5391 103.73 77.2266L102.535 74.8594C107.316 73.6758 109.953 71.3086 110.457 68.4609H103.59V66.0703H113.715ZM119.691 77.5547V85.8984H105.746V77.5547H119.691ZM108.723 79.9688V83.5547H116.738V79.9688H108.723ZM139.988 66.8672C139.965 73.4297 138.207 78.9375 130.52 82.9219L128.879 80.6719C132.254 78.8906 134.352 76.9102 135.582 74.5547L129.395 75.1172L128.996 72.5859L136.52 72.1406C136.766 71.2383 136.918 70.2773 137.012 69.2578H130.145V66.8672H139.988ZM147.02 64.8281V86.1562H144.043V75.4688H139.941V73.0312H144.043V64.8281H147.02ZM169.285 76.7344V79.125H164.879V86.2031H161.879V79.125H157.285V86.2031H154.285V79.125H149.762V76.7344H169.285ZM166.941 65.8359V74.4375H152.059V65.8359H166.941ZM155.012 68.2031V72.0469H163.965V68.2031H155.012ZM188.457 64.8281V86.1562H185.48V64.8281H188.457ZM174.629 66.8672V78.3281C177.512 78.293 180.605 78.0234 183.746 77.4141L184.121 79.875C180.371 80.6484 176.855 80.9062 173.551 80.8828H171.676V66.8672H174.629ZM200.762 67.2188C200.75 69.2227 200.586 71.1211 200.129 72.8906H202.426V65.2969H205.215V85.2188H202.426V75.3047H199.285C198.113 77.8359 196.121 80.0625 192.863 81.9141L191.199 79.875C193.906 78.3047 195.594 76.5352 196.613 74.4609L191.645 74.9766L191.316 72.4453L197.457 72.1172C197.645 71.3203 197.762 70.4883 197.832 69.6094H192.371V67.2188H200.762ZM209.762 64.8281V86.1562H206.949V64.8281H209.762ZM229.871 64.8281V86.2031H226.848V64.8281H229.871ZM218.293 66.3281C221.504 66.3281 223.895 69.2812 223.895 73.9219C223.895 78.6094 221.504 81.5391 218.293 81.5391C215.012 81.5391 212.621 78.6094 212.645 73.9219C212.621 69.2812 215.012 66.3281 218.293 66.3281ZM218.293 69.0234C216.629 69.0234 215.527 70.7578 215.527 73.9219C215.527 77.1094 216.629 78.8203 218.293 78.8203C219.91 78.8203 221.012 77.1094 221.012 73.9219C221.012 70.7578 219.91 69.0234 218.293 69.0234ZM250.754 64.8281V86.2031H247.801V74.7656H244.051V72.3516H247.801V64.8281H250.754ZM243.699 66.6094V69.0234H236.715V72.5625H242.926V74.9062H236.715V78.9375C239.668 78.9141 242.035 78.8086 244.684 78.3984L244.988 80.7891C241.871 81.2578 239.082 81.375 235.426 81.375H233.738V66.6094H243.699ZM265.402 66.7969V69.1641H253.543V66.7969H258.137V64.6406H261.113V66.7969H265.402ZM259.59 69.8672C262.52 69.8906 264.629 71.5078 264.652 73.875C264.629 76.2656 262.52 77.8594 259.59 77.8359C256.637 77.8594 254.574 76.2656 254.598 73.875C254.574 71.5078 256.637 69.8906 259.59 69.8672ZM259.59 72.0938C258.23 72.0938 257.363 72.7266 257.387 73.875C257.363 75.0234 258.23 75.6328 259.59 75.6328C260.926 75.6328 261.863 75.0234 261.863 73.875C261.863 72.7266 260.926 72.0938 259.59 72.0938ZM271.473 64.8281V78.4219H268.496V76.1719H265.59V73.7812H268.496V71.9062H265.637V69.5156H268.496V64.8281H271.473ZM264.23 78.6797C268.754 78.6797 271.59 80.0625 271.59 82.4297C271.59 84.75 268.754 86.1562 264.23 86.1562C259.684 86.1562 256.871 84.75 256.871 82.4297C256.871 80.0625 259.684 78.6797 264.23 78.6797ZM264.23 80.9297C261.512 80.9531 260.012 81.4219 260.012 82.4297C260.012 83.3906 261.512 83.9062 264.23 83.9062C266.902 83.9062 268.379 83.3906 268.379 82.4297C268.379 81.4219 266.902 80.9531 264.23 80.9297ZM284.621 67.0312L282.605 73.7109H280.121L281.293 67.0312H284.621ZM279.418 67.0312L277.402 73.7109H274.918L276.09 67.0312H279.418ZM40.0703 120.562V121.781H34.9766V124.484H39.7891V125.672H34.9766V128.812C37.3125 128.805 39.0391 128.703 41.0703 128.375L41.2109 129.578C39.0547 129.938 37.1797 130.016 34.6016 130.016H33.4766V120.562H40.0703ZM43.7891 119.328V124.844H46.0391V126.094H43.7891V133.328H42.3047V119.328H43.7891ZM58.3203 119.344V129.516H56.8359V119.344H58.3203ZM58.7422 131.828V133.031H49.1641V128.484H50.6641V131.828H58.7422ZM50.7266 120.281C52.8359 120.281 54.4453 121.719 54.4453 123.75C54.4453 125.812 52.8359 127.234 50.7266 127.234C48.6172 127.234 46.9922 125.812 46.9922 123.75C46.9922 121.719 48.6172 120.281 50.7266 120.281ZM50.7266 121.578C49.4141 121.578 48.4453 122.469 48.4453 123.75C48.4453 125.062 49.4141 125.938 50.7266 125.938C52.0078 125.938 52.9922 125.062 52.9922 123.75C52.9922 122.469 52.0078 121.578 50.7266 121.578ZM65.1016 120.328C67.3203 120.312 68.8984 121.688 68.9141 123.656C68.8984 125.625 67.3203 127 65.1016 127C62.8984 127 61.2734 125.625 61.2891 123.656C61.2734 121.688 62.8984 120.312 65.1016 120.328ZM65.1016 121.609C63.7422 121.609 62.7422 122.422 62.7578 123.656C62.7422 124.891 63.7422 125.703 65.1016 125.703C66.4609 125.703 67.4609 124.891 67.4609 123.656C67.4609 122.422 66.4609 121.609 65.1016 121.609ZM72.1172 119.328V133.359H70.6328V119.328H72.1172ZM60.6172 129.109C63.1641 129.109 66.6953 129.078 69.7578 128.641L69.8672 129.719C66.6953 130.328 63.3047 130.344 60.8047 130.344L60.6172 129.109ZM89.2734 119.328V122.625H91.3047V123.859H89.2734V127.234H87.7891V119.328H89.2734ZM85.4141 120.203C85.3984 123.797 82.9766 126.312 78.8047 127.438L78.2109 126.25C81.5547 125.367 83.5312 123.609 83.8047 121.422H78.8672V120.203H85.4141ZM89.2734 127.828V133.141H80.3047V127.828H89.2734ZM81.7891 129.062V131.953H87.8047V129.062H81.7891ZM103.773 119.328V127.656H102.289V124.109H99.6797V122.891H102.289V119.328H103.773ZM99.0859 128.047C102.023 128.047 103.82 129.016 103.82 130.688C103.82 132.359 102.023 133.312 99.0859 133.328C96.1484 133.312 94.3359 132.359 94.3516 130.688C94.3359 129.016 96.1484 128.047 99.0859 128.047ZM99.0859 129.203C97.0391 129.203 95.8203 129.734 95.8203 130.688C95.8203 131.625 97.0391 132.172 99.0859 132.156C101.133 132.172 102.352 131.625 102.352 130.688C102.352 129.734 101.133 129.203 99.0859 129.203ZM97.1172 121.797C97.1172 123.578 98.3828 125.297 100.492 126.016L99.7266 127.188C98.1562 126.641 97 125.523 96.3984 124.141C95.7812 125.711 94.5547 126.969 92.8828 127.578L92.1016 126.391C94.2734 125.641 95.6016 123.75 95.6016 121.812V121.5H92.5703V120.297H100.117V121.5H97.1172V121.797ZM117.977 119.328V133.328H116.555V119.328H117.977ZM115.133 119.594V132.641H113.711V125.891H112.133C112.008 128.625 110.836 130.328 109.102 130.312C107.273 130.328 106.086 128.406 106.086 125.375C106.086 122.344 107.273 120.438 109.102 120.453C110.805 120.438 111.961 122.055 112.133 124.688H113.711V119.594H115.133ZM109.102 121.844C108.086 121.844 107.461 123.141 107.461 125.375C107.461 127.609 108.086 128.906 109.102 128.906C110.133 128.906 110.773 127.609 110.773 125.375C110.773 123.141 110.133 121.844 109.102 121.844ZM131.195 120.266C131.195 123.859 128.633 126.25 124.523 127.25L123.914 126.047C127.352 125.289 129.352 123.57 129.602 121.469H124.648V120.266H131.195ZM135.258 119.344V126.953H133.773V119.344H135.258ZM135.477 127.703V128.859H133.602V131.906H135.633V133.109H125.867V131.906H127.852V128.859H125.992V127.703H135.477ZM129.305 131.906H132.148V128.859H129.305V131.906ZM149.086 119.328V133.359H147.602V119.328H149.086ZM141.602 120.375C143.68 120.375 145.211 122.281 145.211 125.281C145.211 128.297 143.68 130.203 141.602 130.203C139.492 130.203 137.977 128.297 137.977 125.281C137.977 122.281 139.492 120.375 141.602 120.375ZM141.602 121.703C140.305 121.703 139.414 123.078 139.414 125.281C139.414 127.5 140.305 128.875 141.602 128.875C142.883 128.875 143.773 127.5 143.773 125.281C143.773 123.078 142.883 121.703 141.602 121.703ZM161.539 128.125C164.57 128.125 166.477 129.078 166.492 130.719C166.477 132.344 164.57 133.312 161.539 133.297C158.539 133.312 156.617 132.344 156.617 130.719C156.617 129.078 158.539 128.125 161.539 128.125ZM161.539 129.25C159.414 129.25 158.086 129.797 158.102 130.719C158.086 131.625 159.414 132.156 161.539 132.156C163.68 132.156 165.008 131.625 165.023 130.719C165.008 129.797 163.68 129.25 161.539 129.25ZM166.383 120.016V121.188C166.383 122.312 166.383 123.469 165.992 124.906L164.539 124.75C164.914 123.32 164.914 122.289 164.914 121.203H156.727V120.016H166.383ZM167.977 125.766V126.969H155.242V125.766H160.352V123.141H161.805V125.766H167.977ZM180.055 119.328V122.625H182.086V123.859H180.055V127.234H178.57V119.328H180.055ZM176.195 120.203C176.18 123.797 173.758 126.312 169.586 127.438L168.992 126.25C172.336 125.367 174.312 123.609 174.586 121.422H169.648V120.203H176.195ZM180.055 127.828V133.141H171.086V127.828H180.055ZM172.57 129.062V131.953H178.586V129.062H172.57ZM193.789 119.328V125H196.039V126.234H193.789V133.328H192.32V119.328H193.789ZM191.102 121.516V122.734H182.805V121.516H186.258V119.516H187.742V121.516H191.102ZM187.008 123.766C189.008 123.766 190.477 125.109 190.492 127.016C190.477 128.938 189.008 130.266 187.008 130.281C184.992 130.266 183.523 128.938 183.523 127.016C183.523 125.109 184.992 123.766 187.008 123.766ZM187.008 124.984C185.82 124.984 184.93 125.812 184.945 127.016C184.93 128.234 185.82 129.047 187.008 129.031C188.195 129.047 189.07 128.234 189.07 127.016C189.07 125.812 188.195 124.984 187.008 124.984ZM208.039 120.672V122.047C208.039 123.781 208.039 125.719 207.508 128.578L206.008 128.422C206.555 125.719 206.555 123.734 206.555 122.047V121.875H198.055V120.672H208.039ZM209.477 130.203V131.438H196.711V130.203H201.57V125.266H203.039V130.203H209.477ZM213.055 130.922L211.805 135.234H210.477L211.305 130.922H213.055ZM223.727 122.25C223.727 124.062 225.07 125.766 227.227 126.453L226.461 127.609C224.852 127.078 223.633 125.977 223.008 124.578C222.375 126.102 221.133 127.305 219.461 127.891L218.695 126.719C220.867 125.984 222.211 124.172 222.227 122.25V121.641H219.086V120.438H226.805V121.641H223.727V122.25ZM230.148 119.344V129.562H228.664V119.344H230.148ZM230.57 131.828V133.031H220.992V128.594H222.492V131.828H230.57ZM243.977 119.344V127.266H242.492V119.344H243.977ZM243.977 128.016V133.156H234.773V128.016H243.977ZM236.242 129.203V131.953H242.523V129.203H236.242ZM237.461 121.234C237.445 123.125 238.805 124.828 240.93 125.547L240.195 126.688C238.57 126.148 237.352 125.039 236.711 123.594C236.086 125.133 234.844 126.359 233.164 126.953L232.43 125.781C234.617 125.047 235.945 123.188 235.945 121.234V119.875H237.461V121.234ZM253.898 120.375C255.797 120.375 257.188 121.984 257.414 124.578H260.305V119.328H261.773V133.359H260.305V125.781H257.43C257.266 128.508 255.844 130.203 253.898 130.203C251.805 130.203 250.336 128.297 250.352 125.281C250.336 122.281 251.805 120.375 253.898 120.375ZM253.898 121.703C252.633 121.703 251.758 123.078 251.758 125.281C251.758 127.5 252.633 128.875 253.898 128.875C255.164 128.875 256.039 127.5 256.039 125.281C256.039 123.078 255.164 121.703 253.898 121.703ZM275.523 119.344V129.641H274.055V119.344H275.523ZM275.914 131.828V133.031H266.273V128.828H267.758V131.828H275.914ZM271.07 120.312V124.484H266.117V126.5C268.695 126.492 270.445 126.406 272.523 126.031L272.68 127.25C270.477 127.641 268.617 127.719 265.836 127.719H264.664V123.359H269.602V121.5H264.633V120.312H271.07ZM293.68 119.328V133.328H292.258V126.094H290.445V132.609H289.086V119.609H290.445V124.875H292.258V119.328H293.68ZM287.383 121.016V122.219H283.617V128.703C285.336 128.688 286.633 128.609 288.133 128.328L288.242 129.547C286.555 129.891 285.117 129.953 283.07 129.969H282.133V121.016H287.383ZM306.461 119.328V125.188H308.57V126.438H306.461V133.328H304.977V119.328H306.461ZM295.32 129.516C296.422 129.516 297.703 129.516 299.039 129.469V128.047C297.461 127.828 296.43 126.875 296.445 125.516C296.43 123.938 297.789 122.891 299.789 122.891C301.773 122.891 303.148 123.938 303.164 125.516C303.148 126.875 302.102 127.836 300.523 128.062V129.406C301.766 129.359 303.016 129.258 304.18 129.094L304.273 130.188C301.242 130.734 297.961 130.75 295.555 130.75L295.32 129.516ZM303.977 120.984V122.172H295.586V120.984H299.039V119.359H300.523V120.984H303.977ZM299.789 124.047C298.617 124.047 297.836 124.625 297.836 125.516C297.836 126.406 298.617 126.953 299.789 126.953C300.961 126.953 301.742 126.406 301.742 125.516C301.742 124.625 300.961 124.047 299.789 124.047ZM322.133 130.406V131.656H309.32V130.406H314.961V127.953H310.883V123.5H319.102V121.531H310.852V120.312H320.57V124.688H312.352V126.734H320.898V127.953H316.43V130.406H322.133ZM44.5234 139.391V140.172C44.5078 141.109 44.5078 142.5 44.1641 144.312L42.6953 144.172C43 142.617 43.0469 141.492 43.0703 140.609H37.4609V139.391H44.5234ZM40.9453 142.531V145.422C42.4453 145.375 43.9922 145.266 45.3984 145.062L45.4922 146.141C42.5703 146.656 39.2266 146.703 36.7578 146.719L36.6172 145.516C37.4766 145.508 38.4531 145.5 39.4766 145.469V142.531H40.9453ZM47.8047 138.328V142.781H49.7266V144.031H47.8047V148.844H46.2891V138.328H47.8047ZM48.2578 150.828V152.031H38.7422V147.891H40.2266V150.828H48.2578ZM62.5859 138.328V152.328H61.1797V138.328H62.5859ZM59.7266 138.688V151.641H58.3203V146.875H55.9297V145.656H58.3203V143.375H56.1641C55.4844 145.727 53.9922 147.766 51.3516 149.344L50.4766 148.281C53.4453 146.516 54.875 144.164 55.1328 141.281H51.1641V140.062H56.6016C56.6016 140.781 56.5469 141.477 56.4297 142.156H58.3203V138.688H59.7266ZM77.1797 144.75V145.891H64.3672V144.75H77.1797ZM75.6016 146.875V149.953H67.3828V151.109H76.0391V152.156H65.8984V148.969H74.1328V147.938H65.8828V146.875H75.6016ZM75.5703 138.688V141.719H67.4766V142.781H75.8047V143.828H66.0078V140.734H74.0859V139.734H65.9766V138.688H75.5703ZM89.2109 139.562V146.094H82.6641V139.562H89.2109ZM84.1172 140.766V144.922H87.7578V140.766H84.1172ZM93.1172 138.312V142.5H95.1484V143.75H93.1172V148.578H91.6328V138.312H93.1172ZM93.7109 150.828V152.031H84.2422V147.594H85.7266V150.828H93.7109ZM108.727 144.062V145.25H95.9453V144.062H108.727ZM107.211 141.859V143.047H97.6172V138.734H107.07V139.938H99.1016V141.859H107.211ZM107.102 146.359V149.75H98.9453V151H107.492V152.172H97.4922V148.656H105.633V147.5H97.4766V146.359H107.102ZM113.57 139.375C115.469 139.375 116.859 140.984 117.086 143.578H119.977V138.328H121.445V152.359H119.977V144.781H117.102C116.938 147.508 115.516 149.203 113.57 149.203C111.477 149.203 110.008 147.297 110.023 144.281C110.008 141.281 111.477 139.375 113.57 139.375ZM113.57 140.703C112.305 140.703 111.43 142.078 111.43 144.281C111.43 146.5 112.305 147.875 113.57 147.875C114.836 147.875 115.711 146.5 115.711 144.281C115.711 142.078 114.836 140.703 113.57 140.703ZM134.508 138.328V143.906H136.68V145.141H134.508V152.312H133.023V138.328H134.508ZM130.852 139.797C130.836 143.844 129.055 147.453 124.445 149.734L123.617 148.578C127.125 146.828 129.031 144.297 129.336 141.031H124.32V139.797H130.852ZM148.758 142.422V143.609H139.117V138.828H140.586V142.422H148.758ZM150.227 145.375V146.562H137.414V145.375H150.227ZM148.852 150.781V152H139.008V147.891H140.492V150.781H148.852ZM166.32 138.297V143.734H168.242V144.984H166.32V152.328H164.836V138.297H166.32ZM159.133 139.766V140.984H157.023V147.484C157.695 147.461 158.438 147.391 159.258 147.219L159.383 148.453C158.117 148.703 157.117 148.734 156.18 148.734H155.539V139.766H159.133ZM163.648 139.766V140.984H161.367V147.484C162.391 147.477 163.164 147.406 164.023 147.188L164.148 148.422C163.023 148.703 162.102 148.734 160.602 148.734H159.914V139.766H163.648ZM181.758 144.969V146.188H168.992V144.969H181.758ZM180.648 142.609V143.797H175.789V139.016H180.539V140.203H177.273V142.609H180.648ZM175.023 139.016V140.203H171.68V142.594C172.852 142.586 173.945 142.5 175.18 142.234L175.32 143.438C173.789 143.766 172.492 143.797 171.008 143.797H170.195V139.016H175.023ZM176.133 147.578C176.133 149.328 178.086 150.734 180.836 151.094L180.273 152.266C178.07 151.93 176.242 150.961 175.398 149.516C174.531 150.961 172.711 151.93 170.508 152.266L169.961 151.094C172.68 150.734 174.633 149.328 174.633 147.578V147.188H176.133V147.578ZM193.82 138.344V142.844H195.852V144.078H193.82V148.812H192.336V138.344H193.82ZM191.18 139.969V141.172H182.836V139.969H186.273V138.328H187.758V139.969H191.18ZM187.008 141.844C189.023 141.844 190.398 142.891 190.398 144.484C190.398 146.078 189.023 147.109 187.008 147.109C184.977 147.109 183.602 146.078 183.602 144.484C183.602 142.891 184.977 141.844 187.008 141.844ZM187.008 142.984C185.82 142.984 185.023 143.562 185.039 144.484C185.023 145.391 185.82 145.953 187.008 145.953C188.195 145.953 188.992 145.391 189.008 144.484C188.992 143.562 188.195 142.984 187.008 142.984ZM194.414 150.828V152.031H184.945V147.984H186.43V150.828H194.414ZM205.523 140.422C205.523 142.391 206.789 144.141 208.914 144.828L208.102 145.984C206.562 145.43 205.43 144.352 204.82 142.953C204.211 144.555 202.992 145.797 201.305 146.406L200.508 145.219C202.742 144.453 204.039 142.594 204.055 140.484V139.109H205.523V140.422ZM212.227 138.328V146.594H210.742V142.391H207.789V141.172H210.742V138.328H212.227ZM207.539 146.984C210.477 146.984 212.273 147.953 212.273 149.656C212.273 151.344 210.477 152.312 207.539 152.297C204.602 152.312 202.789 151.344 202.805 149.656C202.789 147.953 204.602 146.984 207.539 146.984ZM207.539 148.141C205.492 148.141 204.273 148.688 204.273 149.656C204.273 150.594 205.492 151.125 207.539 151.125C209.586 151.125 210.805 150.594 210.805 149.656C210.805 148.688 209.586 148.141 207.539 148.141ZM227.367 140.641V141.859H225.383V143.625H227.367V144.844H225.383V147.312H223.898V138.328H225.383V140.641H227.367ZM220.914 147.422C223.773 147.422 225.539 148.328 225.539 149.875C225.539 151.391 223.773 152.312 220.914 152.297C218.023 152.312 216.258 151.391 216.273 149.875C216.258 148.328 218.023 147.422 220.914 147.422ZM220.914 148.562C218.898 148.562 217.727 149.016 217.742 149.875C217.727 150.688 218.898 151.172 220.914 151.172C222.898 151.172 224.07 150.688 224.07 149.875C224.07 149.016 222.898 148.562 220.914 148.562ZM222.742 139.828V141H214.398V139.828H217.836V138.219H219.32V139.828H222.742ZM218.57 141.641C220.586 141.641 221.961 142.641 221.961 144.141C221.961 145.641 220.586 146.625 218.57 146.609C216.523 146.625 215.164 145.641 215.164 144.141C215.164 142.641 216.523 141.641 218.57 141.641ZM218.57 142.75C217.383 142.75 216.586 143.281 216.602 144.141C216.586 144.969 217.383 145.484 218.57 145.484C219.758 145.484 220.555 144.969 220.57 144.141C220.555 143.281 219.758 142.75 218.57 142.75ZM234.586 138.562C237.742 138.562 239.586 139.406 239.586 140.969C239.586 142.531 237.742 143.391 234.586 143.391C231.43 143.391 229.586 142.531 229.586 140.969C229.586 139.406 231.43 138.562 234.586 138.562ZM234.586 139.656C232.352 139.656 231.117 140.141 231.133 140.969C231.117 141.828 232.352 142.281 234.586 142.281C236.82 142.281 238.055 141.828 238.055 140.969C238.055 140.141 236.82 139.656 234.586 139.656ZM240.977 144.25V145.438H228.211V144.25H240.977ZM239.367 146.516V149.797H231.211V151.047H239.758V152.188H229.758V148.719H237.898V147.625H229.742V146.516H239.367ZM251.102 142.453C251.102 144.797 252.633 147.219 254.789 148.141L253.977 149.297C252.328 148.57 251.016 147.031 250.367 145.156C249.719 147.156 248.398 148.859 246.773 149.656L245.914 148.484C248.023 147.5 249.586 144.859 249.602 142.453V140.969H246.398V139.734H254.289V140.969H251.102V142.453ZM257.539 138.328V152.328H256.055V138.328H257.539ZM262.102 139.109V144.75C264.109 144.742 265.742 144.648 267.586 144.312L267.742 145.484C265.711 145.875 263.945 145.969 261.68 145.953H260.602V139.109H262.102ZM271.43 138.328V146.516H269.945V143.359H266.148V142.219H269.945V140.953H266.148V139.812H269.945V138.328H271.43ZM264.758 147.547C264.758 148.758 265.336 150.039 266.617 150.812C267.891 149.977 268.508 148.625 268.508 147.547V146.891H269.961V147.547C269.961 149.016 270.914 150.438 272.773 151.031L272.008 152.141C270.648 151.656 269.711 150.711 269.227 149.547C268.773 150.68 267.945 151.719 266.648 152.266C265.305 151.75 264.461 150.75 264.023 149.594C263.531 150.711 262.617 151.648 261.305 152.141L260.555 151.031C262.336 150.406 263.32 148.906 263.336 147.547V146.891H264.758V147.547ZM276.648 146.719V148.203H283.227V146.719H284.711V152.156H275.18V146.719H276.648ZM276.648 150.969H283.227V149.359H276.648V150.969ZM286.367 144.609V145.844H273.602V144.609H286.367ZM280.742 139.078C280.742 140.688 282.977 142.25 285.664 142.578L285.133 143.75C282.859 143.43 280.883 142.359 279.992 140.875C279.078 142.367 277.094 143.43 274.852 143.75L274.289 142.578C277.008 142.234 279.227 140.734 279.227 139.078V138.484H280.742V139.078ZM299.055 138.328V152.328H297.57V138.328H299.055ZM289.758 139.688V147.484C291.797 147.469 293.945 147.305 296.195 146.844L296.398 148.094C293.914 148.594 291.664 148.766 289.461 148.766H288.289V139.688H289.758ZM312.164 138.328V143.75H314.414V144.969H312.164V152.359H310.68V138.328H312.164ZM308.398 139.672V140.875H303.336V147.641C305.688 147.633 307.453 147.531 309.445 147.172L309.633 148.422C307.445 148.812 305.586 148.891 302.977 148.875H301.852V139.672H308.398ZM316.68 151.109C316.07 151.109 315.555 150.609 315.57 150C315.555 149.391 316.07 148.891 316.68 148.891C317.273 148.891 317.789 149.391 317.789 150C317.789 150.609 317.273 151.109 316.68 151.109ZM38.9219 157.328V160.25H40.9531V161.484H38.9219V164.406H37.4375V157.328H38.9219ZM35.0156 158.078V163.75H28.4688V158.078H35.0156ZM29.9219 159.266V162.562H33.5625V159.266H29.9219ZM38.9219 165.047V168.594H31.3594V169.969H39.4062V171.156H29.9062V167.484H37.4531V166.203H29.875V165.047H38.9219ZM54.5625 168.359V169.594H41.75V168.359H47.3906V165.484H43.2188V158.281H44.7031V160.688H51.5781V158.281H53.0469V165.484H48.8594V168.359H54.5625ZM44.7031 164.281H51.5781V161.891H44.7031V164.281ZM66.4844 157.328V162.75H68.7344V163.969H66.4844V171.359H65V157.328H66.4844ZM62.7188 158.672V159.875H57.6562V166.641C60.0078 166.633 61.7734 166.531 63.7656 166.172L63.9531 167.422C61.7656 167.812 59.9062 167.891 57.2969 167.875H56.1719V158.672H62.7188ZM80.7344 161.422V162.609H71.0938V157.828H72.5625V161.422H80.7344ZM82.2031 164.375V165.562H69.3906V164.375H82.2031ZM80.8281 169.781V171H70.9844V166.891H72.4688V169.781H80.8281ZM94.2188 158.719V167.812H87.6719V158.719H94.2188ZM89.125 159.891V166.609H92.75V159.891H89.125ZM98.0469 157.328V162.812H100.297V164.062H98.0469V171.328H96.5625V157.328H98.0469ZM107.344 157.625C110.422 157.625 112.344 158.625 112.344 160.312C112.344 161.969 110.422 162.953 107.344 162.953C104.281 162.953 102.344 161.969 102.344 160.312C102.344 158.625 104.281 157.625 107.344 157.625ZM107.344 158.797C105.188 158.797 103.859 159.344 103.875 160.312C103.859 161.25 105.188 161.781 107.344 161.797C109.484 161.781 110.812 161.25 110.812 160.312C110.812 159.344 109.484 158.797 107.344 158.797ZM112.172 166.484V171.156H102.5V166.484H112.172ZM103.969 167.672V169.953H110.734V167.672H103.969ZM113.734 164.031V165.234H100.969V164.031H113.734ZM121.172 157.562C124.328 157.562 126.172 158.406 126.172 159.969C126.172 161.531 124.328 162.391 121.172 162.391C118.016 162.391 116.172 161.531 116.172 159.969C116.172 158.406 118.016 157.562 121.172 157.562ZM121.172 158.656C118.938 158.656 117.703 159.141 117.719 159.969C117.703 160.828 118.938 161.281 121.172 161.281C123.406 161.281 124.641 160.828 124.641 159.969C124.641 159.141 123.406 158.656 121.172 158.656ZM127.562 163.25V164.438H114.797V163.25H127.562ZM125.953 165.516V168.797H117.797V170.047H126.344V171.188H116.344V167.719H124.484V166.625H116.328V165.516H125.953ZM145.609 162.828V164.047H143.438V171.312H141.953V157.328H143.438V162.828H145.609ZM134.531 158.688V166.562C136.484 166.562 138.523 166.398 140.75 165.938L140.922 167.188C138.531 167.672 136.312 167.797 134.219 167.797H133.062V158.688H134.531ZM157.719 161.938V163.141H147.984V158.016H149.469V161.938H157.719ZM159.172 165.078V166.297H153.438V171.328H151.969V166.297H146.359V165.078H159.172ZM171.516 161.422V162.609H161.875V157.828H163.344V161.422H171.516ZM172.984 164.375V165.562H160.172V164.375H172.984ZM171.609 169.781V171H161.766V166.891H163.25V169.781H171.609ZM189.594 157.344V166.75H188.109V162.422H185.25V161.203H188.109V157.344H189.594ZM185.156 158.422C185.156 162.078 182.891 164.641 178.781 165.938L178.125 164.766C181.414 163.773 183.289 161.961 183.578 159.625H178.844V158.422H185.156ZM185.719 166.172C185.719 168.062 187.703 169.625 190.328 170.078L189.719 171.25C187.594 170.875 185.82 169.805 184.984 168.266C184.125 169.812 182.328 170.883 180.188 171.281L179.609 170.094C182.25 169.672 184.234 168.078 184.25 166.172V165.594H185.719V166.172ZM203.344 157.328V171.359H201.859V157.328H203.344ZM195.859 158.375C197.938 158.375 199.469 160.281 199.469 163.281C199.469 166.297 197.938 168.203 195.859 168.203C193.75 168.203 192.234 166.297 192.234 163.281C192.234 160.281 193.75 158.375 195.859 158.375ZM195.859 159.703C194.562 159.703 193.672 161.078 193.672 163.281C193.672 165.5 194.562 166.875 195.859 166.875C197.141 166.875 198.031 165.5 198.031 163.281C198.031 161.078 197.141 159.703 195.859 159.703ZM222.25 163.812V165.016H216.594V166.359C219.164 166.5 220.688 167.367 220.688 168.828C220.688 170.422 218.875 171.312 215.859 171.297C212.812 171.312 211 170.422 211 168.828C211 167.367 212.523 166.5 215.125 166.359V165.016H209.484V163.812H222.25ZM215.859 167.484C213.719 167.484 212.5 167.969 212.5 168.828C212.5 169.672 213.719 170.172 215.859 170.156C217.969 170.172 219.203 169.672 219.203 168.828C219.203 167.969 217.969 167.484 215.859 167.484ZM221.109 157.969V159.156H216.859C217.07 160.508 219.039 161.656 221.594 161.906L221.062 163.078C218.641 162.797 216.633 161.773 215.875 160.281C215.094 161.773 213.094 162.797 210.672 163.078L210.156 161.906C212.672 161.656 214.648 160.508 214.859 159.156H210.656V157.969H221.109ZM236.125 168.344V169.578H223.312V168.344H226.375V164.688C225.227 164.055 224.531 163.047 224.531 161.797C224.531 159.594 226.688 158.141 229.688 158.141C232.703 158.141 234.859 159.594 234.859 161.797C234.859 163.031 234.188 164.023 233.062 164.656V168.344H236.125ZM229.688 159.328C227.484 159.328 225.969 160.281 225.969 161.797C225.969 163.297 227.484 164.281 229.688 164.281C231.875 164.281 233.422 163.297 233.422 161.797C233.422 160.281 231.875 159.328 229.688 159.328ZM227.844 168.344H231.562V165.219C230.992 165.367 230.359 165.438 229.688 165.438C229.031 165.438 228.406 165.367 227.844 165.234V168.344ZM248.047 157.328V163H250.297V164.234H248.047V171.328H246.578V157.328H248.047ZM245.359 159.516V160.734H237.062V159.516H240.516V157.516H242V159.516H245.359ZM241.266 161.766C243.266 161.766 244.734 163.109 244.75 165.016C244.734 166.938 243.266 168.266 241.266 168.281C239.25 168.266 237.781 166.938 237.781 165.016C237.781 163.109 239.25 161.766 241.266 161.766ZM241.266 162.984C240.078 162.984 239.188 163.812 239.203 165.016C239.188 166.234 240.078 167.047 241.266 167.031C242.453 167.047 243.328 166.234 243.328 165.016C243.328 163.812 242.453 162.984 241.266 162.984ZM261.875 157.328V162.75H264.125V163.969H261.875V171.359H260.391V157.328H261.875ZM258.109 158.672V159.875H253.047V166.641C255.398 166.633 257.164 166.531 259.156 166.172L259.344 167.422C257.156 167.812 255.297 167.891 252.688 167.875H251.562V158.672H258.109ZM276.125 158.672V160.047C276.125 161.781 276.125 163.719 275.594 166.578L274.094 166.422C274.641 163.719 274.641 161.734 274.641 160.047V159.875H266.141V158.672H276.125ZM277.562 168.203V169.438H264.797V168.203H269.656V163.266H271.125V168.203H277.562ZM293.891 163.609V164.828H284.062V158.547H285.547V163.609H293.891ZM295.344 168.234V169.484H282.531V168.234H295.344ZM307.984 157.328V171.328H306.484V157.328H307.984ZM300.734 158.828C300.719 162.281 299.984 165.516 297.484 168.172L296.328 167.312C298.328 165.227 299.156 162.844 299.312 160.047H296.891V158.828H300.734ZM304.656 158.828C304.656 162.328 304.156 166.078 301.672 169.094L300.422 168.297C302.461 165.883 303.125 163.031 303.25 160.047H301.219V158.828H304.656ZM317.234 158.672V160.625H320.391V157.328H321.859V171.359H320.391V165.672H317.234V167.828H310.734V158.672H317.234ZM312.203 159.828V166.641H315.781V159.828H312.203ZM317.234 164.469H320.391V161.844H317.234V164.469ZM326.531 168.922L325.281 173.234H323.953L324.781 168.922H326.531ZM43.2812 180.938V182.141H33.5469V177.016H35.0312V180.938H43.2812ZM44.7344 184.078V185.297H39V190.328H37.5312V185.297H31.9219V184.078H44.7344ZM56.9375 177.047V178.188C56.9375 179.359 56.9375 180.68 56.6094 182.438H58.5625V183.625H52.9531V186.875H51.4688V183.625H45.75V182.438H55.0938C55.4609 180.703 55.4688 179.406 55.4688 178.25H47.3594V177.047H56.9375ZM57.2188 188.828V190.031H47.3281V185.609H48.8125V188.828H57.2188ZM70.4844 176.328V181.906H72.6562V183.141H70.4844V190.312H69V176.328H70.4844ZM66.8281 177.797C66.8125 181.844 65.0312 185.453 60.4219 187.734L59.5938 186.578C63.1016 184.828 65.0078 182.297 65.3125 179.031H60.2969V177.797H66.8281ZM77.9688 177.328C80.1875 177.312 81.7656 178.688 81.7812 180.656C81.7656 182.625 80.1875 184 77.9688 184C75.7656 184 74.1406 182.625 74.1562 180.656C74.1406 178.688 75.7656 177.312 77.9688 177.328ZM77.9688 178.609C76.6094 178.609 75.6094 179.422 75.625 180.656C75.6094 181.891 76.6094 182.703 77.9688 182.703C79.3281 182.703 80.3281 181.891 80.3281 180.656C80.3281 179.422 79.3281 178.609 77.9688 178.609ZM84.9844 176.328V190.359H83.5V176.328H84.9844ZM73.4844 186.109C76.0312 186.109 79.5625 186.078 82.625 185.641L82.7344 186.719C79.5625 187.328 76.1719 187.344 73.6719 187.344L73.4844 186.109ZM94.8906 177.375C96.9844 177.375 98.4688 179.281 98.4844 182.281C98.4688 185.297 96.9844 187.203 94.8906 187.203C92.7969 187.203 91.2969 185.297 91.3125 182.281C91.2969 179.281 92.7969 177.375 94.8906 177.375ZM94.8906 178.703C93.6094 178.703 92.7344 180.078 92.7344 182.281C92.7344 184.5 93.6094 185.875 94.8906 185.875C96.1875 185.875 97.0625 184.5 97.0625 182.281C97.0625 180.078 96.1875 178.703 94.8906 178.703ZM102.047 176.328V181.812H104.297V183.062H102.047V190.328H100.562V176.328H102.047ZM117.734 183.188V184.391H104.969V183.188H117.734ZM116.531 176.812V178.031H114.5V180.734H116.469V181.938H106.203V180.734H108.188V178.031H106.141V176.812H116.531ZM116.172 185.703V190.156H106.5V185.703H116.172ZM107.969 186.859V188.953H114.734V186.859H107.969ZM109.656 180.734H113.016V178.031H109.656V180.734ZM130.391 176.328V190.359H128.906V176.328H130.391ZM122.906 177.375C124.984 177.375 126.516 179.281 126.516 182.281C126.516 185.297 124.984 187.203 122.906 187.203C120.797 187.203 119.281 185.297 119.281 182.281C119.281 179.281 120.797 177.375 122.906 177.375ZM122.906 178.703C121.609 178.703 120.719 180.078 120.719 182.281C120.719 184.5 121.609 185.875 122.906 185.875C124.188 185.875 125.078 184.5 125.078 182.281C125.078 180.078 124.188 178.703 122.906 178.703ZM145.703 181.828V183.047H143.531V190.312H142.047V176.328H143.531V181.828H145.703ZM134.625 177.688V185.562C136.578 185.562 138.617 185.398 140.844 184.938L141.016 186.188C138.625 186.672 136.406 186.797 134.312 186.797H133.156V177.688H134.625ZM154.922 177.219C157.141 177.219 158.719 178.578 158.734 180.547C158.719 182.289 157.484 183.555 155.656 183.812V186.031C156.977 185.969 158.32 185.859 159.578 185.672L159.688 186.75C156.516 187.344 153.125 187.359 150.625 187.359L150.438 186.141C151.539 186.141 152.82 186.141 154.172 186.094V183.812C152.359 183.547 151.094 182.281 151.109 180.547C151.094 178.578 152.719 177.219 154.922 177.219ZM154.922 178.5C153.562 178.5 152.562 179.297 152.578 180.547C152.562 181.781 153.562 182.609 154.922 182.594C156.281 182.609 157.281 181.781 157.281 180.547C157.281 179.297 156.281 178.5 154.922 178.5ZM161.938 176.328V190.359H160.453V176.328H161.938ZM177 187.406V188.656H164.188V187.406H169.828V184.953H165.75V180.5H173.969V178.531H165.719V177.312H175.438V181.688H167.219V183.734H175.766V184.953H171.297V187.406H177ZM184.391 176.562C187.469 176.562 189.391 177.547 189.391 179.234C189.391 180.875 187.469 181.859 184.391 181.859C181.328 181.859 179.391 180.875 179.391 179.234C179.391 177.547 181.328 176.562 184.391 176.562ZM184.391 177.719C182.234 177.719 180.906 178.266 180.922 179.234C180.906 180.172 182.234 180.703 184.391 180.703C186.531 180.703 187.859 180.172 187.859 179.234C187.859 178.266 186.531 177.719 184.391 177.719ZM189.219 185.484V190.156H179.547V185.484H183.656V184.016H178.016V182.812H190.781V184.016H185.125V185.484H189.219ZM181.016 186.672V188.953H187.781V186.672H181.016ZM198.219 176.562C201.375 176.562 203.219 177.406 203.219 178.969C203.219 180.531 201.375 181.391 198.219 181.391C195.062 181.391 193.219 180.531 193.219 178.969C193.219 177.406 195.062 176.562 198.219 176.562ZM198.219 177.656C195.984 177.656 194.75 178.141 194.766 178.969C194.75 179.828 195.984 180.281 198.219 180.281C200.453 180.281 201.688 179.828 201.688 178.969C201.688 178.141 200.453 177.656 198.219 177.656ZM204.609 182.25V183.438H191.844V182.25H204.609ZM203 184.516V187.797H194.844V189.047H203.391V190.188H193.391V186.719H201.531V185.625H193.375V184.516H203ZM220.578 176.328V179.25H222.609V180.484H220.578V183.406H219.094V176.328H220.578ZM220.578 184.047V187.594H213.016V188.969H221.062V190.156H211.562V186.484H219.109V185.203H211.531V184.047H220.578ZM213.469 176.812C215.594 176.812 217.141 178.094 217.141 179.938C217.141 181.781 215.594 183.062 213.469 183.062C211.344 183.062 209.781 181.781 209.797 179.938C209.781 178.094 211.344 176.812 213.469 176.812ZM213.469 178.031C212.172 178.031 211.234 178.797 211.234 179.938C211.234 181.078 212.172 181.875 213.469 181.875C214.75 181.875 215.703 181.078 215.703 179.938C215.703 178.797 214.75 178.031 213.469 178.031ZM227.156 177.375C229.25 177.375 230.734 179.281 230.75 182.281C230.734 185.297 229.25 187.203 227.156 187.203C225.062 187.203 223.562 185.297 223.578 182.281C223.562 179.281 225.062 177.375 227.156 177.375ZM227.156 178.703C225.875 178.703 225 180.078 225 182.281C225 184.5 225.875 185.875 227.156 185.875C228.453 185.875 229.328 184.5 229.328 182.281C229.328 180.078 228.453 178.703 227.156 178.703ZM234.312 176.328V181.812H236.562V183.062H234.312V190.328H232.828V176.328H234.312ZM241.422 180.609C241.422 182.781 242.438 185.047 244.391 186.062L243.547 187.172C242.195 186.453 241.25 185.117 240.75 183.531C240.242 185.219 239.305 186.68 237.953 187.469L237.078 186.375C239 185.25 240.016 182.859 240.031 180.609V180.094H237.438V178.859H240.031V176.828H241.422V178.859H243.969V180.094H241.422V180.609ZM249.328 176.328V190.328H247.906V183.141H246.234V189.641H244.828V176.594H246.234V181.891H247.906V176.328H249.328ZM262.391 177.672V179.047C262.391 180.781 262.391 182.719 261.859 185.578L260.359 185.422C260.906 182.719 260.906 180.734 260.906 179.047V178.875H252.406V177.672H262.391ZM263.828 187.203V188.438H251.062V187.203H255.922V182.266H257.391V187.203H263.828ZM279.703 176.328V181.75H281.953V182.969H279.703V190.359H278.219V176.328H279.703ZM275.938 177.672V178.875H270.875V185.641C273.227 185.633 274.992 185.531 276.984 185.172L277.172 186.422C274.984 186.812 273.125 186.891 270.516 186.875H269.391V177.672H275.938ZM293.531 176.328V181.906H295.703V183.141H293.531V190.312H292.047V176.328H293.531ZM289.875 177.797C289.859 181.844 288.078 185.453 283.469 187.734L282.641 186.578C286.148 184.828 288.055 182.297 288.359 179.031H283.344V177.797H289.875ZM307.359 176.328V181.906H309.531V183.141H307.359V190.312H305.875V176.328H307.359ZM303.703 177.797C303.688 181.844 301.906 185.453 297.297 187.734L296.469 186.578C299.977 184.828 301.883 182.297 302.188 179.031H297.172V177.797H303.703ZM321.609 180.422V181.609H311.969V176.828H313.438V180.422H321.609ZM323.078 183.375V184.562H310.266V183.375H323.078ZM321.703 188.781V190H311.859V185.891H313.344V188.781H321.703ZM143.781 199.109V200.312H134.172V195.578H135.641V199.109H143.781ZM145.25 201.797V203.016H132.469V201.797H145.25ZM138.844 204.156C141.859 204.156 143.672 205.078 143.672 206.703C143.672 208.344 141.859 209.266 138.844 209.266C135.812 209.266 133.984 208.344 133.984 206.703C133.984 205.078 135.812 204.156 138.844 204.156ZM138.844 205.312C136.703 205.328 135.484 205.797 135.484 206.703C135.484 207.594 136.703 208.125 138.844 208.125C140.953 208.125 142.188 207.594 142.188 206.703C142.188 205.797 140.953 205.328 138.844 205.312ZM152.969 196.172V200.25H148.344V202.188C150.781 202.195 152.109 202.141 153.688 201.844L153.828 203.047C152.125 203.344 150.688 203.391 147.891 203.391H146.875V199.125H151.484V197.359H146.859V196.172H152.969ZM157.969 195.344V203.953H156.484V201.484H153.859V200.297H156.484V198.562H153.859V197.375H156.484V195.344H157.969ZM157.969 204.656V209.344H156.484V205.859H148.469V204.656H157.969ZM171.719 195.328V209.359H170.234V195.328H171.719ZM164.234 196.375C166.312 196.375 167.844 198.281 167.844 201.281C167.844 204.297 166.312 206.203 164.234 206.203C162.125 206.203 160.609 204.297 160.609 201.281C160.609 198.281 162.125 196.375 164.234 196.375ZM164.234 197.703C162.938 197.703 162.047 199.078 162.047 201.281C162.047 203.5 162.938 204.875 164.234 204.875C165.516 204.875 166.406 203.5 166.406 201.281C166.406 199.078 165.516 197.703 164.234 197.703ZM182.719 204.578C182.719 205.781 183.312 207.055 184.578 207.812C185.867 206.992 186.5 205.648 186.5 204.578V203.906H187.953V204.578C187.953 206.031 188.906 207.438 190.734 208.031L190 209.125C188.617 208.648 187.68 207.719 187.188 206.562C186.742 207.695 185.906 208.719 184.625 209.25C183.281 208.742 182.43 207.75 182 206.609C181.492 207.711 180.57 208.641 179.25 209.125L178.5 208.031C180.297 207.391 181.266 205.938 181.281 204.578V203.906H182.719V204.578ZM189.469 195.344V203.312H187.984V195.344H189.469ZM181.875 196.109C184.016 196.109 185.594 197.469 185.594 199.422C185.594 201.359 184.016 202.703 181.875 202.703C179.734 202.703 178.141 201.359 178.141 199.422C178.141 197.469 179.734 196.109 181.875 196.109ZM181.875 197.375C180.547 197.359 179.594 198.188 179.594 199.422C179.594 200.641 180.547 201.469 181.875 201.469C183.188 201.469 184.141 200.641 184.141 199.422C184.141 198.188 183.188 197.359 181.875 197.375ZM195.484 196.375C197.383 196.375 198.773 197.984 199 200.578H201.891V195.328H203.359V209.359H201.891V201.781H199.016C198.852 204.508 197.43 206.203 195.484 206.203C193.391 206.203 191.922 204.297 191.938 201.281C191.922 198.281 193.391 196.375 195.484 196.375ZM195.484 197.703C194.219 197.703 193.344 199.078 193.344 201.281C193.344 203.5 194.219 204.875 195.484 204.875C196.75 204.875 197.625 203.5 197.625 201.281C197.625 199.078 196.75 197.703 195.484 197.703ZM218.328 206.344V207.578H205.516V206.344H208.578V202.688C207.43 202.055 206.734 201.047 206.734 199.797C206.734 197.594 208.891 196.141 211.891 196.141C214.906 196.141 217.062 197.594 217.062 199.797C217.062 201.031 216.391 202.023 215.266 202.656V206.344H218.328ZM211.891 197.328C209.688 197.328 208.172 198.281 208.172 199.797C208.172 201.297 209.688 202.281 211.891 202.281C214.078 202.281 215.625 201.297 215.625 199.797C215.625 198.281 214.078 197.328 211.891 197.328ZM210.047 206.344H213.766V203.219C213.195 203.367 212.562 203.438 211.891 203.438C211.234 203.438 210.609 203.367 210.047 203.234V206.344ZM220.938 208.109C220.328 208.109 219.812 207.609 219.828 207C219.812 206.391 220.328 205.891 220.938 205.891C221.531 205.891 222.047 206.391 222.047 207C222.047 207.609 221.531 208.109 220.938 208.109Z" fill="black"/>
</g>
<defs>
<filter id="filter0_i_44_201" x="0" y="0" width="356" height="245" filterUnits="userSpaceOnUse" color-interpolation-filters="sRGB">
<feFlood flood-opacity="0" result="BackgroundImageFix"/>
<feBlend mode="normal" in="SourceGraphic" in2="BackgroundImageFix" result="shape"/>
<feColorMatrix in="SourceAlpha" type="matrix" values="0 0 0 0 0 0 0 0 0 0 0 0 0 0 0 0 0 0 127 0" result="hardAlpha"/>
<feOffset dx="1" dy="1"/>
<feGaussianBlur stdDeviation="3"/>
<feComposite in2="hardAlpha" operator="arithmetic" k2="-1" k3="1"/>
<feColorMatrix type="matrix" values="0 0 0 0 0 0 0 0 0 0 0 0 0 0 0 0 0 0 0.25 0"/>
<feBlend mode="normal" in2="shape" result="effect1_innerShadow_44_201"/>
</filter>
</defs>
</svg>
