<svg width="355" height="244" viewBox="0 0 355 244" fill="none" xmlns="http://www.w3.org/2000/svg">
<g filter="url(#filter0_i_44_225)">
<rect width="355" height="244" fill="#789477"/>
<path d="M154.191 35.9922V41.3125H157.215V43.1406H154.191V48.3906H151.941V35.9922H154.191ZM147.395 48.7891C151.684 48.7891 154.355 50.2891 154.355 52.8672C154.355 55.4453 151.684 56.9688 147.395 56.9453C143.059 56.9688 140.34 55.4453 140.34 52.8672C140.34 50.2891 143.059 48.7891 147.395 48.7891ZM147.395 50.5938C144.348 50.5703 142.52 51.4141 142.543 52.8672C142.52 54.3203 144.348 55.1641 147.395 55.1641C150.371 55.1641 152.199 54.3203 152.223 52.8672C152.199 51.4141 150.371 50.5703 147.395 50.5938ZM147.934 37.5391V39.3438H140.762V45.0625C144.898 45.0508 147.23 44.9219 149.879 44.3828L150.09 46.1875C147.277 46.7734 144.77 46.8672 140.223 46.8672H138.559V37.5391H147.934ZM175.824 36.0156V51.3906H173.598V36.0156H175.824ZM176.457 54.7422V56.5469H162.09V49.9375H164.34V54.7422H176.457ZM166.051 39.25C166.027 42.3203 167.996 45.1328 171.23 46.2578L170.082 48.0391C167.656 47.1367 165.863 45.3555 164.926 43.0703C164 45.5078 162.184 47.4648 159.723 48.4141L158.527 46.6562C161.832 45.4375 163.777 42.4141 163.777 39.25V37.1641H166.051V39.25ZM198.301 46.9609V48.7422H179.152V46.9609H198.301ZM196.145 54.7422V56.5469H181.566V50.4531H183.816V54.7422H196.145ZM188.715 36.6953C193.262 36.6719 196.215 38.2656 196.215 40.8906C196.215 43.5391 193.262 45.1328 188.715 45.1562C184.145 45.1328 181.215 43.5391 181.215 40.8906C181.215 38.2656 184.145 36.6719 188.715 36.6953ZM188.715 38.4766C185.504 38.4766 183.488 39.3906 183.512 40.8906C183.488 42.4375 185.504 43.3281 188.715 43.3281C191.926 43.3281 193.918 42.4375 193.918 40.8906C193.918 39.3906 191.926 38.4766 188.715 38.4766ZM202.285 55.1641C201.371 55.1641 200.598 54.4141 200.621 53.5C200.598 52.5859 201.371 51.8359 202.285 51.8359C203.176 51.8359 203.949 52.5859 203.949 53.5C203.949 54.4141 203.176 55.1641 202.285 55.1641ZM208.613 55.1641C207.699 55.1641 206.926 54.4141 206.949 53.5C206.926 52.5859 207.699 51.8359 208.613 51.8359C209.504 51.8359 210.277 52.5859 210.277 53.5C210.277 54.4141 209.504 55.1641 208.613 55.1641ZM214.941 55.1641C214.027 55.1641 213.254 54.4141 213.277 53.5C213.254 52.5859 214.027 51.8359 214.941 51.8359C215.832 51.8359 216.605 52.5859 216.605 53.5C216.605 54.4141 215.832 55.1641 214.941 55.1641ZM91.1211 73.6875L93.1367 67.0078H95.6211L94.4492 73.6875H91.1211ZM96.3242 73.6875L98.3398 67.0078H100.824L99.6523 73.6875H96.3242ZM114.934 67.0781V69.4219H110.621C110.645 71.6133 112.191 73.7695 115.613 74.6719L114.254 77.0156C111.84 76.3828 110.152 75.0234 109.191 73.3125C108.254 75.2695 106.543 76.8164 104.035 77.5547L102.605 75.2109C106.051 74.2617 107.621 71.8477 107.645 69.4219H103.355V67.0781H107.645V64.7344H110.668V67.0781H114.934ZM119.691 64.8281V69.8906H122.574V72.3047H119.691V77.6953H116.691V64.8281H119.691ZM112.707 78.0938C117.16 78.0938 119.902 79.5703 119.902 82.1484C119.902 84.6797 117.16 86.1328 112.707 86.1328C108.16 86.1328 105.395 84.6797 105.395 82.1484C105.395 79.5703 108.16 78.0938 112.707 78.0938ZM112.707 80.3906C109.871 80.3906 108.371 80.9297 108.395 82.1484C108.371 83.2969 109.871 83.8828 112.707 83.8828C115.473 83.8828 116.949 83.2969 116.949 82.1484C116.949 80.9297 115.473 80.3906 112.707 80.3906ZM130.426 66.2578C133.801 66.2344 136.332 68.4375 136.332 71.4844C136.332 74.5547 133.801 76.7344 130.426 76.7344C127.051 76.7344 124.496 74.5547 124.496 71.4844C124.496 68.4375 127.051 66.2344 130.426 66.2578ZM130.426 68.8359C128.738 68.8359 127.449 69.8203 127.473 71.4844C127.449 73.1719 128.738 74.1328 130.426 74.1328C132.113 74.1328 133.402 73.1719 133.426 71.4844C133.402 69.8203 132.137 68.8359 130.426 68.8359ZM141.441 64.8281V86.2031H138.465V64.8281H141.441ZM123.605 79.4062C127.402 79.4297 132.676 79.3594 137.246 78.7266L137.48 80.8828C132.746 81.7969 127.684 81.8438 123.957 81.8438L123.605 79.4062ZM156.559 66.0234V68.3906H152.316C152.34 70.9102 153.84 73.4883 157.215 74.6016L155.738 76.8984C153.371 76.1484 151.754 74.6016 150.84 72.6797C149.879 74.8125 148.18 76.5352 145.66 77.3438L144.137 74.9766C147.641 73.8516 149.234 71.0508 149.27 68.3906H144.98V66.0234H156.559ZM162.23 78.4688V86.1562H159.254V80.8594H147.582V78.4688H162.23ZM162.23 64.8281V77.5312H159.254V72.3984H155.949V69.9609H159.254V64.8281H162.23ZM190.051 81.3984V83.7891H170.527V81.3984H175.379V77.3438H172.145V74.9297H175.004V68.9297H172.051V66.5391H188.41V68.9297H185.41V74.9297H188.316V77.3438H185.105V81.3984H190.051ZM178.004 74.9297H182.457V68.9297H178.004V74.9297ZM178.379 81.3984H182.105V77.3438H178.379V81.3984ZM209.246 64.8516V81.0938H206.27V77.0625H203.387V74.6953H206.27V72.5625H203.387V70.1484H206.27V64.8516H209.246ZM203.176 67.0781V69.4453H191.316V67.0781H195.91V64.8047H198.887V67.0781H203.176ZM197.363 70.1953C200.293 70.1953 202.402 71.9297 202.426 74.3906C202.402 76.8516 200.293 78.5625 197.363 78.5625C194.457 78.5625 192.348 76.8516 192.371 74.3906C192.348 71.9297 194.457 70.1953 197.363 70.1953ZM197.363 72.5156C196.051 72.5391 195.137 73.1953 195.16 74.3906C195.137 75.6094 196.051 76.2891 197.363 76.2891C198.652 76.2891 199.59 75.6094 199.613 74.3906C199.59 73.1953 198.652 72.5391 197.363 72.5156ZM209.691 83.3906V85.7812H195.043V79.7109H198.066V83.3906H209.691ZM219.887 70.6406C219.863 73.8984 221.598 77.6484 225.113 79.2656L223.449 81.6094C221.07 80.5195 219.371 78.3398 218.434 75.7734C217.473 78.5977 215.727 80.9883 213.254 82.1484L211.52 79.7812C215.082 78.1172 216.863 74.1562 216.887 70.6406V69.3281H212.363V66.8906H224.176V69.3281H219.887V70.6406ZM228.84 64.8281V72.9609H231.98V75.4688H228.84V86.1562H225.84V64.8281H228.84ZM244.66 66.7969V69.1641H232.801V66.7969H237.395V64.6406H240.371V66.7969H244.66ZM238.848 69.8672C241.777 69.8906 243.887 71.5078 243.91 73.875C243.887 76.2656 241.777 77.8594 238.848 77.8359C235.895 77.8594 233.832 76.2656 233.855 73.875C233.832 71.5078 235.895 69.8906 238.848 69.8672ZM238.848 72.0938C237.488 72.0938 236.621 72.7266 236.645 73.875C236.621 75.0234 237.488 75.6328 238.848 75.6328C240.184 75.6328 241.121 75.0234 241.121 73.875C241.121 72.7266 240.184 72.0938 238.848 72.0938ZM250.73 64.8281V78.4219H247.754V76.1719H244.848V73.7812H247.754V71.9062H244.895V69.5156H247.754V64.8281H250.73ZM243.488 78.6797C248.012 78.6797 250.848 80.0625 250.848 82.4297C250.848 84.75 248.012 86.1562 243.488 86.1562C238.941 86.1562 236.129 84.75 236.129 82.4297C236.129 80.0625 238.941 78.6797 243.488 78.6797ZM243.488 80.9297C240.77 80.9531 239.27 81.4219 239.27 82.4297C239.27 83.3906 240.77 83.9062 243.488 83.9062C246.16 83.9062 247.637 83.3906 247.637 82.4297C247.637 81.4219 246.16 80.9531 243.488 80.9297ZM263.879 67.0312L261.863 73.7109H259.379L260.551 67.0312H263.879ZM258.676 67.0312L256.66 73.7109H254.176L255.348 67.0312H258.676ZM37.7891 122.328C37.7891 123.953 39.0547 125.453 41.1953 126.062L40.5078 127.234C38.8984 126.773 37.7031 125.781 37.0859 124.5C36.4688 125.945 35.2422 127.062 33.6016 127.594L32.8672 126.422C35.0078 125.797 36.3203 124.141 36.3203 122.328V122.156H33.2734V120.953H36.3203V119.266H37.8047V120.953H40.8359V122.156H37.7891V122.328ZM43.8828 119.328V122.859H45.9141V124.078H43.8828V127.859H42.3984V119.328H43.8828ZM39.3672 128.188C42.2578 128.188 44.0078 129.109 44.0078 130.75C44.0078 132.359 42.2578 133.297 39.3672 133.297C36.4453 133.297 34.6641 132.359 34.6641 130.75C34.6641 129.109 36.4453 128.188 39.3672 128.188ZM39.3672 129.344C37.3203 129.344 36.1328 129.828 36.1484 130.75C36.1328 131.641 37.3203 132.156 39.3672 132.156C41.3828 132.156 42.5547 131.641 42.5547 130.75C42.5547 129.828 41.3828 129.344 39.3672 129.344ZM51.6016 121.844C51.6016 123.625 52.8359 125.328 54.9766 126.047L54.2266 127.203C52.6406 126.656 51.4766 125.562 50.8672 124.188C50.2578 125.703 49.0469 126.891 47.3984 127.469L46.6016 126.312C48.7891 125.562 50.1016 123.766 50.1172 121.828V121.453H47.0391V120.25H54.6172V121.453H51.6016V121.844ZM57.7109 119.328V122.922H59.7422V124.172H57.7109V127.766H56.2266V119.328H57.7109ZM57.7109 128.453V133.328H56.2266V129.656H48.4609V128.453H57.7109ZM68.3359 120.828V121.688C68.3359 122.859 68.3359 124.672 67.9297 127.172L66.4609 127.062C66.8125 124.82 66.8516 123.203 66.8672 122.031H61.1797V120.828H68.3359ZM64.7422 124.828V129.016C66.2344 128.969 67.75 128.867 69.1484 128.688L69.2266 129.797C66.3047 130.266 63.0547 130.328 60.5703 130.312L60.3984 129.109C61.2734 129.102 62.25 129.094 63.2734 129.062V124.828H64.7422ZM71.4453 119.328V125.109H73.5859V126.375H71.4453V133.328H69.9453V119.328H71.4453ZM91.0859 130.453V131.672H78.2734V130.453H81.7109V127.344H79.3984V126.141H81.4922V121.781H79.3672V120.562H89.9141V121.781H87.7734V126.141H89.8672V127.344H87.5703V130.453H91.0859ZM82.9609 126.141H86.3203V121.781H82.9609V126.141ZM83.1953 130.453H86.0859V127.344H83.1953V130.453ZM103.773 119.344V130.016H102.289V127.125H100.039V125.938H102.289V124.203H100.039V122.984H102.289V119.344H103.773ZM99.9922 120.969V122.172H92.1172V120.969H95.3984V119.328H96.8672V120.969H99.9922ZM96.1172 122.844C98.0078 122.844 99.3359 123.938 99.3516 125.531C99.3359 127.141 98.0078 128.234 96.1172 128.234C94.2266 128.234 92.8984 127.141 92.8984 125.531C92.8984 123.938 94.2266 122.844 96.1172 122.844ZM96.1172 124C95.0234 124.016 94.2891 124.609 94.2891 125.531C94.2891 126.484 95.0234 127.078 96.1172 127.078C97.1953 127.078 97.9453 126.484 97.9609 125.531C97.9453 124.609 97.1953 124.016 96.1172 124ZM104.086 131.828V133.031H94.6328V129.078H96.1328V131.828H104.086ZM117.977 119.328V133.328H116.555V119.328H117.977ZM115.133 119.594V132.641H113.711V125.891H112.133C112.008 128.625 110.836 130.328 109.102 130.312C107.273 130.328 106.086 128.406 106.086 125.375C106.086 122.344 107.273 120.438 109.102 120.453C110.805 120.438 111.961 122.055 112.133 124.688H113.711V119.594H115.133ZM109.102 121.844C108.086 121.844 107.461 123.141 107.461 125.375C107.461 127.609 108.086 128.906 109.102 128.906C110.133 128.906 110.773 127.609 110.773 125.375C110.773 123.141 110.133 121.844 109.102 121.844ZM135.68 119.328V133.328H134.258V126.094H132.445V132.609H131.086V119.609H132.445V124.875H134.258V119.328H135.68ZM129.383 121.016V122.219H125.617V128.703C127.336 128.688 128.633 128.609 130.133 128.328L130.242 129.547C128.555 129.891 127.117 129.953 125.07 129.969H124.133V121.016H129.383ZM148.492 119.344V123.844H150.523V125.078H148.492V129.812H147.008V119.344H148.492ZM145.852 120.969V122.172H137.508V120.969H140.945V119.328H142.43V120.969H145.852ZM141.68 122.844C143.695 122.844 145.07 123.891 145.07 125.484C145.07 127.078 143.695 128.109 141.68 128.109C139.648 128.109 138.273 127.078 138.273 125.484C138.273 123.891 139.648 122.844 141.68 122.844ZM141.68 123.984C140.492 123.984 139.695 124.562 139.711 125.484C139.695 126.391 140.492 126.953 141.68 126.953C142.867 126.953 143.664 126.391 143.68 125.484C143.664 124.562 142.867 123.984 141.68 123.984ZM149.086 131.828V133.031H139.617V128.984H141.102V131.828H149.086ZM166.227 119.328V122.625H168.258V123.859H166.227V127.234H164.742V119.328H166.227ZM162.367 120.203C162.352 123.797 159.93 126.312 155.758 127.438L155.164 126.25C158.508 125.367 160.484 123.609 160.758 121.422H155.82V120.203H162.367ZM166.227 127.828V133.141H157.258V127.828H166.227ZM158.742 129.062V131.953H164.758V129.062H158.742ZM180.055 119.328V122.781H182.086V124.031H180.055V127.516H178.57V119.328H180.055ZM176.18 120.188C176.18 123.797 173.742 126.312 169.586 127.391L168.977 126.25C172.336 125.375 174.328 123.602 174.586 121.391H169.648V120.188H176.18ZM180.055 128.125V133.328H178.57V129.328H170.805V128.125H180.055ZM194.477 119.328V133.359H192.992V119.328H194.477ZM186.992 120.375C189.07 120.375 190.602 122.281 190.602 125.281C190.602 128.297 189.07 130.203 186.992 130.203C184.883 130.203 183.367 128.297 183.367 125.281C183.367 122.281 184.883 120.375 186.992 120.375ZM186.992 121.703C185.695 121.703 184.805 123.078 184.805 125.281C184.805 127.5 185.695 128.875 186.992 128.875C188.273 128.875 189.164 127.5 189.164 125.281C189.164 123.078 188.273 121.703 186.992 121.703ZM212.383 119.344V133.328H210.898V119.344H212.383ZM200.539 126.969C203.367 126.969 206.898 126.984 210.102 126.594L210.18 127.688C208.828 127.898 207.453 128.023 206.117 128.094V132.875H204.633V128.156C203.258 128.203 201.93 128.203 200.727 128.203L200.539 126.969ZM209.586 124.219V125.406H205.758V120.328H209.492V121.531H207.211V124.219H209.586ZM205.023 120.328V121.531H202.867V124.203C203.594 124.188 204.32 124.133 205.18 123.938L205.289 125.125C204.055 125.391 203.102 125.406 202.039 125.406H201.398V120.328H205.023ZM218.242 120.375C220.141 120.375 221.531 121.984 221.758 124.578H224.648V119.328H226.117V133.359H224.648V125.781H221.773C221.609 128.508 220.188 130.203 218.242 130.203C216.148 130.203 214.68 128.297 214.695 125.281C214.68 122.281 216.148 120.375 218.242 120.375ZM218.242 121.703C216.977 121.703 216.102 123.078 216.102 125.281C216.102 127.5 216.977 128.875 218.242 128.875C219.508 128.875 220.383 127.5 220.383 125.281C220.383 123.078 219.508 121.703 218.242 121.703ZM241.352 124.828V126.047H239.18V133.312H237.695V119.328H239.18V124.828H241.352ZM230.273 120.688V128.562C232.227 128.562 234.266 128.398 236.492 127.938L236.664 129.188C234.273 129.672 232.055 129.797 229.961 129.797H228.805V120.688H230.273ZM253.43 120.672V122.047C253.43 123.781 253.43 125.719 252.898 128.578L251.398 128.422C251.945 125.719 251.945 123.734 251.945 122.047V121.875H243.445V120.672H253.43ZM254.867 130.203V131.438H242.102V130.203H246.961V125.266H248.43V130.203H254.867ZM258.445 130.922L257.195 135.234H255.867L256.695 130.922H258.445ZM275.57 119.328V133.328H274.07V119.328H275.57ZM271.398 120.828C271.398 124.922 269.648 128.484 264.852 130.781L264.07 129.578C267.797 127.805 269.609 125.281 269.898 122.016H264.742V120.828H271.398ZM289.383 119.984V121.188H285.117C285.195 122.727 287.219 124.086 289.82 124.391L289.258 125.594C286.859 125.25 284.891 124.133 284.133 122.547C283.375 124.133 281.414 125.25 279.023 125.594L278.461 124.391C281.078 124.086 283.07 122.727 283.148 121.188H278.93V119.984H289.383ZM289.086 131.828V133.031H279.367V129.047H280.867V131.828H289.086ZM290.555 126.797V128H277.758V126.797H283.398V124.578H284.867V126.797H290.555ZM296.148 120.328C298.367 120.312 299.945 121.688 299.961 123.656C299.945 125.625 298.367 127 296.148 127C293.945 127 292.32 125.625 292.336 123.656C292.32 121.688 293.945 120.312 296.148 120.328ZM296.148 121.609C294.789 121.609 293.789 122.422 293.805 123.656C293.789 124.891 294.789 125.703 296.148 125.703C297.508 125.703 298.508 124.891 298.508 123.656C298.508 122.422 297.508 121.609 296.148 121.609ZM303.164 119.328V133.359H301.68V119.328H303.164ZM291.664 129.109C294.211 129.109 297.742 129.078 300.805 128.641L300.914 129.719C297.742 130.328 294.352 130.344 291.852 130.344L291.664 129.109ZM317.211 120.797V121.984H309.336V120.797H312.617V119.203H314.086V120.797H317.211ZM313.336 122.625C315.227 122.625 316.555 123.672 316.57 125.234C316.555 126.797 315.227 127.828 313.336 127.828C311.43 127.828 310.117 126.797 310.117 125.234C310.117 123.672 311.43 122.625 313.336 122.625ZM313.336 123.75C312.227 123.75 311.508 124.328 311.508 125.234C311.508 126.141 312.227 126.703 313.336 126.703C314.43 126.703 315.18 126.141 315.195 125.234C315.18 124.328 314.43 123.75 313.336 123.75ZM320.992 119.328V128.344H319.508V126.547H317.242V125.344H319.508V123.797H317.258V122.594H319.508V119.328H320.992ZM316.336 128.484C319.273 128.484 321.07 129.359 321.07 130.891C321.07 132.406 319.273 133.312 316.336 133.297C313.383 133.312 311.586 132.406 311.586 130.891C311.586 129.359 313.383 128.484 316.336 128.484ZM316.336 129.625C314.32 129.625 313.133 130.062 313.133 130.891C313.133 131.703 314.32 132.172 316.336 132.156C318.305 132.172 319.492 131.703 319.492 130.891C319.492 130.062 318.305 129.625 316.336 129.625ZM33.1094 140.344C33.0938 142.281 34.4219 144.047 36.5781 144.766L35.8281 145.938C34.2109 145.367 32.9922 144.227 32.3594 142.766C31.7344 144.336 30.5078 145.578 28.8438 146.172L28.0938 145.016C30.2812 144.234 31.5938 142.344 31.5938 140.344V139H33.1094V140.344ZM39.625 147.406V152.328H38.1406V148.609H30.1406V147.406H39.625ZM39.625 138.328V146.734H38.1406V138.328H39.625ZM48.2188 138.562C51.375 138.562 53.2188 139.406 53.2188 140.969C53.2188 142.531 51.375 143.391 48.2188 143.391C45.0625 143.391 43.2188 142.531 43.2188 140.969C43.2188 139.406 45.0625 138.562 48.2188 138.562ZM48.2188 139.656C45.9844 139.656 44.75 140.141 44.7656 140.969C44.75 141.828 45.9844 142.281 48.2188 142.281C50.4531 142.281 51.6875 141.828 51.6875 140.969C51.6875 140.141 50.4531 139.656 48.2188 139.656ZM54.6094 144.25V145.438H41.8438V144.25H54.6094ZM53 146.516V149.797H44.8438V151.047H53.3906V152.188H43.3906V148.719H51.5312V147.625H43.375V146.516H53ZM71.25 147.016V152.156H62.0781V147.016H71.25ZM63.5469 148.203V150.953H69.7969V148.203H63.5469ZM61.875 139.141V144.328C63.8984 144.328 65.7344 144.18 67.7344 143.781L67.9062 145.031C65.7188 145.484 63.75 145.594 61.5 145.594H60.4062V139.141H61.875ZM71.25 138.328V146.375H69.7656V142.078H65.9219V140.875H69.7656V138.328H71.25ZM77.2031 139.375C79.1016 139.375 80.4922 140.984 80.7188 143.578H83.6094V138.328H85.0781V152.359H83.6094V144.781H80.7344C80.5703 147.508 79.1484 149.203 77.2031 149.203C75.1094 149.203 73.6406 147.297 73.6562 144.281C73.6406 141.281 75.1094 139.375 77.2031 139.375ZM77.2031 140.703C75.9375 140.703 75.0625 142.078 75.0625 144.281C75.0625 146.5 75.9375 147.875 77.2031 147.875C78.4688 147.875 79.3438 146.5 79.3438 144.281C79.3438 142.078 78.4688 140.703 77.2031 140.703ZM95.4531 142.125C95.4531 144.453 96.4062 146.797 98.3125 147.812L97.4375 148.984C96.1172 148.242 95.2188 146.914 94.7344 145.328C94.2109 147.062 93.25 148.547 91.8906 149.344L90.9531 148.266C92.9531 147.094 94.0156 144.609 94.0156 142.219V139.609H95.4531V142.125ZM103.188 138.328V152.328H101.766V145.109H100.078V151.641H98.6562V138.594H100.078V143.906H101.766V138.328H103.188ZM117.781 149.406V150.656H104.969V149.406H110.609V146.953H106.531V142.5H114.75V140.531H106.5V139.312H116.219V143.688H108V145.734H116.547V146.953H112.078V149.406H117.781ZM131.594 145.344V146.547H126.047V149.266H124.547V146.547H118.781V145.344H131.594ZM130.172 150.812V152.031H120.391V147.922H121.875V150.812H130.172ZM125.172 138.656C128.188 138.656 130.141 139.75 130.141 141.5C130.141 143.25 128.188 144.328 125.172 144.328C122.172 144.328 120.188 143.25 120.188 141.5C120.188 139.75 122.172 138.656 125.172 138.656ZM125.172 139.844C123.125 139.844 121.766 140.469 121.781 141.5C121.766 142.516 123.125 143.125 125.172 143.125C127.234 143.125 128.578 142.516 128.578 141.5C128.578 140.469 127.234 139.844 125.172 139.844ZM143.016 147.047C145.906 147.047 147.656 148.016 147.656 149.672C147.656 151.344 145.906 152.312 143.016 152.328C140.094 152.312 138.312 151.344 138.312 149.672C138.312 148.016 140.094 147.047 143.016 147.047ZM143.016 148.219C140.984 148.219 139.781 148.734 139.797 149.672C139.781 150.609 140.984 151.141 143.016 151.141C145.031 151.141 146.203 150.609 146.203 149.672C146.203 148.734 145.031 148.219 143.016 148.219ZM147.531 138.328V141.75H149.562V143.016H147.531V146.688H146.047V138.328H147.531ZM138.531 139.203V141.219H142.203V139.203H143.672V145.703H137.078V139.203H138.531ZM138.531 144.516H142.203V142.391H138.531V144.516ZM155.453 140.344C155.438 142.281 156.766 144.047 158.922 144.766L158.172 145.938C156.555 145.367 155.336 144.227 154.703 142.766C154.078 144.336 152.852 145.578 151.188 146.172L150.438 145.016C152.625 144.234 153.938 142.344 153.938 140.344V139H155.453V140.344ZM161.969 147.406V152.328H160.484V148.609H152.484V147.406H161.969ZM161.969 138.328V146.734H160.484V138.328H161.969ZM170.562 139.172C173.5 139.172 175.734 140.719 175.734 143.078C175.734 145.438 173.5 147 170.562 146.984C167.625 147 165.406 145.438 165.406 143.078C165.406 140.719 167.625 139.172 170.562 139.172ZM170.562 140.375C168.422 140.359 166.812 141.453 166.828 143.078C166.812 144.719 168.422 145.766 170.562 145.766C172.703 145.766 174.297 144.719 174.297 143.078C174.297 141.453 172.703 140.359 170.562 140.375ZM177 149.281V150.516H164.188V149.281H177ZM190.828 149.406V150.656H178.016V149.406H183.656V146.953H179.578V142.5H187.797V140.531H179.547V139.312H189.266V143.688H181.047V145.734H189.594V146.953H185.125V149.406H190.828ZM200.016 142.156C200.016 144.391 200.953 146.781 202.828 147.922L202 149.062C200.688 148.273 199.797 146.875 199.328 145.25C198.805 147.031 197.844 148.547 196.484 149.375L195.562 148.266C197.547 147.078 198.578 144.609 198.578 142.219V139.609H200.016V142.156ZM207.797 138.328V152.328H206.375V138.328H207.797ZM204.891 138.594V151.641H203.484V144.484H201.312V143.25H203.484V138.594H204.891ZM214.406 140.562C214.406 142.406 215.688 144.109 217.781 144.797L216.984 145.969C215.453 145.43 214.305 144.336 213.703 142.953C213.086 144.523 211.898 145.75 210.266 146.359L209.469 145.172C211.656 144.391 212.922 142.531 212.938 140.438V139.062H214.406V140.562ZM220.578 138.328V141.844H222.609V143.094H220.578V146.781H219.094V138.328H220.578ZM216.062 147.109C218.938 147.109 220.703 148.062 220.703 149.703C220.703 151.359 218.938 152.312 216.062 152.297C213.156 152.312 211.359 151.359 211.359 149.703C211.359 148.062 213.156 147.109 216.062 147.109ZM216.062 148.281C214.031 148.281 212.828 148.812 212.844 149.703C212.828 150.625 214.031 151.125 216.062 151.141C218.078 151.125 219.25 150.625 219.25 149.703C219.25 148.812 218.078 148.281 216.062 148.281ZM229.781 138.562C232.938 138.562 234.781 139.406 234.781 140.969C234.781 142.531 232.938 143.391 229.781 143.391C226.625 143.391 224.781 142.531 224.781 140.969C224.781 139.406 226.625 138.562 229.781 138.562ZM229.781 139.656C227.547 139.656 226.312 140.141 226.328 140.969C226.312 141.828 227.547 142.281 229.781 142.281C232.016 142.281 233.25 141.828 233.25 140.969C233.25 140.141 232.016 139.656 229.781 139.656ZM236.172 144.25V145.438H223.406V144.25H236.172ZM234.562 146.516V149.797H226.406V151.047H234.953V152.188H224.953V148.719H233.094V147.625H224.938V146.516H234.562ZM252.484 144.781V145.969H248.25V149.391H253.953V150.609H241.141V149.391H246.781V145.969H242.734V139.406H252.359V140.609H244.219V144.781H252.484ZM267.766 146.281V147.516H262.047V152.328H260.594V147.516H254.953V146.281H267.766ZM261.328 138.859C264.281 138.859 266.312 140.062 266.312 141.969C266.312 143.859 264.281 145.047 261.328 145.047C258.359 145.047 256.344 143.859 256.344 141.969C256.344 140.062 258.359 138.859 261.328 138.859ZM261.328 140.047C259.25 140.062 257.859 140.781 257.875 141.969C257.859 143.141 259.25 143.859 261.328 143.859C263.406 143.859 264.797 143.141 264.797 141.969C264.797 140.781 263.406 140.062 261.328 140.047ZM280.453 138.328V152.359H278.984V146.5H276.25V145.266H278.984V142.672H276.328V141.453H278.984V138.328H280.453ZM275.484 139.562V144.672H270.797V147.891C272.781 147.883 274.438 147.789 276.438 147.5L276.562 148.719C274.375 149.062 272.594 149.125 270.375 149.125H269.312V143.5H274.031V140.766H269.281V139.562H275.484ZM293.953 142.422V143.609H284.312V138.828H285.781V142.422H293.953ZM295.422 145.375V146.562H282.609V145.375H295.422ZM294.047 150.781V152H284.203V147.891H285.688V150.781H294.047ZM312.031 138.344V146.625H310.547V144.922H307.016V143.703H310.547V142H307.156C306.258 144.25 304.156 145.836 301.125 146.703L300.531 145.547C303.844 144.594 305.781 142.82 306.047 140.562H301.25V139.344H307.656C307.656 139.859 307.602 140.359 307.516 140.828H310.547V138.344H312.031ZM307.422 146.781C310.25 146.781 312.109 147.812 312.125 149.516C312.109 151.219 310.25 152.266 307.422 152.266C304.547 152.266 302.703 151.219 302.703 149.516C302.703 147.812 304.547 146.781 307.422 146.781ZM307.422 147.953C305.422 147.953 304.172 148.516 304.172 149.516C304.172 150.5 305.422 151.078 307.422 151.078C309.391 151.078 310.625 150.5 310.641 149.516C310.625 148.516 309.391 147.953 307.422 147.953ZM327.172 140.641V141.859H325.188V143.625H327.172V144.844H325.188V147.312H323.703V138.328H325.188V140.641H327.172ZM320.719 147.422C323.578 147.422 325.344 148.328 325.344 149.875C325.344 151.391 323.578 152.312 320.719 152.297C317.828 152.312 316.062 151.391 316.078 149.875C316.062 148.328 317.828 147.422 320.719 147.422ZM320.719 148.562C318.703 148.562 317.531 149.016 317.547 149.875C317.531 150.688 318.703 151.172 320.719 151.172C322.703 151.172 323.875 150.688 323.875 149.875C323.875 149.016 322.703 148.562 320.719 148.562ZM322.547 139.828V141H314.203V139.828H317.641V138.219H319.125V139.828H322.547ZM318.375 141.641C320.391 141.641 321.766 142.641 321.766 144.141C321.766 145.641 320.391 146.625 318.375 146.609C316.328 146.625 314.969 145.641 314.969 144.141C314.969 142.641 316.328 141.641 318.375 141.641ZM318.375 142.75C317.188 142.75 316.391 143.281 316.406 144.141C316.391 144.969 317.188 145.484 318.375 145.484C319.562 145.484 320.359 144.969 320.375 144.141C320.359 143.281 319.562 142.75 318.375 142.75ZM35.2891 157.562C38.4453 157.562 40.2891 158.406 40.2891 159.969C40.2891 161.531 38.4453 162.391 35.2891 162.391C32.1328 162.391 30.2891 161.531 30.2891 159.969C30.2891 158.406 32.1328 157.562 35.2891 157.562ZM35.2891 158.656C33.0547 158.656 31.8203 159.141 31.8359 159.969C31.8203 160.828 33.0547 161.281 35.2891 161.281C37.5234 161.281 38.7578 160.828 38.7578 159.969C38.7578 159.141 37.5234 158.656 35.2891 158.656ZM41.6797 163.25V164.438H28.9141V163.25H41.6797ZM40.0703 165.516V168.797H31.9141V170.047H40.4609V171.188H30.4609V167.719H38.6016V166.625H30.4453V165.516H40.0703ZM59.4609 168.359V169.594H46.6484V168.359H52.2891V165.484H48.1172V158.281H49.6016V160.688H56.4766V158.281H57.9453V165.484H53.7578V168.359H59.4609ZM49.6016 164.281H56.4766V161.891H49.6016V164.281ZM72.0859 157.328V164.844H70.6016V157.328H72.0859ZM64.3828 165.516V167.094H70.6172V165.516H72.0859V171.156H62.9297V165.516H64.3828ZM64.3828 169.938H70.6172V168.266H64.3828V169.938ZM64.4922 157.969C66.6328 157.969 68.2109 159.297 68.2109 161.219C68.2109 163.141 66.6328 164.469 64.4922 164.453C62.3516 164.469 60.7578 163.141 60.7578 161.219C60.7578 159.297 62.3516 157.969 64.4922 157.969ZM64.4922 159.219C63.1641 159.203 62.2109 160.031 62.2109 161.219C62.2109 162.422 63.1641 163.234 64.4922 163.234C65.8047 163.234 66.7578 162.422 66.7578 161.219C66.7578 160.031 65.8047 159.203 64.4922 159.219ZM85.9297 157.328V171.328H84.4453V157.328H85.9297ZM76.6328 158.688V166.484C78.6719 166.469 80.8203 166.305 83.0703 165.844L83.2734 167.094C80.7891 167.594 78.5391 167.766 76.3359 167.766H75.1641V158.688H76.6328ZM99.0391 157.328V162.75H101.289V163.969H99.0391V171.359H97.5547V157.328H99.0391ZM95.2734 158.672V159.875H90.2109V166.641C92.5625 166.633 94.3281 166.531 96.3203 166.172L96.5078 167.422C94.3203 167.812 92.4609 167.891 89.8516 167.875H88.7266V158.672H95.2734ZM103.555 170.109C102.945 170.109 102.43 169.609 102.445 169C102.43 168.391 102.945 167.891 103.555 167.891C104.148 167.891 104.664 168.391 104.664 169C104.664 169.609 104.148 170.109 103.555 170.109ZM121.945 157.328V171.328H120.523V157.328H121.945ZM119.133 157.594V170.641H117.727V166.125H115.695C115.195 167.516 114.266 168.32 113.07 168.312C111.242 168.328 110.055 166.406 110.055 163.375C110.055 160.344 111.242 158.438 113.07 158.453C114.266 158.445 115.188 159.242 115.695 160.625H117.727V157.594H119.133ZM113.07 159.844C112.039 159.844 111.414 161.141 111.414 163.375C111.414 165.609 112.039 166.906 113.07 166.906C114.102 166.906 114.758 165.609 114.758 163.375C114.758 161.141 114.102 159.844 113.07 159.844ZM116.008 161.828C116.078 162.305 116.117 162.82 116.117 163.375C116.117 163.922 116.078 164.438 116.008 164.906H117.727V161.828H116.008ZM130.867 157.859C130.867 159.469 133.086 160.812 135.82 161.125L135.305 162.25C133.008 161.977 131 161.008 130.102 159.578C129.195 161.008 127.188 161.977 124.914 162.25L124.398 161.125C127.133 160.812 129.352 159.469 129.352 157.859V157.391H130.867V157.859ZM136.492 163.062V164.25H130.836V165.5H134.883V168.812H126.727V170.047H135.273V171.188H125.273V167.734H133.414V166.641H125.258V165.5H129.352V164.25H123.727V163.062H136.492ZM140.07 168.922L138.82 173.234H137.492L138.32 168.922H140.07ZM157.148 157.328V171.359H155.664V157.328H157.148ZM153.148 158.625V159.859H147.945V166.656C150.602 166.648 152.297 166.578 154.273 166.219L154.43 167.453C152.336 167.828 150.508 167.922 147.602 167.922H146.445V158.625H153.148ZM164.258 161.453C164.258 163.672 165.711 166.141 167.836 167.141L166.992 168.297C165.422 167.539 164.18 165.961 163.555 164.125C162.906 166.133 161.594 167.859 159.992 168.656L159.117 167.484C161.242 166.469 162.789 163.828 162.789 161.453V159.969H159.633V158.734H167.305V159.969H164.258V161.453ZM170.289 157.328V162.875H172.539V164.125H170.289V171.328H168.805V157.328H170.289ZM184.82 157.344V167.516H183.336V157.344H184.82ZM185.242 169.828V171.031H175.664V166.484H177.164V169.828H185.242ZM177.227 158.281C179.336 158.281 180.945 159.719 180.945 161.75C180.945 163.812 179.336 165.234 177.227 165.234C175.117 165.234 173.492 163.812 173.492 161.75C173.492 159.719 175.117 158.281 177.227 158.281ZM177.227 159.578C175.914 159.578 174.945 160.469 174.945 161.75C174.945 163.062 175.914 163.938 177.227 163.938C178.508 163.938 179.492 163.062 179.492 161.75C179.492 160.469 178.508 159.578 177.227 159.578ZM203.727 163.906V165.125H190.945V163.906H203.727ZM202.242 161.484V162.688H192.539V157.828H202.148V159.047H194.008V161.484H202.242ZM197.32 166.219C200.336 166.219 202.148 167.141 202.148 168.766C202.148 170.391 200.336 171.312 197.32 171.297C194.289 171.312 192.461 170.391 192.461 168.766C192.461 167.141 194.289 166.219 197.32 166.219ZM197.32 167.359C195.18 167.375 193.961 167.875 193.961 168.766C193.961 169.656 195.18 170.156 197.32 170.156C199.43 170.156 200.664 169.656 200.664 168.766C200.664 167.875 199.43 167.375 197.32 167.359ZM219.68 157.328V160.625H221.711V161.859H219.68V165.234H218.195V157.328H219.68ZM215.82 158.203C215.805 161.797 213.383 164.312 209.211 165.438L208.617 164.25C211.961 163.367 213.938 161.609 214.211 159.422H209.273V158.203H215.82ZM219.68 165.828V171.141H210.711V165.828H219.68ZM212.195 167.062V169.953H218.211V167.062H212.195ZM227.477 159.422C227.477 161.391 228.742 163.141 230.867 163.828L230.055 164.984C228.516 164.43 227.383 163.352 226.773 161.953C226.164 163.555 224.945 164.797 223.258 165.406L222.461 164.219C224.695 163.453 225.992 161.594 226.008 159.484V158.109H227.477V159.422ZM234.18 157.328V165.594H232.695V161.391H229.742V160.172H232.695V157.328H234.18ZM229.492 165.984C232.43 165.984 234.227 166.953 234.227 168.656C234.227 170.344 232.43 171.312 229.492 171.297C226.555 171.312 224.742 170.344 224.758 168.656C224.742 166.953 226.555 165.984 229.492 165.984ZM229.492 167.141C227.445 167.141 226.227 167.688 226.227 168.656C226.227 169.594 227.445 170.125 229.492 170.125C231.539 170.125 232.758 169.594 232.758 168.656C232.758 167.688 231.539 167.141 229.492 167.141ZM242.711 157.562C245.867 157.562 247.711 158.406 247.711 159.969C247.711 161.531 245.867 162.391 242.711 162.391C239.555 162.391 237.711 161.531 237.711 159.969C237.711 158.406 239.555 157.562 242.711 157.562ZM242.711 158.656C240.477 158.656 239.242 159.141 239.258 159.969C239.242 160.828 240.477 161.281 242.711 161.281C244.945 161.281 246.18 160.828 246.18 159.969C246.18 159.141 244.945 158.656 242.711 158.656ZM249.102 163.25V164.438H236.336V163.25H249.102ZM247.492 165.516V168.797H239.336V170.047H247.883V171.188H237.883V167.719H246.023V166.625H237.867V165.516H247.492ZM265.711 157.328V171.328H264.211V157.328H265.711ZM261.539 158.828C261.539 162.922 259.789 166.484 254.992 168.781L254.211 167.578C257.938 165.805 259.75 163.281 260.039 160.016H254.883V158.828H261.539ZM278.898 157.344V161.469H280.93V162.719H278.898V167.625H277.414V157.344H278.898ZM279.492 169.828V171.031H270.023V166.609H271.508V169.828H279.492ZM269.898 158.344V160.578H273.57V158.344H275.039V165.312H268.445V158.344H269.898ZM269.898 164.125H273.57V161.75H269.898V164.125ZM288.102 158.172C291.039 158.172 293.273 159.719 293.273 162.078C293.273 164.438 291.039 166 288.102 165.984C285.164 166 282.945 164.438 282.945 162.078C282.945 159.719 285.164 158.172 288.102 158.172ZM288.102 159.375C285.961 159.359 284.352 160.453 284.367 162.078C284.352 163.719 285.961 164.766 288.102 164.766C290.242 164.766 291.836 163.719 291.836 162.078C291.836 160.453 290.242 159.359 288.102 159.375ZM294.539 168.281V169.516H281.727V168.281H294.539ZM308.367 168.406V169.656H295.555V168.406H301.195V165.953H297.117V161.5H305.336V159.531H297.086V158.312H306.805V162.688H298.586V164.734H307.133V165.953H302.664V168.406H308.367ZM324.289 157.344V161.844H326.32V163.078H324.289V167.812H322.805V157.344H324.289ZM321.648 158.969V160.172H313.305V158.969H316.742V157.328H318.227V158.969H321.648ZM317.477 160.844C319.492 160.844 320.867 161.891 320.867 163.484C320.867 165.078 319.492 166.109 317.477 166.109C315.445 166.109 314.07 165.078 314.07 163.484C314.07 161.891 315.445 160.844 317.477 160.844ZM317.477 161.984C316.289 161.984 315.492 162.562 315.508 163.484C315.492 164.391 316.289 164.953 317.477 164.953C318.664 164.953 319.461 164.391 319.477 163.484C319.461 162.562 318.664 161.984 317.477 161.984ZM324.883 169.828V171.031H315.414V166.984H316.898V169.828H324.883ZM54.7188 176.328V179.812H56.7188V181.078H54.7188V184.578H53.2344V176.328H54.7188ZM54.7188 185.172V188.094H46.9844V189.156H55.2344V190.188H45.5V187.141H53.25V186.203H45.4688V185.172H54.7188ZM43.6094 183.25C44.6953 183.25 45.9531 183.25 47.2656 183.203V182.422C45.6562 182.273 44.6562 181.633 44.6719 180.578C44.6562 179.438 45.9688 178.766 48 178.766C50.0156 178.766 51.3281 179.438 51.3281 180.578C51.3281 181.625 50.3359 182.266 48.75 182.422V183.156C50 183.094 51.2656 182.992 52.4375 182.828L52.5625 183.797C49.5469 184.297 46.2344 184.312 43.7656 184.312L43.6094 183.25ZM52.0469 177.328V178.359H43.9688V177.328H47.2656V176.203H48.75V177.328H52.0469ZM48 179.734C46.7969 179.734 46.0781 180.047 46.0781 180.578C46.0781 181.141 46.7969 181.484 48 181.484C49.1875 181.484 49.9062 181.141 49.9062 180.578C49.9062 180.047 49.1875 179.734 48 179.734ZM70.3125 183.141V184.328H57.5312V183.141H63.2031V181.656H59.125V176.969H68.7344V178.141H60.5938V180.469H68.8281V181.656H64.6406V183.141H70.3125ZM63.9062 185.234C66.9219 185.234 68.7344 186.156 68.7344 187.781C68.7344 189.406 66.9219 190.312 63.9062 190.328C60.875 190.312 59.0469 189.406 59.0469 187.781C59.0469 186.156 60.875 185.234 63.9062 185.234ZM63.9062 186.391C61.7656 186.391 60.5469 186.891 60.5469 187.781C60.5469 188.672 61.7656 189.172 63.9062 189.156C66.0156 189.172 67.25 188.672 67.25 187.781C67.25 186.891 66.0156 186.391 63.9062 186.391ZM83.4062 176.328V190.328H81.9844V176.328H83.4062ZM80.5625 176.594V189.641H79.1406V182.891H77.5625C77.4375 185.625 76.2656 187.328 74.5312 187.312C72.7031 187.328 71.5156 185.406 71.5156 182.375C71.5156 179.344 72.7031 177.438 74.5312 177.453C76.2344 177.438 77.3906 179.055 77.5625 181.688H79.1406V176.594H80.5625ZM74.5312 178.844C73.5156 178.844 72.8906 180.141 72.8906 182.375C72.8906 184.609 73.5156 185.906 74.5312 185.906C75.5625 185.906 76.2031 184.609 76.2031 182.375C76.2031 180.141 75.5625 178.844 74.5312 178.844ZM90.2344 179.891C90.2344 182.453 91.6719 185 93.8125 185.969L92.9062 187.156C91.3125 186.359 90.1172 184.773 89.5 182.859C88.8828 184.875 87.6562 186.578 86.0469 187.422L85.1094 186.219C87.2812 185.188 88.7344 182.484 88.7344 179.891V177.5H90.2344V179.891ZM96.8594 176.328V190.359H95.3906V182.188H92.2656V180.984H95.3906V176.328H96.8594ZM114.141 181.484V182.656H104.641V177.125H113.969V178.328H106.141V181.484H114.141ZM115.719 184.359V185.562H110V190.297H108.547V185.562H102.906V184.359H115.719ZM127.75 176.328V179.781H129.781V181.031H127.75V184.516H126.266V176.328H127.75ZM123.875 177.188C123.875 180.797 121.438 183.312 117.281 184.391L116.672 183.25C120.031 182.375 122.023 180.602 122.281 178.391H117.344V177.188H123.875ZM127.75 185.125V190.328H126.266V186.328H118.5V185.125H127.75ZM136.953 176.562C140.109 176.562 141.953 177.406 141.953 178.969C141.953 180.531 140.109 181.391 136.953 181.391C133.797 181.391 131.953 180.531 131.953 178.969C131.953 177.406 133.797 176.562 136.953 176.562ZM136.953 177.656C134.719 177.656 133.484 178.141 133.5 178.969C133.484 179.828 134.719 180.281 136.953 180.281C139.188 180.281 140.422 179.828 140.422 178.969C140.422 178.141 139.188 177.656 136.953 177.656ZM143.344 182.25V183.438H130.578V182.25H143.344ZM141.734 184.516V187.797H133.578V189.047H142.125V190.188H132.125V186.719H140.266V185.625H132.109V184.516H141.734ZM161.391 181.828V183.047H159.219V190.312H157.734V176.328H159.219V181.828H161.391ZM150.312 177.688V185.562C152.266 185.562 154.305 185.398 156.531 184.938L156.703 186.188C154.312 186.672 152.094 186.797 150 186.797H148.844V177.688H150.312ZM169.328 177.562V178.781H164.234V181.484H169.047V182.672H164.234V185.812C166.57 185.805 168.297 185.703 170.328 185.375L170.469 186.578C168.312 186.938 166.438 187.016 163.859 187.016H162.734V177.562H169.328ZM173.047 176.328V181.844H175.297V183.094H173.047V190.328H171.562V176.328H173.047ZM187.953 176.328V190.328H186.531V183.156H184.734V189.609H183.344V176.609H184.734V181.938H186.531V176.328H187.953ZM178.109 177.984V185.453C179.406 185.445 180.82 185.344 182.406 185.031L182.562 186.328C180.641 186.672 179.031 186.766 177.531 186.766H176.625V177.984H178.109ZM196.844 177.672V179.625H200V176.328H201.469V190.359H200V184.672H196.844V186.828H190.344V177.672H196.844ZM191.812 178.828V185.641H195.391V178.828H191.812ZM196.844 183.469H200V180.844H196.844V183.469ZM206.141 187.922L204.891 192.234H203.562L204.391 187.922H206.141ZM222.625 176.328V179.625H224.656V180.859H222.625V184.234H221.141V176.328H222.625ZM218.766 177.203C218.75 180.797 216.328 183.312 212.156 184.438L211.562 183.25C214.906 182.367 216.883 180.609 217.156 178.422H212.219V177.203H218.766ZM222.625 184.828V190.141H213.656V184.828H222.625ZM215.141 186.062V188.953H221.156V186.062H215.141ZM237.125 176.328V184.656H235.641V181.109H233.031V179.891H235.641V176.328H237.125ZM232.438 185.047C235.375 185.047 237.172 186.016 237.172 187.688C237.172 189.359 235.375 190.312 232.438 190.328C229.5 190.312 227.688 189.359 227.703 187.688C227.688 186.016 229.5 185.047 232.438 185.047ZM232.438 186.203C230.391 186.203 229.172 186.734 229.172 187.688C229.172 188.625 230.391 189.172 232.438 189.156C234.484 189.172 235.703 188.625 235.703 187.688C235.703 186.734 234.484 186.203 232.438 186.203ZM230.469 178.797C230.469 180.578 231.734 182.297 233.844 183.016L233.078 184.188C231.508 183.641 230.352 182.523 229.75 181.141C229.133 182.711 227.906 183.969 226.234 184.578L225.453 183.391C227.625 182.641 228.953 180.75 228.953 178.812V178.5H225.922V177.297H233.469V178.5H230.469V178.797ZM247.078 177.828V178.688C247.078 179.859 247.078 181.672 246.672 184.172L245.203 184.062C245.555 181.82 245.594 180.203 245.609 179.031H239.922V177.828H247.078ZM243.484 181.828V186.016C244.977 185.969 246.492 185.867 247.891 185.688L247.969 186.797C245.047 187.266 241.797 187.328 239.312 187.312L239.141 186.109C240.016 186.102 240.992 186.094 242.016 186.062V181.828H243.484ZM250.188 176.328V182.109H252.328V183.375H250.188V190.328H248.688V176.328H250.188ZM262.922 177.906V181.547H264.797V176.594H266.219V189.641H264.797V182.766H262.922V186.641H257.484V177.906H262.922ZM258.891 179.078V185.453H261.531V179.078H258.891ZM269.062 176.328V190.328H267.641V176.328H269.062ZM275.984 179.891C275.969 182.453 277.516 185.016 279.688 185.984L278.797 187.156C277.188 186.391 275.914 184.82 275.266 182.906C274.609 184.953 273.32 186.648 271.641 187.469L270.734 186.219C272.938 185.234 274.484 182.562 274.484 179.891V177.5H275.984V179.891ZM282.438 176.328V190.359H280.953V176.328H282.438ZM289.828 180.453C289.828 182.797 291.359 185.219 293.516 186.141L292.703 187.297C291.055 186.57 289.742 185.031 289.094 183.156C288.445 185.156 287.125 186.859 285.5 187.656L284.641 186.484C286.75 185.5 288.312 182.859 288.328 180.453V178.969H285.125V177.734H293.016V178.969H289.828V180.453ZM296.266 176.328V190.328H294.781V176.328H296.266ZM311.297 182.75V183.891H298.484V182.75H311.297ZM309.719 184.875V187.953H301.5V189.109H310.156V190.156H300.016V186.969H308.25V185.938H300V184.875H309.719ZM309.688 176.688V179.719H301.594V180.781H309.922V181.828H300.125V178.734H308.203V177.734H300.094V176.688H309.688ZM85.0703 198.328C85.0703 199.953 86.3359 201.453 88.4766 202.062L87.7891 203.234C86.1797 202.773 84.9844 201.781 84.3672 200.5C83.75 201.945 82.5234 203.062 80.8828 203.594L80.1484 202.422C82.2891 201.797 83.6016 200.141 83.6016 198.328V198.156H80.5547V196.953H83.6016V195.266H85.0859V196.953H88.1172V198.156H85.0703V198.328ZM91.1641 195.328V198.859H93.1953V200.078H91.1641V203.859H89.6797V195.328H91.1641ZM86.6484 204.188C89.5391 204.188 91.2891 205.109 91.2891 206.75C91.2891 208.359 89.5391 209.297 86.6484 209.297C83.7266 209.297 81.9453 208.359 81.9453 206.75C81.9453 205.109 83.7266 204.188 86.6484 204.188ZM86.6484 205.344C84.6016 205.344 83.4141 205.828 83.4297 206.75C83.4141 207.641 84.6016 208.156 86.6484 208.156C88.6641 208.156 89.8359 207.641 89.8359 206.75C89.8359 205.828 88.6641 205.344 86.6484 205.344ZM98.5547 196.328C100.773 196.312 102.352 197.688 102.367 199.656C102.352 201.625 100.773 203 98.5547 203C96.3516 203 94.7266 201.625 94.7422 199.656C94.7266 197.688 96.3516 196.312 98.5547 196.328ZM98.5547 197.609C97.1953 197.609 96.1953 198.422 96.2109 199.656C96.1953 200.891 97.1953 201.703 98.5547 201.703C99.9141 201.703 100.914 200.891 100.914 199.656C100.914 198.422 99.9141 197.609 98.5547 197.609ZM105.57 195.328V209.359H104.086V195.328H105.57ZM94.0703 205.109C96.6172 205.109 100.148 205.078 103.211 204.641L103.32 205.719C100.148 206.328 96.7578 206.344 94.2578 206.344L94.0703 205.109ZM112.836 197.812C112.836 199.578 114.102 201.312 116.211 202.031L115.445 203.188C113.875 202.641 112.711 201.523 112.102 200.141C111.492 201.68 110.266 202.914 108.602 203.5L107.836 202.328C109.992 201.594 111.32 199.719 111.32 197.828V197.438H108.289V196.234H115.836V197.438H112.836V197.812ZM119.492 204.406V209.328H118.008V205.609H110.008V204.406H119.492ZM119.492 195.328V203.703H118.008V200.109H115.414V198.891H118.008V195.328H119.492ZM128.023 196.172C130.961 196.172 133.195 197.719 133.195 200.078C133.195 202.438 130.961 204 128.023 203.984C125.086 204 122.867 202.438 122.867 200.078C122.867 197.719 125.086 196.172 128.023 196.172ZM128.023 197.375C125.883 197.359 124.273 198.453 124.289 200.078C124.273 201.719 125.883 202.766 128.023 202.766C130.164 202.766 131.758 201.719 131.758 200.078C131.758 198.453 130.164 197.359 128.023 197.375ZM134.461 206.281V207.516H121.648V206.281H134.461ZM148.289 206.406V207.656H135.477V206.406H141.117V203.953H137.039V199.5H145.258V197.531H137.008V196.312H146.727V200.688H138.508V202.734H147.055V203.953H142.586V206.406H148.289ZM164.883 195.344V205.594H163.398V200.328H160.727V199.125H163.398V195.344H164.883ZM165.258 207.828V209.031H155.789V204.672H157.273V207.828H165.258ZM158.227 198.172C158.227 199.922 159.492 201.672 161.602 202.375L160.836 203.562C159.266 203.008 158.102 201.883 157.492 200.5C156.883 202.039 155.656 203.281 153.992 203.875L153.227 202.672C155.383 201.938 156.711 200.094 156.711 198.172V197.625H153.68V196.406H161.227V197.625H158.227V198.172ZM173.883 196.109V197.297H169.102V200.703C171.742 200.711 173.336 200.594 175.148 200.234L175.32 201.406C173.383 201.828 171.68 201.891 168.742 201.891H167.633V196.109H173.883ZM178.039 195.328V198.188H180.07V199.406H178.039V202.359H176.555V195.328H178.039ZM178.039 203.016V206.594H170.477V207.953H178.523V209.156H169.023V205.453H176.57V204.203H168.992V203.016H178.039ZM191.773 195.328V201H194.023V202.234H191.773V209.328H190.305V195.328H191.773ZM189.086 197.516V198.734H180.789V197.516H184.242V195.516H185.727V197.516H189.086ZM184.992 199.766C186.992 199.766 188.461 201.109 188.477 203.016C188.461 204.938 186.992 206.266 184.992 206.281C182.977 206.266 181.508 204.938 181.508 203.016C181.508 201.109 182.977 199.766 184.992 199.766ZM184.992 200.984C183.805 200.984 182.914 201.812 182.93 203.016C182.914 204.234 183.805 205.047 184.992 205.031C186.18 205.047 187.055 204.234 187.055 203.016C187.055 201.812 186.18 200.984 184.992 200.984ZM206.023 199.422V200.609H196.383V195.828H197.852V199.422H206.023ZM207.492 202.375V203.562H194.68V202.375H207.492ZM206.117 207.781V209H196.273V204.891H197.758V207.781H206.117ZM224.461 195.328V209.328H223.023V195.328H224.461ZM221.57 195.625V208.625H220.164V201.828H217.289V200.594H220.164V195.625H221.57ZM218.242 197V198.219H214.383V204.797C216.219 204.781 217.453 204.703 218.898 204.391L219.023 205.641C217.414 205.969 216.039 206.031 213.852 206.031H212.93V197H218.242ZM241.477 199.109V200.312H231.867V195.578H233.336V199.109H241.477ZM242.945 201.797V203.016H230.164V201.797H242.945ZM236.539 204.156C239.555 204.156 241.367 205.078 241.367 206.703C241.367 208.344 239.555 209.266 236.539 209.266C233.508 209.266 231.68 208.344 231.68 206.703C231.68 205.078 233.508 204.156 236.539 204.156ZM236.539 205.312C234.398 205.328 233.18 205.797 233.18 206.703C233.18 207.594 234.398 208.125 236.539 208.125C238.648 208.125 239.883 207.594 239.883 206.703C239.883 205.797 238.648 205.328 236.539 205.312ZM250.914 197.641V198.844H243.961V197.641H246.711V195.734H248.18V197.641H250.914ZM247.445 199.688C249.227 199.688 250.477 201.016 250.492 202.906C250.477 204.812 249.227 206.156 247.445 206.156C245.695 206.156 244.398 204.812 244.414 202.906C244.398 201.016 245.695 199.688 247.445 199.688ZM247.445 200.922C246.43 200.922 245.727 201.75 245.727 202.906C245.727 204.094 246.43 204.891 247.445 204.891C248.445 204.891 249.18 204.094 249.18 202.906C249.18 201.75 248.445 200.922 247.445 200.922ZM255.977 195.328V209.328H254.57V202.375H252.961V208.672H251.555V195.641H252.961V201.156H254.57V195.328H255.977ZM270.633 206.344V207.578H257.82V206.344H260.883V202.688C259.734 202.055 259.039 201.047 259.039 199.797C259.039 197.594 261.195 196.141 264.195 196.141C267.211 196.141 269.367 197.594 269.367 199.797C269.367 201.031 268.695 202.023 267.57 202.656V206.344H270.633ZM264.195 197.328C261.992 197.328 260.477 198.281 260.477 199.797C260.477 201.297 261.992 202.281 264.195 202.281C266.383 202.281 267.93 201.297 267.93 199.797C267.93 198.281 266.383 197.328 264.195 197.328ZM262.352 206.344H266.07V203.219C265.5 203.367 264.867 203.438 264.195 203.438C263.539 203.438 262.914 203.367 262.352 203.234V206.344ZM273.242 208.109C272.633 208.109 272.117 207.609 272.133 207C272.117 206.391 272.633 205.891 273.242 205.891C273.836 205.891 274.352 206.391 274.352 207C274.352 207.609 273.836 208.109 273.242 208.109Z" fill="black"/>
</g>
<defs>
<filter id="filter0_i_44_225" x="0" y="0" width="356" height="245" filterUnits="userSpaceOnUse" color-interpolation-filters="sRGB">
<feFlood flood-opacity="0" result="BackgroundImageFix"/>
<feBlend mode="normal" in="SourceGraphic" in2="BackgroundImageFix" result="shape"/>
<feColorMatrix in="SourceAlpha" type="matrix" values="0 0 0 0 0 0 0 0 0 0 0 0 0 0 0 0 0 0 127 0" result="hardAlpha"/>
<feOffset dx="1" dy="1"/>
<feGaussianBlur stdDeviation="3"/>
<feComposite in2="hardAlpha" operator="arithmetic" k2="-1" k3="1"/>
<feColorMatrix type="matrix" values="0 0 0 0 0 0 0 0 0 0 0 0 0 0 0 0 0 0 0.25 0"/>
<feBlend mode="normal" in2="shape" result="effect1_innerShadow_44_225"/>
</filter>
</defs>
</svg>
