<svg width="355" height="244" viewBox="0 0 355 244" fill="none" xmlns="http://www.w3.org/2000/svg">
<g filter="url(#filter0_i_44_249)">
<rect width="355" height="244" fill="#F4DED6"/>
<path d="M154.191 45.4922V50.8125H157.215V52.6406H154.191V57.8906H151.941V45.4922H154.191ZM147.395 58.2891C151.684 58.2891 154.355 59.7891 154.355 62.3672C154.355 64.9453 151.684 66.4688 147.395 66.4453C143.059 66.4688 140.34 64.9453 140.34 62.3672C140.34 59.7891 143.059 58.2891 147.395 58.2891ZM147.395 60.0938C144.348 60.0703 142.52 60.9141 142.543 62.3672C142.52 63.8203 144.348 64.6641 147.395 64.6641C150.371 64.6641 152.199 63.8203 152.223 62.3672C152.199 60.9141 150.371 60.0703 147.395 60.0938ZM147.934 47.0391V48.8438H140.762V54.5625C144.898 54.5508 147.23 54.4219 149.879 53.8828L150.09 55.6875C147.277 56.2734 144.77 56.3672 140.223 56.3672H138.559V47.0391H147.934ZM175.824 45.5156V60.8906H173.598V45.5156H175.824ZM176.457 64.2422V66.0469H162.09V59.4375H164.34V64.2422H176.457ZM166.051 48.75C166.027 51.8203 167.996 54.6328 171.23 55.7578L170.082 57.5391C167.656 56.6367 165.863 54.8555 164.926 52.5703C164 55.0078 162.184 56.9648 159.723 57.9141L158.527 56.1562C161.832 54.9375 163.777 51.9141 163.777 48.75V46.6641H166.051V48.75ZM198.301 56.4609V58.2422H179.152V56.4609H198.301ZM196.145 64.2422V66.0469H181.566V59.9531H183.816V64.2422H196.145ZM188.715 46.1953C193.262 46.1719 196.215 47.7656 196.215 50.3906C196.215 53.0391 193.262 54.6328 188.715 54.6562C184.145 54.6328 181.215 53.0391 181.215 50.3906C181.215 47.7656 184.145 46.1719 188.715 46.1953ZM188.715 47.9766C185.504 47.9766 183.488 48.8906 183.512 50.3906C183.488 51.9375 185.504 52.8281 188.715 52.8281C191.926 52.8281 193.918 51.9375 193.918 50.3906C193.918 48.8906 191.926 47.9766 188.715 47.9766ZM202.285 64.6641C201.371 64.6641 200.598 63.9141 200.621 63C200.598 62.0859 201.371 61.3359 202.285 61.3359C203.176 61.3359 203.949 62.0859 203.949 63C203.949 63.9141 203.176 64.6641 202.285 64.6641ZM208.613 64.6641C207.699 64.6641 206.926 63.9141 206.949 63C206.926 62.0859 207.699 61.3359 208.613 61.3359C209.504 61.3359 210.277 62.0859 210.277 63C210.277 63.9141 209.504 64.6641 208.613 64.6641ZM214.941 64.6641C214.027 64.6641 213.254 63.9141 213.277 63C213.254 62.0859 214.027 61.3359 214.941 61.3359C215.832 61.3359 216.605 62.0859 216.605 63C216.605 63.9141 215.832 64.6641 214.941 64.6641ZM91.1211 83.1875L93.1367 76.5078H95.6211L94.4492 83.1875H91.1211ZM96.3242 83.1875L98.3398 76.5078H100.824L99.6523 83.1875H96.3242ZM122.293 90.7578V93.1719H102.77V90.7578H111.02V86H114.02V90.7578H122.293ZM120.582 75.9453V78.3594H114.09C114.336 81.1719 116.984 83.7852 121.566 84.4531L120.395 86.8203C116.656 86.1641 113.891 84.3359 112.52 81.8047C111.16 84.3828 108.418 86.2578 104.738 86.9375L103.566 84.5703C107.996 83.8555 110.656 81.1836 110.902 78.3594H104.387V75.9453H120.582ZM142.965 84.4297V86.8203H123.512V84.4297H127.895V81.875C126.336 81.1836 125.457 80.1289 125.457 78.7578C125.457 76.1797 128.48 74.6328 133.238 74.6328C137.949 74.6328 140.973 76.1797 140.996 78.7578C140.984 80.1406 140.07 81.2188 138.488 81.8984V84.4297H142.965ZM133.215 87.9453C137.832 87.9453 140.621 89.3047 140.645 91.7656C140.621 94.2734 137.832 95.6328 133.215 95.6328C128.527 95.6328 125.738 94.2734 125.738 91.7656C125.738 89.3047 128.527 87.9453 133.215 87.9453ZM133.215 90.1953C130.262 90.1953 128.762 90.7109 128.785 91.7656C128.762 92.8672 130.262 93.4062 133.215 93.4062C136.098 93.4062 137.621 92.8672 137.645 91.7656C137.621 90.7109 136.098 90.1953 133.215 90.1953ZM133.238 76.9297C130.215 76.9297 128.551 77.5625 128.574 78.7578C128.551 79.9297 130.215 80.5156 133.238 80.5156C136.215 80.5156 137.902 79.9297 137.902 78.7578C137.902 77.5625 136.215 76.9297 133.238 76.9297ZM130.918 84.4297H135.512V82.6484C134.809 82.7305 134.047 82.7656 133.238 82.7656C132.406 82.7656 131.633 82.7305 130.918 82.625V84.4297ZM161.176 74.3516V80.8906H164.059V83.3281H161.176V90.2656H158.176V74.3516H161.176ZM156.91 76.5781V78.9453H144.254V76.5781H149.105V74.3047H152.082V76.5781H156.91ZM150.582 79.6953C153.676 79.6953 155.832 81.3594 155.832 83.8203C155.832 86.2812 153.676 87.8984 150.582 87.8984C147.465 87.8984 145.285 86.2812 145.285 83.8203C145.285 81.3594 147.465 79.6953 150.582 79.6953ZM150.582 81.9688C149.152 81.9922 148.191 82.6484 148.215 83.8203C148.191 84.9922 149.152 85.625 150.582 85.625C152.012 85.625 152.996 84.9922 152.996 83.8203C152.996 82.6484 152.012 81.9922 150.582 81.9688ZM161.949 92.8906V95.2812H147.348V89.0469H150.324V92.8906H161.949ZM188.363 74.3281V85.1328H185.387V74.3281H188.363ZM188.387 86.0469V91.8359H177.043V93.1484H188.973V95.5156H174.113V89.6094H185.41V88.3672H174.066V86.0469H188.387ZM178.707 76.4375C178.684 79.0156 180.23 81.5 183.723 82.5078L182.27 84.8047C179.82 84.0898 178.133 82.6133 177.184 80.7266C176.199 82.7891 174.453 84.4297 171.91 85.1797L170.434 82.8359C173.996 81.7812 175.59 79.0859 175.59 76.4375V74.7969H178.707V76.4375ZM199.121 79.3438C199.121 81.7344 200.691 84.1953 204.16 85.25L202.73 87.5703C200.34 86.8906 198.652 85.4258 197.691 83.5625C196.742 85.5781 195.043 87.1602 192.582 87.9219L191.129 85.5781C194.598 84.5469 196.145 81.9453 196.145 79.3438V79.1797H191.855V76.8359H196.145V74.4688H199.168V76.8359H203.434V79.1797H199.121V79.3438ZM209.246 74.3516V90.1719H206.27V82.9766H202.73V80.5625H206.27V74.3516H209.246ZM209.762 92.8906V95.2812H195.09V88.8125H198.09V92.8906H209.762ZM228.84 74.3281V82.5078H231.863V84.9688H228.84V95.6094H225.84V74.3281H228.84ZM223.145 76.5078C223.121 82.8828 220.637 88.4141 213.465 91.9297L211.777 89.6328C216.828 87.1016 219.535 83.7031 220.098 78.9453H212.996V76.5078H223.145ZM244.66 76.2969V78.6641H232.801V76.2969H237.395V74.1406H240.371V76.2969H244.66ZM238.848 79.3672C241.777 79.3906 243.887 81.0078 243.91 83.375C243.887 85.7656 241.777 87.3594 238.848 87.3359C235.895 87.3594 233.832 85.7656 233.855 83.375C233.832 81.0078 235.895 79.3906 238.848 79.3672ZM238.848 81.5938C237.488 81.5938 236.621 82.2266 236.645 83.375C236.621 84.5234 237.488 85.1328 238.848 85.1328C240.184 85.1328 241.121 84.5234 241.121 83.375C241.121 82.2266 240.184 81.5938 238.848 81.5938ZM250.73 74.3281V87.9219H247.754V85.6719H244.848V83.2812H247.754V81.4062H244.895V79.0156H247.754V74.3281H250.73ZM243.488 88.1797C248.012 88.1797 250.848 89.5625 250.848 91.9297C250.848 94.25 248.012 95.6562 243.488 95.6562C238.941 95.6562 236.129 94.25 236.129 91.9297C236.129 89.5625 238.941 88.1797 243.488 88.1797ZM243.488 90.4297C240.77 90.4531 239.27 90.9219 239.27 91.9297C239.27 92.8906 240.77 93.4062 243.488 93.4062C246.16 93.4062 247.637 92.8906 247.637 91.9297C247.637 90.9219 246.16 90.4531 243.488 90.4297ZM263.879 76.5312L261.863 83.2109H259.379L260.551 76.5312H263.879ZM258.676 76.5312L256.66 83.2109H254.176L255.348 76.5312H258.676ZM48.7734 128.828V142.828H47.3516V135.656H45.5547V142.109H44.1641V129.109H45.5547V134.438H47.3516V128.828H48.7734ZM38.9297 130.484V137.953C40.2266 137.945 41.6406 137.844 43.2266 137.531L43.3828 138.828C41.4609 139.172 39.8516 139.266 38.3516 139.266H37.4453V130.484H38.9297ZM63.6016 131.141V132.359H61.6172V134.125H63.6016V135.344H61.6172V137.812H60.1328V128.828H61.6172V131.141H63.6016ZM57.1484 137.922C60.0078 137.922 61.7734 138.828 61.7734 140.375C61.7734 141.891 60.0078 142.812 57.1484 142.797C54.2578 142.812 52.4922 141.891 52.5078 140.375C52.4922 138.828 54.2578 137.922 57.1484 137.922ZM57.1484 139.062C55.1328 139.062 53.9609 139.516 53.9766 140.375C53.9609 141.188 55.1328 141.672 57.1484 141.672C59.1328 141.672 60.3047 141.188 60.3047 140.375C60.3047 139.516 59.1328 139.062 57.1484 139.062ZM58.9766 130.328V131.5H50.6328V130.328H54.0703V128.719H55.5547V130.328H58.9766ZM54.8047 132.141C56.8203 132.141 58.1953 133.141 58.1953 134.641C58.1953 136.141 56.8203 137.125 54.8047 137.109C52.7578 137.125 51.3984 136.141 51.3984 134.641C51.3984 133.141 52.7578 132.141 54.8047 132.141ZM54.8047 133.25C53.6172 133.25 52.8203 133.781 52.8359 134.641C52.8203 135.469 53.6172 135.984 54.8047 135.984C55.9922 135.984 56.7891 135.469 56.8047 134.641C56.7891 133.781 55.9922 133.25 54.8047 133.25ZM69.4609 131.312C69.4609 133.078 70.7266 134.812 72.8359 135.531L72.0703 136.688C70.5 136.141 69.3359 135.023 68.7266 133.641C68.1172 135.18 66.8906 136.414 65.2266 137L64.4609 135.828C66.6172 135.094 67.9453 133.219 67.9453 131.328V130.938H64.9141V129.734H72.4609V130.938H69.4609V131.312ZM76.1172 137.906V142.828H74.6328V139.109H66.6328V137.906H76.1172ZM76.1172 128.828V137.203H74.6328V133.609H72.0391V132.391H74.6328V128.828H76.1172ZM89.8828 128.844V139.016H88.3984V128.844H89.8828ZM90.3047 141.328V142.531H80.7266V137.984H82.2266V141.328H90.3047ZM82.2891 129.781C84.3984 129.781 86.0078 131.219 86.0078 133.25C86.0078 135.312 84.3984 136.734 82.2891 136.734C80.1797 136.734 78.5547 135.312 78.5547 133.25C78.5547 131.219 80.1797 129.781 82.2891 129.781ZM82.2891 131.078C80.9766 131.078 80.0078 131.969 80.0078 133.25C80.0078 134.562 80.9766 135.438 82.2891 135.438C83.5703 135.438 84.5547 134.562 84.5547 133.25C84.5547 131.969 83.5703 131.078 82.2891 131.078ZM100.977 130.922C100.977 132.891 102.242 134.641 104.367 135.328L103.555 136.484C102.016 135.93 100.883 134.852 100.273 133.453C99.6641 135.055 98.4453 136.297 96.7578 136.906L95.9609 135.719C98.1953 134.953 99.4922 133.094 99.5078 130.984V129.609H100.977V130.922ZM107.68 128.828V137.094H106.195V132.891H103.242V131.672H106.195V128.828H107.68ZM102.992 137.484C105.93 137.484 107.727 138.453 107.727 140.156C107.727 141.844 105.93 142.812 102.992 142.797C100.055 142.812 98.2422 141.844 98.2578 140.156C98.2422 138.453 100.055 137.484 102.992 137.484ZM102.992 138.641C100.945 138.641 99.7266 139.188 99.7266 140.156C99.7266 141.094 100.945 141.625 102.992 141.625C105.039 141.625 106.258 141.094 106.258 140.156C106.258 139.188 105.039 138.641 102.992 138.641ZM117.258 129.75C117.258 130.281 117.203 130.781 117.102 131.266H120.023V128.844H121.508V137.172H120.023V135.422H116.492V134.219H120.023V132.453H116.727C115.781 134.648 113.633 136.219 110.602 137.031L110.039 135.859C113.367 134.961 115.391 133.18 115.664 130.953H110.773V129.75H117.258ZM121.508 137.781V142.797H120.023V138.953H112.023V137.781H121.508ZM135.258 128.828V142.859H133.773V128.828H135.258ZM127.773 129.875C129.852 129.875 131.383 131.781 131.383 134.781C131.383 137.797 129.852 139.703 127.773 139.703C125.664 139.703 124.148 137.797 124.148 134.781C124.148 131.781 125.664 129.875 127.773 129.875ZM127.773 131.203C126.477 131.203 125.586 132.578 125.586 134.781C125.586 137 126.477 138.375 127.773 138.375C129.055 138.375 129.945 137 129.945 134.781C129.945 132.578 129.055 131.203 127.773 131.203ZM144.539 130.172V132.125H147.695V128.828H149.164V142.859H147.695V137.172H144.539V139.328H138.039V130.172H144.539ZM139.508 131.328V138.141H143.086V131.328H139.508ZM144.539 135.969H147.695V133.344H144.539V135.969ZM153.836 140.422L152.586 144.734H151.258L152.086 140.422H153.836ZM170.32 128.844V132.156H172.352V133.359H170.32V136.719H168.836V128.844H170.32ZM170.648 137.422V138.609H168.789V141.406H170.836V142.609H161.148V141.406H163.164V138.609H161.258V137.422H170.648ZM163.258 129.609C165.398 129.609 166.977 130.969 166.992 132.922C166.977 134.859 165.398 136.219 163.258 136.219C161.117 136.219 159.523 134.859 159.539 132.922C159.523 130.969 161.117 129.609 163.258 129.609ZM163.258 130.859C161.945 130.844 160.977 131.672 160.992 132.922C160.977 134.156 161.945 134.969 163.258 134.984C164.57 134.969 165.539 134.156 165.539 132.922C165.539 131.672 164.57 130.844 163.258 130.859ZM164.602 141.406H167.336V138.609H164.602V141.406ZM185.195 128.828V142.828H183.773V128.828H185.195ZM182.352 129.094V142.141H180.93V135.391H179.352C179.227 138.125 178.055 139.828 176.32 139.812C174.492 139.828 173.305 137.906 173.305 134.875C173.305 131.844 174.492 129.938 176.32 129.953C178.023 129.938 179.18 131.555 179.352 134.188H180.93V129.094H182.352ZM176.32 131.344C175.305 131.344 174.68 132.641 174.68 134.875C174.68 137.109 175.305 138.406 176.32 138.406C177.352 138.406 177.992 137.109 177.992 134.875C177.992 132.641 177.352 131.344 176.32 131.344ZM203.961 134.328V135.547H201.789V142.812H200.305V128.828H201.789V134.328H203.961ZM192.883 130.188V138.062C194.836 138.062 196.875 137.898 199.102 137.438L199.273 138.688C196.883 139.172 194.664 139.297 192.57 139.297H191.414V130.188H192.883ZM209.758 132.391C209.758 134.953 211.195 137.5 213.336 138.469L212.43 139.656C210.836 138.859 209.641 137.273 209.023 135.359C208.406 137.375 207.18 139.078 205.57 139.922L204.633 138.719C206.805 137.688 208.258 134.984 208.258 132.391V130H209.758V132.391ZM216.383 128.828V142.859H214.914V134.688H211.789V133.484H214.914V128.828H216.383ZM230.18 128.828V142.828H228.68V128.828H230.18ZM226.008 130.328C226.008 134.422 224.258 137.984 219.461 140.281L218.68 139.078C222.406 137.305 224.219 134.781 224.508 131.516H219.352V130.328H226.008ZM245.18 139.859V141.094H232.367V139.859H238.008V136.984H233.836V129.781H235.32V132.188H242.195V129.781H243.664V136.984H239.477V139.859H245.18ZM235.32 135.781H242.195V133.391H235.32V135.781ZM257.102 128.828V134.25H259.352V135.469H257.102V142.859H255.617V128.828H257.102ZM253.336 130.172V131.375H248.273V138.141C250.625 138.133 252.391 138.031 254.383 137.672L254.57 138.922C252.383 139.312 250.523 139.391 247.914 139.375H246.789V130.172H253.336ZM271.352 132.922V134.109H261.711V129.328H263.18V132.922H271.352ZM272.82 135.875V137.062H260.008V135.875H272.82ZM271.445 141.281V142.5H261.602V138.391H263.086V141.281H271.445ZM282.633 132.953C282.633 135.172 284.086 137.641 286.211 138.641L285.367 139.797C283.797 139.039 282.555 137.461 281.93 135.625C281.281 137.633 279.969 139.359 278.367 140.156L277.492 138.984C279.617 137.969 281.164 135.328 281.164 132.953V131.469H278.008V130.234H285.68V131.469H282.633V132.953ZM288.664 128.828V134.375H290.914V135.625H288.664V142.828H287.18V128.828H288.664ZM303.195 128.844V139.094H301.711V128.844H303.195ZM303.617 141.328V142.531H294.039V138.125H295.539V141.328H303.617ZM296.68 131C296.664 133.047 297.977 134.922 300.133 135.672L299.367 136.859C297.75 136.258 296.555 135.07 295.93 133.547C295.312 135.172 294.102 136.477 292.461 137.109L291.664 135.938C293.867 135.125 295.164 133.109 295.164 131V129.609H296.68V131ZM317.008 128.828V142.859H315.523V128.828H317.008ZM309.523 129.875C311.602 129.875 313.133 131.781 313.133 134.781C313.133 137.797 311.602 139.703 309.523 139.703C307.414 139.703 305.898 137.797 305.898 134.781C305.898 131.781 307.414 129.875 309.523 129.875ZM309.523 131.203C308.227 131.203 307.336 132.578 307.336 134.781C307.336 137 308.227 138.375 309.523 138.375C310.805 138.375 311.695 137 311.695 134.781C311.695 132.578 310.805 131.203 309.523 131.203ZM42.0234 148.781V154.625H35.4766V148.781H42.0234ZM36.9297 150V153.453H40.5703V150H36.9297ZM45.9297 147.828V150.969H47.9609V152.188H45.9297V155.344H44.4453V147.828H45.9297ZM46.0078 156.047V157.141H38.4609V158.281H45.8672V159.344H38.4609V160.562H46.3047V161.656H37.0078V156.047H46.0078ZM61.5234 155.141V156.328H48.7578V155.141H61.5234ZM60.0859 160.328V161.531H50.3672V157.469H51.8672V160.328H60.0859ZM55.1328 148.297C58.1641 148.281 60.1328 149.344 60.1328 151.094C60.1328 152.859 58.1641 153.922 55.1328 153.938C52.0859 153.922 50.1328 152.859 50.1328 151.094C50.1328 149.344 52.0859 148.281 55.1328 148.297ZM55.1328 149.484C52.9922 149.484 51.6484 150.094 51.6641 151.094C51.6484 152.125 52.9922 152.719 55.1328 152.719C57.2734 152.719 58.6016 152.125 58.6016 151.094C58.6016 150.094 57.2734 149.484 55.1328 149.484ZM78.1641 156.812V161.828H76.6797V157.984H68.6797V156.812H78.1641ZM78.1641 147.828V156.078H76.6797V154.156H73.2266C72.5781 154.922 71.5547 155.383 70.3672 155.375C68.2578 155.391 66.6953 153.984 66.6953 151.984C66.6953 150.016 68.2578 148.594 70.3672 148.609C71.5547 148.602 72.5703 149.062 73.2266 149.828H76.6797V147.828H78.1641ZM70.3672 149.859C69.0547 149.859 68.1172 150.734 68.1172 151.984C68.1172 153.266 69.0547 154.125 70.3672 154.125C71.6328 154.125 72.5859 153.266 72.5859 151.984C72.5859 150.734 71.6328 149.859 70.3672 149.859ZM73.8828 152.938H76.6797V151.047H73.8828C73.9609 151.344 74.0078 151.656 74.0078 151.984C74.0078 152.32 73.9609 152.641 73.8828 152.938ZM91.3203 147.781V151.062H93.3672V152.281H91.3203V155.484H89.8359V147.781H91.3203ZM91.3203 156.141V159.391H83.7578V160.562H91.8047V161.688H82.3047V158.344H89.8516V157.25H82.2734V156.141H91.3203ZM88.6797 149.016V150.188H80.3359V149.016H83.7734V147.703H85.2578V149.016H88.6797ZM84.5078 150.719C86.5547 150.719 87.8984 151.594 87.8984 153.016C87.8984 154.438 86.5547 155.297 84.5078 155.297C82.4453 155.297 81.1016 154.438 81.1016 153.016C81.1016 151.594 82.4453 150.719 84.5078 150.719ZM84.5078 151.781C83.3047 151.781 82.5234 152.266 82.5391 153.016C82.5234 153.766 83.3047 154.219 84.5078 154.219C85.7109 154.219 86.4922 153.766 86.5078 153.016C86.4922 152.266 85.7109 151.781 84.5078 151.781ZM100.523 148.062C103.68 148.062 105.523 148.906 105.523 150.469C105.523 152.031 103.68 152.891 100.523 152.891C97.3672 152.891 95.5234 152.031 95.5234 150.469C95.5234 148.906 97.3672 148.062 100.523 148.062ZM100.523 149.156C98.2891 149.156 97.0547 149.641 97.0703 150.469C97.0547 151.328 98.2891 151.781 100.523 151.781C102.758 151.781 103.992 151.328 103.992 150.469C103.992 149.641 102.758 149.156 100.523 149.156ZM106.914 153.75V154.938H94.1484V153.75H106.914ZM105.305 156.016V159.297H97.1484V160.547H105.695V161.688H95.6953V158.219H103.836V157.125H95.6797V156.016H105.305ZM116.117 150.906C116.117 152.484 117.117 154.016 118.898 154.656L118.195 155.781C116.875 155.266 115.953 154.305 115.445 153.125C114.961 154.414 114.023 155.469 112.664 156.016L111.961 154.922C113.727 154.203 114.711 152.594 114.711 150.906V150.781H112.273V149.594H114.711V147.984H116.117V149.594H118.523V150.781H116.117V150.906ZM123.82 147.844V156.406H122.414V152.719H120.82V156.344H119.398V148.078H120.82V151.5H122.414V147.844H123.82ZM123.82 157.109V161.828H122.352V158.312H114.305V157.109H123.82ZM137.32 147.844V155.812H135.836V147.844H137.32ZM137.32 156.516V161.656H128.117V156.516H137.32ZM129.586 157.703V160.453H135.867V157.703H129.586ZM129.727 148.547C131.867 148.547 133.445 149.891 133.445 151.859C133.445 153.781 131.867 155.141 129.727 155.141C127.586 155.141 125.992 153.781 125.992 151.859C125.992 149.891 127.586 148.547 129.727 148.547ZM129.727 149.797C128.398 149.797 127.445 150.609 127.445 151.859C127.445 153.062 128.398 153.891 129.727 153.891C131.039 153.891 131.992 153.062 131.992 151.859C131.992 150.609 131.039 149.797 129.727 149.797ZM150.539 147.828V151.125H152.57V152.359H150.539V155.734H149.055V147.828H150.539ZM146.68 148.703C146.664 152.297 144.242 154.812 140.07 155.938L139.477 154.75C142.82 153.867 144.797 152.109 145.07 149.922H140.133V148.703H146.68ZM150.539 156.328V161.641H141.57V156.328H150.539ZM143.055 157.562V160.453H149.07V157.562H143.055ZM162.133 157.078C162.133 158.281 162.727 159.555 163.992 160.312C165.281 159.492 165.914 158.148 165.914 157.078V156.406H167.367V157.078C167.367 158.531 168.32 159.938 170.148 160.531L169.414 161.625C168.031 161.148 167.094 160.219 166.602 159.062C166.156 160.195 165.32 161.219 164.039 161.75C162.695 161.242 161.844 160.25 161.414 159.109C160.906 160.211 159.984 161.141 158.664 161.625L157.914 160.531C159.711 159.891 160.68 158.438 160.695 157.078V156.406H162.133V157.078ZM168.883 147.844V155.812H167.398V147.844H168.883ZM161.289 148.609C163.43 148.609 165.008 149.969 165.008 151.922C165.008 153.859 163.43 155.203 161.289 155.203C159.148 155.203 157.555 153.859 157.555 151.922C157.555 149.969 159.148 148.609 161.289 148.609ZM161.289 149.875C159.961 149.859 159.008 150.688 159.008 151.922C159.008 153.141 159.961 153.969 161.289 153.969C162.602 153.969 163.555 153.141 163.555 151.922C163.555 150.688 162.602 149.859 161.289 149.875ZM183.133 147.828V161.828H181.727V147.828H183.133ZM180.18 148.188V161.141H178.773V154.641H176.039C175.203 156.266 173.875 157.688 171.898 158.844L171.055 157.781C174.023 156.016 175.453 153.664 175.711 150.781H171.711V149.562H177.18C177.172 150.93 176.984 152.234 176.555 153.453H178.773V148.188H180.18ZM193.086 148.453C195.133 148.453 196.57 149.578 196.586 151.25C196.57 152.672 195.492 153.719 193.867 153.969V155.203C195.109 155.141 196.352 155.031 197.508 154.859L197.617 155.953C194.68 156.484 191.383 156.531 188.977 156.531L188.82 155.328C189.867 155.336 191.094 155.328 192.383 155.281V153.984C190.711 153.75 189.586 152.695 189.602 151.25C189.586 149.578 191.039 148.453 193.086 148.453ZM193.086 149.594C191.852 149.594 190.977 150.234 190.992 151.25C190.977 152.234 191.852 152.891 193.086 152.891C194.336 152.891 195.18 152.234 195.18 151.25C195.18 150.234 194.336 149.594 193.086 149.594ZM199.852 147.844V152.469H201.852V153.719H199.852V158.547H198.367V147.844H199.852ZM200.352 160.312V161.531H190.805V157.609H192.289V160.312H200.352ZM209.836 149.062C209.82 150.922 212.102 152.672 214.852 153.031L214.273 154.25C211.984 153.883 209.969 152.695 209.07 151.047C208.148 152.703 206.141 153.883 203.867 154.25L203.273 153.031C206.023 152.672 208.273 150.938 208.289 149.062V148.297H209.836V149.062ZM215.43 155.625V156.844H209.742V161.828H208.289V156.844H202.664V155.625H215.43ZM227.398 147.828V153.5H229.648V154.734H227.398V161.828H225.93V147.828H227.398ZM224.711 150.016V151.234H216.414V150.016H219.867V148.016H221.352V150.016H224.711ZM220.617 152.266C222.617 152.266 224.086 153.609 224.102 155.516C224.086 157.438 222.617 158.766 220.617 158.781C218.602 158.766 217.133 157.438 217.133 155.516C217.133 153.609 218.602 152.266 220.617 152.266ZM220.617 153.484C219.43 153.484 218.539 154.312 218.555 155.516C218.539 156.734 219.43 157.547 220.617 157.531C221.805 157.547 222.68 156.734 222.68 155.516C222.68 154.312 221.805 153.484 220.617 153.484ZM241.648 151.922V153.109H232.008V148.328H233.477V151.922H241.648ZM243.117 154.875V156.062H230.305V154.875H243.117ZM241.742 160.281V161.5H231.898V157.391H233.383V160.281H241.742ZM260.086 147.828V161.828H258.648V147.828H260.086ZM257.195 148.125V161.125H255.789V154.328H252.914V153.094H255.789V148.125H257.195ZM253.867 149.5V150.719H250.008V157.297C251.844 157.281 253.078 157.203 254.523 156.891L254.648 158.141C253.039 158.469 251.664 158.531 249.477 158.531H248.555V149.5H253.867ZM270.977 150.062C270.977 151.797 272.336 153.422 274.492 154.047L273.742 155.203C272.109 154.711 270.875 153.641 270.242 152.266C269.609 153.734 268.359 154.898 266.68 155.453L265.93 154.281C268.102 153.609 269.461 151.906 269.477 150.062V149.906H266.336V148.703H274.055V149.906H270.977V150.062ZM277.398 147.828V155.406H275.914V147.828H277.398ZM269.695 156.062V157.625H275.93V156.062H277.398V161.656H268.242V156.062H269.695ZM269.695 160.453H275.93V158.797H269.695V160.453ZM292.383 154.312V155.516H286.727V156.859C289.297 157 290.82 157.867 290.82 159.328C290.82 160.922 289.008 161.812 285.992 161.797C282.945 161.812 281.133 160.922 281.133 159.328C281.133 157.867 282.656 157 285.258 156.859V155.516H279.617V154.312H292.383ZM285.992 157.984C283.852 157.984 282.633 158.469 282.633 159.328C282.633 160.172 283.852 160.672 285.992 160.656C288.102 160.672 289.336 160.172 289.336 159.328C289.336 158.469 288.102 157.984 285.992 157.984ZM291.242 148.469V149.656H286.992C287.203 151.008 289.172 152.156 291.727 152.406L291.195 153.578C288.773 153.297 286.766 152.273 286.008 150.781C285.227 152.273 283.227 153.297 280.805 153.578L280.289 152.406C282.805 152.156 284.781 151.008 284.992 149.656H280.789V148.469H291.242ZM304.352 147.828V153.5H306.602V154.734H304.352V161.828H302.883V147.828H304.352ZM301.664 150.016V151.234H293.367V150.016H296.82V148.016H298.305V150.016H301.664ZM297.57 152.266C299.57 152.266 301.039 153.609 301.055 155.516C301.039 157.438 299.57 158.766 297.57 158.781C295.555 158.766 294.086 157.438 294.086 155.516C294.086 153.609 295.555 152.266 297.57 152.266ZM297.57 153.484C296.383 153.484 295.492 154.312 295.508 155.516C295.492 156.734 296.383 157.547 297.57 157.531C298.758 157.547 299.633 156.734 299.633 155.516C299.633 154.312 298.758 153.484 297.57 153.484ZM318.602 151.922V153.109H308.961V148.328H310.43V151.922H318.602ZM320.07 154.875V156.062H307.258V154.875H320.07ZM318.695 160.281V161.5H308.852V157.391H310.336V160.281H318.695ZM32.8125 170.391C32.7969 172.875 34.2344 175.406 36.3281 176.422L35.4062 177.609C33.8828 176.82 32.7031 175.25 32.0938 173.375C31.4609 175.375 30.2344 177.047 28.6406 177.875L27.7188 176.672C29.875 175.641 31.3281 172.953 31.3281 170.391V168H32.8125V170.391ZM38.8594 166.828V172.406H41.1094V173.672H38.8594V180.828H37.375V166.828H38.8594ZM52.7812 166.844V170.328H54.8281V171.578H52.7812V175.172H51.2969V166.844H52.7812ZM52.7812 175.828V180.656H43.8125V175.828H52.7812ZM45.2656 176.984V179.453H51.3438V176.984H45.2656ZM48.7188 167.578V171.531H43.8438V173.281C46.2734 173.273 47.9922 173.203 50.0312 172.859L50.1875 174.047C48.0156 174.438 46.1719 174.516 43.4844 174.516H42.3594V170.406H47.2656V168.766H42.3438V167.578H48.7188ZM67.2188 166.828V174.344H65.7344V166.828H67.2188ZM59.5156 175.016V176.594H65.75V175.016H67.2188V180.656H58.0625V175.016H59.5156ZM59.5156 179.438H65.75V177.766H59.5156V179.438ZM59.625 167.469C61.7656 167.469 63.3438 168.797 63.3438 170.719C63.3438 172.641 61.7656 173.969 59.625 173.953C57.4844 173.969 55.8906 172.641 55.8906 170.719C55.8906 168.797 57.4844 167.469 59.625 167.469ZM59.625 168.719C58.2969 168.703 57.3438 169.531 57.3438 170.719C57.3438 171.922 58.2969 172.734 59.625 172.734C60.9375 172.734 61.8906 171.922 61.8906 170.719C61.8906 169.531 60.9375 168.703 59.625 168.719ZM81.0625 166.828V180.828H79.5781V166.828H81.0625ZM71.7656 168.188V175.984C73.8047 175.969 75.9531 175.805 78.2031 175.344L78.4062 176.594C75.9219 177.094 73.6719 177.266 71.4688 177.266H70.2969V168.188H71.7656ZM94.1719 166.828V172.25H96.4219V173.469H94.1719V180.859H92.6875V166.828H94.1719ZM90.4062 168.172V169.375H85.3438V176.141C87.6953 176.133 89.4609 176.031 91.4531 175.672L91.6406 176.922C89.4531 177.312 87.5938 177.391 84.9844 177.375H83.8594V168.172H90.4062ZM98.6875 179.609C98.0781 179.609 97.5625 179.109 97.5781 178.5C97.5625 177.891 98.0781 177.391 98.6875 177.391C99.2812 177.391 99.7969 177.891 99.7969 178.5C99.7969 179.109 99.2812 179.609 98.6875 179.609ZM117.797 175.031V176.203H105.031V175.031H110.672V174.016C108.203 173.906 106.797 173.164 106.812 171.891C106.797 170.5 108.484 169.766 111.406 169.766C114.312 169.766 116 170.5 116 171.891C116 173.156 114.602 173.906 112.156 174.016V175.031H117.797ZM116.359 179.344V180.531H106.641V177.031H108.141V179.344H116.359ZM117.078 168.078V169.219H105.688V168.078H110.672V166.688H112.156V168.078H117.078ZM111.406 170.828C109.375 170.828 108.312 171.188 108.312 171.891C108.312 172.594 109.375 172.953 111.406 172.953C113.422 172.953 114.5 172.594 114.5 171.891C114.5 171.188 113.422 170.828 111.406 170.828ZM123.734 170.953C123.734 173.172 125.188 175.641 127.312 176.641L126.469 177.797C124.898 177.039 123.656 175.461 123.031 173.625C122.383 175.633 121.07 177.359 119.469 178.156L118.594 176.984C120.719 175.969 122.266 173.328 122.266 170.953V169.469H119.109V168.234H126.781V169.469H123.734V170.953ZM129.766 166.828V172.375H132.016V173.625H129.766V180.828H128.281V166.828H129.766ZM137.734 170.391C137.734 172.953 139.172 175.5 141.312 176.469L140.406 177.656C138.812 176.859 137.617 175.273 137 173.359C136.383 175.375 135.156 177.078 133.547 177.922L132.609 176.719C134.781 175.688 136.234 172.984 136.234 170.391V168H137.734V170.391ZM144.359 166.828V180.859H142.891V172.688H139.766V171.484H142.891V166.828H144.359ZM163.234 177.859V179.078H150.422V177.859H156.078V174.547H157.562V177.859H163.234ZM157.578 169.375C157.578 171.516 160 173.422 162.672 173.844L162.078 175.016C159.82 174.586 157.734 173.273 156.828 171.438C155.914 173.297 153.844 174.648 151.625 175.078L151.016 173.906C153.625 173.469 156.031 171.516 156.031 169.375V169.25H151.484V168.031H162.125V169.25H157.578V169.375ZM177.016 173.656V174.859H164.25V173.656H167.312V171.766C166.234 171.328 165.625 170.625 165.625 169.703C165.625 168.047 167.547 167.078 170.625 167.078C173.688 167.078 175.625 168.047 175.625 169.703C175.625 170.625 175.008 171.336 173.922 171.766V173.656H177.016ZM170.625 175.812C173.641 175.812 175.453 176.703 175.453 178.297C175.453 179.922 173.641 180.797 170.625 180.797C167.578 180.797 165.766 179.922 165.766 178.297C165.766 176.703 167.578 175.812 170.625 175.812ZM170.625 176.953C168.484 176.953 167.266 177.438 167.266 178.297C167.266 179.172 168.484 179.672 170.625 179.656C172.734 179.672 173.969 179.172 173.969 178.297C173.969 177.438 172.734 176.953 170.625 176.953ZM170.625 168.219C168.453 168.219 167.141 168.766 167.156 169.703C167.141 170.641 168.453 171.172 170.625 171.172C172.797 171.172 174.094 170.641 174.094 169.703C174.094 168.766 172.797 168.219 170.625 168.219ZM168.812 173.656H172.453V172.156C171.906 172.25 171.289 172.297 170.625 172.297C169.969 172.297 169.359 172.25 168.812 172.172V173.656ZM189.672 166.828V180.828H188.188V166.828H189.672ZM186.828 169.047V170.25H178.391V169.047H181.844V166.969H183.344V169.047H186.828ZM182.625 171.266C184.672 171.266 186.156 172.609 186.156 174.516C186.156 176.438 184.672 177.766 182.625 177.781C180.594 177.766 179.109 176.438 179.109 174.516C179.109 172.609 180.594 171.266 182.625 171.266ZM182.625 172.484C181.406 172.484 180.516 173.312 180.516 174.516C180.516 175.734 181.406 176.547 182.625 176.531C183.844 176.547 184.734 175.734 184.734 174.516C184.734 173.312 183.844 172.484 182.625 172.484ZM206.719 166.828V172.5H208.969V173.734H206.719V180.828H205.25V166.828H206.719ZM204.031 169.016V170.234H195.734V169.016H199.188V167.016H200.672V169.016H204.031ZM199.938 171.266C201.938 171.266 203.406 172.609 203.422 174.516C203.406 176.438 201.938 177.766 199.938 177.781C197.922 177.766 196.453 176.438 196.453 174.516C196.453 172.609 197.922 171.266 199.938 171.266ZM199.938 172.484C198.75 172.484 197.859 173.312 197.875 174.516C197.859 175.734 198.75 176.547 199.938 176.531C201.125 176.547 202 175.734 202 174.516C202 173.312 201.125 172.484 199.938 172.484ZM220.969 170.922V172.109H211.328V167.328H212.797V170.922H220.969ZM222.438 173.875V175.062H209.625V173.875H222.438ZM221.062 179.281V180.5H211.219V176.391H212.703V179.281H221.062ZM231.25 167.469C233.094 167.453 234.516 168.523 234.828 170.094H237.562V166.828H239.047V174.344H237.562V171.312H234.844C234.539 172.922 233.109 174 231.25 174C229.109 174 227.578 172.656 227.578 170.719C227.578 168.812 229.109 167.453 231.25 167.469ZM231.25 168.703C229.922 168.703 229 169.516 229 170.719C229 171.922 229.922 172.75 231.25 172.75C232.547 172.75 233.469 171.922 233.469 170.719C233.469 169.516 232.547 168.703 231.25 168.703ZM231.391 175.016V176.641H237.562V175.016H239.047V180.656H229.922V175.016H231.391ZM231.391 179.438H237.562V177.812H231.391V179.438ZM254 174.859V176.062H248.281V180.812H246.828V176.062H241.188V174.859H254ZM252.391 167.578V173.078H242.797V167.578H252.391ZM244.25 168.766V171.922H250.906V168.766H244.25ZM268.109 172.328V173.547H265.938V180.812H264.453V166.828H265.938V172.328H268.109ZM257.031 168.188V176.062C258.984 176.062 261.023 175.898 263.25 175.438L263.422 176.688C261.031 177.172 258.812 177.297 256.719 177.297H255.562V168.188H257.031ZM283.766 166.828V170.969H285.797V172.203H283.766V177H282.266V166.828H283.766ZM279.969 167.891C279.969 171.562 277.469 174.234 273.375 175.469L272.75 174.281C276.023 173.297 278.062 171.438 278.359 169.125H273.344V167.891H279.969ZM284.344 179.328V180.531H274.875V175.953H276.375V179.328H284.344ZM298.25 166.828V174.453H296.781V171.359H294.156V170.141H296.781V166.828H298.25ZM290.609 175.078V176.688H296.781V175.078H298.25V180.656H289.141V175.078H290.609ZM290.609 179.453H296.781V177.844H290.609V179.453ZM291.609 169.016C291.609 170.75 292.875 172.5 294.984 173.219L294.219 174.375C292.641 173.82 291.484 172.703 290.875 171.312C290.258 172.867 289.039 174.102 287.375 174.688L286.609 173.516C288.766 172.766 290.094 170.922 290.094 169V168.812H287.062V167.609H294.609V168.812H291.609V169.016ZM305.438 169.312C305.438 171.078 306.703 172.812 308.812 173.531L308.047 174.688C306.477 174.141 305.312 173.023 304.703 171.641C304.094 173.18 302.867 174.414 301.203 175L300.438 173.828C302.594 173.094 303.922 171.219 303.922 169.328V168.938H300.891V167.734H308.438V168.938H305.438V169.312ZM312.094 175.906V180.828H310.609V177.109H302.609V175.906H312.094ZM312.094 166.828V175.203H310.609V171.609H308.016V170.391H310.609V166.828H312.094ZM325.859 166.844V177.016H324.375V166.844H325.859ZM326.281 179.328V180.531H316.703V175.984H318.203V179.328H326.281ZM318.266 167.781C320.375 167.781 321.984 169.219 321.984 171.25C321.984 173.312 320.375 174.734 318.266 174.734C316.156 174.734 314.531 173.312 314.531 171.25C314.531 169.219 316.156 167.781 318.266 167.781ZM318.266 169.078C316.953 169.078 315.984 169.969 315.984 171.25C315.984 172.562 316.953 173.438 318.266 173.438C319.547 173.438 320.531 172.562 320.531 171.25C320.531 169.969 319.547 169.078 318.266 169.078ZM43.2109 194.547C46.1016 194.547 47.8516 195.516 47.8516 197.172C47.8516 198.844 46.1016 199.812 43.2109 199.828C40.2891 199.812 38.5078 198.844 38.5078 197.172C38.5078 195.516 40.2891 194.547 43.2109 194.547ZM43.2109 195.719C41.1797 195.719 39.9766 196.234 39.9922 197.172C39.9766 198.109 41.1797 198.641 43.2109 198.641C45.2266 198.641 46.3984 198.109 46.3984 197.172C46.3984 196.234 45.2266 195.719 43.2109 195.719ZM47.7266 185.828V189.25H49.7578V190.516H47.7266V194.188H46.2422V185.828H47.7266ZM38.7266 186.703V188.719H42.3984V186.703H43.8672V193.203H37.2734V186.703H38.7266ZM38.7266 192.016H42.3984V189.891H38.7266V192.016ZM55.6484 187.844C55.6328 189.781 56.9609 191.547 59.1172 192.266L58.3672 193.438C56.75 192.867 55.5312 191.727 54.8984 190.266C54.2734 191.836 53.0469 193.078 51.3828 193.672L50.6328 192.516C52.8203 191.734 54.1328 189.844 54.1328 187.844V186.5H55.6484V187.844ZM62.1641 194.906V199.828H60.6797V196.109H52.6797V194.906H62.1641ZM62.1641 185.828V194.234H60.6797V185.828H62.1641ZM68.9453 186.828C71.1641 186.812 72.7422 188.188 72.7578 190.156C72.7422 192.125 71.1641 193.5 68.9453 193.5C66.7422 193.5 65.1172 192.125 65.1328 190.156C65.1172 188.188 66.7422 186.812 68.9453 186.828ZM68.9453 188.109C67.5859 188.109 66.5859 188.922 66.6016 190.156C66.5859 191.391 67.5859 192.203 68.9453 192.203C70.3047 192.203 71.3047 191.391 71.3047 190.156C71.3047 188.922 70.3047 188.109 68.9453 188.109ZM75.9609 185.828V199.859H74.4766V185.828H75.9609ZM64.4609 195.609C67.0078 195.609 70.5391 195.578 73.6016 195.141L73.7109 196.219C70.5391 196.828 67.1484 196.844 64.6484 196.844L64.4609 195.609ZM94.8828 192.75V193.969H82.1172V192.75H87.7578V191.391H83.7891V186.203H85.2578V187.656H91.7422V186.203H93.2266V191.391H89.2266V192.75H94.8828ZM88.4922 194.875C91.5078 194.875 93.3203 195.766 93.3359 197.344C93.3203 198.938 91.5078 199.812 88.4922 199.797C85.4453 199.812 83.6484 198.938 83.6484 197.344C83.6484 195.766 85.4453 194.875 88.4922 194.875ZM88.4922 196.016C86.3516 196.016 85.1328 196.484 85.1328 197.344C85.1328 198.203 86.3516 198.672 88.4922 198.656C90.6016 198.672 91.8203 198.203 91.8203 197.344C91.8203 196.484 90.6016 196.016 88.4922 196.016ZM85.2578 190.219H91.7422V188.797H85.2578V190.219ZM100.805 189.391C100.789 191.875 102.227 194.406 104.32 195.422L103.398 196.609C101.875 195.82 100.695 194.25 100.086 192.375C99.4531 194.375 98.2266 196.047 96.6328 196.875L95.7109 195.672C97.8672 194.641 99.3203 191.953 99.3203 189.391V187H100.805V189.391ZM106.852 185.828V191.406H109.102V192.672H106.852V199.828H105.367V185.828H106.852ZM121.82 185.828V199.828H120.398V185.828H121.82ZM118.977 186.094V199.141H117.555V192.391H115.977C115.852 195.125 114.68 196.828 112.945 196.812C111.117 196.828 109.93 194.906 109.93 191.875C109.93 188.844 111.117 186.938 112.945 186.953C114.648 186.938 115.805 188.555 115.977 191.188H117.555V186.094H118.977ZM112.945 188.344C111.93 188.344 111.305 189.641 111.305 191.875C111.305 194.109 111.93 195.406 112.945 195.406C113.977 195.406 114.617 194.109 114.617 191.875C114.617 189.641 113.977 188.344 112.945 188.344ZM128.648 189.391C128.648 191.953 130.086 194.5 132.227 195.469L131.32 196.656C129.727 195.859 128.531 194.273 127.914 192.359C127.297 194.375 126.07 196.078 124.461 196.922L123.523 195.719C125.695 194.688 127.148 191.984 127.148 189.391V187H128.648V189.391ZM135.273 185.828V199.859H133.805V191.688H130.68V190.484H133.805V185.828H135.273ZM153.008 185.828V196.219H151.523V192.359H149.336V191.109H151.523V189.641H149.336V188.422H151.523V185.828H153.008ZM149.18 186.922V188.125H147.836V192.812C148.43 192.766 149 192.719 149.555 192.656L149.617 193.75C146.93 194.172 143.789 194.219 141.539 194.234L141.352 192.984L143.055 192.969V188.125H141.742V186.922H149.18ZM153.367 198.328V199.531H143.883V195.375H145.383V198.328H153.367ZM144.492 192.953C145.125 192.938 145.766 192.922 146.414 192.891V188.125H144.492V192.953ZM166.164 185.812V190H168.195V191.25H166.164V196.109H164.68V185.812H166.164ZM166.758 198.328V199.531H157.289V195.031H158.773V198.328H166.758ZM159.102 186.781C161.211 186.781 162.82 188.219 162.836 190.266C162.82 192.297 161.211 193.75 159.102 193.75C156.992 193.75 155.367 192.297 155.383 190.266C155.367 188.219 156.992 186.781 159.102 186.781ZM159.102 188.078C157.82 188.078 156.82 188.969 156.836 190.266C156.82 191.562 157.82 192.453 159.102 192.453C160.398 192.453 161.383 191.562 161.383 190.266C161.383 188.969 160.398 188.078 159.102 188.078ZM179.992 185.828V189.453H182.023V190.719H179.992V194.266H178.508V185.828H179.992ZM179.992 195V199.656H171.055V195H179.992ZM172.508 196.172V198.453H178.523V196.172H172.508ZM177.352 187.25V188.438H169.008V187.25H172.445V185.719H173.93V187.25H177.352ZM173.18 189.047C175.195 189.047 176.57 190.047 176.57 191.547C176.57 193.062 175.195 194.047 173.18 194.062C171.133 194.047 169.773 193.062 169.773 191.547C169.773 190.047 171.133 189.047 173.18 189.047ZM173.18 190.188C171.992 190.172 171.195 190.703 171.211 191.547C171.195 192.422 171.992 192.938 173.18 192.938C174.367 192.938 175.164 192.422 175.18 191.547C175.164 190.703 174.367 190.172 173.18 190.188ZM190.617 187.328V188.188C190.617 189.359 190.617 191.172 190.211 193.672L188.742 193.562C189.094 191.32 189.133 189.703 189.148 188.531H183.461V187.328H190.617ZM187.023 191.328V195.516C188.516 195.469 190.031 195.367 191.43 195.188L191.508 196.297C188.586 196.766 185.336 196.828 182.852 196.812L182.68 195.609C183.555 195.602 184.531 195.594 185.555 195.562V191.328H187.023ZM193.727 185.828V191.609H195.867V192.875H193.727V199.828H192.227V185.828H193.727ZM205.523 187.922C205.523 189.891 206.789 191.641 208.914 192.328L208.102 193.484C206.562 192.93 205.43 191.852 204.82 190.453C204.211 192.055 202.992 193.297 201.305 193.906L200.508 192.719C202.742 191.953 204.039 190.094 204.055 187.984V186.609H205.523V187.922ZM212.227 185.828V194.094H210.742V189.891H207.789V188.672H210.742V185.828H212.227ZM207.539 194.484C210.477 194.484 212.273 195.453 212.273 197.156C212.273 198.844 210.477 199.812 207.539 199.797C204.602 199.812 202.789 198.844 202.805 197.156C202.789 195.453 204.602 194.484 207.539 194.484ZM207.539 195.641C205.492 195.641 204.273 196.188 204.273 197.156C204.273 198.094 205.492 198.625 207.539 198.625C209.586 198.625 210.805 198.094 210.805 197.156C210.805 196.188 209.586 195.641 207.539 195.641ZM219.789 188.531C219.789 189.859 221.039 191 223.086 191.438L222.477 192.594C220.867 192.234 219.688 191.43 219.07 190.359C218.469 191.523 217.266 192.398 215.602 192.781L214.977 191.625C217.039 191.188 218.305 189.922 218.305 188.531H215.289V187.359H218.305V185.859H219.789V187.359H222.789V188.531H219.789ZM226.023 185.844V199.828H224.555V185.844H226.023ZM214.367 193.641C217.023 193.641 220.539 193.625 223.586 193.234L223.695 194.312C222.414 194.523 221.094 194.656 219.805 194.734V199.406H218.32V194.812C216.977 194.867 215.695 194.875 214.57 194.875L214.367 193.641ZM239.211 185.828V189.125H241.242V190.359H239.211V193.734H237.727V185.828H239.211ZM235.352 186.703C235.336 190.297 232.914 192.812 228.742 193.938L228.148 192.75C231.492 191.867 233.469 190.109 233.742 187.922H228.805V186.703H235.352ZM239.211 194.328V199.641H230.242V194.328H239.211ZM231.727 195.562V198.453H237.742V195.562H231.727ZM248.414 186.062C251.57 186.062 253.414 186.906 253.414 188.469C253.414 190.031 251.57 190.891 248.414 190.891C245.258 190.891 243.414 190.031 243.414 188.469C243.414 186.906 245.258 186.062 248.414 186.062ZM248.414 187.156C246.18 187.156 244.945 187.641 244.961 188.469C244.945 189.328 246.18 189.781 248.414 189.781C250.648 189.781 251.883 189.328 251.883 188.469C251.883 187.641 250.648 187.156 248.414 187.156ZM254.805 191.75V192.938H242.039V191.75H254.805ZM253.195 194.016V197.297H245.039V198.547H253.586V199.688H243.586V196.219H251.727V195.125H243.57V194.016H253.195ZM271.133 192.109V193.328H261.305V187.047H262.789V192.109H271.133ZM272.586 196.734V197.984H259.773V196.734H272.586ZM285.195 185.828V193.359H283.711V185.828H285.195ZM277.477 194.047V195.656H283.727V194.047H285.195V199.641H276.023V194.047H277.477ZM277.477 198.453H283.727V196.844H277.477V198.453ZM277.93 186.625C277.914 189.484 277.07 191.406 274.695 193.047L273.742 192.094C275.453 190.953 276.281 189.734 276.492 187.828H274.18V186.625H277.93ZM281.93 186.625C281.914 189.516 281.242 191.766 278.93 193.656L277.852 192.781C279.609 191.414 280.359 189.898 280.539 187.828H278.477V186.625H281.93ZM299.055 185.828V199.828H297.57V185.828H299.055ZM289.758 187.188V194.984C291.797 194.969 293.945 194.805 296.195 194.344L296.398 195.594C293.914 196.094 291.664 196.266 289.461 196.266H288.289V187.188H289.758ZM312.164 185.828V191.25H314.414V192.469H312.164V199.859H310.68V185.828H312.164ZM308.398 187.172V188.375H303.336V195.141C305.688 195.133 307.453 195.031 309.445 194.672L309.633 195.922C307.445 196.312 305.586 196.391 302.977 196.375H301.852V187.172H308.398ZM316.68 198.609C316.07 198.609 315.555 198.109 315.57 197.5C315.555 196.891 316.07 196.391 316.68 196.391C317.273 196.391 317.789 196.891 317.789 197.5C317.789 198.109 317.273 198.609 316.68 198.609Z" fill="black"/>
</g>
<defs>
<filter id="filter0_i_44_249" x="0" y="0" width="356" height="245" filterUnits="userSpaceOnUse" color-interpolation-filters="sRGB">
<feFlood flood-opacity="0" result="BackgroundImageFix"/>
<feBlend mode="normal" in="SourceGraphic" in2="BackgroundImageFix" result="shape"/>
<feColorMatrix in="SourceAlpha" type="matrix" values="0 0 0 0 0 0 0 0 0 0 0 0 0 0 0 0 0 0 127 0" result="hardAlpha"/>
<feOffset dx="1" dy="1"/>
<feGaussianBlur stdDeviation="3"/>
<feComposite in2="hardAlpha" operator="arithmetic" k2="-1" k3="1"/>
<feColorMatrix type="matrix" values="0 0 0 0 0 0 0 0 0 0 0 0 0 0 0 0 0 0 0.25 0"/>
<feBlend mode="normal" in2="shape" result="effect1_innerShadow_44_249"/>
</filter>
</defs>
</svg>
